<svg width="285" height="235" viewBox="0 0 285 235" fill="none" xmlns="http://www.w3.org/2000/svg">
<g opacity="0.4">
<path opacity="0.4" d="M247.814 64.3326L225.627 51.5181L247.814 38.7148L248.005 38.8273L269.989 51.5181L247.814 64.3326ZM227.191 51.5181L247.814 63.4213L268.425 51.5181L247.814 39.6261L227.191 51.5181Z" fill="white"/>
<path opacity="0.4" d="M205.016 64.3326L182.83 51.5181L205.016 38.7148L227.191 51.5181L205.016 64.3326ZM184.405 51.5181L205.016 63.4213L225.627 51.5181L205.016 39.6149L184.405 51.5181Z" fill="white"/>
<path opacity="0.4" d="M226.415 76.6857L226.212 76.5732L204.229 63.8262L226.415 51.0229L248.601 63.8262L226.415 76.6857ZM205.804 63.8262L226.415 75.7294L247.026 63.8262L226.415 51.9793L205.804 63.8262Z" fill="white"/>
<path opacity="0.4" d="M247.814 89.0387L247.611 88.9262L225.627 76.2017L247.814 63.3984L248.005 63.5109L270 76.2017L247.814 89.0387ZM227.203 76.2017L247.814 88.1274L268.425 76.2017L247.814 64.3322L227.203 76.2017Z" fill="white"/>
<path opacity="0.4" d="M162.219 64.3326L162.016 64.2201L140.033 51.5181L162.219 38.7148L162.41 38.8273L184.405 51.5181L162.219 64.3326ZM141.608 51.5181L162.219 63.4213L182.83 51.5181L162.219 39.6149L141.608 51.5181Z" fill="white"/>
<path opacity="0.4" d="M183.617 76.6857L161.431 63.8262L183.617 51.0229L205.804 63.8262L183.617 76.6857ZM163.006 63.8262L183.617 75.7294L204.229 63.8262L183.617 51.9793L163.006 63.8262Z" fill="white"/>
<path opacity="0.4" d="M205.016 89.0387L204.814 88.9262L182.83 76.2017L205.016 63.3984L205.207 63.5109L227.202 76.2017L205.016 89.0387ZM184.405 76.2017L205.016 88.1274L225.627 76.2017L205.016 64.3322L184.405 76.2017Z" fill="white"/>
<path opacity="0.4" d="M226.415 101.393L226.212 101.28L204.229 88.5782L226.415 75.7637L226.606 75.8762L248.601 88.5782L226.415 101.393ZM205.804 88.5782L226.415 100.47L247.026 88.5782L226.415 76.6862L205.804 88.5782Z" fill="white"/>
<path opacity="0.4" d="M247.814 113.745L247.611 113.633L225.627 100.953L247.814 88.1274L270 100.953L247.814 113.745ZM227.203 100.953L247.814 112.845L268.425 100.953L247.814 89.0388L227.203 100.953Z" fill="white"/>
<path opacity="0.4" d="M119.421 64.3326L119.219 64.2201L97.2351 51.5181L119.421 38.7148L119.613 38.8273L141.608 51.5181L119.421 64.3326ZM98.8102 51.5181L119.421 63.4213L140.033 51.5181L119.421 39.6149L98.8102 51.5181Z" fill="white"/>
<path opacity="0.4" d="M140.82 76.6857L140.618 76.5732L118.634 63.8262L140.82 51.0229L141.011 51.1355L163.006 63.8262L140.82 76.6857ZM120.209 63.8262L140.82 75.7294L161.431 63.8262L140.82 51.968L120.209 63.8262Z" fill="white"/>
<path opacity="0.4" d="M162.219 89.0387L162.016 88.9262L140.033 76.2017L162.219 63.3984L184.405 76.2017L162.219 89.0387ZM141.608 76.2017L162.219 88.1274L182.83 76.2017L162.219 64.3322L141.608 76.2017Z" fill="white"/>
<path opacity="0.4" d="M183.617 101.393L161.431 88.5782L183.617 75.7637L183.809 75.8762L205.804 88.5782L183.617 101.393ZM163.006 88.5782L183.617 100.47L204.229 88.5782L183.617 76.6862L163.006 88.5782Z" fill="white"/>
<path opacity="0.4" d="M205.016 113.745L204.814 113.633L182.83 100.953L205.016 88.1274L205.207 88.2399L227.202 100.953L205.016 113.745ZM184.405 100.953L205.016 112.845L225.627 100.953L205.016 89.0388L184.405 100.953Z" fill="white"/>
<path opacity="0.4" d="M226.415 126.099L226.212 125.986L204.229 113.329L226.415 100.515L226.606 100.627L248.601 113.329L226.415 126.099ZM205.804 113.329L226.415 125.232L247.026 113.329L226.415 101.392L205.804 113.329Z" fill="white"/>
<path opacity="0.4" d="M247.814 138.452L247.611 138.34L225.627 125.705L247.814 112.891L248.005 113.014L270 125.705L247.814 138.452ZM227.203 125.705L247.814 137.608L268.425 125.705L247.814 113.802L227.203 125.705Z" fill="white"/>
<path opacity="0.4" d="M76.6238 64.3326L76.4213 64.2088L54.4375 51.5181L76.6238 38.7148L76.815 38.8273L98.8101 51.5181L76.6238 64.3326ZM56.0126 51.5181L76.6238 63.4213L97.235 51.5181L76.6238 39.6149L56.0126 51.5181Z" fill="white"/>
<path opacity="0.4" d="M98.0227 76.6856L75.8364 63.8261L98.0227 51.0679L98.214 51.1804L120.209 63.8261L98.0227 76.6856ZM77.4115 63.8261L98.0227 75.7743L118.634 63.8261L98.0227 51.9679L77.4115 63.8261Z" fill="white"/>
<path opacity="0.4" d="M119.421 89.0387L119.23 88.9262L97.2351 76.2017L119.421 63.3984L119.613 63.5109L141.608 76.2017L119.421 89.0387ZM98.8102 76.2017L119.421 88.1274L140.033 76.2017L119.421 64.3322L98.8102 76.2017Z" fill="white"/>
<path opacity="0.4" d="M140.82 101.393L140.629 101.28L118.634 88.5782L140.82 75.7637L141.011 75.8762L163.006 88.5782L140.82 101.393ZM120.209 88.5782L140.82 100.47L161.431 88.5782L140.82 76.6862L120.209 88.5782Z" fill="white"/>
<path opacity="0.4" d="M162.219 113.745L140.033 100.953L162.219 88.1274L184.405 100.953L162.219 113.745ZM141.608 100.953L162.219 112.845L182.83 100.953L162.219 89.0388L141.608 100.953Z" fill="white"/>
<path opacity="0.4" d="M183.617 126.099L183.415 125.986L161.431 113.329L183.617 100.515L183.809 100.627L205.804 113.329L183.617 126.099ZM163.006 113.329L183.617 125.232L204.229 113.329L183.617 101.392L163.006 113.329Z" fill="white"/>
<path opacity="0.4" d="M205.016 138.452L182.83 125.705L205.016 112.891L205.207 113.014L227.202 125.705L205.016 138.452ZM184.405 125.705L205.016 137.608L225.627 125.705L205.016 113.802L184.405 125.705Z" fill="white"/>
<path opacity="0.4" d="M226.415 150.805L226.224 150.693L204.229 138.002L226.415 125.199L226.606 125.311L248.601 138.002L226.415 150.805ZM205.804 138.002L226.415 149.905L247.026 138.002L226.415 126.099L205.804 138.002Z" fill="white"/>
<path opacity="0.4" d="M247.814 163.17L247.622 163.046L225.627 150.355L247.814 137.552L248.005 137.664L270 150.355L247.814 163.17ZM227.203 150.355L247.814 162.258L268.425 150.355L247.814 138.452L227.203 150.355Z" fill="white"/>
<path opacity="0.4" d="M33.8262 64.3326L33.6349 64.2088L11.6399 51.5181L33.8262 38.7148L34.0174 38.8273L56.0125 51.5181L33.8262 64.3326ZM13.1812 51.5181L33.8262 63.4213L54.4374 51.5181L33.8262 39.6149L13.1812 51.5181Z" fill="white"/>
<path opacity="0.4" d="M55.2251 76.6856L55.0338 76.5731L33.0388 63.8261L55.2251 51.0679L55.4164 51.1804L77.4114 63.8261L55.2251 76.6856ZM34.6139 63.8261L55.2251 75.7743L75.8363 63.8261L55.2251 51.9679L34.6139 63.8261Z" fill="white"/>
<path opacity="0.4" d="M76.6238 89.0386L76.4325 88.9261L54.4375 76.2016L76.6238 63.4209L98.8101 76.2016L76.6238 89.0386ZM56.0126 76.2016L76.6238 88.1273L97.235 76.2016L76.6238 64.3322L56.0126 76.2016Z" fill="white"/>
<path opacity="0.4" d="M98.0227 101.392L75.8364 88.5777L98.0227 75.7744L98.214 75.8869L120.209 88.5777L98.0227 101.392ZM77.4115 88.5777L98.0227 100.481L118.634 88.5777L98.0227 76.6857L77.4115 88.5777Z" fill="white"/>
<path opacity="0.4" d="M119.421 113.745L119.23 113.633L97.2351 100.953L119.421 88.1274L119.613 88.2399L141.608 100.953L119.421 113.745ZM98.8102 100.953L119.421 112.845L140.033 100.953L119.421 89.0388L98.8102 100.953Z" fill="white"/>
<path opacity="0.4" d="M140.82 126.099L118.634 113.329L140.82 100.515L163.006 113.329L140.82 126.099ZM120.209 113.329L140.82 125.232L161.431 113.329L140.82 101.392L120.209 113.329Z" fill="white"/>
<path opacity="0.4" d="M162.219 138.452L162.028 138.34L140.033 125.705L162.219 112.891L162.41 113.014L184.405 125.705L162.219 138.452ZM141.608 125.705L162.219 137.608L182.83 125.705L162.219 113.802L141.608 125.705Z" fill="white"/>
<path opacity="0.4" d="M183.617 150.805L183.426 150.693L161.431 138.002L183.617 125.199L205.804 138.002L183.617 150.805ZM163.006 138.002L183.617 149.905L204.229 138.002L183.617 126.099L163.006 138.002Z" fill="white"/>
<path opacity="0.4" d="M205.016 163.17L182.83 150.355L205.016 137.552L205.207 137.664L227.202 150.355L205.016 163.17ZM184.405 150.355L205.016 162.258L225.627 150.355L205.016 138.452L184.405 150.355Z" fill="white"/>
<path opacity="0.4" d="M226.415 175.523L226.224 175.411L204.229 162.709L226.415 149.905L226.606 150.018L248.601 162.709L226.415 175.523ZM205.804 162.709L226.415 174.612L247.026 162.709L226.415 150.805L205.804 162.709Z" fill="white"/>
<path opacity="0.4" d="M247.814 187.876L247.622 187.764L225.627 175.062L247.814 162.258L248.005 162.371L270 175.062L247.814 187.876ZM227.203 175.062L247.814 186.965L268.425 175.062L247.814 163.17L227.203 175.062Z" fill="white"/>
<path opacity="0.4" d="M33.8262 89.0386L33.6349 88.9261L11.6399 76.2016L33.8262 63.4209L34.0174 63.5334L56.0125 76.2016L33.8262 89.0386ZM13.1812 76.2016L33.8262 88.1273L54.4374 76.2016L33.8262 64.3322L13.1812 76.2016Z" fill="white"/>
<path opacity="0.4" d="M55.2251 101.392L55.0338 101.28L33.0388 88.5777L55.2251 75.7744L55.4164 75.8869L77.4114 88.5777L55.2251 101.392ZM34.6139 88.5777L55.2251 100.481L75.8363 88.5777L55.2251 76.6857L34.6139 88.5777Z" fill="white"/>
<path opacity="0.4" d="M76.6238 113.745L76.4325 113.633L54.4375 100.953L76.6238 88.1274L98.8101 100.953L76.6238 113.745ZM56.0126 100.953L76.6238 112.845L97.235 100.953L76.6238 89.0388L56.0126 100.953Z" fill="white"/>
<path opacity="0.4" d="M98.0227 126.098L97.8314 125.986L75.8364 113.329L98.0227 100.48L98.214 100.593L120.209 113.329L98.0227 126.098ZM77.4115 113.329L98.0227 125.221L118.634 113.329L98.0227 101.392L77.4115 113.329Z" fill="white"/>
<path opacity="0.4" d="M119.421 138.452L97.2351 125.705L119.421 112.891L141.608 125.705L119.421 138.452ZM98.8102 125.705L119.421 137.608L140.033 125.705L119.421 113.802L98.8102 125.705Z" fill="white"/>
<path opacity="0.4" d="M140.82 150.805L118.634 138.002L140.82 125.199L141.011 125.311L163.006 138.002L140.82 150.805ZM120.209 138.002L140.82 149.905L161.431 138.002L140.82 126.099L120.209 138.002Z" fill="white"/>
<path opacity="0.4" d="M162.219 163.158L162.028 163.046L140.033 150.355L162.219 137.552L162.41 137.664L184.405 150.355L162.219 163.158ZM141.608 150.355L162.219 162.258L182.83 150.355L162.219 138.452L141.608 150.355Z" fill="white"/>
<path opacity="0.4" d="M183.617 175.523L183.426 175.411L161.431 162.709L183.617 149.905L205.804 162.709L183.617 175.523ZM163.006 162.709L183.617 174.612L204.229 162.709L183.617 150.805L163.006 162.709Z" fill="white"/>
<path opacity="0.4" d="M205.016 187.876L204.825 187.764L182.83 175.062L205.016 162.258L205.207 162.371L227.202 175.062L205.016 187.876ZM184.405 175.062L205.016 186.965L225.627 175.062L205.016 163.17L184.405 175.062Z" fill="white"/>
<path opacity="0.4" d="M226.415 200.229L204.229 187.415L226.415 174.611L226.606 174.724L248.601 187.415L226.415 200.229ZM205.804 187.415L226.415 199.318L247.026 187.415L226.415 175.523L205.804 187.415Z" fill="white"/>
<path opacity="0.4" d="M247.814 212.583L247.622 212.47L225.627 199.779L247.814 186.965L248.005 187.077L270 199.779L247.814 212.583ZM227.203 199.779L247.814 211.671L268.425 199.779L247.814 187.876L227.203 199.779Z" fill="white"/>
<path opacity="0.4" d="M33.8262 113.745L11.6399 100.953L33.8262 88.1274L34.0174 88.2399L56.0125 100.953L33.8262 113.745ZM13.1812 100.953L33.7924 112.845L54.4374 100.953L33.8262 89.0388L13.1812 100.953Z" fill="white"/>
<path opacity="0.4" d="M55.2251 126.098L55.0338 125.986L33.0388 113.329L55.2251 100.48L55.4164 100.593L77.4114 113.329L55.2251 126.098ZM34.6139 113.329L55.2251 125.221L75.8363 113.329L55.2251 101.392L34.6139 113.329Z" fill="white"/>
<path opacity="0.4" d="M76.6238 138.452L76.4325 138.34L54.4375 125.705L76.6238 112.891L76.815 113.003L98.8101 125.705L76.6238 138.452ZM56.0126 125.705L76.6238 137.608L97.235 125.705L76.6238 113.746L56.0126 125.705Z" fill="white"/>
<path opacity="0.4" d="M98.0227 150.805L97.8314 150.692L75.8364 138.002L98.0227 125.187L120.209 138.002L98.0227 150.805ZM77.4115 138.002L98.0227 149.905L118.634 138.002L98.0227 126.098L77.4115 138.002Z" fill="white"/>
<path opacity="0.4" d="M119.421 163.158L97.2351 150.355L119.421 137.552L141.608 150.355L119.421 163.158ZM98.8102 150.355L119.421 162.258L140.033 150.355L119.421 138.452L98.8102 150.355Z" fill="white"/>
<path opacity="0.4" d="M140.82 175.523L118.634 162.709L140.82 149.905L141.011 150.018L163.006 162.709L140.82 175.523ZM120.209 162.709L140.82 174.612L161.431 162.709L140.82 150.805L120.209 162.709Z" fill="white"/>
<path opacity="0.4" d="M162.219 187.876L162.028 187.764L140.033 175.062L162.219 162.258L162.41 162.371L184.405 175.062L162.219 187.876ZM141.608 175.062L162.219 186.965L182.83 175.062L162.219 163.158L141.608 175.062Z" fill="white"/>
<path opacity="0.4" d="M183.617 200.229L183.426 200.117L161.431 187.415L183.617 174.611L183.809 174.724L205.804 187.415L183.617 200.229ZM163.006 187.415L183.617 199.318L204.229 187.415L183.617 175.523L163.006 187.415Z" fill="white"/>
<path opacity="0.4" d="M205.016 212.583L204.825 212.47L182.83 199.779L205.016 186.965L227.202 199.779L205.016 212.583ZM184.405 199.779L205.016 211.671L225.627 199.779L205.016 187.876L184.405 199.779Z" fill="white"/>
<path opacity="0.4" d="M33.8262 138.452L11.6399 125.705L33.8262 112.891L34.0174 113.003L56.0125 125.705L33.8262 138.452ZM13.1812 125.705L33.7924 137.608L54.4374 125.705L33.8262 113.746L13.1812 125.705Z" fill="white"/>
<path opacity="0.4" d="M55.2251 150.805L55.0338 150.692L33.0388 138.002L55.2251 125.187L55.4164 125.311L77.4114 138.002L55.2251 150.805ZM34.6139 138.002L55.2251 149.905L75.8363 138.002L55.2251 126.098L34.6139 138.002Z" fill="white"/>
<path opacity="0.4" d="M76.6238 163.158L76.4325 163.046L54.4375 150.355L76.6238 137.552L76.8263 137.664L98.8101 150.355L76.6238 163.158ZM56.0126 150.355L76.6238 162.258L97.235 150.355L76.6238 138.452L56.0126 150.355Z" fill="white"/>
<path opacity="0.4" d="M98.0227 175.523L75.8364 162.709L98.0227 149.905L120.209 162.709L98.0227 175.523ZM77.4115 162.709L98.0227 174.612L118.634 162.709L98.0227 150.805L77.4115 162.709Z" fill="white"/>
<path opacity="0.4" d="M119.421 187.876L119.23 187.764L97.2351 175.062L119.421 162.258L141.608 175.062L119.421 187.876ZM98.8102 175.062L119.421 186.965L140.033 175.062L119.421 163.158L98.8102 175.062Z" fill="white"/>
<path opacity="0.4" d="M140.82 200.229L118.634 187.415L140.82 174.611L141.011 174.724L163.006 187.415L140.82 200.229ZM120.209 187.415L140.82 199.318L161.431 187.415L140.82 175.523L120.209 187.415Z" fill="white"/>
<path opacity="0.4" d="M162.219 212.583L162.028 212.47L140.033 199.779L162.219 186.965L162.41 187.077L184.405 199.779L162.219 212.583ZM141.608 199.779L162.219 211.671L182.83 199.779L162.219 187.876L141.608 199.779Z" fill="white"/>
<path opacity="0.4" d="M33.8262 163.158L33.6349 163.046L11.6399 150.355L33.8262 137.552L34.0287 137.664L56.0125 150.355L33.8262 163.158ZM13.1812 150.355L33.7924 162.258L54.4036 150.355L33.8262 138.452L13.1812 150.355Z" fill="white"/>
<path opacity="0.4" d="M55.2251 175.523L33.0388 162.709L55.2251 149.905L55.4276 150.018L77.4114 162.709L55.2251 175.523ZM34.6139 162.709L55.2251 174.612L75.8363 162.709L55.2251 150.805L34.6139 162.709Z" fill="white"/>
<path opacity="0.4" d="M76.6238 187.876L76.4325 187.764L54.4375 175.062L76.6238 162.258L98.8101 175.062L76.6238 187.876ZM56.0126 175.062L76.6238 186.965L97.235 175.062L76.6238 163.158L56.0126 175.062Z" fill="white"/>
<path opacity="0.4" d="M98.0227 200.229L75.8364 187.415L98.0227 174.611L98.2252 174.724L120.209 187.415L98.0227 200.229ZM77.4115 187.415L98.0227 199.318L118.634 187.415L98.0227 175.523L77.4115 187.415Z" fill="white"/>
<path opacity="0.4" d="M119.421 212.583L119.23 212.47L97.2351 199.768L119.421 186.965L141.608 199.779L119.421 212.583ZM98.8102 199.768L119.421 211.671L140.033 199.779L119.421 187.876L98.8102 199.768Z" fill="white"/>
<path opacity="0.4" d="M33.8262 187.876L33.6349 187.752L11.6399 175.062L33.8262 162.258L56.0125 175.062L33.8262 187.876ZM13.1812 175.062L33.7924 186.965L54.4036 175.062L33.8262 163.158L13.1812 175.062Z" fill="white"/>
<path opacity="0.4" d="M55.2251 200.229L55.0338 200.117L33.0388 187.415L55.2251 174.611L55.4276 174.724L77.4114 187.415L55.2251 200.229ZM34.6139 187.415L55.2251 199.318L75.8363 187.415L55.2251 175.523L34.6139 187.415Z" fill="white"/>
<path opacity="0.4" d="M76.6238 212.583L54.4375 199.768L76.6238 186.965L98.8101 199.768L76.6238 212.583ZM56.0126 199.768L76.6238 211.671L97.235 199.768L76.6238 187.876L56.0126 199.768Z" fill="white"/>
<path opacity="0.4" d="M33.8264 212.583L33.6351 212.47L11.6514 199.768L33.8264 186.965L34.0289 187.077L56.0127 199.768L33.8264 212.583ZM13.1815 199.768L33.7927 211.671L54.4039 199.768L33.8264 187.876L13.1815 199.768Z" fill="white"/>
</g>
<path d="M66.3522 51.4612L62.2119 53.8464V49.0648L66.3522 46.6797V51.4612Z" fill="white"/>
<path d="M72.1009 48.0974L67.9607 50.4938V45.7123L72.1009 43.3159V48.0974Z" fill="white"/>
<path d="M66.3971 57.6609L62.2568 60.0461V55.2645L66.3971 52.8794V57.6609Z" fill="white"/>
<path d="M72.1009 54.364L67.9607 56.7492V51.9677L72.1009 49.5825V54.364Z" fill="white"/>
<path opacity="0.2" d="M235.235 4.05163C234.467 4.50992 233.782 5.09584 233.21 5.78423C233.12 1.80149 230.263 0.1589 226.741 2.24027C225.55 2.95268 224.495 3.8707 223.625 4.95168C222.05 2.21777 218.81 1.57648 215.041 3.74786C209.742 6.80804 205.455 14.2447 205.455 20.3538C205.455 20.8315 205.485 21.3087 205.545 21.7827C204.615 21.6072 203.653 21.8053 202.867 22.3339C201.531 23.2031 200.419 24.3755 199.621 25.7557C198.823 27.136 198.363 28.6851 198.277 30.2769C198.277 33.2021 200.325 34.3834 202.867 32.9208L235.235 14.2335C236.52 13.3974 237.589 12.2697 238.356 10.9422C239.122 9.61473 239.564 8.12496 239.646 6.59427C239.646 3.78161 237.677 2.64529 235.235 4.05163Z" fill="white"/>
<path opacity="0.5" d="M241.007 9.12547C240.241 9.59129 239.556 10.1805 238.982 10.8693C238.892 6.87533 236.023 5.24399 232.501 7.32536C231.316 8.04113 230.265 8.95876 229.396 10.0368C227.821 7.30286 224.57 6.66157 220.812 8.83295C215.513 11.8931 211.227 19.3298 211.227 25.4389C211.227 25.9166 211.257 26.3938 211.317 26.8677C210.384 26.6945 209.421 26.8879 208.628 27.4078C207.292 28.2793 206.181 29.454 205.385 30.8363C204.589 32.2185 204.131 33.7692 204.049 35.362C204.049 38.2872 206.096 39.4685 208.628 38.0059L241.007 19.3186C242.29 18.4805 243.358 17.3524 244.124 16.0253C244.89 14.6982 245.333 13.2094 245.417 11.6794C245.417 8.8667 243.437 7.71913 241.007 9.12547Z" fill="white"/>
<path d="M51.141 219.591L35.1201 210.343L51.141 201.095L67.162 210.343L51.141 219.591Z" fill="#7DC3EA"/>
<path d="M51.141 213.865C50.9276 213.871 50.7169 213.816 50.5334 213.707L34.5575 204.459C34.3728 204.351 34.2195 204.197 34.1129 204.011C34.0063 203.826 33.9502 203.616 33.95 203.402C33.9513 203.188 34.0079 202.978 34.1144 202.793C34.2209 202.608 34.3735 202.453 34.5575 202.344L50.5334 193.096C50.7185 192.991 50.9279 192.935 51.141 192.935C51.354 192.935 51.5634 192.991 51.7485 193.096L67.7694 202.344C67.9534 202.453 68.106 202.608 68.2125 202.793C68.319 202.978 68.3756 203.188 68.3769 203.402C68.3767 203.616 68.3206 203.826 68.214 204.011C68.1074 204.197 67.9541 204.351 67.7694 204.459L51.7485 213.707C51.565 213.816 51.3543 213.871 51.141 213.865ZM37.5614 203.402L51.141 211.277L64.7205 203.402L51.141 195.526L37.5614 203.402Z" fill="white"/>
<path d="M67.1623 196.179L51.1414 205.427V186.931L67.1623 177.683V196.179Z" fill="url(#paint0_radial)"/>
<path d="M51.141 186.931L35.1201 177.683L51.141 168.435L67.162 177.683L51.141 186.931Z" fill="url(#paint1_linear)"/>
<path d="M51.141 205.427L35.1201 196.179V177.683L51.141 186.931V205.427Z" fill="url(#paint2_radial)"/>
<path d="M45.3694 195.436L40.8916 192.849V187.673L45.3694 190.261V195.436Z" fill="white"/>
<path d="M230.499 119.967L214.478 110.719L230.499 101.471L246.52 110.719L230.499 119.967Z" fill="#7DC3EA"/>
<path d="M230.499 114.24C230.286 114.239 230.078 114.185 229.891 114.083L213.87 104.835C213.686 104.727 213.533 104.572 213.427 104.387C213.321 104.201 213.265 103.991 213.265 103.777C213.265 103.563 213.321 103.353 213.427 103.168C213.533 102.982 213.686 102.828 213.87 102.72L229.891 93.4716C230.076 93.3661 230.286 93.3105 230.499 93.3105C230.712 93.3105 230.921 93.3661 231.106 93.4716L247.127 102.72C247.312 102.828 247.465 102.982 247.571 103.168C247.677 103.353 247.733 103.563 247.733 103.777C247.733 103.991 247.677 104.201 247.571 104.387C247.465 104.572 247.312 104.727 247.127 104.835L231.106 114.083C230.92 114.185 230.711 114.239 230.499 114.24ZM216.919 103.777L230.499 111.653L244.078 103.777L230.499 95.9018L216.919 103.777Z" fill="white"/>
<path d="M246.52 96.5542L230.499 105.802V87.3061L246.52 78.0581V96.5542Z" fill="url(#paint3_radial)"/>
<path d="M230.499 87.3066L214.478 78.0586L230.499 68.8105L246.52 78.0586L230.499 87.3066Z" fill="url(#paint4_linear)"/>
<path d="M230.499 105.802L214.478 96.5542V78.0581L230.499 87.3061V105.802Z" fill="url(#paint5_radial)"/>
<path d="M224.727 95.8113L220.25 93.2236V88.0483L224.727 90.636V95.8113Z" fill="white"/>
<path d="M226.021 78.1034L230.466 75.4707L234.977 78.0021L230.533 80.646L226.021 78.1034Z" fill="white"/>
<path d="M230.499 219.591L214.478 210.343L230.499 201.095L246.52 210.343L230.499 219.591Z" fill="#7DC3EA"/>
<path d="M230.499 213.865C230.285 213.871 230.075 213.816 229.891 213.707L213.87 204.459C213.686 204.351 213.532 204.197 213.426 204.011C213.319 203.826 213.263 203.616 213.263 203.402C213.264 203.188 213.321 202.978 213.427 202.793C213.534 202.608 213.686 202.453 213.87 202.344L229.891 193.096C230.076 192.991 230.286 192.935 230.499 192.935C230.712 192.935 230.921 192.991 231.106 193.096L247.127 202.344C247.311 202.453 247.464 202.608 247.57 202.793C247.677 202.978 247.733 203.188 247.735 203.402C247.734 203.616 247.678 203.826 247.572 204.011C247.465 204.197 247.312 204.351 247.127 204.459L231.106 213.707C230.923 213.816 230.712 213.871 230.499 213.865ZM216.919 203.402L230.499 211.277L244.078 203.402L230.499 195.526L216.919 203.402Z" fill="white"/>
<path d="M246.52 196.179L230.499 205.427V186.931L246.52 177.683V196.179Z" fill="url(#paint6_radial)"/>
<path d="M230.499 186.931L214.478 177.683L230.499 168.435L246.52 177.683L230.499 186.931Z" fill="url(#paint7_linear)"/>
<path d="M230.499 205.427L214.478 196.179V177.683L230.499 186.931V205.427Z" fill="url(#paint8_radial)"/>
<path d="M224.727 195.436L220.25 192.849V187.673L224.727 190.261V195.436Z" fill="white"/>
<path d="M51.141 119.967L35.1201 110.719L51.141 101.471L67.162 110.719L51.141 119.967Z" fill="#7DC3EA"/>
<path d="M51.1411 114.24C50.9287 114.239 50.7199 114.185 50.5336 114.083L34.5576 104.835C34.3733 104.727 34.2204 104.572 34.1142 104.387C34.008 104.201 33.9521 103.991 33.9521 103.777C33.9521 103.563 34.008 103.353 34.1142 103.168C34.2204 102.982 34.3733 102.828 34.5576 102.72L50.5336 93.4716C50.7187 93.3661 50.928 93.3105 51.1411 93.3105C51.3542 93.3105 51.5636 93.3661 51.7486 93.4716L67.7696 102.72C67.9539 102.828 68.1068 102.982 68.213 103.168C68.3192 103.353 68.3751 103.563 68.3751 103.777C68.3751 103.991 68.3192 104.201 68.213 104.387C68.1068 104.572 67.9539 104.727 67.7696 104.835L51.7486 114.083C51.5623 114.185 51.3535 114.239 51.1411 114.24ZM37.5616 103.777L51.1411 111.653L64.7206 103.777L51.1411 95.9018L37.5616 103.777Z" fill="white"/>
<path d="M67.1623 96.5542L51.1414 105.802V87.3061L67.1623 78.0581V96.5542Z" fill="url(#paint9_radial)"/>
<path d="M51.141 87.3066L35.1201 78.0586L51.141 68.8105L67.162 78.0586L51.141 87.3066Z" fill="url(#paint10_linear)"/>
<path d="M51.141 105.802L35.1201 96.5542V78.0581L51.141 87.3061V105.802Z" fill="url(#paint11_radial)"/>
<path d="M45.3694 95.8113L40.8916 93.2236V88.0483L45.3694 90.636V95.8113Z" fill="white"/>
<path d="M137.04 185.333L95.9524 161.572C94.4561 160.705 94.6361 159.187 96.3799 158.197L139.92 132.995C140.812 132.499 141.807 132.218 142.827 132.175C143.847 132.132 144.862 132.328 145.793 132.748L186.88 156.464C188.388 157.341 188.197 158.86 186.453 159.839L142.913 185.041C142.024 185.544 141.031 185.832 140.011 185.883C138.991 185.934 137.974 185.746 137.04 185.333Z" fill="#7DC3EA"/>
<path d="M139.594 177.458C138.494 177.483 137.406 177.228 136.432 176.715L95.3113 153.044C94.8405 152.804 94.4422 152.443 94.1574 151.998C93.8726 151.553 93.7117 151.04 93.6912 150.513C93.7376 149.88 93.9518 149.272 94.3117 148.749C94.6717 148.227 95.1642 147.811 95.7388 147.542L139.313 122.33C140.39 121.729 141.595 121.395 142.828 121.353C144.061 121.312 145.285 121.566 146.4 122.093L187.488 145.81C187.96 146.048 188.36 146.408 188.645 146.853C188.93 147.299 189.09 147.813 189.108 148.341C189.06 148.973 188.846 149.581 188.486 150.103C188.126 150.625 187.634 151.042 187.06 151.311L143.52 176.513C142.313 177.157 140.962 177.482 139.594 177.458ZM137.647 174.6C138.392 174.913 139.197 175.054 140.003 175.013C140.81 174.972 141.596 174.75 142.305 174.364L185.845 149.151C186.453 148.802 186.678 148.442 186.678 148.296C186.678 148.15 186.554 148.037 186.273 147.869L145.185 124.152C144.441 123.839 143.635 123.698 142.828 123.741C142.021 123.784 141.235 124.009 140.528 124.4L96.9876 149.601C96.3801 149.95 96.1551 150.31 96.1551 150.468C96.1551 150.625 96.2901 150.726 96.5713 150.884L137.647 174.6Z" fill="white"/>
<path d="M140.01 60.4514C140.01 60.4514 117.509 62.6002 103.862 63.6353L139.864 166.253L187.567 138.767H187.657C188.005 138.489 188.277 138.128 188.448 137.717C188.619 137.306 188.684 136.858 188.635 136.416V36.0487C188.611 34.9333 188.326 33.8391 187.803 32.8535L140.01 60.4514Z" fill="url(#paint12_radial)"/>
<path d="M185.687 30.4116L143.768 6.21149C143.494 6.01824 143.173 5.90085 142.84 5.87122C142.506 5.84158 142.17 5.90075 141.866 6.04273L94.0059 33.6518L96.256 41.9998L108.26 76.2018L110.511 77.5069L187.803 32.8755C187.338 31.875 186.606 31.0223 185.687 30.4116Z" fill="url(#paint13_linear)"/>
<path d="M137.872 166.207L95.9526 141.962C95.0563 141.319 94.3229 140.476 93.8111 139.499C93.2992 138.522 93.0231 137.439 93.0049 136.337V36.0257C93.0049 33.8544 94.3212 32.8531 95.9526 33.7756L137.872 57.9758C138.77 58.6171 139.504 59.4602 140.016 60.4373C140.528 61.4144 140.804 62.4981 140.82 63.6011V163.957C140.82 166.106 139.504 167.107 137.872 166.207Z" fill="#5793CE"/>
<path d="M138.772 57.4918L96.8526 33.2916C96.514 33.0276 96.0895 32.8987 95.6612 32.9299C95.233 32.9611 94.8317 33.1501 94.5349 33.4604C95.0324 33.4034 95.5341 33.5229 95.9525 33.7979L137.872 57.9981C138.77 58.6394 139.504 59.4825 140.016 60.4596C140.528 61.4367 140.804 62.5204 140.82 63.6234V163.957C140.866 164.697 140.643 165.428 140.19 166.016C141.101 165.869 141.72 164.891 141.72 163.45V63.1284C141.703 62.024 141.427 60.939 140.915 59.9602C140.403 58.9815 139.67 58.1361 138.772 57.4918Z" fill="white"/>
<path d="M135.229 160.12L98.5964 138.969C97.8089 138.408 97.1644 137.67 96.7149 136.814C96.2654 135.958 96.0235 135.008 96.0088 134.041V40.886C96.0088 38.9959 97.1338 38.1183 98.5964 38.9396L135.229 60.0908C136.015 60.6531 136.658 61.3916 137.108 62.2474C137.557 63.1031 137.8 64.0522 137.816 65.0186V158.174C137.816 160.075 136.657 160.942 135.229 160.12Z" fill="url(#paint14_linear)"/>
<path d="M135.229 160.12L98.5964 138.969C97.8089 138.408 97.1644 137.67 96.7149 136.814C96.2654 135.958 96.0235 135.008 96.0088 134.041V40.886C96.0088 38.9959 97.1338 38.1183 98.5964 38.9396L135.229 60.0908C136.015 60.6531 136.658 61.3916 137.108 62.2474C137.557 63.1031 137.8 64.0522 137.816 65.0186V158.174C137.816 160.075 136.657 160.942 135.229 160.12Z" fill="url(#paint15_linear)"/>
<path d="M135.229 160.12L98.5964 138.969C97.8089 138.408 97.1644 137.67 96.7149 136.814C96.2654 135.958 96.0235 135.008 96.0088 134.041V40.886C96.0088 38.9959 97.1338 38.1183 98.5964 38.9396L135.229 60.0908C136.015 60.6531 136.658 61.3916 137.108 62.2474C137.557 63.1031 137.8 64.0522 137.816 65.0186V158.174C137.816 160.075 136.657 160.942 135.229 160.12Z" fill="#173D7A"/>
<path d="M136.432 159.457L99.8116 138.26C99.0255 137.699 98.3826 136.96 97.935 136.104C97.4875 135.248 97.2477 134.298 97.2352 133.332V40.1996C97.1973 39.6582 97.3102 39.1169 97.5614 38.6357C96.6389 38.6357 95.9863 39.4683 95.9863 40.8859V134.041C96.001 135.008 96.2429 135.958 96.6924 136.814C97.1419 137.67 97.7865 138.408 98.574 138.969L135.206 160.12C135.373 160.26 135.568 160.361 135.778 160.417C135.989 160.473 136.208 160.483 136.422 160.445C136.637 160.408 136.84 160.324 137.019 160.2C137.197 160.076 137.346 159.914 137.456 159.727C137.097 159.726 136.745 159.633 136.432 159.457Z" fill="#396CAA"/>
<path d="M135.228 117.357L121.615 109.481L99.8899 122.037L137.816 143.931V122.33C137.808 121.355 137.57 120.397 137.12 119.532C136.67 118.668 136.022 117.922 135.228 117.357Z" fill="#173D7A"/>
<path d="M135.228 98.2641L121.615 90.3887L99.8899 102.944L137.816 124.838V103.203C137.799 102.235 137.557 101.284 137.107 100.427C136.658 99.5694 136.015 98.8287 135.228 98.2641Z" fill="#173D7A"/>
<path d="M135.228 79.1831L121.615 71.3076L99.8899 83.8633L137.816 105.757V84.0771C137.796 83.1161 137.551 82.1731 137.102 81.3233C136.653 80.4736 136.011 79.7407 135.228 79.1831Z" fill="#173D7A"/>
<path d="M135.228 60.0913L121.615 52.2158L99.8899 64.7715L137.816 86.6653V65.0303C137.801 64.062 137.559 63.1106 137.11 62.2528C136.66 61.395 136.016 60.6546 135.228 60.0913Z" fill="#173D7A"/>
<path d="M135.228 60.0908L105.088 42.686L99.8899 45.6787L137.816 67.5725V65.0298C137.801 64.0615 137.559 63.1102 137.11 62.2523C136.66 61.3945 136.016 60.6541 135.228 60.0908Z" fill="#173D7A"/>
<path d="M137.816 67.5725L99.8899 45.6899V57.7506L137.816 79.6444V67.5725Z" fill="#5793CE"/>
<path d="M137.816 86.6648L99.8899 64.771V76.8317L137.816 98.7255V86.6648Z" fill="#5793CE"/>
<path d="M137.816 105.758L99.8899 83.8638V95.9245L137.816 117.818V105.758Z" fill="#5793CE"/>
<path d="M137.816 124.839L99.8899 102.945V115.017L137.816 136.899V124.839Z" fill="#5793CE"/>
<path d="M137.816 143.931L99.8899 122.037V134.098L137.816 155.992V143.931Z" fill="#5793CE"/>
<path d="M134.464 75.3467L105.909 58.8532C105.463 58.5362 105.098 58.1182 104.844 57.6333C104.59 57.1485 104.454 56.6105 104.447 56.0631V52.8341C104.447 51.7091 105.099 51.259 105.909 51.7091L134.464 68.2138C134.908 68.5328 135.271 68.9511 135.525 69.4356C135.779 69.92 135.917 70.4571 135.926 71.0039V74.2329C135.926 75.3129 135.274 75.808 134.464 75.3467Z" fill="#173D7A"/>
<path opacity="0.3" d="M107.349 58.2009C106.903 57.8839 106.538 57.4659 106.284 56.981C106.03 56.4962 105.894 55.9582 105.887 55.4108V52.2156C105.868 52.0624 105.868 51.9075 105.887 51.7543C105.077 51.2818 104.424 51.7543 104.424 52.8794V56.0633C104.431 56.6107 104.567 57.1487 104.821 57.6336C105.076 58.1184 105.441 58.5364 105.887 58.8535L134.464 75.3469C134.59 75.4428 134.74 75.5027 134.897 75.5202C135.055 75.5377 135.214 75.5122 135.358 75.4465C135.503 75.3807 135.626 75.2771 135.716 75.1467C135.806 75.0162 135.859 74.8638 135.87 74.7057L107.349 58.2009Z" fill="#06033E"/>
<path d="M125.508 66.4814L108.317 56.5583C108.161 56.4466 108.034 56.2997 107.946 56.1296C107.858 55.9595 107.812 55.771 107.811 55.5795C107.811 55.2082 108.036 55.0282 108.317 55.197L125.508 65.1201C125.663 65.2318 125.79 65.3787 125.878 65.5488C125.966 65.7189 126.013 65.9074 126.014 66.0989C126.014 66.4814 125.789 66.6501 125.508 66.4814Z" fill="white"/>
<path d="M134.464 94.315L105.909 77.8215C105.469 77.5089 105.108 77.0981 104.854 76.6216C104.6 76.1451 104.461 75.6161 104.447 75.0763V71.8024C104.447 70.6773 105.099 70.2273 105.909 70.6773L134.464 87.182C134.908 87.501 135.271 87.9194 135.525 88.4038C135.779 88.8883 135.917 89.4253 135.926 89.9722V93.2124C135.926 94.2812 135.274 94.7762 134.464 94.315Z" fill="#173D7A"/>
<path opacity="0.3" d="M107.349 77.203C106.903 76.8859 106.538 76.4679 106.284 75.9831C106.03 75.4982 105.894 74.9602 105.887 74.4128V71.1839C105.868 71.0307 105.868 70.8758 105.887 70.7226C105.077 70.2501 104.424 70.7226 104.424 71.8476V75.0766C104.431 75.624 104.567 76.162 104.821 76.6469C105.076 77.1317 105.441 77.5497 105.887 77.8668L134.464 94.3152C134.59 94.4111 134.74 94.4709 134.897 94.4885C135.055 94.506 135.214 94.4805 135.358 94.4147C135.503 94.349 135.626 94.2454 135.716 94.1149C135.806 93.9845 135.859 93.8321 135.87 93.6739L107.349 77.203Z" fill="#06033E"/>
<path d="M125.508 85.4609L108.317 75.5378C108.162 75.4231 108.035 75.274 107.947 75.1023C107.86 74.9305 107.813 74.7407 107.811 74.5478C107.811 74.1765 108.036 73.9965 108.317 74.1652L125.508 84.0771C125.663 84.1888 125.79 84.3357 125.878 84.5058C125.966 84.6759 126.013 84.8644 126.014 85.0559C126.014 85.4496 125.789 85.6184 125.508 85.4609Z" fill="white"/>
<path d="M134.464 113.453L105.909 96.9704C105.468 96.6537 105.106 96.2389 104.852 95.7587C104.599 95.2784 104.46 94.7458 104.447 94.2028V90.9513C104.447 89.8263 105.099 89.3762 105.909 89.8263L134.464 106.331C134.908 106.65 135.271 107.068 135.525 107.553C135.779 108.037 135.917 108.574 135.926 109.121V112.35C135.926 113.43 135.274 113.925 134.464 113.453Z" fill="#173D7A"/>
<path opacity="0.3" d="M107.349 96.3514C106.905 96.0325 106.542 95.6141 106.288 95.1296C106.034 94.6452 105.896 94.1081 105.887 93.5613V90.3323C105.868 90.1754 105.868 90.0168 105.887 89.8598C105.077 89.3873 104.424 89.8598 104.424 90.9849V94.2025C104.434 94.7494 104.571 95.2865 104.825 95.7709C105.079 96.2553 105.443 96.6737 105.887 96.9927L134.441 113.475C134.565 113.574 134.715 113.638 134.873 113.658C135.031 113.678 135.191 113.654 135.337 113.589C135.482 113.524 135.606 113.42 135.697 113.289C135.787 113.157 135.839 113.004 135.847 112.845L107.349 96.3514Z" fill="#06033E"/>
<path d="M125.508 104.599L108.317 94.6755C108.161 94.5638 108.034 94.4169 107.946 94.2468C107.858 94.0767 107.812 93.8882 107.811 93.6967C107.811 93.3254 108.036 93.1454 108.317 93.3142L125.508 103.203C125.663 103.315 125.79 103.462 125.878 103.632C125.966 103.802 126.013 103.991 126.014 104.182C126.014 104.587 125.789 104.767 125.508 104.599Z" fill="#D4ECFF"/>
<path d="M134.464 132.781L105.909 116.288C105.463 115.971 105.098 115.553 104.844 115.068C104.59 114.583 104.454 114.045 104.447 113.498V110.269C104.447 109.144 105.099 108.705 105.909 109.144L134.464 125.705C134.91 126.022 135.275 126.44 135.529 126.925C135.783 127.409 135.919 127.947 135.926 128.495V131.724C135.926 132.748 135.274 133.243 134.464 132.781Z" fill="#173D7A"/>
<path opacity="0.3" d="M107.349 115.669C106.903 115.352 106.538 114.934 106.284 114.449C106.03 113.965 105.894 113.427 105.887 112.879V109.65C105.869 109.497 105.869 109.342 105.887 109.189C105.077 108.728 104.424 109.189 104.424 110.314V113.543C104.431 114.09 104.567 114.628 104.821 115.113C105.076 115.598 105.441 116.016 105.887 116.333L134.441 132.827C134.566 132.927 134.716 132.99 134.875 133.01C135.034 133.029 135.196 133.004 135.341 132.938C135.487 132.872 135.611 132.766 135.701 132.633C135.79 132.5 135.841 132.345 135.847 132.185L107.349 115.669Z" fill="#06033E"/>
<path d="M125.508 123.927L108.317 114.004C108.163 113.89 108.038 113.743 107.95 113.573C107.862 113.403 107.814 113.216 107.811 113.025C107.811 112.642 108.036 112.473 108.317 112.631L125.508 122.554C125.661 122.668 125.787 122.815 125.875 122.985C125.963 123.154 126.01 123.342 126.014 123.533C126.014 123.915 125.789 124.084 125.508 123.927Z" fill="#FF2C9C"/>
<path d="M134.464 151.716L105.909 135.234C105.465 134.915 105.101 134.497 104.847 134.012C104.594 133.528 104.456 132.991 104.447 132.444V129.215C104.447 128.09 105.099 127.64 105.909 128.09L134.464 144.572C134.908 144.891 135.271 145.309 135.525 145.794C135.779 146.278 135.917 146.815 135.926 147.362V150.591C135.926 151.694 135.274 152.189 134.464 151.716Z" fill="#173D7A"/>
<path opacity="0.3" d="M107.349 134.615C106.905 134.296 106.542 133.878 106.288 133.393C106.034 132.909 105.896 132.372 105.887 131.825V128.596C105.868 128.439 105.868 128.28 105.887 128.123C105.077 127.651 104.424 128.123 104.424 129.249V132.455C104.434 133.002 104.571 133.539 104.825 134.023C105.079 134.508 105.443 134.926 105.887 135.245L134.441 151.727C134.565 151.827 134.715 151.89 134.873 151.91C135.031 151.93 135.191 151.907 135.337 151.842C135.482 151.776 135.606 151.673 135.697 151.541C135.787 151.41 135.839 151.256 135.847 151.097L107.349 134.615Z" fill="#06033E"/>
<path d="M125.508 142.862L108.317 132.939C108.161 132.827 108.034 132.681 107.946 132.51C107.858 132.34 107.812 132.152 107.811 131.96C107.811 131.589 108.036 131.409 108.317 131.578L125.508 141.456C125.663 141.568 125.79 141.715 125.878 141.885C125.966 142.055 126.013 142.243 126.014 142.435C126.014 142.851 125.789 143.031 125.508 142.862Z" fill="#D4ECFF"/>
<path opacity="0.5" d="M99.8899 45.6899L102.883 47.4113V59.472L99.8899 57.7506V45.6899Z" fill="#173D7A"/>
<path opacity="0.5" d="M99.8899 64.771L102.883 66.4923V78.5643L99.8899 76.8317V64.771Z" fill="#173D7A"/>
<path opacity="0.5" d="M99.8899 83.8638L102.883 85.5851V97.6458L99.8899 95.9245V83.8638Z" fill="#173D7A"/>
<path opacity="0.5" d="M99.8899 102.945L102.883 104.677V116.738L99.8899 115.017V102.945Z" fill="#173D7A"/>
<path opacity="0.5" d="M99.8899 122.037L102.883 123.758V135.819L99.8899 134.098V122.037Z" fill="#173D7A"/>
<path d="M129.248 68.3623C129.486 68.2256 129.488 67.7818 129.252 67.3709C129.015 66.9601 128.631 66.7379 128.393 66.8746C128.155 67.0113 128.154 67.4551 128.39 67.866C128.626 68.2768 129.011 68.499 129.248 68.3623Z" fill="#D4ECFF"/>
<path d="M131.459 69.159C131.473 69.2346 131.463 69.3127 131.431 69.3825C131.399 69.4523 131.346 69.5103 131.279 69.5486C131.212 69.5869 131.135 69.6035 131.059 69.5962C130.982 69.5889 130.91 69.558 130.852 69.5078C130.675 69.394 130.527 69.2397 130.422 69.0578C130.316 68.8759 130.255 68.6715 130.244 68.4614C130.244 68.0789 130.514 67.9214 130.852 68.1127C131.027 68.2284 131.173 68.3831 131.278 68.5646C131.383 68.7461 131.445 68.9495 131.459 69.159Z" fill="#FF2C9C"/>
<path d="M134.013 70.6331C134.013 71.0269 133.743 71.1844 133.417 70.9819C133.24 70.8688 133.092 70.7147 132.986 70.5327C132.88 70.3506 132.82 70.1458 132.81 69.9356C132.81 69.553 133.08 69.3955 133.417 69.5868C133.591 69.7031 133.735 69.8582 133.838 70.0398C133.942 70.2213 134.002 70.4244 134.013 70.6331Z" fill="#D4ECFF"/>
<path d="M128.894 86.7547C128.894 87.1372 128.624 87.2947 128.287 87.1035C128.11 86.9897 127.962 86.8355 127.857 86.6535C127.751 86.4716 127.69 86.2672 127.679 86.0571C127.679 85.6746 127.949 85.5171 128.287 85.7084C128.464 85.8222 128.611 85.9764 128.717 86.1583C128.822 86.3402 128.883 86.5446 128.894 86.7547Z" fill="#FF2C9C"/>
<path d="M131.459 88.2402C131.473 88.3158 131.463 88.3939 131.431 88.4637C131.399 88.5335 131.346 88.5915 131.279 88.6298C131.212 88.6681 131.135 88.6847 131.059 88.6774C130.982 88.6701 130.91 88.6392 130.852 88.589C130.676 88.4738 130.53 88.3193 130.424 88.1377C130.319 87.956 130.257 87.7523 130.244 87.5427C130.244 87.1489 130.514 86.9914 130.852 87.1939C131.028 87.3083 131.175 87.4627 131.28 87.6445C131.386 87.8263 131.447 88.0303 131.459 88.2402Z" fill="#D4ECFF"/>
<path d="M134.013 89.7024C134.013 90.085 133.743 90.2425 133.417 90.0512C133.24 89.9374 133.093 89.7832 132.987 89.6013C132.882 89.4194 132.821 89.215 132.81 89.0049C132.81 88.6224 133.08 88.4649 133.417 88.6561C133.591 88.7725 133.735 88.9276 133.838 89.1091C133.942 89.2907 134.002 89.4938 134.013 89.7024Z" fill="white"/>
<path d="M128.894 105.982C128.894 106.365 128.624 106.522 128.287 106.331C128.111 106.216 127.965 106.061 127.859 105.88C127.754 105.698 127.692 105.494 127.679 105.285C127.679 104.891 127.949 104.734 128.287 104.936C128.464 105.049 128.612 105.203 128.718 105.385C128.824 105.567 128.884 105.772 128.894 105.982Z" fill="white"/>
<path d="M131.459 107.456C131.473 107.532 131.463 107.61 131.431 107.68C131.399 107.75 131.346 107.808 131.279 107.846C131.212 107.884 131.135 107.901 131.059 107.894C130.982 107.886 130.91 107.855 130.852 107.805C130.675 107.691 130.527 107.537 130.422 107.355C130.316 107.173 130.255 106.969 130.244 106.759C130.244 106.376 130.514 106.219 130.852 106.41C131.027 106.526 131.173 106.68 131.278 106.862C131.383 107.043 131.445 107.247 131.459 107.456Z" fill="#FF2C9C"/>
<path d="M134.013 108.941C134.013 109.323 133.743 109.481 133.417 109.29C133.24 109.176 133.093 109.022 132.987 108.84C132.882 108.658 132.821 108.453 132.81 108.243C132.81 107.85 133.08 107.692 133.417 107.895C133.592 108.01 133.737 108.164 133.841 108.346C133.944 108.528 134.004 108.732 134.013 108.941Z" fill="white"/>
<path d="M128.894 124.917C128.894 125.3 128.624 125.457 128.287 125.266C128.11 125.152 127.962 124.998 127.857 124.816C127.751 124.634 127.69 124.43 127.679 124.22C127.679 123.837 127.949 123.68 128.287 123.871C128.464 123.985 128.611 124.139 128.717 124.321C128.822 124.503 128.883 124.707 128.894 124.917Z" fill="white"/>
<path d="M131.459 126.402C131.473 126.478 131.463 126.556 131.431 126.626C131.399 126.696 131.346 126.754 131.279 126.792C131.212 126.83 131.135 126.847 131.059 126.839C130.982 126.832 130.91 126.801 130.852 126.751C130.675 126.637 130.527 126.483 130.422 126.301C130.316 126.119 130.255 125.915 130.244 125.705C130.244 125.311 130.514 125.165 130.852 125.356C131.028 125.47 131.175 125.625 131.28 125.807C131.386 125.988 131.447 126.192 131.459 126.402Z" fill="#D4ECFF"/>
<path d="M134.013 127.876C134.013 128.27 133.743 128.416 133.417 128.225C133.24 128.112 133.092 127.958 132.986 127.776C132.88 127.594 132.82 127.389 132.81 127.179C132.81 126.796 133.08 126.639 133.417 126.83C133.591 126.946 133.735 127.101 133.838 127.283C133.942 127.465 134.002 127.668 134.013 127.876Z" fill="#D4ECFF"/>
<path d="M128.894 144.122C128.894 144.504 128.624 144.662 128.287 144.471C128.11 144.357 127.962 144.203 127.857 144.021C127.751 143.839 127.69 143.634 127.679 143.424C127.679 143.042 127.949 142.884 128.287 143.076C128.464 143.189 128.611 143.344 128.717 143.525C128.822 143.707 128.883 143.912 128.894 144.122Z" fill="white"/>
<path d="M131.459 145.596C131.459 145.99 131.178 146.147 130.852 145.945C130.674 145.832 130.526 145.678 130.421 145.496C130.315 145.313 130.254 145.109 130.244 144.898C130.244 144.516 130.514 144.358 130.852 144.55C131.027 144.665 131.173 144.82 131.278 145.002C131.383 145.183 131.445 145.387 131.459 145.596Z" fill="#FF2C9C"/>
<path d="M134.013 147.081C134.013 147.463 133.743 147.621 133.417 147.43C133.24 147.316 133.093 147.162 132.987 146.98C132.882 146.798 132.821 146.593 132.81 146.383C132.81 146.001 133.08 145.843 133.417 146.035C133.591 146.151 133.735 146.306 133.838 146.488C133.942 146.669 134.002 146.872 134.013 147.081Z" fill="#D4ECFF"/>
<path d="M147.132 152.605V67.2012L147.312 67.1L182.999 46.4888V131.892L182.83 131.994L147.132 152.605ZM147.841 67.6062V151.379L182.301 131.487V47.7151L147.841 67.6062Z" fill="#173D7A"/>
<path d="M173.728 84.9214L157.73 94.2032C156.605 94.8219 155.783 94.2032 155.783 92.7293V83.8076C155.793 83.0793 155.975 82.3636 156.313 81.7186C156.651 81.0735 157.137 80.5173 157.73 80.0948L173.728 70.8468C174.853 70.228 175.675 70.8468 175.675 72.3206V81.1974C175.663 81.9269 175.481 82.6435 175.143 83.2901C174.805 83.9367 174.32 84.4953 173.728 84.9214Z" fill="#173D7A"/>
<path d="M174.122 70.6778C174.222 70.9634 174.271 71.2641 174.268 71.5666V80.4434C174.254 81.1724 174.071 81.8881 173.733 82.5342C173.395 83.1804 172.912 83.7394 172.322 84.1674L156.312 93.4041C156.19 93.4791 156.057 93.536 155.918 93.5729C155.965 93.7571 156.058 93.9263 156.189 94.0649C156.319 94.2034 156.482 94.3067 156.663 94.3651C156.844 94.4235 157.036 94.4352 157.223 94.3989C157.41 94.3627 157.584 94.2798 157.73 94.1579L173.728 84.9212C174.32 84.4951 174.805 83.9365 175.143 83.2899C175.481 82.6433 175.663 81.9267 175.675 81.1972V72.3204C175.675 71.0716 175.011 70.4078 174.122 70.6778Z" fill="#5793CE"/>
<path d="M170.803 79.5766C171.107 79.3966 171.343 79.5766 171.343 79.8804V81.9055C171.337 82.092 171.284 82.274 171.19 82.435C171.095 82.5961 170.962 82.7311 170.803 82.8281C170.51 82.9968 170.274 82.8281 170.274 82.5243V80.4992C170.279 80.3137 170.33 80.1324 170.423 79.9715C170.515 79.8105 170.646 79.6749 170.803 79.5766Z" fill="white"/>
<path d="M168.508 81.1518C168.812 80.9831 169.048 81.1518 169.048 81.4556V83.2332C169.041 83.4197 168.989 83.6017 168.894 83.7627C168.8 83.9238 168.667 84.0588 168.508 84.1558C168.215 84.3245 167.979 84.1558 167.979 83.852V82.0744C167.984 81.8889 168.035 81.7077 168.128 81.5467C168.22 81.3857 168.35 81.2501 168.508 81.1518Z" fill="#D4ECFF"/>
<path d="M166.19 80.4998C166.494 80.331 166.73 80.4997 166.73 80.8148V84.55C166.725 84.7384 166.674 84.9227 166.579 85.0858C166.485 85.249 166.351 85.3858 166.19 85.4838C165.897 85.6526 165.661 85.4838 165.661 85.1688V81.4336C165.669 81.2472 165.721 81.0654 165.813 80.9031C165.905 80.7408 166.034 80.6026 166.19 80.4998Z" fill="#FF2C9C"/>
<path d="M163.94 79.6667C163.993 79.6258 164.057 79.6017 164.124 79.5974C164.191 79.5931 164.258 79.6088 164.316 79.6427C164.374 79.6765 164.42 79.7268 164.45 79.7872C164.479 79.8476 164.489 79.9153 164.48 79.9818V85.8771C164.468 86.0638 164.413 86.2452 164.319 86.4072C164.226 86.5692 164.096 86.7073 163.94 86.8109C163.647 86.9797 163.411 86.8109 163.411 86.4959V80.6005C163.422 80.4148 163.475 80.234 163.567 80.0721C163.659 79.9102 163.786 79.7715 163.94 79.6667Z" fill="#D4ECFF"/>
<path d="M161.623 81.6135C161.915 81.4448 162.163 81.6135 162.163 81.9285V87.2051C162.151 87.3903 162.095 87.5701 162.002 87.7303C161.908 87.8904 161.778 88.0265 161.623 88.1276C161.33 88.3077 161.083 88.1277 161.083 87.8239V82.5473C161.093 82.3602 161.147 82.1781 161.241 82.0159C161.335 81.8536 161.465 81.7158 161.623 81.6135Z" fill="#D4ECFF"/>
<path d="M159.327 85.3489C159.38 85.3079 159.444 85.2838 159.511 85.2795C159.578 85.2752 159.645 85.291 159.703 85.3248C159.761 85.3586 159.808 85.4089 159.837 85.4693C159.866 85.5297 159.877 85.5975 159.867 85.6639V88.5778C159.855 88.763 159.8 88.9428 159.706 89.103C159.613 89.2631 159.483 89.3992 159.327 89.5004C159.035 89.6691 158.787 89.5004 158.787 89.1966V86.3277C158.793 86.1334 158.845 85.9433 158.939 85.7732C159.033 85.603 159.166 85.4576 159.327 85.3489Z" fill="white"/>
<path d="M170.286 78.5533C170.286 78.8908 170.522 79.0258 170.803 78.8571C170.959 78.7599 171.089 78.626 171.181 78.4671C171.273 78.3083 171.325 78.1293 171.332 77.9458C171.332 77.6082 171.096 77.4732 170.803 77.642C170.649 77.7405 170.522 77.8749 170.432 78.0337C170.342 78.1925 170.291 78.3708 170.286 78.5533Z" fill="#FF2C9C"/>
<path d="M171.167 76.5574C171.372 76.2023 171.372 75.8187 171.168 75.7006C170.963 75.5825 170.631 75.7747 170.426 76.1299C170.221 76.485 170.221 76.8687 170.425 76.9867C170.63 77.1048 170.962 76.9126 171.167 76.5574Z" fill="white"/>
<path d="M138.064 228.626L113.594 214.495C112.086 213.629 112.277 212.11 114.01 211.12L137.636 197.484C138.524 196.987 139.516 196.706 140.532 196.663C141.548 196.62 142.56 196.816 143.487 197.236L167.968 211.367C169.465 212.233 169.273 213.752 167.541 214.742L143.914 228.378C143.026 228.872 142.034 229.152 141.018 229.195C140.003 229.238 138.991 229.043 138.064 228.626Z" fill="#7DC3EA"/>
<path d="M140.651 222.877C139.519 222.899 138.4 222.632 137.4 222.1L112.93 207.97C112.432 207.717 112.01 207.335 111.709 206.864C111.409 206.393 111.24 205.85 111.22 205.292C111.27 204.64 111.49 204.014 111.857 203.473C112.224 202.932 112.726 202.497 113.312 202.209L136.939 188.573C138.036 187.948 139.269 187.598 140.531 187.555C141.793 187.512 143.047 187.776 144.184 188.326L168.654 202.457C169.152 202.707 169.574 203.086 169.875 203.555C170.176 204.025 170.345 204.566 170.364 205.123C170.318 205.785 170.097 206.422 169.724 206.97C169.35 207.517 168.837 207.956 168.238 208.24L144.612 221.887C143.396 222.544 142.034 222.885 140.651 222.877ZM138.795 219.693C139.515 219.995 140.294 220.13 141.074 220.087C141.853 220.044 142.613 219.825 143.295 219.445L166.922 205.798C167.518 205.461 167.664 205.146 167.664 205.089C167.58 204.981 167.472 204.893 167.349 204.831L142.879 190.7C142.159 190.399 141.38 190.265 140.601 190.308C139.821 190.351 139.062 190.569 138.379 190.947L114.752 204.583C114.156 204.932 114.021 205.236 114.01 205.292C114.095 205.407 114.207 205.5 114.336 205.562L138.806 219.693H138.795Z" fill="white"/>
<path d="M169.014 196.438V187.988H150.079L143.531 184.208C142.605 183.788 141.593 183.592 140.577 183.635C139.56 183.678 138.569 183.959 137.681 184.456L131.572 187.977H112.626V196.663C112.619 196.994 112.711 197.321 112.889 197.601C113.067 197.881 113.324 198.103 113.627 198.238L138.064 212.335C138.992 212.754 140.006 212.95 141.024 212.907C142.042 212.864 143.035 212.583 143.925 212.087L167.552 198.451C168.587 197.878 169.07 197.135 169.014 196.438Z" fill="#396CAA"/>
<path d="M140.82 183.623C139.722 183.638 138.645 183.919 137.681 184.444L131.572 187.966H112.626V196.651C112.619 196.983 112.711 197.31 112.889 197.59C113.067 197.87 113.324 198.091 113.627 198.226L138.064 212.335C138.902 212.769 139.843 212.968 140.786 212.908L140.82 183.623Z" fill="url(#paint16_radial)"/>
<path d="M114.763 187.966H112.626V196.651C112.619 196.983 112.711 197.31 112.889 197.59C113.067 197.87 113.324 198.091 113.627 198.226L114.752 198.879L114.763 187.966Z" fill="#D4ECFF"/>
<path d="M138.48 212.526C139.989 213.093 141.652 213.093 143.16 212.526V202.67H138.48V212.526Z" fill="#5793CE"/>
<path d="M138.064 203.694L113.594 189.563C112.086 188.697 112.277 187.178 114.01 186.188L137.636 172.541C138.525 172.046 139.517 171.767 140.533 171.726C141.55 171.685 142.561 171.883 143.487 172.305L168.013 186.458C169.51 187.325 169.318 188.832 167.586 189.833L143.959 203.48C143.062 203.977 142.061 204.254 141.037 204.292C140.013 204.329 138.994 204.124 138.064 203.694Z" fill="url(#paint17_linear)"/>
<path d="M167.585 188.146L143.959 201.782C143.069 202.278 142.075 202.558 141.057 202.601C140.04 202.644 139.026 202.448 138.097 202.029L113.627 187.898C113.329 187.737 113.071 187.51 112.873 187.235C112.745 187.431 112.663 187.654 112.632 187.887C112.601 188.119 112.623 188.356 112.695 188.579C112.767 188.802 112.888 189.006 113.05 189.177C113.211 189.347 113.408 189.479 113.627 189.564L138.064 203.694C138.992 204.114 140.006 204.309 141.024 204.266C142.042 204.224 143.035 203.943 143.925 203.447L167.552 189.8C168.902 189.023 169.307 187.943 168.677 187.088C168.403 187.524 168.029 187.886 167.585 188.146Z" fill="white"/>
<path d="M160.014 198.665C159.996 199.008 159.896 199.342 159.724 199.639C159.552 199.937 159.312 200.189 159.024 200.375C158.483 200.69 158.033 200.375 158.033 199.801C158.057 199.46 158.159 199.128 158.331 198.832C158.502 198.535 158.739 198.282 159.024 198.091C159.575 197.776 160.014 198.035 160.014 198.665Z" fill="#D4ECFF"/>
<path d="M163.198 196.832C163.174 197.173 163.072 197.505 162.9 197.801C162.729 198.097 162.492 198.351 162.208 198.542C161.656 198.857 161.218 198.542 161.218 197.968C161.236 197.625 161.335 197.291 161.507 196.994C161.679 196.696 161.919 196.444 162.208 196.258C162.748 195.943 163.198 196.202 163.198 196.832Z" fill="#D4ECFF"/>
<path d="M166.37 194.986C166.349 195.329 166.25 195.662 166.081 195.961C165.911 196.259 165.675 196.515 165.392 196.708C164.84 197.023 164.402 196.708 164.402 196.134C164.42 195.791 164.519 195.457 164.691 195.16C164.863 194.863 165.103 194.61 165.392 194.424C165.932 194.109 166.37 194.334 166.37 194.986Z" fill="#D4ECFF"/>
<path d="M139.549 194.93L128.096 188.315C127.387 187.91 127.477 187.19 128.287 186.74L139.346 180.349C139.764 180.12 140.229 179.99 140.706 179.97C141.182 179.951 141.656 180.042 142.091 180.237L153.544 186.852C154.242 187.257 154.152 187.977 153.342 188.439L142.283 194.818C141.868 195.051 141.404 195.182 140.929 195.202C140.454 195.221 139.981 195.128 139.549 194.93Z" fill="#5793CE"/>
<path d="M140.64 189.395L139.054 188.484C138.964 188.427 138.975 188.326 139.054 188.259L140.584 187.381C140.641 187.35 140.705 187.334 140.77 187.334C140.834 187.334 140.898 187.35 140.955 187.381L142.542 188.304C142.643 188.304 142.632 188.45 142.542 188.517L141.011 189.406C140.952 189.43 140.889 189.441 140.825 189.439C140.761 189.438 140.698 189.422 140.64 189.395Z" fill="#D4ECFF"/>
<path d="M128.095 188.315L128.253 188.202L139.312 181.823C139.728 181.589 140.193 181.456 140.67 181.435C141.147 181.413 141.622 181.504 142.057 181.699L153.477 188.292C154.129 187.831 154.163 187.167 153.477 186.83L142.024 180.214C141.589 180.02 141.114 179.928 140.638 179.948C140.162 179.967 139.696 180.097 139.279 180.327L128.219 186.717C127.477 187.201 127.387 187.91 128.095 188.315Z" fill="#396CAA"/>
<path d="M227.776 166.286L203.317 152.155C201.821 151.288 202.001 149.77 203.745 148.78L227.371 135.144C228.261 134.648 229.255 134.367 230.273 134.324C231.291 134.281 232.304 134.477 233.233 134.896L257.703 149.027C259.199 149.893 259.019 151.412 257.287 152.402L233.66 166.038C232.768 166.538 231.77 166.82 230.748 166.863C229.726 166.906 228.708 166.709 227.776 166.286Z" fill="#7DC3EA"/>
<path d="M230.319 160.582C229.185 160.609 228.063 160.337 227.067 159.794L202.586 145.675C202.09 145.42 201.671 145.038 201.372 144.567C201.073 144.096 200.906 143.554 200.887 142.997C200.933 142.336 201.154 141.698 201.528 141.151C201.902 140.603 202.414 140.165 203.014 139.881L226.64 126.234C227.742 125.615 228.976 125.27 230.239 125.229C231.502 125.188 232.757 125.452 233.897 125.997L258.446 140.083C258.943 140.334 259.364 140.714 259.665 141.183C259.965 141.652 260.135 142.193 260.156 142.749C260.11 143.412 259.887 144.051 259.512 144.599C259.136 145.147 258.62 145.584 258.018 145.866L234.392 159.513C233.151 160.22 231.747 160.589 230.319 160.582ZM228.451 157.398C229.172 157.699 229.95 157.833 230.73 157.79C231.509 157.747 232.269 157.528 232.952 157.15L256.578 143.503C257.174 143.166 257.309 142.851 257.32 142.795C257.233 142.684 257.121 142.596 256.994 142.536L232.569 128.36C231.851 128.053 231.072 127.915 230.292 127.956C229.511 127.997 228.751 128.216 228.069 128.596L204.442 142.243C203.857 142.581 203.711 142.896 203.711 142.952C203.711 143.008 203.79 143.087 204.026 143.222L228.496 157.353L228.451 157.398Z" fill="white"/>
<path d="M258.693 134.098V125.705H239.758L233.222 121.925C232.293 121.505 231.279 121.31 230.262 121.352C229.244 121.395 228.25 121.676 227.36 122.172L221.251 125.694H202.305V134.379C202.324 134.691 202.429 134.991 202.607 135.247C202.786 135.503 203.032 135.705 203.317 135.83L227.788 149.961C228.716 150.38 229.73 150.576 230.748 150.533C231.766 150.49 232.759 150.21 233.649 149.714L257.276 136.067C257.671 135.903 258.014 135.631 258.264 135.284C258.515 134.936 258.663 134.525 258.693 134.098Z" fill="#396CAA"/>
<path d="M230.499 121.283C229.402 121.298 228.324 121.58 227.36 122.105L221.251 125.626H202.305V134.311C202.312 134.635 202.411 134.949 202.59 135.218C202.769 135.487 203.022 135.7 203.317 135.83L227.788 149.961C228.629 150.388 229.568 150.586 230.51 150.535L230.499 121.283Z" fill="url(#paint18_radial)"/>
<path d="M204.443 125.615H202.305V134.3C202.31 134.625 202.407 134.943 202.587 135.214C202.766 135.485 203.02 135.699 203.317 135.83L204.443 136.483V125.615Z" fill="#D4ECFF"/>
<path d="M228.159 150.186C229.667 150.753 231.331 150.753 232.839 150.186V140.331H228.159V150.186Z" fill="#5793CE"/>
<path d="M227.776 141.343L203.317 127.224C201.821 126.357 202.001 124.839 203.745 123.848L227.371 110.201C228.262 109.706 229.256 109.427 230.274 109.386C231.292 109.345 232.305 109.543 233.233 109.965L257.703 124.096C259.199 124.962 259.019 126.47 257.287 127.471L233.66 141.118C232.767 141.618 231.768 141.899 230.745 141.938C229.723 141.977 228.705 141.773 227.776 141.343Z" fill="url(#paint19_linear)"/>
<path d="M257.321 125.806L233.694 139.441C232.804 139.937 231.811 140.218 230.793 140.261C229.775 140.304 228.761 140.108 227.833 139.689L203.317 125.558C203.022 125.398 202.767 125.17 202.575 124.894C202.447 125.09 202.364 125.312 202.332 125.544C202.3 125.776 202.321 126.012 202.392 126.235C202.463 126.458 202.583 126.663 202.743 126.834C202.903 127.005 203.099 127.138 203.317 127.223L227.788 141.343C228.714 141.767 229.728 141.967 230.747 141.926C231.765 141.885 232.76 141.604 233.649 141.106L257.276 127.459C258.614 126.683 259.031 125.603 258.401 124.748C258.125 125.178 257.756 125.539 257.321 125.806Z" fill="white"/>
<path d="M249.693 136.325C249.675 136.668 249.576 137.002 249.404 137.299C249.231 137.597 248.991 137.849 248.703 138.035C248.163 138.35 247.724 138.092 247.724 137.462C247.742 137.12 247.839 136.787 248.009 136.49C248.179 136.193 248.417 135.94 248.703 135.751C249.254 135.436 249.693 135.695 249.693 136.325Z" fill="#D4ECFF"/>
<path d="M252.877 134.48C252.86 134.825 252.762 135.162 252.59 135.461C252.418 135.76 252.177 136.014 251.887 136.202C251.347 136.517 250.896 136.202 250.896 135.628C250.921 135.286 251.022 134.955 251.194 134.658C251.365 134.362 251.602 134.109 251.887 133.918C252.438 133.58 252.877 133.85 252.877 134.48Z" fill="#D4ECFF"/>
<path d="M256.061 132.646C256.037 132.988 255.935 133.32 255.763 133.616C255.592 133.912 255.355 134.166 255.071 134.356C254.519 134.671 254.081 134.424 254.081 133.794C254.099 133.451 254.198 133.117 254.37 132.82C254.542 132.522 254.782 132.27 255.071 132.084C255.611 131.769 256.061 132.016 256.061 132.646Z" fill="#D4ECFF"/>
<path d="M229.194 132.59L217.741 125.975C217.043 125.57 217.133 124.849 217.943 124.388L228.992 118.009C229.408 117.777 229.874 117.646 230.351 117.626C230.828 117.607 231.302 117.699 231.737 117.897L243.19 124.512C243.899 124.917 243.809 125.637 242.999 126.087L231.973 132.455C231.553 132.694 231.082 132.83 230.6 132.854C230.117 132.877 229.635 132.787 229.194 132.59Z" fill="#5793CE"/>
<path d="M230.319 127.055L228.744 126.143C228.643 126.143 228.654 125.986 228.744 125.918L230.274 125.041C230.333 125.01 230.399 124.994 230.465 124.994C230.532 124.994 230.597 125.01 230.657 125.041L232.243 125.952C232.333 125.952 232.322 126.109 232.243 126.177L230.713 127.055C230.652 127.087 230.585 127.104 230.516 127.104C230.447 127.104 230.38 127.087 230.319 127.055Z" fill="#D4ECFF"/>
<path d="M217.775 125.975C217.827 125.931 217.883 125.893 217.944 125.862L228.992 119.472C229.409 119.242 229.875 119.112 230.351 119.093C230.827 119.073 231.302 119.164 231.737 119.359L243.156 125.952C243.809 125.491 243.843 124.827 243.156 124.489L231.703 117.874C231.269 117.677 230.794 117.584 230.317 117.604C229.84 117.623 229.375 117.754 228.958 117.987L217.944 124.388C217.167 124.861 217.077 125.57 217.775 125.975Z" fill="#396CAA"/>
<path d="M48.4183 166.286L23.9481 152.155C22.4517 151.288 22.6318 149.77 24.3644 148.78L47.9907 135.144C48.8806 134.648 49.8743 134.367 50.8921 134.324C51.91 134.281 52.9238 134.477 53.8523 134.896L78.3225 149.027C79.8188 149.893 79.6388 151.412 77.895 152.402L54.2686 166.038C53.3801 166.532 52.3885 166.812 51.3727 166.855C50.357 166.898 49.3453 166.703 48.4183 166.286Z" fill="#7DC3EA"/>
<path d="M50.9836 160.582C49.8461 160.607 48.7216 160.336 47.7209 159.794L23.307 145.63C22.8095 145.376 22.3888 144.994 22.0882 144.523C21.7876 144.052 21.618 143.51 21.5969 142.952C21.6428 142.289 21.8652 141.65 22.241 141.102C22.6169 140.554 23.1326 140.117 23.7345 139.835L47.3609 126.188C48.4595 125.566 49.6926 125.22 50.9545 125.178C52.2165 125.137 53.4695 125.403 54.6063 125.952L79.0878 140.083C79.5649 140.348 79.9637 140.734 80.2442 141.202C80.5247 141.67 80.6768 142.204 80.6854 142.749C80.6394 143.411 80.4182 144.048 80.0445 144.596C79.6709 145.143 79.1581 145.582 78.559 145.866L54.9326 159.513C53.7286 160.199 52.3694 160.567 50.9836 160.582ZM49.116 157.398C49.8359 157.7 50.615 157.835 51.3946 157.792C52.1743 157.749 52.9339 157.53 53.6163 157.15L77.2427 143.503C77.8277 143.166 77.9739 142.851 77.9739 142.794C77.8965 142.679 77.787 142.589 77.6589 142.536L53.1663 128.36C52.448 128.052 51.6688 127.914 50.8887 127.955C50.1085 127.996 49.3481 128.215 48.666 128.596L25.0396 142.243C24.4433 142.581 24.3083 142.896 24.2971 142.952C24.3818 143.068 24.4939 143.16 24.6234 143.222L49.0935 157.353L49.116 157.398Z" fill="white"/>
<path d="M79.335 134.098V125.705H60.4339L53.8973 121.925C52.9687 121.505 51.955 121.31 50.9371 121.352C49.9192 121.395 48.9256 121.676 48.0357 122.172L41.9266 125.694H22.9467V134.379C22.9417 134.711 23.0338 135.037 23.2117 135.316C23.3896 135.596 23.6456 135.818 23.948 135.954L48.4182 150.006C49.3467 150.425 50.3605 150.621 51.3784 150.578C52.3962 150.535 53.3899 150.255 54.2798 149.759L77.9062 136.112C78.9075 135.538 79.3913 134.795 79.335 134.098Z" fill="#396CAA"/>
<path d="M51.1409 121.283C50.0433 121.298 48.9659 121.58 48.0019 122.105L41.8928 125.626H22.9467V134.311C22.9417 134.643 23.0338 134.969 23.2117 135.249C23.3896 135.529 23.6456 135.75 23.948 135.887L48.4182 150.006C49.2592 150.434 50.1986 150.632 51.1409 150.58V121.283Z" fill="url(#paint20_radial)"/>
<path d="M25.0844 125.615H22.9467V134.3C22.9417 134.632 23.0338 134.958 23.2117 135.238C23.3896 135.518 23.6456 135.739 23.948 135.875L25.0731 136.528L25.0844 125.615Z" fill="#D4ECFF"/>
<path d="M48.801 150.186C50.3096 150.753 51.9728 150.753 53.4813 150.186V140.331H48.801V150.186Z" fill="#5793CE"/>
<path d="M48.4183 141.343L23.9481 127.224C22.4517 126.357 22.6318 124.839 24.3644 123.848L47.9907 110.201C48.8812 109.706 49.8754 109.427 50.8934 109.386C51.9114 109.345 52.9249 109.543 53.8523 109.965L78.3225 124.096C79.8188 124.962 79.6388 126.47 77.895 127.471L54.2686 141.118C53.3795 141.612 52.3866 141.89 51.3703 141.929C50.3539 141.968 49.3427 141.767 48.4183 141.343Z" fill="url(#paint21_linear)"/>
<path d="M77.906 125.806L54.2797 139.441C53.3898 139.937 52.3961 140.218 51.3782 140.261C50.3604 140.304 49.3466 140.108 48.4181 139.689L23.9479 125.558C23.6498 125.396 23.3921 125.17 23.1941 124.894C23.0682 125.091 22.9875 125.314 22.9577 125.546C22.928 125.778 22.9499 126.014 23.0219 126.236C23.094 126.459 23.2143 126.663 23.3744 126.834C23.5345 127.004 23.7303 127.137 23.9479 127.223L48.4181 141.343C49.3448 141.767 50.3586 141.967 51.3771 141.926C52.3956 141.885 53.3901 141.604 54.2797 141.106L77.906 127.459C79.2561 126.683 79.6724 125.603 79.0311 124.748C78.7451 125.185 78.3595 125.547 77.906 125.806Z" fill="white"/>
<path d="M70.3346 136.325C70.3166 136.668 70.2175 137.002 70.0454 137.299C69.8733 137.597 69.6331 137.849 69.3445 138.035C68.8045 138.35 68.3545 138.092 68.3545 137.462C68.3785 137.12 68.4802 136.788 68.6518 136.492C68.8233 136.196 69.0603 135.942 69.3445 135.751C69.8958 135.436 70.3346 135.695 70.3346 136.325Z" fill="#D4ECFF"/>
<path d="M73.5187 134.48C73.4963 134.824 73.3955 135.158 73.2238 135.456C73.0522 135.755 72.8143 136.01 72.5286 136.202C71.9773 136.517 71.5386 136.202 71.5386 135.628C71.5566 135.285 71.6557 134.951 71.8278 134.654C71.9999 134.357 72.2401 134.104 72.5286 133.918C73.0687 133.58 73.5187 133.85 73.5187 134.48Z" fill="#D4ECFF"/>
<path d="M76.6915 132.646C76.6739 132.988 76.5761 133.321 76.4061 133.618C76.2361 133.915 75.9985 134.168 75.7127 134.356C75.1614 134.671 74.7227 134.424 74.7227 133.794C74.7407 133.451 74.8398 133.117 75.0119 132.82C75.184 132.522 75.4242 132.27 75.7127 132.084C76.2528 131.769 76.6915 132.016 76.6915 132.646Z" fill="#D4ECFF"/>
<path d="M49.8697 132.59L38.4166 125.975C37.7078 125.57 37.7978 124.849 38.6078 124.388L49.6672 118.009C50.0841 117.777 50.5496 117.646 51.0264 117.626C51.5032 117.607 51.9779 117.699 52.4124 117.897L63.8655 124.512C64.5631 124.917 64.4843 125.637 63.663 126.087L52.6149 132.455C52.1989 132.688 51.7345 132.822 51.2582 132.845C50.7818 132.869 50.3066 132.781 49.8697 132.59Z" fill="#5793CE"/>
<path d="M50.9612 127.055L49.3749 126.143C49.2849 126.143 49.2961 125.986 49.3749 125.918L50.905 125.041C50.9641 125.01 51.0297 124.994 51.0962 124.994C51.1628 124.994 51.2284 125.01 51.2875 125.041L52.8626 125.952C52.9638 125.952 52.9526 126.109 52.8626 126.177L51.3325 127.055C51.2748 127.083 51.2113 127.098 51.1469 127.098C51.0824 127.098 51.0189 127.083 50.9612 127.055Z" fill="#D4ECFF"/>
<path d="M38.4163 125.975L38.5738 125.862L49.6332 119.472C50.051 119.242 50.5163 119.112 50.9926 119.093C51.4689 119.073 51.9433 119.164 52.3784 119.359L63.8091 125.975C64.4616 125.513 64.4953 124.849 63.8091 124.512L52.3559 117.897C51.9214 117.699 51.4467 117.607 50.9699 117.626C50.4931 117.646 50.0276 117.777 49.6107 118.009L38.5513 124.388C37.7975 124.861 37.7075 125.57 38.4163 125.975Z" fill="#396CAA"/>
<defs>
<radialGradient id="paint0_radial" cx="0" cy="0" r="1" gradientUnits="userSpaceOnUse" gradientTransform="translate(49.6225 186.346) scale(23.8739)">
<stop stop-color="#274F89"/>
<stop offset="1" stop-color="#173D7A"/>
</radialGradient>
<linearGradient id="paint1_linear" x1="35.1201" y1="177.683" x2="77.3663" y2="177.683" gradientUnits="userSpaceOnUse">
<stop stop-color="#D4ECFF"/>
<stop offset="0.24" stop-color="#D0EAFE"/>
<stop offset="0.46" stop-color="#C5E2F9"/>
<stop offset="0.67" stop-color="#B2D6F2"/>
<stop offset="0.88" stop-color="#98C4E7"/>
<stop offset="1" stop-color="#86B8E0"/>
</linearGradient>
<radialGradient id="paint2_radial" cx="0" cy="0" r="1" gradientUnits="userSpaceOnUse" gradientTransform="translate(15.2965 161.64) scale(43.1575)">
<stop stop-color="#699DD1"/>
<stop offset="0.27" stop-color="#6396CC"/>
<stop offset="0.64" stop-color="#5184BD"/>
<stop offset="1" stop-color="#396CAA"/>
</radialGradient>
<radialGradient id="paint3_radial" cx="0" cy="0" r="1" gradientUnits="userSpaceOnUse" gradientTransform="translate(3591.85 2279.55) scale(339.964 588.73)">
<stop stop-color="#274F89"/>
<stop offset="1" stop-color="#173D7A"/>
</radialGradient>
<linearGradient id="paint4_linear" x1="6524.16" y1="1394.05" x2="7727.33" y2="1394.05" gradientUnits="userSpaceOnUse">
<stop stop-color="#D4ECFF"/>
<stop offset="0.24" stop-color="#D0EAFE"/>
<stop offset="0.46" stop-color="#C5E2F9"/>
<stop offset="0.67" stop-color="#B2D6F2"/>
<stop offset="0.88" stop-color="#98C4E7"/>
<stop offset="1" stop-color="#86B8E0"/>
</linearGradient>
<radialGradient id="paint5_radial" cx="0" cy="0" r="1" gradientUnits="userSpaceOnUse" gradientTransform="translate(3087.03 1670.29) scale(614.563 1064.26)">
<stop stop-color="#699DD1"/>
<stop offset="0.27" stop-color="#6396CC"/>
<stop offset="0.64" stop-color="#5184BD"/>
<stop offset="1" stop-color="#396CAA"/>
</radialGradient>
<radialGradient id="paint6_radial" cx="0" cy="0" r="1" gradientUnits="userSpaceOnUse" gradientTransform="translate(3591.85 4835.92) scale(339.964 588.73)">
<stop stop-color="#274F89"/>
<stop offset="1" stop-color="#173D7A"/>
</radialGradient>
<linearGradient id="paint7_linear" x1="6524.16" y1="3131.51" x2="7727.33" y2="3131.51" gradientUnits="userSpaceOnUse">
<stop stop-color="#D4ECFF"/>
<stop offset="0.24" stop-color="#D0EAFE"/>
<stop offset="0.46" stop-color="#C5E2F9"/>
<stop offset="0.67" stop-color="#B2D6F2"/>
<stop offset="0.88" stop-color="#98C4E7"/>
<stop offset="1" stop-color="#86B8E0"/>
</linearGradient>
<radialGradient id="paint8_radial" cx="0" cy="0" r="1" gradientUnits="userSpaceOnUse" gradientTransform="translate(3087.03 4226.66) scale(614.563 1064.26)">
<stop stop-color="#699DD1"/>
<stop offset="0.27" stop-color="#6396CC"/>
<stop offset="0.64" stop-color="#5184BD"/>
<stop offset="1" stop-color="#396CAA"/>
</radialGradient>
<radialGradient id="paint9_radial" cx="0" cy="0" r="1" gradientUnits="userSpaceOnUse" gradientTransform="translate(858.436 2279.55) scale(339.964 588.73)">
<stop stop-color="#274F89"/>
<stop offset="1" stop-color="#173D7A"/>
</radialGradient>
<linearGradient id="paint10_linear" x1="1236.69" y1="1394.05" x2="2439.86" y2="1394.05" gradientUnits="userSpaceOnUse">
<stop stop-color="#D4ECFF"/>
<stop offset="0.24" stop-color="#D0EAFE"/>
<stop offset="0.46" stop-color="#C5E2F9"/>
<stop offset="0.67" stop-color="#B2D6F2"/>
<stop offset="0.88" stop-color="#98C4E7"/>
<stop offset="1" stop-color="#86B8E0"/>
</linearGradient>
<radialGradient id="paint11_radial" cx="0" cy="0" r="1" gradientUnits="userSpaceOnUse" gradientTransform="translate(353.616 1670.29) scale(614.563 1064.26)">
<stop stop-color="#699DD1"/>
<stop offset="0.27" stop-color="#6396CC"/>
<stop offset="0.64" stop-color="#5184BD"/>
<stop offset="1" stop-color="#396CAA"/>
</radialGradient>
<radialGradient id="paint12_radial" cx="0" cy="0" r="1" gradientUnits="userSpaceOnUse" gradientTransform="translate(123.742 83.6052) scale(85.8987)">
<stop stop-color="#396CAA"/>
<stop offset="1" stop-color="#274F89"/>
</radialGradient>
<linearGradient id="paint13_linear" x1="8746.75" y1="1612.1" x2="14343.5" y2="6075.45" gradientUnits="userSpaceOnUse">
<stop stop-color="#D4ECFF"/>
<stop offset="0.24" stop-color="#D0EAFE"/>
<stop offset="0.46" stop-color="#C5E2F9"/>
<stop offset="0.67" stop-color="#B2D6F2"/>
<stop offset="0.88" stop-color="#98C4E7"/>
<stop offset="1" stop-color="#86B8E0"/>
</linearGradient>
<linearGradient id="paint14_linear" x1="93.4078" y1="86.6384" x2="131.671" y2="80.6679" gradientUnits="userSpaceOnUse">
<stop stop-color="#3919BB"/>
<stop offset="1" stop-color="#6507FA"/>
</linearGradient>
<linearGradient id="paint15_linear" x1="93.4078" y1="86.6384" x2="131.671" y2="80.6679" gradientUnits="userSpaceOnUse">
<stop stop-color="#3919BB"/>
<stop offset="1" stop-color="#6507FA"/>
</linearGradient>
<radialGradient id="paint16_radial" cx="0" cy="0" r="1" gradientUnits="userSpaceOnUse" gradientTransform="translate(3150.86 5080.39) scale(775.066 805.338)">
<stop stop-color="#699DD1"/>
<stop offset="0.27" stop-color="#6396CC"/>
<stop offset="0.64" stop-color="#5184BD"/>
<stop offset="1" stop-color="#396CAA"/>
</radialGradient>
<linearGradient id="paint17_linear" x1="120.007" y1="175.59" x2="168.463" y2="204.471" gradientUnits="userSpaceOnUse">
<stop stop-color="#D4ECFF"/>
<stop offset="0.2" stop-color="#D0EAFE"/>
<stop offset="0.39" stop-color="#C5E2F9"/>
<stop offset="0.57" stop-color="#B2D6F2"/>
<stop offset="0.74" stop-color="#98C4E7"/>
<stop offset="0.84" stop-color="#86B8E0"/>
</linearGradient>
<radialGradient id="paint18_radial" cx="0" cy="0" r="1" gradientUnits="userSpaceOnUse" gradientTransform="translate(5490.25 3390.74) scale(775.366 804.345)">
<stop stop-color="#699DD1"/>
<stop offset="0.27" stop-color="#6396CC"/>
<stop offset="0.64" stop-color="#5184BD"/>
<stop offset="1" stop-color="#396CAA"/>
</radialGradient>
<linearGradient id="paint19_linear" x1="11070.9" y1="3460.61" x2="12663.7" y2="5106.22" gradientUnits="userSpaceOnUse">
<stop stop-color="#D4ECFF"/>
<stop offset="0.2" stop-color="#D0EAFE"/>
<stop offset="0.39" stop-color="#C5E2F9"/>
<stop offset="0.57" stop-color="#B2D6F2"/>
<stop offset="0.74" stop-color="#98C4E7"/>
<stop offset="0.84" stop-color="#86B8E0"/>
</linearGradient>
<radialGradient id="paint20_radial" cx="0" cy="0" r="1" gradientUnits="userSpaceOnUse" gradientTransform="translate(813.798 3395.82) scale(775.062 805.594)">
<stop stop-color="#699DD1"/>
<stop offset="0.27" stop-color="#6396CC"/>
<stop offset="0.64" stop-color="#5184BD"/>
<stop offset="1" stop-color="#396CAA"/>
</radialGradient>
<linearGradient id="paint21_linear" x1="1897.65" y1="3459.74" x2="3490.55" y2="5105.21" gradientUnits="userSpaceOnUse">
<stop stop-color="#D4ECFF"/>
<stop offset="0.2" stop-color="#D0EAFE"/>
<stop offset="0.39" stop-color="#C5E2F9"/>
<stop offset="0.57" stop-color="#B2D6F2"/>
<stop offset="0.74" stop-color="#98C4E7"/>
<stop offset="0.84" stop-color="#86B8E0"/>
</linearGradient>
</defs>
</svg>
