<svg width="60" height="54" viewBox="0 0 60 54" fill="none" xmlns="http://www.w3.org/2000/svg">
<path d="M60 16.8312C60 12.9257 60 10.1938 60 9.93506C60 7.0348 57.6344 4.67532 54.7266 4.67532H54.0234V11.1039C54.0234 12.0717 53.2359 12.8571 52.2656 12.8571C51.2953 12.8571 50.5078 12.0717 50.5078 11.1039C50.5078 9.13558 50.5078 3.71221 50.5078 1.75325C50.5078 0.785455 49.7203 0 48.75 0C47.7797 0 46.9922 0.785455 46.9922 1.75325V4.67532H35.2734V11.1039C35.2734 12.0717 34.4875 12.8571 33.5156 12.8571C32.5453 12.8571 31.7578 12.0717 31.7578 11.1039C31.7578 9.13558 31.7578 3.71221 31.7578 1.75325C31.7578 0.785455 30.9703 0 30 0C29.0281 0 28.2422 0.785455 28.2422 1.75325V4.67532H16.5234V11.1039C16.5234 12.0717 15.7359 12.8571 14.7656 12.8571C13.7953 12.8571 13.0078 12.0717 13.0078 11.1039C13.0078 9.13558 13.0078 3.71221 13.0078 1.75325C13.0078 0.785455 12.2203 0 11.25 0C10.2781 0 9.49219 0.785455 9.49219 1.75325V4.67532H5.27344C2.36562 4.67532 0 7.0348 0 9.93506V16.8312H60Z" fill="#3F92D1"/>
<path d="M0 20.3374V48.74C0 51.6403 2.36562 53.9997 5.27344 53.9997H54.7266C57.6344 53.9997 60 51.6403 60 48.74C60 47.9888 60 31.58 60 20.3374C58.9062 20.3374 0.604687 20.3374 0 20.3374ZM16.875 44.6491H13.125C12.1547 44.6491 11.3672 43.8636 11.3672 42.8958C11.3672 41.9281 12.1531 41.1426 13.125 41.1426H16.875C17.8453 41.1426 18.6328 41.9281 18.6328 42.8958C18.6328 43.8636 17.8453 44.6491 16.875 44.6491ZM16.875 37.1686H13.125C12.1547 37.1686 11.3672 36.3831 11.3672 35.4153C11.3672 34.4475 12.1531 33.6621 13.125 33.6621H16.875C17.8453 33.6621 18.6328 34.446 18.6328 35.4153C18.6328 36.3847 17.8453 37.1686 16.875 37.1686ZM16.875 29.6881H13.125C12.1547 29.6881 11.3672 28.9026 11.3672 27.9348C11.3672 26.967 12.1531 26.1816 13.125 26.1816H16.875C17.8453 26.1816 18.6328 26.9655 18.6328 27.9348C18.6328 28.9042 17.8453 29.6881 16.875 29.6881ZM31.875 44.6491H28.125C27.1531 44.6491 26.3672 43.8636 26.3672 42.8958C26.3672 41.9281 27.1531 41.1426 28.125 41.1426H31.875C32.8469 41.1426 33.6328 41.9281 33.6328 42.8958C33.6328 43.8636 32.8453 44.6491 31.875 44.6491ZM31.875 37.1686H28.125C27.1531 37.1686 26.3672 36.3831 26.3672 35.4153C26.3672 34.4475 27.1531 33.6621 28.125 33.6621H31.875C32.8469 33.6621 33.6328 34.446 33.6328 35.4153C33.6328 36.3847 32.8453 37.1686 31.875 37.1686ZM31.875 29.6881H28.125C27.1531 29.6881 26.3672 28.9026 26.3672 27.9348C26.3672 26.967 27.1531 26.1816 28.125 26.1816H31.875C32.8469 26.1816 33.6328 26.9655 33.6328 27.9348C33.6328 28.9042 32.8453 29.6881 31.875 29.6881ZM46.875 44.6491H43.125C42.1531 44.6491 41.3672 43.8636 41.3672 42.8958C41.3672 41.9281 42.1531 41.1426 43.125 41.1426H46.875C47.8453 41.1426 48.6328 41.9281 48.6328 42.8958C48.6328 43.8636 47.8453 44.6491 46.875 44.6491ZM46.875 37.1686H43.125C42.1531 37.1686 41.3672 36.3831 41.3672 35.4153C41.3672 34.4475 42.1531 33.6621 43.125 33.6621H46.875C47.8453 33.6621 48.6328 34.446 48.6328 35.4153C48.6328 36.3847 47.8453 37.1686 46.875 37.1686ZM46.875 29.6881H43.125C42.1531 29.6881 41.3672 28.9026 41.3672 27.9348C41.3672 26.967 42.1531 26.1816 43.125 26.1816H46.875C47.8453 26.1816 48.6328 26.9655 48.6328 27.9348C48.6328 28.9042 47.8453 29.6881 46.875 29.6881Z" fill="#3F92D1"/>
</svg>
