<svg width="41" height="54" viewBox="0 0 41 54" fill="none" xmlns="http://www.w3.org/2000/svg">
<path d="M8.80263 3.23145C6.84628 3.23145 5.26221 4.81357 5.26221 6.77479C5.26221 8.73113 6.84628 10.3188 8.80263 10.3188C10.7606 10.3188 12.343 8.73113 12.343 6.77479C12.343 4.81357 10.7606 3.23145 8.80263 3.23145Z" fill="#264970"/>
<path d="M32.0629 3.23145C30.1056 3.23145 28.5234 4.81357 28.5234 6.77479C28.5234 8.73113 30.1056 10.3188 32.0629 10.3188C34.0147 10.3188 35.6027 8.73113 35.6027 6.77479C35.6027 4.81357 34.0147 3.23405 32.0629 3.23145Z" fill="#264970"/>
<path d="M20.433 0C18.4767 0 16.8926 1.5818 16.8926 3.54367C16.8926 5.50002 18.4767 7.088 20.433 7.088C22.3906 7.088 23.9728 5.50002 23.9728 3.54367C23.9728 1.5818 22.3906 0 20.433 0Z" fill="#264970"/>
<path d="M40.4323 13.1054C40.2351 12.9557 39.9985 12.8779 39.7584 12.8779C39.625 12.8779 39.4902 12.9023 39.3627 12.9515C36.9654 13.8681 34.5311 14.5642 32.3092 15.0819C31.8559 15.1877 31.4898 15.5241 31.3382 15.9283C29.7193 20.3626 25.5856 24.5851 21.2486 29.0077C21.0745 29.173 20.8308 29.391 20.4338 29.391C20.0378 29.391 19.7963 29.1798 19.619 29.0077C15.2826 24.5851 11.149 20.3772 9.52944 15.9426C9.37747 15.5388 9.01139 15.2023 8.55908 15.0962C6.3359 14.5785 3.89536 13.861 1.50102 12.9443C1.37281 12.8955 1.23809 12.8711 1.10435 12.8711C0.864197 12.8711 0.631857 12.9466 0.435312 13.0966C0.128128 13.3309 -0.0313206 13.711 0.00512487 14.0761C0.372183 17.7636 1.82935 21.3684 4.45896 25.1461C6.93075 28.6975 10.1549 31.9851 13.2719 35.164C19.0154 41.0223 24.4409 46.5552 24.9169 52.9712C24.9599 53.5498 25.4421 53.9985 26.0236 53.9985H32.7713C33.0752 53.9985 33.3654 53.8736 33.5753 53.6533C33.7842 53.4333 33.8949 53.1378 33.8796 52.8339C33.6674 48.5444 32.0531 44.2487 28.9445 39.7028C28.293 38.7497 27.5953 37.8223 26.8658 36.9147C26.5693 36.545 26.6933 36.0859 26.9201 35.8542C27.1443 35.6248 27.3695 35.396 27.596 35.164C30.7134 31.9848 33.9369 28.6975 36.4093 25.1461C39.0386 21.3681 40.4951 17.7844 40.8625 14.0975C40.8992 13.7269 40.731 13.3338 40.4323 13.1054Z" fill="#264970"/>
<path d="M13.1928 40.1558C13.0333 39.9889 12.7987 39.8184 12.405 39.8184C11.9012 39.8184 11.6025 40.1665 11.4896 40.339C8.65141 44.6581 7.18546 48.7345 6.98273 52.831C6.96808 53.133 7.07937 53.433 7.28828 53.6537C7.49817 53.873 7.79234 53.9996 8.09562 53.9996H14.8319C15.4114 53.9996 15.8995 53.5459 15.9421 52.968C16.0889 50.9938 16.7036 49.0147 17.8227 46.935C18.2105 46.2155 17.9092 45.5397 17.686 45.2507C16.5757 43.8069 15.2158 42.2667 13.1928 40.1558Z" fill="#264970"/>
<path d="M20.4397 16.413C22.5545 16.413 23.781 16.2861 24.2118 16.2861C24.7338 16.2861 25.2326 16.7137 25.2326 17.3125C25.2326 17.4872 25.1913 17.6122 25.1503 17.7225C24.8698 18.4722 23.5916 21.1698 21.2119 23.4838C20.9451 23.7435 20.6424 23.792 20.4342 23.792H20.4316C20.2236 23.792 19.9213 23.7435 19.6545 23.4838C17.2748 21.1698 15.9963 18.4722 15.7164 17.7225C15.6751 17.6122 15.6338 17.4872 15.6338 17.3125C15.6338 16.7137 16.1333 16.2861 16.6552 16.2861C17.0861 16.2861 18.3119 16.413 20.4257 16.413H20.4397Z" fill="#264970"/>
</svg>
