<svg width="11" height="11" viewBox="0 0 11 11" fill="none" xmlns="http://www.w3.org/2000/svg">
<path d="M6.10813 5.49946L10.8743 0.733477C11.0419 0.565947 11.0419 0.293176 10.8743 0.125647C10.7067 -0.0418823 10.4338 -0.0418823 10.2662 0.125647L5.5 4.89163L0.731686 0.127795C0.564075 -0.0418823 0.293319 -0.0418823 0.125708 0.127795C-0.0419027 0.297471 -0.0419027 0.568095 0.125708 0.735624L4.89187 5.49946L0.125708 10.2655C-0.0419027 10.433 -0.0419027 10.7058 0.125708 10.8733C0.209514 10.957 0.319105 11 0.428697 11C0.538289 11 0.64788 10.957 0.731686 10.8733L5.5 6.10729L10.2683 10.8733C10.3521 10.957 10.4617 11 10.5713 11C10.6809 11 10.7905 10.957 10.8743 10.8733C11.0419 10.7058 11.0419 10.433 10.8743 10.2655L6.10813 5.49946Z" fill="#C3002F"/>
</svg>
