<svg width="285" height="235" viewBox="0 0 285 235" fill="none" xmlns="http://www.w3.org/2000/svg">
<path d="M135.765 224.63C190.311 224.63 234.53 222.049 234.53 218.864C234.53 215.679 190.311 213.097 135.765 213.097C81.2186 213.097 37 215.679 37 218.864C37 222.049 81.2186 224.63 135.765 224.63Z" fill="#FAFAFA"/>
<path d="M202.615 145.383H173.328C172.684 145.394 172.045 145.269 171.454 145.014C170.862 144.76 170.332 144.382 169.897 143.906C169.463 143.431 169.136 142.868 168.936 142.255C168.736 141.643 168.67 140.995 168.74 140.355L174.318 76.6362C174.454 75.2732 175.085 74.0075 176.094 73.0804C177.102 72.1532 178.416 71.6294 179.785 71.6087H209.072C209.716 71.5969 210.355 71.7225 210.946 71.977C211.538 72.2316 212.068 72.6093 212.503 73.085C212.937 73.5607 213.264 74.1235 213.464 74.7358C213.664 75.3482 213.73 75.996 213.66 76.6362L208.082 140.355C207.946 141.718 207.315 142.984 206.306 143.911C205.298 144.838 203.984 145.362 202.615 145.383Z" fill="#007CFF"/>
<path opacity="0.1" d="M202.615 145.383H173.328C172.684 145.394 172.045 145.269 171.454 145.014C170.862 144.76 170.332 144.382 169.897 143.906C169.463 143.431 169.136 142.868 168.936 142.255C168.736 141.643 168.67 140.995 168.74 140.355L174.318 76.6362C174.454 75.2732 175.085 74.0075 176.094 73.0804C177.102 72.1532 178.416 71.6294 179.785 71.6087H209.072C209.716 71.5969 210.355 71.7225 210.946 71.977C211.538 72.2316 212.068 72.6093 212.503 73.085C212.937 73.5607 213.264 74.1235 213.464 74.7358C213.664 75.3482 213.73 75.996 213.66 76.6362L208.082 140.355C207.946 141.718 207.315 142.984 206.306 143.911C205.298 144.838 203.984 145.362 202.615 145.383Z" fill="black"/>
<path opacity="0.8" d="M190.698 140.683C190.633 141.331 190.332 141.933 189.853 142.374C189.373 142.815 188.749 143.064 188.097 143.074C187.791 143.079 187.488 143.019 187.207 142.897C186.926 142.776 186.674 142.596 186.467 142.37C186.261 142.144 186.105 141.877 186.01 141.586C185.914 141.295 185.882 140.987 185.915 140.683C185.982 140.036 186.284 139.436 186.763 138.995C187.242 138.555 187.865 138.304 188.516 138.291C188.822 138.285 189.126 138.345 189.408 138.466C189.689 138.587 189.942 138.766 190.148 138.993C190.355 139.219 190.511 139.487 190.605 139.778C190.7 140.07 190.732 140.378 190.698 140.683V140.683Z" stroke="white" stroke-width="0.5" stroke-miterlimit="10"/>
<path opacity="0.8" d="M198.696 77.3057H189.206C189.092 77.3074 188.979 77.2848 188.874 77.2394C188.77 77.194 188.676 77.1268 188.6 77.0424C188.523 76.9579 188.465 76.8581 188.43 76.7496C188.395 76.6411 188.384 76.5264 188.397 76.4131V76.197C188.422 75.9558 188.535 75.7321 188.713 75.5678C188.892 75.4035 189.124 75.3099 189.366 75.3044H198.849C198.964 75.3017 199.078 75.3235 199.183 75.3685C199.289 75.4135 199.383 75.4805 199.46 75.5651C199.538 75.6496 199.596 75.7498 199.631 75.8588C199.667 75.9678 199.678 76.0831 199.665 76.197V76.4131C199.641 76.6549 199.529 76.8794 199.351 77.044C199.172 77.2086 198.939 77.3017 198.696 77.3057V77.3057Z" stroke="white" stroke-width="0.5" stroke-miterlimit="10"/>
<path opacity="0.4" d="M205.557 134.762H171.836L176.592 80.4082H210.313L205.557 134.762Z" fill="white"/>
<path opacity="0.1" d="M196.806 71.8389L180.476 145.383H190.287L206.457 71.8389H196.806Z" fill="white"/>
<path opacity="0.1" d="M189.171 71.8389L172.84 145.383H177.791L193.954 71.8389H189.171Z" fill="white"/>
<path d="M182.553 131.827H174.221L174.723 126.067H183.062L182.553 131.827Z" fill="#007CFF"/>
<path d="M193.132 131.827H184.799L185.301 126.067H193.641L193.132 131.827Z" fill="#007CFF"/>
<path d="M203.717 131.827H195.377L195.879 126.067H204.219L203.717 131.827Z" fill="#007CFF"/>
<path d="M204.999 117.128H175.504L175.462 117.637H204.958L204.999 117.128Z" fill="#007CFF"/>
<path opacity="0.2" d="M204.999 117.128H175.504L175.462 117.637H204.958L204.999 117.128Z" fill="black"/>
<path d="M205.167 115.176H202.447L202.684 112.456H205.411L205.167 115.176Z" fill="#007CFF"/>
<path d="M191.793 115.176H189.073L189.31 112.456H192.03L191.793 115.176Z" fill="#007CFF"/>
<path d="M178.419 115.176H175.699L175.936 112.456H178.656L178.419 115.176Z" fill="#007CFF"/>
<path d="M204.532 122.456H196.799L196.96 120.587H204.7L204.532 122.456Z" fill="#007CFF"/>
<path d="M195.363 109.5H176.208L176.376 107.603H195.53L195.363 109.5Z" fill="#007CFF"/>
<path opacity="0.2" d="M195.363 109.5H176.208L176.376 107.603H195.53L195.363 109.5Z" fill="white"/>
<path d="M187.239 84.3482H178.405L178.586 82.333H187.421L187.239 84.3482Z" fill="#007CFF"/>
<path opacity="0.2" d="M187.239 84.3482H178.405L178.586 82.333H187.421L187.239 84.3482Z" fill="white"/>
<path d="M177.303 123.78C177.002 123.79 176.702 123.734 176.424 123.616C176.147 123.499 175.898 123.323 175.695 123.1C175.491 122.878 175.338 122.614 175.247 122.327C175.155 122.04 175.126 121.737 175.162 121.437V121.437C175.227 120.802 175.523 120.213 175.993 119.781C176.463 119.349 177.076 119.105 177.714 119.095V119.095C178.015 119.086 178.314 119.143 178.591 119.261C178.867 119.379 179.115 119.555 179.318 119.777C179.521 119.999 179.673 120.263 179.764 120.549C179.856 120.836 179.884 121.139 179.848 121.437V121.437C179.783 122.072 179.489 122.66 179.02 123.092C178.551 123.523 177.94 123.768 177.303 123.78V123.78Z" fill="#007CFF"/>
<path d="M205.927 106.076H176.494L178.272 85.7427H207.705L205.927 106.076Z" fill="#007CFF"/>
<path opacity="0.3" d="M174.179 78.31H184.904C186.154 78.2892 187.353 77.8108 188.275 76.9653C189.196 76.1197 189.775 74.9658 189.903 73.7218L190.092 71.6299H179.946C178.536 71.655 177.184 72.1961 176.145 73.1508C175.107 74.1055 174.455 75.4076 174.312 76.8108L174.179 78.31Z" fill="black"/>
<path d="M214.094 87.752L213.916 90.207L214.424 90.2438L214.602 87.7887L214.094 87.752Z" fill="#007CFF"/>
<path d="M214.763 78.4634L214.248 85.5781L214.756 85.6149L215.271 78.5001L214.763 78.4634Z" fill="#007CFF"/>
<path d="M183.871 71.6506H97.4695L102.26 16.8779H188.662L183.871 71.6506Z" fill="#007CFF"/>
<path d="M182.686 75.9389H97.5392C96.9796 75.9481 96.4244 75.8382 95.9105 75.6164C95.3966 75.3946 94.9358 75.0661 94.5586 74.6526C94.1814 74.2392 93.8964 73.7502 93.7227 73.2182C93.5489 72.6862 93.4902 72.1233 93.5506 71.5668L98.3132 17.1359C98.437 15.9528 98.9885 14.8557 99.8642 14.0506C100.74 13.2456 101.879 12.788 103.069 12.7638H188.209C188.769 12.7536 189.325 12.8628 189.839 13.0841C190.354 13.3055 190.816 13.6338 191.194 14.0474C191.572 14.461 191.857 14.9503 192.032 15.4829C192.206 16.0154 192.265 16.5789 192.204 17.1359L187.442 71.5668C187.318 72.7499 186.766 73.847 185.891 74.6521C185.015 75.4572 183.875 75.9148 182.686 75.9389V75.9389Z" fill="#007CFF"/>
<path d="M183.871 71.6506H97.4695L102.26 16.8779H188.662L183.871 71.6506Z" fill="#007CFF"/>
<path opacity="0.4" d="M183.871 71.6506H97.4695L102.26 16.8779H188.662L183.871 71.6506Z" fill="white"/>
<path d="M178.272 32.7765H162.409L163.19 23.8511H179.053L178.272 32.7765Z" fill="#007CFF"/>
<path d="M176.731 50.3766H160.868L161.649 41.4512H177.512L176.731 50.3766Z" fill="#007CFF"/>
<path d="M175.19 67.983H159.327L160.108 59.0576H175.971L175.19 67.983Z" fill="#007CFF"/>
<path d="M107.064 61.1426L107.022 61.6516H152.807L152.849 61.1426H107.064Z" fill="#007CFF"/>
<path opacity="0.2" d="M152.849 61.1426H107.064L107.022 61.6516H152.807L152.849 61.1426Z" fill="black"/>
<path opacity="0.1" d="M112.998 12.792L96.1238 75.9113H101.8L118.486 12.792H112.998Z" fill="white"/>
<path opacity="0.1" d="M121.763 12.792L104.882 75.9113H116.143L132.836 12.792H121.763Z" fill="white"/>
<path d="M153.358 55.3199H107.629L110.397 23.7324H156.126L153.358 55.3199Z" fill="#007CFF"/>
<path d="M108.884 67.7737C108.583 67.7819 108.284 67.7252 108.008 67.6074C107.731 67.4896 107.483 67.3135 107.28 67.0911C107.078 66.8688 106.926 66.6053 106.834 66.3188C106.743 66.0323 106.714 65.7294 106.75 65.4308V65.4308C106.813 64.7962 107.108 64.2068 107.577 63.7749C108.046 63.3429 108.658 63.0984 109.295 63.0879V63.0879C109.597 63.0787 109.896 63.1346 110.174 63.252C110.452 63.3693 110.701 63.5453 110.904 63.7678C111.107 63.9903 111.26 64.2541 111.352 64.5411C111.444 64.8281 111.472 65.1316 111.436 65.4308V65.4308C111.37 66.0655 111.074 66.654 110.604 67.0856C110.134 67.5171 109.522 67.7619 108.884 67.7737Z" fill="#007CFF"/>
<path d="M130.159 59.2043H107.294L107.469 57.1821H130.333L130.159 59.2043Z" fill="#007CFF"/>
<path opacity="0.2" d="M130.159 59.2043H107.294L107.469 57.1821H130.333L130.159 59.2043Z" fill="white"/>
<path d="M152.361 66.4421H143.526L143.7 64.4199H152.535L152.361 66.4421Z" fill="#007CFF"/>
<path d="M153.023 59.2043H151.001L151.175 57.1821H153.197L153.023 59.2043Z" fill="#007CFF"/>
<path d="M149.599 59.2043H147.577L147.758 57.1821H149.774L149.599 59.2043Z" fill="#007CFF"/>
<path d="M146.176 59.2043H144.16L144.335 57.1821H146.35L146.176 59.2043Z" fill="#007CFF"/>
<path opacity="0.5" d="M156.293 21.794H122L122.147 20.0508H156.447L156.293 21.794Z" fill="white"/>
<path d="M119.288 21.9333H110.453L110.634 19.9111H119.469L119.288 21.9333Z" fill="#007CFF"/>
<path opacity="0.2" d="M119.288 21.9333H110.453L110.634 19.9111H119.469L119.288 21.9333Z" fill="white"/>
<path d="M179.005 11.0789L179 11.5879L181.462 11.6085L181.466 11.0995L179.005 11.0789Z" fill="#007CFF"/>
<path d="M169.936 11.0002L169.931 11.5093L177.064 11.5806L177.069 11.0716L169.936 11.0002Z" fill="#007CFF"/>
<path d="M151.587 86.5171H154.341L149.272 142.636H146.657L151.587 86.5171Z" fill="#1A2E35"/>
<path opacity="0.2" d="M151.587 86.5171H154.341L149.272 142.636H146.657L151.587 86.5171Z" fill="white"/>
<path d="M151.312 113.487L150.807 113.553L154.393 140.714L154.897 140.648L151.312 113.487Z" fill="#1A2E35"/>
<path d="M147.961 139.616H63.0508L67.7017 86.5171H152.605L147.961 139.616Z" fill="#007CFF"/>
<path opacity="0.7" d="M147.961 139.616H63.0508L67.7017 86.5171H152.605L147.961 139.616Z" fill="white"/>
<path d="M81.6548 145.982H85.1761L90.9149 220.558H88.3767L81.6548 145.982Z" fill="#3F92D1"/>
<path d="M166.111 145.473H169.625L175.364 220.558H172.826L166.111 145.473Z" fill="#3F92D1"/>
<path d="M168.58 145.473H63.762V157.292H168.58V145.473Z" fill="#007CFF"/>
<path opacity="0.3" d="M150.164 145.564L149.76 157.285L168.58 157.299V145.473L150.164 145.564Z" fill="black"/>
<path opacity="0.2" d="M148.567 145.564H63.769V157.384H148.567V145.564Z" fill="black"/>
<path d="M66.07 145.473H62.5556L62.458 220.558H64.9892L66.07 145.473Z" fill="#1A2E35"/>
<path d="M150.527 145.473H147.005L146.908 220.558H149.439L150.527 145.473Z" fill="#1A2E35"/>
<path d="M62.5556 145.473L62.458 220.558H64.9892L66.07 145.473H62.5556Z" fill="#3F92D1"/>
<path d="M150.527 145.473H147.005L146.908 220.558H149.439L150.527 145.473Z" fill="#3F92D1"/>
<path d="M59.634 142.635C59.634 141.046 60.2267 139.756 60.9589 139.749H171.222C171.92 139.749 172.54 141.046 172.547 142.635C172.547 144.225 171.955 145.515 171.222 145.522H60.9589C60.2058 145.515 59.634 144.225 59.634 142.635Z" fill="#1A2E35"/>
<path opacity="0.6" d="M59.634 142.635C59.634 141.046 60.2267 139.756 60.9589 139.749H171.222C171.92 139.749 172.54 141.046 172.547 142.635C172.547 144.225 171.955 145.515 171.222 145.522H60.9589C60.2058 145.515 59.634 144.225 59.634 142.635Z" fill="#265E6D"/>
<path d="M144.084 142.635C144.084 141.046 144.676 139.756 145.409 139.749H171.209C171.906 139.749 172.526 141.046 172.533 142.635C172.533 144.225 171.941 145.515 171.209 145.522H145.409C144.676 145.515 144.091 144.225 144.084 142.635Z" fill="#265E6D"/>
<path d="M142.557 132.776H116.854L120.48 91.3496H146.176L142.557 132.776Z" fill="white"/>
<path d="M142.787 133.027H116.575L120.243 91.0981H146.454L142.787 133.027ZM117.133 132.525H142.319L145.903 91.6141H120.71L117.133 132.525Z" fill="white"/>
<path d="M125.257 130.928H118.981L119.364 126.521H125.64L125.257 130.928ZM119.274 130.67H125.054L125.396 126.779H119.615L119.274 130.67Z" fill="#E1E1E1"/>
<path d="M132.878 130.928H126.603L126.986 126.521H133.262L132.878 130.928ZM126.895 130.67H132.641L132.983 126.779H127.237L126.895 130.67Z" fill="#E1E1E1"/>
<path d="M140.492 130.928H134.217L134.6 126.521H140.876L140.492 130.928ZM134.51 130.67H140.262L140.604 126.779H134.851L134.51 130.67Z" fill="#E1E1E1"/>
<path d="M141.294 120.266H120.048V120.524H141.294V120.266Z" fill="#E1E1E1"/>
<path d="M134.531 114.332H120.473L120.613 112.714H134.67L134.531 114.332ZM120.752 114.081H134.294L134.391 112.965H120.871L120.752 114.081Z" fill="#E1E1E1"/>
<path d="M141.043 124.687H135.214L135.353 123.083H141.183L141.043 124.687ZM135.465 124.429H140.778L140.876 123.341H135.563L135.465 124.429Z" fill="#E1E1E1"/>
<path d="M141.587 118.425H139.377L139.565 116.215H141.79L141.587 118.425ZM139.656 118.167H141.357L141.504 116.466H139.802L139.656 118.167Z" fill="#E1E1E1"/>
<path d="M131.958 118.425H129.74L129.935 116.215H132.153L131.958 118.425ZM130.019 118.167H131.721L131.874 116.466H130.166L130.019 118.167Z" fill="#E1E1E1"/>
<path d="M122.321 118.425H120.111L120.299 116.215H122.516L122.321 118.425ZM120.383 118.167H122.091L122.265 116.487H120.564L120.383 118.167Z" fill="#E1E1E1"/>
<path d="M128.764 95.2054H122.146L122.3 93.4971H128.917L128.764 95.2054ZM122.425 94.9474H128.541L128.645 93.7481H122.537L122.425 94.9474Z" fill="#E1E1E1"/>
<path d="M121.638 125.126H121.08C120.883 125.127 120.688 125.087 120.508 125.007C120.328 124.928 120.167 124.811 120.035 124.665C119.903 124.519 119.804 124.346 119.744 124.159C119.684 123.972 119.664 123.774 119.685 123.578L119.734 123.027C119.778 122.614 119.971 122.232 120.276 121.951C120.581 121.67 120.979 121.51 121.394 121.5H121.951C122.148 121.499 122.343 121.539 122.523 121.619C122.703 121.698 122.864 121.815 122.996 121.961C123.128 122.107 123.227 122.28 123.287 122.467C123.348 122.654 123.368 122.852 123.346 123.048L123.297 123.606C123.252 124.017 123.058 124.398 122.753 124.678C122.448 124.957 122.051 125.117 121.638 125.126ZM121.373 121.751C121.022 121.761 120.688 121.898 120.431 122.137C120.175 122.376 120.013 122.699 119.978 123.048L119.929 123.606C119.911 123.768 119.927 123.932 119.978 124.088C120.028 124.243 120.112 124.385 120.222 124.505C120.332 124.624 120.466 124.719 120.615 124.783C120.764 124.846 120.925 124.878 121.087 124.875H121.645C121.995 124.866 122.331 124.73 122.588 124.491C122.845 124.252 123.005 123.927 123.039 123.578L123.088 123.027C123.107 122.865 123.091 122.701 123.041 122.545C122.991 122.39 122.909 122.247 122.799 122.126C122.69 122.005 122.555 121.909 122.405 121.845C122.256 121.78 122.094 121.748 121.931 121.751H121.373Z" fill="#E1E1E1"/>
<path d="M142.18 111.361H120.724V111.222L122.014 96.46H143.47V96.5994L142.18 111.361ZM121.003 111.103H141.922L143.184 96.718H122.265L121.003 111.103Z" fill="#E1E1E1"/>
<path d="M122.227 96.484L122.074 96.6919L141.991 111.333L142.144 111.125L122.227 96.484Z" fill="#E1E1E1"/>
<path d="M132.805 103.304L120.791 111.127L120.932 111.343L132.946 103.52L132.805 103.304Z" fill="#E1E1E1"/>
<path d="M125.068 130.9L119.42 126.751L119.574 126.549L125.215 130.698L125.068 130.9Z" fill="#E1E1E1"/>
<path d="M125.442 126.538L119.073 130.686L119.213 130.902L125.583 126.754L125.442 126.538Z" fill="#E1E1E1"/>
<path d="M132.683 130.9L127.042 126.751L127.195 126.549L132.836 130.698L132.683 130.9Z" fill="#E1E1E1"/>
<path d="M133.057 126.536L126.688 130.684L126.829 130.9L133.197 126.752L133.057 126.536Z" fill="#E1E1E1"/>
<path d="M140.304 130.9L134.663 126.751L134.81 126.549L140.458 130.698L140.304 130.9Z" fill="#E1E1E1"/>
<path d="M140.678 126.542L134.309 130.691L134.45 130.907L140.819 126.759L140.678 126.542Z" fill="#E1E1E1"/>
<path d="M113.633 123.815H66.1328L68.9638 91.4468H116.464L113.633 123.815Z" fill="white"/>
<path d="M113.897 124.073H65.8538L68.7336 91.1958H116.735L113.897 124.073ZM66.4813 123.564H113.465L116.254 91.7048H69.1938L66.4813 123.564Z" fill="white"/>
<path d="M97.4484 118.056H71.6624V118.314H97.4484V118.056Z" fill="#E1E1E1"/>
<path d="M97.9923 113.363H71.9832V113.223L73.5521 95.3169H99.5543V95.4564L97.9923 113.363ZM72.2621 113.105H97.7622L99.2962 95.5749H73.7961L72.2621 113.105Z" fill="#E1E1E1"/>
<path d="M73.0499 121.898H72.3526C72.213 121.897 72.0749 121.868 71.9474 121.811C71.8199 121.754 71.7058 121.671 71.6124 121.567C71.5191 121.463 71.4486 121.341 71.4055 121.208C71.3625 121.075 71.3478 120.935 71.3624 120.796L71.4252 120.099C71.4542 119.804 71.5902 119.531 71.8075 119.33C72.0247 119.13 72.308 119.016 72.6036 119.011H73.3009C73.4423 119.01 73.5823 119.039 73.712 119.095C73.8416 119.152 73.9581 119.235 74.054 119.338C74.1475 119.444 74.2186 119.568 74.263 119.703C74.3073 119.837 74.324 119.979 74.312 120.119L74.2492 120.817C74.2167 121.113 74.0766 121.386 73.8554 121.586C73.6343 121.785 73.3476 121.896 73.0499 121.898V121.898ZM72.5757 119.276C72.3443 119.281 72.1227 119.37 71.9522 119.527C71.7816 119.683 71.6736 119.896 71.6483 120.126L71.5925 120.824C71.5814 120.929 71.5923 121.036 71.6248 121.136C71.6572 121.237 71.7103 121.33 71.7808 121.409C71.8522 121.488 71.9395 121.55 72.0369 121.592C72.1343 121.635 72.2395 121.655 72.3456 121.654H73.0429C73.2743 121.648 73.4959 121.559 73.6665 121.402C73.8371 121.246 73.945 121.033 73.9703 120.803L74.0261 120.106C74.0373 120 74.0263 119.894 73.9939 119.793C73.9615 119.692 73.9083 119.599 73.8378 119.52C73.7665 119.441 73.6792 119.379 73.5818 119.337C73.4844 119.295 73.3791 119.274 73.273 119.276H72.5757Z" fill="#E1E1E1"/>
<path d="M84.8344 116.564H71.7043L71.8299 115.169H84.96L84.8344 116.564ZM71.9833 116.313H84.6113L84.688 115.427H72.06L71.9833 116.313Z" fill="#E1E1E1"/>
<path d="M97.2952 121.151H92.0654L92.184 119.757H97.4137L97.2952 121.151ZM92.3443 120.893H97.065L97.1417 120.015H92.421L92.3443 120.893Z" fill="#E1E1E1"/>
<path d="M97.7134 116.564H96.3188L96.4444 115.169H97.839L97.7134 116.564ZM96.5978 116.313H97.4764L97.5531 115.427H96.6745L96.5978 116.313Z" fill="#E1E1E1"/>
<path d="M95.7679 116.564H94.3733L94.4918 115.169H95.8864L95.7679 116.564ZM94.6522 116.313H95.5308L95.6075 115.427H94.7289L94.6522 116.313Z" fill="#E1E1E1"/>
<path d="M93.8575 116.564H92.4629L92.5884 115.169H93.983L93.8575 116.564ZM92.7418 116.313H93.6274L93.7041 115.427H92.8185L92.7418 116.313Z" fill="#E1E1E1"/>
<path d="M99.6867 93.971H80.1206L80.2252 92.7368H99.7983L99.6867 93.971ZM80.4274 93.713H99.4845L99.5473 93.0157H80.4623L80.4274 93.713Z" fill="#E1E1E1"/>
<path d="M78.8515 94.0479H73.6218L73.7404 92.6533H78.9701L78.8515 94.0479ZM73.9007 93.7969H78.6145L78.6912 92.9113H73.9774L73.9007 93.7969Z" fill="#E1E1E1"/>
<path d="M111.973 101.147H102.79L103.25 95.8682H112.44L111.973 101.147ZM103.061 100.889H111.743L112.161 96.1192H103.48L103.061 100.889Z" fill="#E1E1E1"/>
<path d="M111.108 111.09H101.918L102.378 105.805H111.569L111.108 111.09ZM102.197 110.832H110.878L111.29 106.063H102.615L102.197 110.832Z" fill="#E1E1E1"/>
<path d="M110.244 120.998H101.053L101.513 115.72H110.704L110.244 120.998ZM101.346 120.747H110.02L110.439 115.971H101.751L101.346 120.747Z" fill="#E1E1E1"/>
<path d="M112.24 95.8955L102.871 100.925L102.993 101.153L112.362 96.1228L112.24 95.8955Z" fill="#E1E1E1"/>
<path d="M111.792 101.153L103.299 96.1328L103.431 95.9097L111.924 100.937L111.792 101.153Z" fill="#E1E1E1"/>
<path d="M111.381 105.822L102.006 110.841L102.128 111.068L111.503 106.05L111.381 105.822Z" fill="#E1E1E1"/>
<path d="M102.559 105.83L102.431 106.046L110.923 111.071L111.051 110.855L102.559 105.83Z" fill="#E1E1E1"/>
<path d="M101.046 121.096L101.521 115.636L105.879 118.216L110.502 115.733L110.627 115.957L106.137 118.362L110.188 120.761L110.062 120.984L105.879 118.502L101.046 121.096ZM101.744 116.061L101.346 120.67L105.628 118.376L101.744 116.061Z" fill="#E1E1E1"/>
<path d="M99.3727 95.341L72.0608 113.125L72.2016 113.341L99.5135 95.5572L99.3727 95.341Z" fill="#E1E1E1"/>
<path d="M73.7629 95.3424L73.6101 95.5503L97.8079 113.338L97.9608 113.131L73.7629 95.3424Z" fill="#E1E1E1"/>
<path d="M101.444 203.788L100.879 216.2C100.879 216.2 105.446 217.595 105.914 215.733C106.2 214.568 107.071 210.524 107.852 207.365C108.152 206.173 107.852 205.015 107.238 204.576C106.227 203.83 104.498 203.851 101.444 203.788Z" fill="#FF8B7B"/>
<path d="M72.9525 203.147L68.1899 212.547C68.1899 212.547 70.9024 215.984 72.039 214.604C73.58 212.728 78.5518 206.62 78.5518 206.62C78.5518 206.62 80.288 206.843 72.9525 203.147Z" fill="#FF8B7B"/>
<path opacity="0.2" d="M70.7002 207.589L75.9648 209.799L78.0846 207.191L72.039 204.953L70.7002 207.589Z" fill="black"/>
<path opacity="0.2" d="M101.235 208.355L101.109 211.214H106.939L107.65 208.355H101.235Z" fill="black"/>
<path d="M70.9651 130.788L73.2243 133.424L75.9577 131.423C75.9577 131.423 75.0512 127.469 74.6329 127.755L70.9651 130.237V130.788Z" fill="#FF8B7B"/>
<path opacity="0.2" d="M70.9651 130.788L73.2243 133.424L75.9577 131.423C75.9577 131.423 75.0512 127.469 74.6329 127.755L70.9651 130.237V130.788Z" fill="black"/>
<path d="M73.1408 96.7256L63.1625 105.721C62.5358 106.416 62.1407 107.288 62.032 108.218C61.9233 109.147 62.1064 110.088 62.5558 110.909C65.0452 115.476 70.9652 124.701 70.9652 124.701L73.8659 122.609C73.8659 122.609 70.3795 112.303 68.9849 110.149C68.9442 110.086 68.9281 110.011 68.9397 109.938C68.9513 109.864 68.9898 109.798 69.0476 109.751L77.4919 102.778L73.1408 96.7256Z" fill="#FF8B7B"/>
<g opacity="0.2">
<path opacity="0.2" d="M73.1408 96.7256L63.1625 105.721C62.5358 106.416 62.1407 107.288 62.032 108.218C61.9233 109.147 62.1064 110.088 62.5558 110.909C65.0452 115.476 70.9652 124.701 70.9652 124.701L73.8659 122.609C73.8659 122.609 70.3795 112.303 68.9849 110.149C68.9442 110.086 68.9281 110.011 68.9397 109.938C68.9513 109.864 68.9898 109.798 69.0476 109.751L77.4919 102.778L73.1408 96.7256Z" fill="black"/>
</g>
<path d="M70.9651 124.701V130.238L75.0512 127.448C75.0512 127.448 75.3232 122.777 73.8658 122.567L70.9651 124.701Z" fill="#FF8B7B"/>
<path opacity="0.2" d="M70.9651 124.701V130.238L75.0512 127.448C75.0512 127.448 75.3232 122.777 73.8658 122.567L70.9651 124.701Z" fill="black"/>
<path d="M94.0319 169.74C93.9682 172.2 93.6599 174.648 93.1114 177.047C90.1898 189.313 78.7332 206.919 78.7332 206.919L72.0601 204.409C72.0601 204.409 81.5224 178.937 82.6102 172.445C83.4957 167.146 75.3304 147.796 72.9665 139.93C71.2512 134.247 73.6638 128.927 73.6638 128.927C73.6638 128.927 79.814 129.764 87.1077 130.224L89.9806 143.424L91.3054 149.539C92.2942 152.947 93.026 156.425 93.4949 159.943C93.4949 160.103 93.5368 160.249 93.5507 160.403C93.6065 160.802 93.6553 161.193 93.6972 161.574C94.002 164.285 94.1138 167.013 94.0319 169.74V169.74Z" fill="#007CFF"/>
<path opacity="0.4" d="M94.0319 169.74C93.9682 172.2 93.6599 174.648 93.1114 177.047C90.1898 189.313 78.7332 206.919 78.7332 206.919L72.0601 204.409C72.0601 204.409 81.5224 178.937 82.6102 172.445C83.4957 167.146 75.3304 147.796 72.9665 139.93C71.2512 134.247 73.6638 128.927 73.6638 128.927C73.6638 128.927 79.814 129.764 87.1077 130.224L89.9806 143.424L91.3054 149.539C92.2942 152.947 93.026 156.425 93.4949 159.943C93.4949 160.103 93.5368 160.249 93.5507 160.403C93.6065 160.802 93.6553 161.193 93.6972 161.574C94.002 164.285 94.1138 167.013 94.0319 169.74V169.74Z" fill="white"/>
<path opacity="0.4" d="M94.0315 169.739C93.0832 166.483 89.1993 156.804 84.102 147.209C79.0048 137.615 84.6111 135.209 84.6111 135.209C86.7657 135.99 88.5368 139.225 89.9523 143.423C91.6073 148.814 92.7742 154.342 93.4388 159.942C93.4388 160.102 93.4807 160.249 93.4946 160.402C93.5504 160.802 93.5992 161.193 93.641 161.574C93.9645 164.283 94.095 167.011 94.0315 169.739V169.739Z" fill="#1A2E35"/>
<path d="M98.6967 131.953L81.3061 130.635C80.6428 132.884 80.2427 135.203 80.1138 137.545C80.1138 148.144 87.5888 147.628 89.8759 152.927C94.9871 164.684 99.6381 171.894 100.182 175.199C100.628 177.8 100.677 210.064 100.677 210.064H107.462C107.462 210.064 113.41 184.801 112.301 174.502C111.192 164.203 98.6967 131.953 98.6967 131.953Z" fill="#007CFF"/>
<g opacity="0.4">
<path opacity="0.4" d="M98.6967 131.953L81.3061 130.635C80.6428 132.884 80.2427 135.203 80.1138 137.545C80.1138 148.144 87.5888 147.628 89.8759 152.927C94.9871 164.684 99.6381 171.894 100.182 175.199C100.628 177.8 100.677 210.064 100.677 210.064H107.462C107.462 210.064 113.41 184.801 112.301 174.502C111.192 164.203 98.6967 131.953 98.6967 131.953Z" fill="white"/>
</g>
<path d="M122.154 97.4858L132.264 102.555C132.314 102.582 132.359 102.617 132.397 102.66L133.059 103.413H132.118C132.058 103.412 131.998 103.398 131.944 103.371L121.666 98.5736C121.561 98.5248 121.478 98.4376 121.435 98.33C121.393 98.2223 121.393 98.1024 121.435 97.9948L121.533 97.7438C121.554 97.6841 121.588 97.6296 121.631 97.5836C121.675 97.5377 121.728 97.5014 121.786 97.4771C121.845 97.4528 121.908 97.441 121.971 97.4425C122.034 97.444 122.096 97.4587 122.154 97.4858V97.4858Z" fill="#007CFF"/>
<path d="M123.981 101.788L127.23 100.038L126.693 104.723C126.693 104.723 124.022 106.285 122.412 104.654L123.981 101.788Z" fill="#FF8B7B"/>
<path d="M130.877 101.92L130.626 103.413C130.586 103.644 130.473 103.857 130.304 104.02C130.135 104.184 129.918 104.288 129.685 104.319L126.693 104.723L127.23 100.038L130.019 100.651C130.299 100.71 130.545 100.876 130.705 101.112C130.865 101.349 130.926 101.639 130.877 101.92V101.92Z" fill="#FF8B7B"/>
<path d="M99.2546 101.613C99.2546 101.613 101.897 114.897 107.971 117.107C113.424 119.088 124.399 105.393 124.399 105.393L123.96 101.788L110.202 110.713L104.666 96.7114C102.777 98.2489 100.971 99.8852 99.2546 101.613V101.613Z" fill="#FF8B7B"/>
<path d="M73.9357 215.545C73.527 215.24 73.1487 214.897 72.8061 214.52C72.7908 214.501 72.7825 214.478 72.7825 214.453C72.7825 214.429 72.7908 214.406 72.8061 214.387C72.8151 214.366 72.831 214.348 72.8512 214.337C72.8714 214.325 72.8948 214.321 72.9177 214.324C73.1687 214.366 75.3303 214.708 75.6093 215.315C75.6398 215.369 75.6558 215.43 75.6558 215.492C75.6558 215.555 75.6398 215.616 75.6093 215.67C75.5584 215.759 75.4869 215.835 75.4008 215.891C75.3146 215.947 75.2163 215.981 75.1142 215.991C74.6808 215.987 74.2629 215.829 73.9357 215.545ZM73.2384 214.603C73.9985 215.377 74.633 215.803 75.0584 215.775C75.1279 215.77 75.1951 215.748 75.2537 215.71C75.3122 215.672 75.3602 215.62 75.3931 215.559C75.4047 215.538 75.4108 215.516 75.4108 215.492C75.4108 215.469 75.4047 215.446 75.3931 215.426C75.2327 215.077 74.0822 214.805 73.2106 214.603H73.2384Z" fill="#007CFF"/>
<path d="M72.82 214.534C72.8005 214.52 72.7858 214.5 72.7782 214.478C72.7696 214.46 72.7651 214.441 72.7651 214.422C72.7651 214.403 72.7696 214.384 72.7782 214.366C72.827 214.289 74.1728 212.832 75.0514 213.46L75.1351 213.515C75.3652 213.718 75.3443 213.899 75.2885 214.011C75.0375 214.506 73.4825 214.666 72.8479 214.541L72.82 214.534ZM74.9119 213.648C74.3471 213.237 73.4616 214.018 73.092 214.345C73.7893 214.408 74.9119 214.213 75.0653 213.913C75.0653 213.913 75.1211 213.822 74.9608 213.683L74.9119 213.648Z" fill="#007CFF"/>
<path d="M67.7438 212.086L65.4636 216.144C65.3668 216.323 65.3447 216.532 65.4023 216.727C65.4598 216.922 65.5922 217.086 65.7704 217.183C67.0047 217.881 68.6712 218.927 69.3964 219.275C73.1269 220.949 75.3443 220.509 77.4571 220.461C77.6289 220.445 77.795 220.391 77.9431 220.302C78.0911 220.214 78.2173 220.093 78.3124 219.949C78.4075 219.805 78.469 219.641 78.4923 219.471C78.5157 219.3 78.5003 219.126 78.4473 218.961L78.3497 218.648C78.3141 218.517 78.2453 218.397 78.15 218.301C78.0548 218.204 77.9362 218.134 77.8058 218.097C74.7307 217.288 72.9735 213.913 72.9735 213.913L68.7061 211.821C68.5413 211.739 68.3518 211.72 68.1741 211.769C67.9964 211.818 67.8431 211.931 67.7438 212.086V212.086Z" fill="#1A2E35"/>
<path d="M107.413 217.009C106.929 216.833 106.462 216.614 106.018 216.354C105.997 216.343 105.98 216.326 105.969 216.304C105.959 216.283 105.957 216.258 105.962 216.235C105.967 216.211 105.979 216.19 105.996 216.174C106.014 216.157 106.036 216.147 106.06 216.144C106.304 216.11 108.48 215.81 108.919 216.312C108.961 216.36 108.989 216.418 109.001 216.48C109.014 216.543 109.009 216.607 108.989 216.667C108.966 216.767 108.919 216.86 108.852 216.938C108.785 217.015 108.7 217.076 108.605 217.114C108.207 217.214 107.787 217.177 107.413 217.009ZM106.451 216.312C107.399 216.828 108.166 217.009 108.542 216.905C108.607 216.88 108.665 216.84 108.71 216.788C108.755 216.735 108.786 216.672 108.8 216.605C108.812 216.583 108.818 216.559 108.818 216.535C108.818 216.511 108.812 216.487 108.8 216.465C108.521 216.2 107.336 216.2 106.451 216.326V216.312Z" fill="#007CFF"/>
<path d="M105.941 216.458C105.927 216.453 105.913 216.445 105.902 216.434C105.891 216.423 105.882 216.41 105.876 216.396C105.87 216.381 105.867 216.366 105.868 216.35C105.868 216.334 105.872 216.319 105.879 216.305C105.879 216.221 106.764 214.436 107.789 214.785H107.88C108.166 214.91 108.201 215.092 108.18 215.217C108.082 215.761 106.639 216.368 105.99 216.423L105.941 216.458ZM107.72 215.001C107.064 214.771 106.444 215.775 106.186 216.2C106.883 216.061 107.887 215.545 107.95 215.217C107.95 215.217 107.95 215.113 107.782 215.029L107.72 215.001Z" fill="#007CFF"/>
<path d="M100.168 217.17C100.105 218.041 100.168 219.345 100.168 220.74C100.168 221.437 100.593 222.532 101.2 222.762C102.148 223.125 103.682 223.013 105.433 222.727C107.706 222.357 111.485 220.405 113.019 219.575C113.31 219.418 113.53 219.156 113.636 218.844C113.742 218.531 113.726 218.189 113.591 217.888C113.521 217.748 113.458 217.623 113.403 217.532C113.36 217.456 113.297 217.392 113.221 217.349C113.145 217.306 113.058 217.285 112.97 217.288C110.879 217.351 110.593 217.288 108.64 217.288C108.096 217.306 107.556 217.188 107.069 216.945C106.582 216.701 106.163 216.34 105.851 215.894C104.497 216.304 103.071 216.423 101.667 216.242C99.8891 215.859 100.168 217.17 100.168 217.17Z" fill="#1A2E35"/>
<path d="M82.6798 89.2158C80.7202 90.0407 78.8192 90.9983 76.9898 92.0817C75.1989 93.0576 73.6014 94.3526 72.2761 95.9029C72.1211 96.0306 71.9932 96.188 71.9 96.3659C71.8068 96.5437 71.75 96.7384 71.7331 96.9385C71.7162 97.1387 71.7395 97.3401 71.8016 97.5311C71.8637 97.7221 71.9634 97.8987 72.0948 98.0506C73.6477 100.469 75.6532 102.564 78.0009 104.222C78.5634 100.728 79.7667 97.369 81.5501 94.3131C82.4078 92.8418 83.4189 91.3774 83.5932 89.683L82.6798 89.2158Z" fill="#007CFF"/>
<path d="M108.466 79.1533C108.42 80.2665 108.525 81.3808 108.78 82.4655C108.504 82.5171 108.221 82.5077 107.95 82.4378C107.679 82.3679 107.427 82.2393 107.211 82.061L108.466 79.1533Z" fill="#BA221F"/>
<path d="M107.88 82.0684C107.752 82.0671 107.626 82.0483 107.503 82.0126C106.59 81.7406 106.109 80.5483 106.485 79.3489C106.862 78.1496 107.88 77.3965 108.786 77.6615C109.026 77.7378 109.244 77.8717 109.42 78.0516C109.597 78.2315 109.726 78.4519 109.797 78.6935C109.965 79.2245 109.965 79.7941 109.797 80.3251C109.697 80.7782 109.459 81.1891 109.116 81.5013C108.772 81.8135 108.341 82.0116 107.88 82.0684V82.0684ZM108.403 77.8846C107.996 77.9387 107.616 78.1182 107.317 78.3981C107.017 78.678 106.811 79.0445 106.729 79.4465C106.416 80.5134 106.792 81.5384 107.573 81.7964C107.673 81.8267 107.776 81.8432 107.88 81.8452C108.286 81.7877 108.665 81.6071 108.965 81.3279C109.266 81.0486 109.473 80.6841 109.56 80.2833C109.711 79.802 109.711 79.2863 109.56 78.805C109.501 78.6033 109.394 78.4188 109.248 78.2671C109.103 78.1154 108.923 78.0009 108.724 77.9334C108.621 77.8935 108.513 77.8677 108.403 77.8567V77.8846Z" fill="black"/>
<path d="M95.6775 78.4775L97.3719 81.964L99.6869 86.6847C99.2673 87.011 98.9125 87.4131 98.641 87.8701C97.9855 88.8533 97.4625 89.5646 99.4777 91.3566C99.6955 91.54 99.8559 91.7821 99.94 92.054C100.024 92.326 100.028 92.6164 99.9519 92.8907C99.7357 93.588 98.9896 94.1109 96.6537 93.4136C94.4086 92.6875 92.4541 91.2632 91.0753 89.3484C90.378 88.4419 90.6569 87.891 91.5076 87.1589C93.976 85.1088 95.0708 81.448 95.6775 78.4775Z" fill="#FF8B7B"/>
<path d="M107.002 83.8113C106.437 84.686 105.678 85.419 104.785 85.9534C103.891 86.4879 102.886 86.8095 101.849 86.8934C101.146 86.9509 100.439 86.8896 99.7567 86.7121C98.9263 86.497 98.154 86.1001 97.4956 85.5502C96.8372 85.0004 96.3091 84.3112 95.9495 83.5324C94.4921 80.4852 95.4753 77.8983 96.7653 73.3589C97.0224 72.437 97.4742 71.581 98.0902 70.8486C99.2179 69.5226 100.826 68.6985 102.561 68.5573C104.296 68.4161 106.016 68.9694 107.343 70.0955C111.109 73.324 109.372 80.1366 107.002 83.8113Z" fill="#FF8B7B"/>
<path opacity="0.2" d="M101.848 86.8934C101.146 86.9508 100.439 86.8895 99.7566 86.7121L99.6938 86.6563L100.391 85.959C100.391 85.959 100.412 86.7539 101.848 86.8934Z" fill="black"/>
<path d="M99.8193 67.6203C99.6783 67.2648 99.4246 66.9653 99.0972 66.7676C98.7698 66.5699 98.3866 66.4849 98.0063 66.5256C98.5602 66.8921 98.9809 67.4277 99.2057 68.0526L99.8193 67.6203Z" fill="#1A2E35"/>
<path d="M113.793 75.0536C112.601 76.3088 109.526 75.7509 109.526 75.7509L108.229 74.4749C107.936 74.2169 107.336 73.938 106.911 75.4093L106.339 76.6644C105.389 78.1468 104.11 79.39 102.602 80.2973C102.288 80.4647 101.402 81.0783 101.402 81.0783C100.641 81.5751 99.7582 81.8557 98.8493 81.8901C97.9405 81.9245 97.0394 81.7114 96.2423 81.2735L95.6426 81.0434C95.3419 80.925 95.0815 80.7228 94.8924 80.4608C94.7033 80.1987 94.5934 79.8878 94.5758 79.5652C94.4294 77.0479 94.2969 70.8699 96.3469 68.8547C98.2226 66.9999 99.2337 67.5856 99.8962 67.4043C100.657 66.9951 101.494 66.7462 102.355 66.6731C103.216 66.5999 104.083 66.704 104.903 66.979C109.937 68.7152 109.784 71.6927 110.767 71.5393C111.381 71.4399 111.944 71.1409 112.371 70.6886C112.28 70.835 111.199 72.5782 111.673 72.6271C112.148 72.6759 113.563 71.4835 113.445 71.8252C113.326 72.1668 111.848 73.7079 112.747 74.0844C113.647 74.4609 114.888 73.2128 114.888 73.2128C114.888 73.2128 114.993 73.7985 113.793 75.0536Z" fill="#1A2E35"/>
<path d="M104.08 75.8823L103.942 76.0923L110.037 80.0865L110.174 79.8765L104.08 75.8823Z" fill="black"/>
<path d="M101.604 77.5428C101.494 78.5993 101.777 79.6591 102.399 80.5203C103.208 81.615 104.61 80.8759 105.014 79.5929C105.37 78.4493 105.119 76.6224 104.01 75.9879C102.901 75.3533 101.751 76.2389 101.604 77.5428Z" fill="#FF8B7B"/>
<path d="M82.6798 89.2159C82.6798 89.2159 77.8476 94.9198 76.2786 108.161C74.7097 121.403 73.4546 130.28 73.4546 130.28L98.9338 132.093C98.9338 132.093 97.9646 123.586 98.9338 117.045C99.903 110.504 106.395 94.9476 104.965 92.4444C104.233 91.1683 98.6897 88.7278 93.4809 88.3582C89.8593 88.2144 86.2334 88.5024 82.6798 89.2159V89.2159Z" fill="#1A2E35"/>
<path d="M98.5571 91.9629C97.2779 93.2504 96.3656 94.856 95.9144 96.6139C95.6521 97.3208 95.5244 98.0705 95.5378 98.8243C95.6713 99.7962 96.0062 100.73 96.521 101.565L98.9058 106.09C101.838 105.985 104.726 105.352 107.434 104.221C107.787 104.117 108.089 103.883 108.277 103.566C108.535 102.952 106.939 98.127 106.729 96.2164C106.276 92.1512 102.162 88.7275 98.5571 91.9629Z" fill="#007CFF"/>
<path d="M88.3906 88.4273L90.4825 86.7887C90.9779 86.4009 91.5978 86.2075 92.2258 86.2448C93.6901 86.3215 96.6118 86.3215 99.0872 87.2768C101.332 88.1414 100.858 90.066 100.858 90.066C100.858 90.066 96.5769 88.2948 88.3906 88.4273Z" fill="#007CFF"/>
<path d="M73.8033 127.706C72.4087 129.275 72.4087 134.093 72.4087 134.093C72.4087 134.093 85.5318 135.383 91.3961 135.383C93.6513 135.384 95.904 135.232 98.1389 134.93L98.5294 132.092L99.3662 134.735L100.531 134.47L98.6758 128.982L73.8033 127.706Z" fill="#007CFF"/>
<path d="M80.2809 206.933L78.8863 209.485L70.707 206.263L71.4043 203.788L80.2809 206.933Z" fill="#007CFF"/>
<path d="M109.1 207.316L108.605 210.106H99.9029L99.6658 207.54L109.1 207.316Z" fill="#007CFF"/>
</svg>
