<svg width="58" height="42" viewBox="0 0 58 42" fill="none" xmlns="http://www.w3.org/2000/svg">
<path d="M31.1948 0H25.1875V5.93514H31.1948V0Z" fill="#009DDB"/>
<path d="M31.1948 7.45898H25.1875V13.3941H31.1948V7.45898Z" fill="#009DDB"/>
<path d="M31.1948 14.9189H25.1875V20.8541H31.1948V14.9189Z" fill="#009DDB"/>
<path d="M23.9023 7.45898H17.895V13.3941H23.9023V7.45898Z" fill="#009DDB"/>
<path d="M23.9023 14.9189H17.895V20.8541H23.9023V14.9189Z" fill="#009DDB"/>
<path d="M16.6103 7.45898H10.603V13.3941H16.6103V7.45898Z" fill="#009DDB"/>
<path d="M16.6103 14.9189H10.603V20.8541H16.6103V14.9189Z" fill="#009DDB"/>
<path d="M9.4023 14.9189H3.39502V20.8541H9.4023V14.9189Z" fill="#009DDB"/>
<path d="M38.4868 14.9189H32.4795V20.8541H38.4868V14.9189Z" fill="#009DDB"/>
<path d="M19.635 41.9999C-2.48077 41.9999 0.0937769 22.7582 0.0937769 22.7582C0.0937769 22.7582 30.7914 22.7582 37.0191 22.7582C43.2468 22.7582 45.3054 20.8076 45.3054 20.8076C45.3054 20.8076 41.7883 16.3134 45.9057 10.8926C50.539 13.5196 50.3654 17.4208 50.3654 17.4208C50.3654 17.4208 55.0831 15.8964 58 18.5235C56.368 23.7775 49.1649 23.4393 49.1649 23.4393C49.1649 23.4393 42.473 41.9999 19.635 41.9999Z" fill="#009DDB"/>
</svg>
