<svg width="543" height="541" viewBox="0 0 543 541" fill="none" xmlns="http://www.w3.org/2000/svg" class="expirience">
<g style="transform: translateX(-32px)" class="svg_main">
<circle cx="304.5" cy="270.5" r="270.5" fill="#C9E6F4"/>
<path d="M393.964 187.437C393.539 180.078 381.136 179.766 381.136 179.766C381.136 179.766 370.439 190.273 368.031 190.078C365.623 189.883 375.393 179.357 375.393 179.357C370.932 177.973 358.144 181.062 358.144 181.062C358.144 181.062 355.835 195.439 353.545 194.708C351.256 193.977 356.249 182.037 356.249 182.037C351.562 182.417 346.381 186.647 346.381 186.647C339.474 193.84 349.184 202.242 349.184 202.242C348.284 205.934 346.496 209.357 343.974 212.222C343.237 213.001 342.576 213.846 342 214.747L343.204 215C343.372 214.698 343.539 214.415 343.727 214.142C343.845 213.977 344.023 213.733 344.24 213.45C344.763 212.817 345.118 212.339 345.355 211.998C346.934 210.049 349.144 207.427 350.289 207.037C350.218 206.845 350.171 206.646 350.151 206.442C350.151 206.637 350.24 206.832 350.289 207.037C351.414 211.823 361.548 214.698 367.528 214.727C373.508 214.756 371.347 212.651 368.821 209.415C366.294 206.179 359.673 205.517 357.966 204.094C356.259 202.671 359.288 202.251 363.048 203.333C366.808 204.415 367.903 208.596 373.952 210.468C380.001 212.339 387.155 201.852 387.155 201.852C382.616 202.261 375.471 198.353 375.491 196.832C375.511 195.312 386.79 197.807 388.645 197.807C390.5 197.807 394.418 194.805 393.964 187.437Z" fill="#DEE9F8"/>
<path opacity="0.5" d="M354 170C354 170 361.448 142.984 377.925 128.738C378.409 128.324 379.007 128.071 379.638 128.013C380.269 127.955 380.902 128.094 381.452 128.413C382.001 128.731 382.44 129.213 382.709 129.792C382.978 130.372 383.063 131.021 382.954 131.651V131.801C382.035 136.679 363.236 154.956 354 170Z" fill="#B0C9EB"/>
<path opacity="0.5" d="M351 178C351 178 370.221 145.796 396.387 134.291C397.156 133.943 398.028 133.906 398.824 134.188C399.619 134.47 400.275 135.05 400.657 135.806C401.152 136.803 401.212 138.329 400.152 140.492C397.328 146.235 367.625 162.466 351 178Z" fill="#B0C9EB"/>
<path opacity="0.5" d="M348 314C348 314 377.226 300.214 382.516 305.015C387.805 309.816 348 314 348 314Z" fill="#B0C9EB"/>
<path opacity="0.5" d="M343 316.706C343 316.706 382.374 313.33 382.993 321.341C383.612 329.352 343 316.706 343 316.706Z" fill="#B0C9EB"/>
<path d="M206.818 142.451C211.806 127.055 238.045 133.219 238.045 133.219C238.045 133.219 254.666 161.4 259.853 162.304C265.041 163.207 250.376 135.502 250.376 135.502C260.552 135.026 285.743 148.635 285.743 148.635C285.743 148.635 282.54 180.4 287.798 180.003C293.055 179.606 289.194 151.732 289.194 151.732C298.842 155.137 307.432 166.959 307.432 166.959C317.947 186.038 292.776 198.496 292.776 198.496C292.776 198.496 291.908 209.524 298.143 222.538C299.278 224.601 300.216 226.764 300.947 229L298.273 228.871C298.094 228.146 297.884 227.451 297.655 226.776C297.495 226.35 297.265 225.784 296.966 225.029C296.228 223.401 295.739 222.2 295.43 221.337C293.225 216.225 290.022 209.554 287.748 208.075C288.007 207.706 288.218 207.305 288.376 206.884L287.748 208.075C282.69 217.604 259.744 218.111 247.133 214.884C234.523 211.658 240.259 208.363 247.403 202.893C254.546 197.424 268.842 199.657 273.202 197.592C277.562 195.528 271.466 192.947 262.946 193.185C254.426 193.423 249.757 201.662 236.009 202.288C222.262 202.913 213.063 176.737 213.063 176.737C222.391 180.122 239.631 175.744 240.449 172.538C241.267 169.332 216.096 168.418 212.225 167.247C208.354 166.076 201.8 157.837 206.818 142.451Z" fill="#DEE9F8"/>
<path d="M386.222 259.763C383.74 250.546 368.254 253.426 368.254 253.426C368.254 253.426 357.791 269.548 354.684 269.927C351.577 270.305 360.988 254.392 360.988 254.392C355.032 253.814 339.962 261.098 339.962 261.098C339.962 261.098 340.955 279.901 337.868 279.522C334.78 279.144 337.868 262.832 337.868 262.832C332.13 264.556 326.779 271.272 326.779 271.272C320.088 282.232 334.423 290.264 334.423 290.264C334.285 295.173 332.975 299.978 330.601 304.273C329.877 305.455 329.266 306.703 328.775 308H330.333C330.462 307.582 330.601 307.173 330.76 306.784C330.869 306.535 331.018 306.196 331.217 305.788C331.693 304.851 332.011 304.154 332.209 303.656C333.639 300.666 335.704 296.87 337.074 296.063C336.936 295.838 336.826 295.597 336.746 295.345C336.858 295.571 336.968 295.81 337.074 296.063C339.754 301.822 353.135 302.779 360.591 301.244C368.046 299.71 364.79 297.597 360.779 294.17C356.769 290.742 348.361 291.649 345.889 290.304C343.417 288.958 347.04 287.623 352.004 288.002C356.967 288.38 359.459 293.372 367.49 294.14C375.521 294.907 381.616 279.712 381.616 279.712C376.067 281.445 366.13 278.366 365.733 276.453C365.336 274.54 380.067 274.729 382.361 274.151C384.654 273.574 388.704 268.97 386.222 259.763Z" fill="#DEE9F8"/>
<path d="M225.898 248.456C231.439 238.06 249.499 245.716 249.499 245.716C249.499 245.716 257.905 267.933 261.529 269.228C265.153 270.524 258.085 248.842 258.085 248.842C265.452 249.752 281.855 262.611 281.855 262.611C281.855 262.611 275.566 284.946 279.389 285.312C283.213 285.678 283.942 265.252 283.942 265.252C290.451 268.882 295.133 278.408 295.133 278.408C300.305 293.364 280.647 299.18 280.647 299.18C279.478 305.119 279.766 311.249 281.486 317.054C282.045 318.661 282.45 320.317 282.694 322L280.787 321.575C280.787 321.031 280.687 320.506 280.607 319.992C280.547 319.675 280.448 319.22 280.328 318.657C280.008 317.4 279.799 316.48 279.689 315.818C278.75 311.861 277.283 306.717 275.835 305.372C276.066 305.14 276.267 304.881 276.434 304.601L275.835 305.372C271.003 311.564 254.451 309.091 245.795 305.224C237.14 301.356 241.672 299.704 247.492 296.678C253.313 293.651 263.306 297.014 266.7 296.074C270.095 295.134 266.032 292.533 259.882 291.643C253.732 290.752 249.339 296.084 239.356 294.828C229.372 293.572 226.058 273.699 226.058 273.699C232.338 277.27 245.276 276.281 246.264 274.075C247.253 271.869 229.293 268.14 226.637 266.805C223.981 265.47 220.367 258.842 225.898 248.456Z" fill="#CDDDF3"/>
<path d="M220.527 334.868C217.632 328.569 227.611 322.915 227.611 322.915C227.611 322.915 240.98 326.982 242.858 325.762C244.735 324.541 232.107 320.038 232.107 320.038C235.151 316.943 246.929 313.937 246.929 313.937C246.929 313.937 255.149 324.849 256.671 323.232C258.193 321.615 248.905 313.917 248.905 313.917C252.916 312.191 259.023 313.431 259.023 313.431C267.846 316.407 263.597 327.617 263.597 327.617C265.956 330.294 268.922 332.362 272.243 333.648C273.197 333.969 274.12 334.378 275 334.868L274.13 335.602C273.869 335.429 273.599 335.27 273.32 335.126L272.599 334.769C271.897 334.471 271.393 334.233 271.048 334.055C268.874 333.063 265.939 331.902 264.793 332.071C264.772 331.879 264.722 331.692 264.645 331.515L264.793 332.071C265.979 336.545 258.963 343.35 254.082 345.959C249.201 348.568 250.041 345.899 250.693 342.1C251.345 338.3 256.454 334.868 257.214 332.954C257.975 331.039 255.317 331.962 252.729 334.541C250.14 337.12 251.069 341.028 246.938 345.225C242.808 349.421 232.354 343.826 232.354 343.826C236.247 342.189 240.368 335.81 239.686 334.561C239.004 333.311 230.882 340.314 229.331 341.068C227.779 341.822 223.422 341.177 220.527 334.868Z" fill="#D8E5F7"/>
<path d="M188.767 295C190.714 295.204 192.675 295.276 194.633 295.217C197.839 295.028 201.779 294.953 202.514 295.763C203.248 296.572 203.248 296.572 201.829 297.288C200.717 297.834 196.449 299.623 193.561 298.776C191.421 298.246 189.21 298.02 187 298.107L188.767 295Z" fill="#EBAF85"/>
<path d="M153 263.719C153 263.719 159.119 294.325 166.4 296.655C169.987 297.81 185.683 299.97 190.295 300C190.295 300 191.369 299.004 190.866 295.281C190.866 295.281 174.254 290.223 171.751 287.087C168.026 282.407 172.736 267.015 168.135 262.694C163.533 258.372 156.173 256.829 153 263.719Z" fill="#7CA5D8"/>
<path d="M155 375.955C155 377.084 155.895 378 157 378C158.105 378 159 377.084 159 375.955V328.045C159 326.916 158.105 326 157 326C155.895 326 155 326.916 155 328.045V375.955Z" fill="#97BDE4"/>
<path d="M138 382C139.984 378.034 147.486 375 156.495 375C165.504 375 173.055 377.975 175 382H138Z" fill="#97BDE4"/>
<path d="M144.055 368H169.945C170.528 368 171 367.552 171 367C171 366.448 170.528 366 169.945 366H144.055C143.472 366 143 366.448 143 367C143 367.552 143.472 368 144.055 368Z" fill="#97BDE4"/>
<path d="M154.509 320.02C155.776 322.134 157.187 324.158 158.732 326.078C163.371 331.948 168.435 336.797 169.315 341.377C169.507 342.389 169.778 343.384 170.126 344.352C170.492 345.403 170.947 346.504 171.472 347.644C173.748 352.329 176.377 356.833 179.335 361.119C184.418 368.674 189.225 375 189.225 375L197.998 374.623C197.652 373.741 193.824 363.31 188.701 350.559L182.282 334.566C181.995 333.862 181.718 333.148 181.431 332.454C180.772 330.828 180.132 329.231 179.513 327.665L170.878 306.159C170.878 306.159 151.67 298.871 149.673 303.59C148.011 307.438 149.346 311.255 154.509 320.02Z" fill="#35425D"/>
<path d="M189 374.172C189 374.172 189.45 380.908 190.87 381H198.07L207 380.954C206.933 380.329 206.629 379.747 206.14 379.309C205.651 378.871 205.01 378.606 204.33 378.562C201.72 378.138 197.33 376.454 195.77 373.28C194.07 369.949 189 374.172 189 374.172Z" fill="#35425D"/>
<path d="M169.39 353.78C169.39 353.78 163.22 357.78 163.82 359.03C163.9 359.2 167.31 365.31 167.31 365.31L171.71 373.08C172.276 372.695 172.687 372.123 172.87 371.463C173.053 370.804 172.996 370.101 172.71 369.48C171.84 366.98 171.31 362.27 173.55 359.21C175.88 356 169.39 353.78 169.39 353.78Z" fill="#35425D"/>
<path d="M177.112 303C177.112 303 203.067 321.592 205.9 327.441C208.112 332 172.848 361 172.848 361C172.848 361 167.704 355.919 167.033 353.467C167.033 353.467 179.186 336.057 188.811 330.405C191.674 328.721 154.446 324.605 150.418 318.352C146.39 312.099 148.611 303.827 148.611 303.827L177.112 303Z" fill="#465581"/>
<path d="M136.051 331H176.949C180.291 331 183 328.314 183 325C183 321.686 180.291 319 176.949 319H136.051C132.709 319 130 321.686 130 325C130 328.314 132.709 331 136.051 331Z" fill="#E49854"/>
<path d="M165.414 250.398C166.798 251.276 168.013 252.407 169 253.736C163.356 255.236 154 249.861 154 249.861C156.506 247.852 158.263 245.018 158.977 241.835C159.045 241.556 159.103 241.278 159.161 240.98C159.347 239.998 159.45 239.001 159.47 238L162.061 240.394L166.371 244.368C166.246 245.876 166.033 247.376 165.733 248.858C165.637 249.295 165.53 249.832 165.414 250.398Z" fill="#EBAF85"/>
<path d="M176.993 302.047C176.981 302.108 176.965 302.168 176.944 302.226C176.399 303.801 168.129 309.141 162.544 311.263C159.061 312.588 146.976 315.547 146.159 312.996C145.244 310.008 148.62 288.517 147.803 277.309C146.83 263.609 150.547 251.136 155.704 247.061C156.093 246.772 156.862 247.549 159.09 248.635C161.033 249.607 163.233 249.904 165.356 249.482L167.088 251.006C170.072 253.559 172.233 256.977 173.286 260.81C174.16 264.86 174.726 268.974 174.979 273.114C175.135 275.107 175.271 277.099 175.388 279.142C175.572 282.41 175.728 285.698 175.806 288.826C175.811 288.886 175.811 288.946 175.806 289.005V289.125C175.826 289.457 175.826 289.789 175.806 290.121V291.058C175.864 293.509 175.806 295.79 175.942 297.753C175.966 298.523 176.114 299.284 176.38 300.005C176.583 300.461 176.758 300.931 176.905 301.409C176.985 301.611 177.015 301.83 176.993 302.047Z" fill="#B1CFF0"/>
<path d="M166 242.741C165.902 244.172 165.735 245.594 165.501 247C162.209 245.671 160.711 241.959 160.204 240.404C160.126 240.17 160.058 239.931 160 239.688L160.348 239.594L162.618 239L166 242.741Z" fill="#E49764"/>
<path d="M168.349 245C168.349 245 158.756 244.766 159.005 238.913C159.254 233.061 158.168 229.101 164.305 229.003C170.441 228.905 171.537 231.188 171.936 233.158C172.334 235.129 170.85 244.912 168.349 245Z" fill="#EBAF85"/>
<path d="M203.049 296.691L204 297L211.107 275.126L210.156 274.817L203.049 296.691Z" fill="#465581"/>
<path d="M180.005 296.489L204 297L204.021 296L180.027 295.489L180.005 296.489Z" fill="#465581"/>
<path d="M157.677 227.801C157.617 227.708 157.458 227.614 157.069 227.53C157.312 227.449 157.571 227.423 157.826 227.455C157.919 227.098 158.121 226.775 158.408 226.525C158.695 226.276 159.054 226.111 159.44 226.052C159.273 226.11 159.122 226.202 158.998 226.322C158.874 226.441 158.78 226.586 158.723 226.744C159.998 225.883 162.449 225.518 168.746 227.053C177.055 229.083 173.319 233.687 172.123 234.108C170.928 234.529 168.477 232.414 166.424 232.236C164.372 232.059 163.436 234.744 162.688 235.043C161.941 235.343 162.33 234.688 161.473 234.108C160.616 233.528 160.247 234.987 160.337 235.979C160.427 236.971 158.912 238 158.912 238L157.916 236.475C156.87 234.95 156.701 229.195 157.508 228.11C157.527 227.998 157.607 227.904 157.677 227.801Z" fill="#404964"/>
<path d="M177 299C174.689 298.64 168.99 297.513 164.852 294.967C157.375 290.361 153 267 153 267L164.714 281.751L176.427 290.196V290.274C176.486 292.664 176.427 294.889 176.565 296.804C176.586 297.554 176.733 298.297 177 299Z" fill="#92B4E1"/>
<path d="M188.233 288.882C188.786 289.046 189.372 289.046 189.926 288.882C190.856 288.606 193.963 287.78 194.484 288.055C195.005 288.331 196.633 289.708 197.023 290.023C197.417 290.449 197.747 290.937 198 291.469C197.647 291.745 196.67 290.8 196.186 290.732C195.702 290.663 191.786 292.129 190.707 291.991C189.792 291.836 188.887 291.616 188 291.332L188.233 288.882Z" fill="#EBAF85"/>
<path d="M196 290C196 290.044 197 291.179 198 290.976L197.13 290.12L196 290Z" fill="#EBAF85"/>
<path d="M191 288C191.629 287.696 192.233 287.362 192.808 287C192.808 287 193.025 287.103 192.998 287.255C192.91 287.505 192.759 287.739 192.555 287.945L191 288Z" fill="#EBAF85"/>
<path d="M164.323 254.935C163.002 253.807 161.353 253.134 159.62 253.018C157.887 252.902 156.163 253.348 154.703 254.29C153.243 255.232 152.126 256.621 151.515 258.249C150.905 259.878 150.835 261.66 151.315 263.331C153.852 272.275 158.741 287.015 163.786 288.442C167.378 289.468 182.981 291.1 187.538 290.993C187.538 290.993 188.387 291.315 187.782 287.669C187.782 287.669 170.676 282.372 168.793 278.873C167.817 277.006 169.134 259.158 164.47 255.053L164.323 254.935Z" fill="#B1CFF0"/>
<path d="M433 244C433 244 444.427 256.388 444.966 261.058C445.505 265.728 439.47 273 439.47 273L433 244Z" fill="#DD8044"/>
<path d="M427 373.931C427 373.931 426.579 379.919 425.326 380H418.941L411 379.937C411.063 379.382 411.335 378.866 411.77 378.477C412.205 378.089 412.775 377.853 413.379 377.812C415.7 377.443 419.588 375.957 420.998 373.139C422.486 370.176 427 373.931 427 373.931Z" fill="#35425D"/>
<path d="M445 373.931C445 373.931 444.589 379.919 443.326 380H436.941L429 379.937C429.063 379.382 429.335 378.866 429.77 378.477C430.205 378.089 430.775 377.853 431.379 377.812C433.7 377.443 437.588 375.957 438.998 373.139C440.486 370.176 445 373.931 445 373.931Z" fill="#35425D"/>
<path d="M418 302.117C418 302.117 420.064 315.642 427.816 339.643C435.568 363.644 436.615 374 436.615 374L444.999 373.781C444.999 373.781 445.128 347.567 441.553 335.497C437.978 323.427 440.872 292 440.872 292L418 302.117Z" fill="#35425D"/>
<path d="M414 293C413.986 308.127 415.009 323.237 417.06 338.221C420.472 363.139 419.269 373.702 419.269 373.702L427.55 374C427.55 374 432.545 349.101 431.157 336.632C429.769 324.163 438 293.864 438 293.864L414 293Z" fill="#465581"/>
<path d="M431 245.011L426.502 248L420 246.775C420.09 246.257 420.519 244.085 420.917 242.113C420.917 242.003 420.967 241.884 420.987 241.774L421.616 238.656L427.699 235.996L429.963 235C429.963 235 429.783 236.863 429.763 237.122C429.475 239.815 429.902 242.536 431 245.011Z" fill="#EBAF85"/>
<path d="M421.487 243.705C421.601 243.705 428.94 241.763 429.737 242.024C430.535 242.285 431 243.621 431 243.621L419 246C419.543 245.027 420.412 244.226 421.487 243.705Z" fill="#DD8044"/>
<path d="M441.669 294.173C440.376 300.069 419.038 300.688 413.545 295.343C412.928 294.743 412.898 291.913 413.143 288.101C413.623 280.662 415.102 269.431 415.2 263.751C415.258 261.01 415.566 258.28 416.12 255.596C416.782 252.281 417.695 249.023 418.852 245.848C418.852 245.848 429.281 242.487 431.23 243.067C440.621 245.897 442.971 288.346 441.669 294.173Z" fill="#E49758"/>
<path d="M413 289C413.46 281.472 414.876 270.106 414.97 264.358C415.026 261.584 415.321 258.821 415.851 256.104L421.864 255C421.864 255 427.679 280.438 413 289Z" fill="#DD8044"/>
<path d="M416.742 278.938C416.855 279.226 416.871 279.541 416.788 279.838C416.704 280.135 416.525 280.398 416.277 280.589C415.854 280.858 415.513 281.233 415.29 281.674C415.067 282.116 414.97 282.608 415.008 283.098C415.212 283.881 417.148 285.154 417.826 284.985C418.504 284.815 419.879 283.749 419.763 283.334C419.646 282.919 420.731 279.721 419.046 278.476C418.893 278.293 418.691 278.154 418.463 278.075C418.234 277.996 417.988 277.979 417.75 278.027C417.512 278.074 417.293 278.184 417.115 278.345C416.937 278.506 416.808 278.711 416.742 278.938Z" fill="#EBAF85"/>
<path d="M423.307 245C423.307 245 417.215 246.127 412.334 253.302C407.452 260.476 404.26 265.818 405.148 268.405C406.037 270.993 414.169 280 415.575 280C416.981 280 419.255 279.02 419.392 276.677C419.392 276.677 413.661 268.023 414.804 266.729C415.282 266.18 422.272 260.515 423.258 263.083C424.898 267.327 423.307 245 423.307 245Z" fill="#E49758"/>
<path d="M428.838 237.193C427.589 239.401 422.938 241.306 421 242C421 241.893 421.047 241.775 421.065 241.668L421.652 238.61L427.337 236.001C428.595 235.981 429.35 236.284 428.838 237.193Z" fill="#E7A375"/>
<path d="M419.139 238.269C419.139 238.269 428.334 241.183 430.051 235.374C431.768 229.565 434.105 226.045 428.297 223.935C422.489 221.825 420.697 223.698 419.665 225.496C418.633 227.294 416.794 237.361 419.139 238.269Z" fill="#EBAF85"/>
<path d="M419.868 225.155C419.868 225.155 420.447 231.97 421.852 231.683C423.256 231.397 424.528 231.168 424.32 233.22C424.111 235.272 422.155 237.649 426.484 237.992C430.812 238.336 437.039 227.169 435.852 225.05C432.445 218.951 414.941 217.672 419.868 225.155Z" fill="#35425D"/>
<path d="M315.534 270.052C315.229 270.468 315.065 270.97 315.065 271.485C315.065 272 315.229 272.502 315.534 272.918C315.587 272.985 315.63 273.059 315.664 273.137C327.483 280.223 362.96 308.906 362.96 329.12V371H256V329.15C256 308.797 291.956 279.666 303.516 272.958C303.836 272.541 304.012 272.031 304.014 271.505C304.007 270.977 303.832 270.465 303.516 270.042C291.906 263.145 256 234.223 256 213.88V172H363V213.89C363 234.203 327.164 263.284 315.534 270.052Z" fill="#B1CFF0"/>
<path d="M258.799 371H357.65C360.395 371 363.027 372.01 364.968 373.807C366.91 375.605 368 378.043 368 380.585V381H248C248 378.348 249.138 375.804 251.163 373.929C253.188 372.054 255.935 371 258.799 371Z" fill="#E49758"/>
<path d="M286.67 330.56C286.12 339.98 287.91 360.3 287.75 370.05H256V328C256 307.55 292.05 278.28 303.64 271.54C303.962 271.121 304.137 270.608 304.14 270.08C304.132 269.55 303.957 269.035 303.64 268.61C292 261.68 256 232.62 256 212.18V170.1H277.27L292.46 174.25V207.53C291.679 213.953 292.454 220.469 294.72 226.53C298.49 235.95 306.57 266.15 306.45 270.08C306.33 274.01 287.61 314.41 286.67 330.56Z" fill="#A5C3E9"/>
<path class="sand" d="M 349.194 200.223 C 342 199.222 313.467 206.029 313.467 206.029 C 308.428 208.304 292 207.888 292 207.888 L 280.248 206.666 L 268.497 205.184 C 267.565 205.05 265.712 205.381 265.712 205.381 L 263.263 206.713 L 261.591 208.939 C 261.591 208.939 260.999 210.719 261 211.656 V 216.479 C 261 230.222 306.38 265.932 306.38 265.932 C 307.09 266.482 307.665 267.186 308.061 267.991 C 308.061 267.991 308.664 269.679 308.666 270.575 V 344.467 C 308.66 345.709 307.777 348.032 307.777 348.032 C 307.199 349.133 305.341 350.79 305.341 350.79 C 297.875 355.99 285.297 371.222 285.297 371.222 H 309.075 H 332.853 C 332.853 371.222 320.157 356.171 313 350.722 L 312.013 349.742 L 311.027 348.762 C 310.577 347.856 310.343 346.859 310.343 345.849 V 270.555 C 310.343 269.664 310.932 267.981 310.932 267.981 C 311.319 267.178 312.579 265.912 312.579 265.912 C 321.882 258.485 357 229.603 357 216.319 V 207.888 C 356.999 206.873 356.401 204.931 356.401 204.931 C 356.007 203.994 354.704 202.432 354.704 202.432 C 353.978 201.719 352.171 200.777 352.171 200.777 L 349.194 200.223 Z" fill="#7794CD"/>
<path d="M249 164H369C369 166.652 367.863 169.196 365.838 171.071C363.814 172.946 361.068 174 358.205 174H259.417C256.657 174 254.01 172.984 252.058 171.176C250.106 169.369 249.01 166.917 249.01 164.36V164H249Z" fill="#E49758"/>
<path d="M158 192.222L186 196L167.423 184L166.47 187.843L159.666 189.018L158 192.222Z" fill="#9FBFE7"/>
<path d="M186 196L162.773 184.136L140 183L186 196Z" fill="#CDDDF3"/>
<path d="M168 183.844L186 196L172.065 177L168 183.844Z" fill="#CDDDF3"/>
<path d="M299.881 158.631C298.612 160.826 296.754 162.675 294.487 164H282C282 164 301.704 155.686 299.881 158.631Z" fill="#3A4661"/>
<path d="M291.31 191.83C291.157 192.001 291.055 192.214 291.017 192.442C290.979 192.671 291.006 192.906 291.095 193.119C291.703 194.23 292.558 195.181 293.592 195.896C293.739 196.015 293.875 196.124 293.992 196.233L294.08 196.312L294.148 196.382C295.241 197.373 294.831 197.641 296.801 199.724C299.045 202.094 300.586 202.134 301.025 201.915C301.464 201.697 300.644 200.477 299.805 199.059L299.679 198.861C299.571 198.673 299.464 198.474 299.347 198.286C298.372 196.59 298.625 195.787 298.859 193.258C299.045 191.195 302 181.754 302 181.754L297.708 181C297.708 181 296.411 188.517 294.987 189.678C294.226 190.292 293.368 190.302 292.637 190.759L292.48 190.858C292.05 191.128 291.656 191.455 291.31 191.83Z" fill="#EBAF85"/>
<path d="M291.306 192.03C291.154 192.198 291.054 192.407 291.016 192.631C290.979 192.855 291.006 193.085 291.094 193.294C291.727 194.356 292.563 195.278 293.555 196.007L293.949 196.347L294.035 196.425L294.103 196.493C295.179 197.465 294.776 197.727 296.717 199.769C298.928 202.092 300.447 202.131 300.879 201.917C301.312 201.703 300.504 200.508 299.678 199.117C298.13 198.519 296.769 197.512 295.737 196.201C294.41 194.49 293.516 192.312 292.613 191L292.459 191.097C292.036 191.356 291.648 191.67 291.306 192.03Z" fill="#3A4661"/>
<path d="M326.393 188.034C326.651 189.327 328.5 189.109 330.568 188.605C332.637 188.101 332.141 188.7 335.077 188.376C338.013 188.053 338.89 186.96 338.995 186.522C339.1 186.085 337.622 185.999 336.068 185.818L335.477 185.752C333.724 185.533 332.427 184.401 330.835 183.47C329.243 182.538 327.023 179 327.023 179L323 179.323C323 179.323 325.107 182.519 325.926 183.916C326.324 184.771 326.463 185.723 326.327 186.655C326.282 187.116 326.304 187.58 326.393 188.034Z" fill="#EBAF85"/>
<path d="M330.681 189.506C332.956 188.872 332.419 189.625 335.664 189.219C338.909 188.812 339.878 187.436 339.994 186.885C340.11 186.335 338.477 186.227 336.76 186C335.369 187.013 333.765 187.584 332.114 187.651C329.912 187.711 327.573 186.993 326.056 187.017C325.981 187.592 325.981 188.177 326.056 188.752C326.351 190.415 328.395 190.14 330.681 189.506Z" fill="#3A4661"/>
<path d="M310 161.715L306.154 172.242L301.192 185.976C300.304 186.046 299.41 185.963 298.548 185.728C297.65 185.415 296.794 184.987 296 184.452C296 184.452 297.385 169.7 299.952 161.24C300.388 159.465 301.138 157.788 302.163 156.293C306.154 151.464 310 161.715 310 161.715Z" fill="#3A4661"/>
<path d="M305.893 146.111C303.328 145.284 295.989 146.35 288.669 147.793L287.075 145.245L271.228 144C271.228 144 265.988 155.679 268.86 163.117C269.276 164.202 270.326 164.67 271.753 164.69C271.753 164.69 281.221 164.929 284.292 164.929C292.215 164.929 300.99 159.473 302.119 159.244C303.991 158.865 304.734 162.619 306.596 166.552C308.458 170.485 324.137 183.996 324.137 183.996C325.279 184.024 326.421 183.907 327.534 183.647C328.095 183.472 328.6 183.153 329 182.721C329 182.721 311.647 147.993 305.893 146.111Z" fill="#485484"/>
<path d="M285.383 96.9468C284.479 96.3948 283.439 96.1189 282.386 96.1515C281.888 96.163 281.389 96.1297 280.897 96.0521C274.99 95.2469 271.429 104.005 271.225 106.669C270.835 111.57 268.305 112.316 264.734 115.387C257.573 121.531 259.674 128.689 263.586 131.293C265.931 132.884 270.076 131.293 270.076 131.293C270.076 131.293 281.393 124.861 286.949 121.73C295.269 120.577 288.73 98.9748 285.383 96.9468Z" fill="#3A4661"/>
<path d="M283.325 119.535C283.325 119.535 280.69 120.486 278.908 119.668C277.126 118.85 275.972 116.138 276.001 116.128C276.76 116.128 277.595 115.424 278.242 111L278.561 111.114L284 113.103C284 113.103 283.606 114.872 283.353 116.557C283.184 117.974 283.025 119.335 283.325 119.535Z" fill="#EBAF85"/>
<path d="M283 111.827C283 111.827 282.638 113.453 282.405 115C279.534 114.476 278.405 111.573 278 110L283 111.827Z" fill="#E49764"/>
<path d="M284.012 112.999C284.012 112.999 276.331 112.004 277.047 107.417C277.763 102.831 277.25 99.6024 282.184 100.04C287.117 100.477 287.794 102.375 287.988 103.956C288.181 105.538 286.024 113.101 284.012 112.999Z" fill="#EBAF85"/>
<path d="M288 101.76C288 101.76 283.029 105.63 279.659 105.939C276.289 106.249 275 105.277 275 105.277C276.35 104.177 277.437 102.839 278.194 101.344C278.367 100.996 278.639 100.696 278.982 100.474C279.325 100.252 279.727 100.116 280.147 100.081C282.609 99.9128 287.131 99.8244 288 101.76Z" fill="#3A4661"/>
<path d="M285.34 102.08C286.221 102.92 286.976 103.883 287.58 104.94C288.123 106.589 288.212 108.354 287.84 110.05C287.84 110.05 290.49 104.9 288.99 102.39C287.49 99.88 285.34 102.08 285.34 102.08Z" fill="#3A4661"/>
<path d="M288.997 131.246C288.76 147.054 288.938 143.749 287.203 145.244C286.23 145.723 285.153 145.956 284.069 145.922C279.209 146.247 270.663 145.45 270.338 144.555C269.224 141.457 270.013 140.493 269.076 135.702C268.978 135.201 268.86 134.66 268.722 134.06C267.943 130.804 267.184 129.692 269.944 124.459C272.457 119.708 275.06 115.862 275.296 116C281.91 119.935 282.442 116.629 282.442 116.629C282.442 116.629 289.164 123.535 288.997 131.246Z" fill="white"/>
<path d="M306 172.109L301.114 185.975C300.238 186.047 299.358 185.962 298.509 185.726C297.625 185.41 296.782 184.977 296 184.437C296 184.437 297.364 169.542 299.892 161L306 172.109Z" fill="#485484"/>
<path d="M283 116C283 116 289.754 117.145 290.546 120.028L296 139.884C296 139.884 292.569 140.495 290.986 138.913C289.402 137.331 285.473 124.356 285.473 124.356L283 116Z" fill="white"/>
<path d="M284 145.926C279.138 146.253 270.588 145.45 270.262 144.548C269.148 141.427 269.937 140.455 269 135.629L271.347 129C271.347 129 270.963 136.383 273.122 138.325C275.282 140.267 281.998 142.081 283.053 143.706C283.519 144.372 283.841 145.128 284 145.926Z" fill="#EAF2FB"/>
<path d="M279 142.503C279 142.503 283.516 141.78 284.25 142.068C285.289 142.52 286.213 143.097 286.981 143.774C287.204 144.136 285.355 143.493 284.761 143.38C284.1 143.395 283.448 143.497 282.837 143.681C281.746 143.992 280.555 144.078 279.4 143.928L279 142.503Z" fill="#EBAF85"/>
<path d="M275.116 116C275.116 116 268.848 116.388 266.679 119.446C263.626 123.755 257.569 142.11 261.044 144.556C264.951 147.313 278.84 145.275 278.84 145.275C278.84 145.275 279.301 143.091 278.658 142.042C278.015 140.994 267.571 139.276 267.082 138.791C266.592 138.305 273.11 129.278 273.11 127.813C273.11 126.347 275.116 116 275.116 116Z" fill="white"/>
<path d="M285 144C285.208 144.337 285.447 144.647 285.711 144.923C285.799 144.981 285.899 145.007 286 144.998L285.642 144.22L285 144Z" fill="#EBAF85"/>
<path d="M284 142L287 142.881C286.941 142.924 286.865 142.957 286.779 142.977C286.694 142.998 286.601 143.004 286.51 142.997C286.07 142.949 285.638 142.875 285.22 142.777L284 142Z" fill="#EBAF85"/>
<path d="M287 147H310.061L317 131H293.978L287 147Z" fill="#E49758"/>
<path d="M310 147H279V148H309.719L310 147Z" fill="#DD8044"/>
<path d="M302.95 138.996C302.994 138.882 303.009 138.759 302.995 138.638C302.981 138.516 302.938 138.401 302.87 138.301C302.802 138.202 302.711 138.123 302.606 138.07C302.501 138.018 302.386 137.994 302.27 138.001C301.995 138.018 301.732 138.122 301.515 138.3C301.298 138.477 301.137 138.72 301.053 138.996C301.008 139.109 300.991 139.232 301.004 139.354C301.017 139.476 301.059 139.592 301.126 139.693C301.193 139.793 301.283 139.873 301.388 139.927C301.493 139.981 301.609 140.005 301.725 139.999C302.002 139.983 302.268 139.879 302.487 139.699C302.706 139.52 302.868 139.274 302.95 138.996Z" fill="white"/>
<path d="M455.944 158.459L460.909 174.574C460.977 174.807 461.007 175.049 460.998 175.292C460.985 175.72 460.84 176.133 460.584 176.476C460.329 176.818 459.974 177.073 459.568 177.206L431.662 185.902C431.402 185.985 431.128 186.016 430.856 185.992C430.584 185.969 430.319 185.891 430.077 185.764C429.835 185.637 429.621 185.463 429.446 185.252C429.271 185.041 429.14 184.798 429.06 184.536L424.094 168.421C424.013 168.159 423.984 167.884 424.009 167.611C424.033 167.337 424.112 167.072 424.239 166.829C424.366 166.586 424.54 166.371 424.751 166.196C424.961 166.021 425.204 165.889 425.465 165.808L453.342 157.093C453.867 156.93 454.435 156.983 454.923 157.238C455.41 157.494 455.777 157.933 455.944 158.459Z" fill="#CDDDF3"/>
<path d="M460 175.478C459.985 175.903 459.839 176.311 459.583 176.649C459.326 176.986 458.973 177.234 458.57 177.36L431.237 185.904C430.836 186.033 430.404 186.032 430.003 185.902C429.602 185.772 429.252 185.519 429 185.179L442.705 172L460 175.478Z" fill="#BDD3F0"/>
<path d="M456 158.441L443.773 174L424.353 168.943L424.094 168.136C424.013 167.881 423.984 167.612 424.009 167.346C424.034 167.079 424.112 166.82 424.24 166.584C424.367 166.347 424.541 166.137 424.752 165.966C424.963 165.795 425.206 165.667 425.467 165.588L453.393 157.089C453.922 156.931 454.494 156.985 454.983 157.238C455.471 157.492 455.837 157.924 456 158.441Z" fill="#DEE9F8"/>
<path d="M356.939 99.2616L353.468 112.718C353.414 112.909 353.331 113.091 353.222 113.256C353.023 113.547 352.74 113.769 352.412 113.892C352.084 114.015 351.726 114.033 351.388 113.944L328.269 107.844C327.929 107.756 327.624 107.562 327.398 107.291C327.172 107.019 327.035 106.683 327.007 106.329C326.989 106.135 327.006 105.939 327.056 105.751L330.527 92.2842C330.582 92.0655 330.679 91.86 330.813 91.6797C330.948 91.4994 331.116 91.3478 331.308 91.2337C331.501 91.1197 331.714 91.0454 331.935 91.0153C332.156 90.9851 332.381 90.9997 332.597 91.0581L355.706 97.1385C355.927 97.1929 356.134 97.2915 356.317 97.4286C356.499 97.5657 356.652 97.7383 356.767 97.9363C356.882 98.1343 356.956 98.3537 356.986 98.5813C357.015 98.809 356.999 99.0403 356.939 99.2616Z" fill="#CDDDF3"/>
<path d="M353 112.32C352.803 112.586 352.522 112.789 352.197 112.902C351.872 113.014 351.517 113.031 351.181 112.949L328.252 107.368C327.914 107.287 327.612 107.11 327.388 106.862C327.163 106.613 327.028 106.306 327 105.982L342.371 103L353 112.32Z" fill="#BDD3F0"/>
<path d="M357.938 99.2089L342.386 105L331 92.9617L331.18 92.2775C331.236 92.06 331.334 91.8556 331.47 91.6762C331.606 91.4968 331.777 91.346 331.972 91.2325C332.167 91.119 332.383 91.0452 332.607 91.0152C332.831 90.9852 333.059 90.9997 333.277 91.0578L356.689 97.0968C356.913 97.1509 357.123 97.2491 357.308 97.3854C357.492 97.5218 357.647 97.6935 357.764 97.8905C357.88 98.0875 357.956 98.3057 357.985 98.5322C358.015 98.7587 357.999 98.9888 357.938 99.2089Z" fill="#DEE9F8"/>
<path d="M542.371 381H67.6287C67.2815 381 67 381.222 67 381.496V381.504C67 381.778 67.2815 382 67.6287 382H542.371C542.719 382 543 381.778 543 381.504V381.496C543 381.222 542.719 381 542.371 381Z" fill="#3B4054"/>
</g>
</svg>
