<svg width="21" height="31" viewBox="0 0 21 31" fill="none" xmlns="http://www.w3.org/2000/svg">
<g clip-path="url(#clip0)">
<path d="M5.25115 31.0003C8.14857 31.0003 10.5001 28.6857 10.5001 25.8337V20.667H5.25115C2.35373 20.667 0.00219727 22.9817 0.00219727 25.8337C0.00219727 28.6857 2.35373 31.0003 5.25115 31.0003Z" fill="#0ACF83"/>
<path d="M0.00219727 15.4997C0.00219727 12.6477 2.35373 10.333 5.25115 10.333H10.5001V20.6663H5.25115C2.35373 20.6663 0.00219727 18.3517 0.00219727 15.4997Z" fill="#A259FF"/>
<path d="M0.00292969 5.16667C0.00292969 2.31467 2.35446 0 5.25188 0H10.5008V10.3333H5.25188C2.35446 10.3333 0.00292969 8.01867 0.00292969 5.16667Z" fill="#F24E1E"/>
<path d="M10.5 0H15.749C18.6464 0 20.9979 2.31467 20.9979 5.16667C20.9979 8.01867 18.6464 10.3333 15.749 10.3333H10.5V0Z" fill="#FF7262"/>
<path d="M20.9979 15.4997C20.9979 18.3517 18.6464 20.6663 15.749 20.6663C12.8515 20.6663 10.5 18.3517 10.5 15.4997C10.5 12.6477 12.8515 10.333 15.749 10.333C18.6464 10.333 20.9979 12.6477 20.9979 15.4997Z" fill="#1ABCFE"/>
</g>
<defs>
<clipPath id="clip0">
<rect width="21" height="31" fill="white"/>
</clipPath>
</defs>
</svg>
