<svg width="47" height="44" viewBox="0 0 47 44" fill="none" xmlns="http://www.w3.org/2000/svg">
<path d="M23.5137 44.0147L32.1617 16.9863H14.8657L23.5137 44.0147Z" fill="#E24329"/>
<path d="M23.5136 44.0147L14.8656 16.9863H2.74561L23.5136 44.0147Z" fill="#FC6D26"/>
<path d="M2.74576 16.9863L0.117793 25.2C-0.121907 25.9491 0.140622 26.7698 0.768183 27.2328L23.5137 44.0147L2.74576 16.9863Z" fill="#FCA326"/>
<path d="M2.74585 16.9863H14.8658L9.65708 0.707332C9.38918 -0.130422 8.22224 -0.130195 7.95434 0.707332L2.74585 16.9863Z" fill="#E24329"/>
<path d="M23.5137 44.0147L32.1617 16.9863H44.2816L23.5137 44.0147Z" fill="#FC6D26"/>
<path d="M44.2816 16.9863L46.9096 25.2C47.1493 25.9491 46.8868 26.7698 46.2592 27.2328L23.5137 44.0147L44.2816 16.9863Z" fill="#FCA326"/>
<path d="M44.2816 16.9863H32.1616L37.3703 0.707332C37.6382 -0.130422 38.8052 -0.130195 39.0731 0.707332L44.2816 16.9863Z" fill="#E24329"/>
</svg>
