<svg width="28" height="32" viewBox="0 0 28 32" fill="none" xmlns="http://www.w3.org/2000/svg">
<path d="M19.4164 12.2704C18.9986 12.2704 18.6077 12.3854 18.2695 12.5826V12.2772C18.2695 11.0051 17.2402 9.9696 15.9757 9.9696C15.5568 9.9696 15.1671 10.0845 14.8288 10.2817V7.07044C14.8288 5.80509 13.8063 4.77636 12.5485 4.77636C12.1352 4.77636 11.7488 4.88903 11.4151 5.08283V4.78988C11.4151 3.50988 10.3802 2.46875 9.10789 2.46875C7.83557 2.46875 6.80069 3.50988 6.80069 4.78988V18.8992L4.37701 15.9707C3.51125 14.9251 1.96229 14.782 0.921808 15.6518C-0.0425124 16.4586 -0.248592 17.8603 0.443568 18.9127L7.23861 29.244C8.32837 30.9014 10.1596 31.8907 12.1352 31.8907H16.221C19.2472 31.8907 21.7101 29.4141 21.7101 26.3696V14.5769C21.7112 13.3048 20.682 12.2704 19.4164 12.2704ZM20.5644 26.3685C20.5644 28.7775 18.6167 30.7369 16.2221 30.7369H12.1375C10.5471 30.7369 9.07429 29.9403 8.19733 28.6073L1.40117 18.2761C1.03269 17.7149 1.14133 16.9679 1.65541 16.5386C2.20981 16.0755 3.03525 16.151 3.49557 16.7076L6.93285 20.862C7.08741 21.049 7.34165 21.1178 7.56901 21.0355C7.79637 20.9533 7.94757 20.7358 7.94757 20.4935V4.78988C7.94757 4.1465 8.46837 3.62255 9.10789 3.62255C9.74741 3.62255 10.2682 4.14537 10.2682 4.78988V17.9448C10.2682 18.2637 10.5247 18.5217 10.8416 18.5217C11.1575 18.5217 11.4151 18.2637 11.4151 17.9448V7.07044C11.4151 6.44171 11.9236 5.93016 12.5485 5.93016C13.1735 5.93016 13.682 6.44171 13.682 7.07044V17.9448C13.682 18.2637 13.9384 18.5217 14.2554 18.5217C14.5724 18.5217 14.8288 18.2637 14.8288 17.9448V12.2761C14.8288 11.6406 15.3429 11.1223 15.9757 11.1223C16.6074 11.1223 17.1226 11.6395 17.1226 12.2761V18.4541C17.1226 18.773 17.3791 19.031 17.696 19.031C18.013 19.031 18.2695 18.773 18.2695 18.4541V14.5769C18.2695 13.9403 18.7836 13.4231 19.4164 13.4231C20.0492 13.4231 20.5632 13.9403 20.5632 14.5769V26.3685H20.5644Z" fill="white"/>
<path d="M27.6872 12.8834C27.4161 12.7189 27.0633 12.8079 26.9009 13.0806L26.8718 13.129V5.35327C26.8718 5.0344 26.6153 4.77637 26.2984 4.77637C25.9814 4.77637 25.7249 5.0344 25.7249 5.35327V13.129L25.6958 13.0806C25.5334 12.8068 25.1806 12.7189 24.9096 12.8834C24.6374 13.0468 24.55 13.4017 24.7124 13.6744L25.8067 15.5088C25.9108 15.6823 26.0968 15.7893 26.2984 15.7893C26.5 15.7893 26.6859 15.6834 26.79 15.5088L27.8843 13.6744C28.0467 13.4017 27.9582 13.0468 27.6872 12.8834Z" fill="#C3002F"/>
<path d="M23.3486 0.389816C23.2445 0.216295 23.0586 0.109253 22.857 0.109253C22.6554 0.109253 22.4694 0.216295 22.3653 0.389816L21.271 2.22418C21.1086 2.49799 21.196 2.85179 21.4682 3.01517C21.7392 3.17968 22.092 3.09066 22.2544 2.81686L22.2835 2.76841V9.96841C22.2835 10.2873 22.54 10.5453 22.857 10.5453C23.1739 10.5453 23.4304 10.2873 23.4304 9.96841V2.76841L23.4595 2.81686C23.567 2.99714 23.7574 3.09629 23.9523 3.09629C24.052 3.09629 24.1539 3.07038 24.2469 3.01404C24.519 2.85066 24.6064 2.49573 24.4429 2.22306L23.3486 0.389816Z" fill="#C3002F"/>
</svg>
