<svg width="52" height="46" viewBox="0 0 52 46" fill="none" xmlns="http://www.w3.org/2000/svg">
<path d="M36.7224 30.6128C36.0759 29.3197 35.3001 28.0267 34.3949 26.7013C33.7484 25.7639 33.0696 24.8264 32.3261 23.9213C32.0351 23.5657 32.1644 23.1131 32.3907 22.8869L33.0696 22.208C36.1729 19.0401 39.3732 15.7751 41.8299 12.2516C44.4483 8.50176 45.903 4.94589 46.2586 1.26072C46.2909 0.90513 46.1293 0.517217 45.8384 0.290935C45.6444 0.129304 45.4181 0.0646522 45.1595 0.0646522C45.0302 0.0646522 44.9009 0.0969782 44.7716 0.129304C42.3795 1.03443 39.9874 1.74561 37.7569 2.2305C37.3043 2.32748 36.9487 2.68306 36.7871 3.07098C35.1708 7.46732 31.0654 11.6697 26.766 16.0661C26.6044 16.2277 26.3458 16.454 25.9578 16.454C25.5699 16.454 25.3113 16.26 25.1497 16.0661C20.8503 11.6697 16.7449 7.49965 15.1286 3.07098C14.967 2.68306 14.6114 2.32748 14.1588 2.2305C11.9606 1.71328 9.53619 0.969782 7.14406 0.0646522C7.01476 1.44509e-08 6.88545 0 6.75615 0C6.52987 0 6.27126 0.0646522 6.0773 0.226283C5.78637 0.452565 5.62474 0.840478 5.65706 1.19606C6.01265 4.84891 7.46732 8.46943 10.0857 12.2193C12.5425 15.7428 15.7428 19.0077 18.8461 22.1757C24.5678 27.9944 29.9339 33.4898 30.4188 39.858C30.4353 40.1382 30.5584 40.4014 30.7627 40.5938C30.9671 40.7861 31.2373 40.893 31.5179 40.8925H38.2094C38.5004 40.8925 38.7913 40.7632 39.0176 40.5369C39.2115 40.3106 39.3408 40.0197 39.3085 39.7287C39.2439 38.5327 39.0822 37.3366 38.7913 36.1082V36.0112C38.7913 35.7526 38.9852 35.5587 39.2439 35.5587H39.3085C44.7716 36.3668 48.2305 37.6275 48.2628 39.0499C48.2628 40.3753 45.1595 42.3795 40.0843 43.8665C39.6318 43.9958 39.3085 44.416 39.3085 44.8686C39.3085 45.4505 39.7934 45.9354 40.3753 45.9354C40.4722 45.9354 40.5369 45.9353 40.6015 45.903C47.39 44.319 51.9157 41.7006 51.9157 38.6943C51.8833 35.2031 45.806 32.0675 36.7224 30.6128ZM18.7491 27.1862C18.6198 27.0569 18.3289 26.863 17.9733 26.863C17.4884 26.863 17.1651 27.1862 17.0682 27.3479C16.3247 28.4469 15.7105 29.546 15.1609 30.6451C6.0773 32.0675 0 35.2354 0 38.759C0 41.733 4.461 44.3837 11.2818 45.9677C11.3465 46 11.4434 46 11.5404 46C12.1223 46 12.6072 45.5151 12.6072 44.9332C12.6072 44.4483 12.2839 44.0604 11.8313 43.9311C6.78847 42.4441 3.68517 40.4399 3.68517 39.1145C3.68517 37.6922 7.14406 36.4315 12.6072 35.6233H12.6718C12.9304 35.6233 13.1244 35.8173 13.1244 36.0759V36.1729C12.8335 37.3689 12.6718 38.565 12.6072 39.7611C12.6072 40.052 12.7041 40.3753 12.8981 40.5692C13.0921 40.7955 13.383 40.9248 13.7063 40.9248H20.3654C20.9473 40.9248 21.4322 40.4722 21.4645 39.8904C21.6261 37.9185 22.208 35.9789 23.3394 33.91C23.7273 33.1989 23.4364 32.52 23.2101 32.2291C22.111 30.8067 20.7533 29.2551 18.7491 27.1862Z" fill="#205081"/>
<path d="M25.1821 10.6041C25.4407 10.8627 25.7316 10.8951 25.9579 10.8951C26.1518 10.8951 26.4751 10.8627 26.7337 10.6041C29.0935 8.30897 30.3542 5.62591 30.6452 4.88241C30.6775 4.78543 30.7421 4.65613 30.7421 4.46217C30.7421 3.8803 30.2573 3.42773 29.74 3.42773C29.3198 3.42773 28.0914 3.55704 25.9902 3.55704C23.889 3.55704 22.6606 3.42773 22.2404 3.42773C21.7232 3.42773 21.2383 3.84797 21.2383 4.46217C21.2383 4.6238 21.2706 4.7531 21.3353 4.88241C21.5292 5.62591 22.8223 8.30897 25.1821 10.6041Z" fill="#205081"/>
</svg>
