<svg width="93" height="53" viewBox="0 0 93 53" fill="none" xmlns="http://www.w3.org/2000/svg">
<path d="M2.04977 47.2265C2.04977 47.8543 2.10628 48.4208 2.2193 48.9212C2.33232 49.4216 2.51726 49.8512 2.7844 50.2053C3.05154 50.5593 3.40601 50.8284 3.84781 51.0172C4.28962 51.2061 4.85472 51.3005 5.53798 51.3005C6.58084 51.3005 7.42849 51.0786 8.07579 50.6396C8.72308 50.2006 9.05187 49.4783 9.05187 48.4728C9.05187 47.9252 8.98508 47.4672 8.84638 47.1085C8.70767 46.745 8.51245 46.4428 8.25559 46.2021C7.99873 45.9613 7.68022 45.7536 7.3052 45.5884C6.93018 45.4232 6.50892 45.2532 6.04657 45.0833L3.32895 44.1391C2.90256 43.9975 2.50699 43.8087 2.14738 43.5726C1.78777 43.3366 1.4744 43.0439 1.2124 42.6898C0.945257 42.3358 0.739767 41.9156 0.585649 41.4294C0.431531 40.9432 0.354472 40.3625 0.354472 39.6875C0.354472 39.0124 0.472629 38.4034 0.71408 37.8605C0.955532 37.3176 1.29459 36.8597 1.74153 36.4821C2.18334 36.1044 2.71761 35.8164 3.32895 35.6087C3.94542 35.4057 4.62868 35.3019 5.37872 35.3019C6.98669 35.3019 8.24018 35.7079 9.14947 36.5151C10.0536 37.3224 10.5519 38.512 10.6393 40.084H8.58951C8.58951 39.1398 8.33779 38.3892 7.83433 37.8322C7.33088 37.2752 6.56543 36.9966 5.53798 36.9966C4.97288 36.9966 4.49511 37.0722 4.10468 37.2185C3.70911 37.3696 3.39573 37.5631 3.15428 37.8086C2.91283 38.0541 2.7433 38.3373 2.64056 38.6678C2.53781 38.9982 2.48644 39.3334 2.48644 39.6827C2.48644 40.4664 2.60459 41.0517 2.84605 41.4388C3.0875 41.8259 3.50362 42.1186 4.10468 42.3216L7.05347 43.3366C8.52273 43.8417 9.58101 44.4932 10.218 45.291C10.8602 46.0935 11.1787 47.0565 11.1787 48.1895C11.1787 49.8087 10.6752 51.0125 9.66834 51.8056C8.66143 52.5987 7.2641 52.9952 5.4866 52.9952C3.70911 52.9952 2.34773 52.4948 1.40761 51.4893C0.472629 50.4838 0 49.0629 0 47.2265H2.04977Z" fill="white"/>
<path d="M20.6929 52.9999C19.3418 52.9999 18.2629 52.7545 17.4615 52.2682C16.6601 51.782 16.0488 51.1258 15.6275 50.2997C15.2063 49.4736 14.934 48.5294 14.8056 47.4625C14.6771 46.3956 14.6155 45.2721 14.6155 44.0919C14.6155 43.1194 14.6771 42.1139 14.8056 41.0753C14.934 40.0368 15.2063 39.0926 15.6275 38.2382C16.0488 37.3837 16.655 36.6803 17.4615 36.128C18.2629 35.5804 19.3418 35.3019 20.6929 35.3019C22.044 35.3019 23.1177 35.5757 23.9242 36.128C24.7256 36.6756 25.3421 37.379 25.7685 38.2382C26.1949 39.0926 26.4723 40.0415 26.6007 41.0753C26.7292 42.1139 26.7908 43.1194 26.7908 44.0919C26.7908 45.2721 26.7292 46.3956 26.6007 47.4625C26.4723 48.5294 26.1949 49.4783 25.7685 50.2997C25.3421 51.1258 24.7256 51.782 23.9242 52.2682C23.1177 52.7545 22.044 52.9999 20.6929 52.9999ZM24.664 43.8087C24.664 42.8645 24.6075 41.977 24.4996 41.1462C24.3866 40.3153 24.1811 39.593 23.8831 38.9793C23.5852 38.3656 23.1742 37.8841 22.6502 37.5301C22.1262 37.176 21.4583 37.0014 20.6364 37.0014C19.8504 37.0014 19.2031 37.176 18.6996 37.5301C18.1962 37.8841 17.7955 38.3656 17.5078 38.9793C17.2149 39.593 17.0146 40.3106 16.9067 41.1367C16.7937 41.9628 16.7372 42.8456 16.7372 43.7898C16.7372 45.0172 16.7834 46.0982 16.881 47.0424C16.9735 47.9865 17.1636 48.7702 17.4461 49.398C17.7287 50.0259 18.1242 50.5027 18.638 50.8237C19.1517 51.1447 19.8349 51.3052 20.6877 51.3052C21.5251 51.3052 22.2032 51.1447 22.7272 50.8237C23.2461 50.5027 23.6519 50.0259 23.9448 49.398C24.2376 48.7702 24.4277 47.9865 24.5201 47.0518C24.6178 46.1171 24.664 45.0361 24.664 43.8087Z" fill="white"/>
<path d="M39.5621 35.6323V37.3271H32.9504V42.8409H39.1048V44.5357H32.9504V52.594H30.9006V35.6323H39.5621Z" fill="white"/>
<path d="M47.8946 52.5987H45.8448V37.3318H41.0518V35.6371H52.6671V37.3318H47.8997V52.5987H47.8946Z" fill="white"/>
<path d="M57.7688 50.9039H65.3052V52.5987H55.7139V35.6323H57.7636V50.9039H57.7688Z" fill="white"/>
<path d="M77.9478 35.6323V37.3271H70.7402V42.8409H77.4854V44.5357H70.7402V50.8992H77.9684V52.594H68.6853V35.6323H77.9478Z" fill="white"/>
<path d="M82.8693 35.6323L86.7429 42.2555L90.6164 35.6323H92.8973L87.9501 43.8795L93.0001 52.5987H90.6677L86.7429 45.5081L82.7409 52.5987H80.46L85.5613 43.8795L80.5884 35.6323H82.8693Z" fill="white"/>
<path d="M18.0936 19.0437C18.0679 19.072 18.0422 19.0956 18.0165 19.124C18.0165 19.1287 17.5079 19.7235 17.2767 20.0351C17.1894 20.1531 17.1123 20.2758 17.0353 20.3938C16.7219 20.7668 16.4548 21.168 16.1825 21.5882C15.8486 22.098 15.5095 22.622 14.9958 23.0044C14.5334 23.349 13.9426 23.552 13.4392 23.8494C13.1772 24.0052 12.9255 24.1752 12.6789 24.3546C12.5145 24.4584 12.3501 24.5623 12.196 24.6803C11.898 24.9069 11.6155 25.1382 11.3381 25.3601C11.0093 25.6055 10.6753 25.8463 10.3209 26.0635C10.1102 26.1956 9.7455 26.4175 9.33965 26.6347C9.24718 26.6724 9.15985 26.7102 9.06738 26.748C8.62044 26.9038 8.17349 27.0501 7.7471 27.2248C7.68032 27.2295 7.61867 27.2342 7.55702 27.2342C7.55702 27.2342 7.55188 27.2342 7.55188 27.2295C7.17173 27.3522 6.86349 27.4561 6.82239 27.4844C6.70937 27.5552 11.2404 23.5143 11.2404 23.5143L16.8144 17.6605C16.8966 17.552 16.9788 17.4434 17.0558 17.3301C17.2048 17.1979 17.3538 17.0657 17.5028 16.9383C17.5233 16.9241 17.549 16.943 17.5336 16.9619C17.5233 16.9713 16.5986 18.2412 16.1414 18.8502C16.0284 19.0012 15.9256 19.1523 15.8229 19.2939C15.489 19.7849 15.2321 20.2711 15.0215 20.8187C15.5814 20.6724 16.1363 20.6204 16.5935 20.2522C17.0918 19.851 17.5439 19.3694 18.0884 19.0201C18.0884 19.0107 18.109 19.0296 18.0936 19.0437ZM21.0886 13.1617C21.2889 13.0436 21.5664 12.9728 21.7462 12.8359C22.0698 12.5857 22.0801 12.0712 22.2137 11.7218C22.4654 11.0562 22.7993 10.4236 23.1897 9.81937C23.1949 9.80993 23.1949 9.80521 23.1949 9.79577C23.2103 9.77689 23.2206 9.758 23.236 9.74384C23.2565 9.7108 23.2051 9.67775 23.1795 9.70607C21.6434 11.3017 20.354 13.1522 19.0491 14.9083C19.044 14.9178 19.044 14.9272 19.044 14.9319C19.0183 14.965 18.9926 14.998 18.9669 15.0311C18.9412 15.0641 18.9977 15.1066 19.0285 15.0736C19.3727 14.7148 19.7015 14.3371 20.056 13.9878C20.0663 13.9878 20.0765 13.9831 20.0817 13.9736C20.1485 13.9075 20.2101 13.8414 20.2769 13.7754C20.5235 13.544 20.7958 13.3363 21.0886 13.1617ZM34.8411 10.0176C34.8616 10.0035 34.877 9.98932 34.8719 9.9846C34.8411 9.75328 34.7846 9.63998 34.5945 9.47948C34.3427 9.26705 34.4969 9.58334 34.0807 9.21984C33.9575 9.11126 33.8855 8.95548 33.7725 8.83746C33.3564 8.40315 32.519 8.2332 31.8923 8.16239C31.8717 8.13879 31.8409 8.12934 31.7998 8.12934C31.769 8.13407 31.7382 8.13879 31.7022 8.13879C31.3015 8.09158 30.9008 8.1199 30.4898 8.21904C30.4795 8.2096 30.4641 8.2096 30.4487 8.22376C30.4436 8.22848 30.4384 8.23792 30.4333 8.24264C30.3871 8.26153 30.3511 8.29457 30.3408 8.34178C30.3408 8.3465 30.3357 8.35122 30.3357 8.35594C30.0788 8.65335 29.8887 9.02157 29.6678 9.33314C29.411 9.69191 29.1233 10.0365 28.8356 10.3717C28.9589 10.0743 29.0668 9.77689 29.1695 9.47476C29.226 9.30481 29.3288 9.10654 29.3853 8.90355C29.3904 8.88939 29.3956 8.87522 29.4058 8.85634C29.4778 8.67223 29.5394 8.49756 29.4469 8.36066C29.4521 8.35594 29.4521 8.3465 29.4521 8.34178C29.4007 8.12463 29.2158 7.99716 29.0257 7.8697C28.6866 7.63367 28.3887 7.40235 28.0856 7.12855C27.9777 7.02941 27.7619 6.80754 27.5924 6.83114C27.3509 6.86419 27.4537 7.24185 27.2019 7.29849C27.1968 7.27961 27.1917 7.26073 27.1814 7.24657C27.0838 6.9822 26.868 6.76505 26.6677 6.56206C26.6471 6.53845 26.4981 6.65647 26.4879 6.68008C26.4827 6.6848 26.4827 6.68952 26.4827 6.69896C26.267 7.10494 26.4108 7.77057 26.4211 8.2096C26.4416 8.79969 26.38 9.36146 26.3286 9.93739C25.9639 10.0412 25.5991 10.1357 25.5991 10.5086C25.6043 10.7777 25.6659 11.042 25.6813 11.3111C25.6813 11.3536 25.6813 11.3914 25.6762 11.4339C25.671 11.4811 25.6659 11.5283 25.6608 11.5755C25.558 11.9012 25.219 12.1892 25.1265 12.5149C25.0443 12.8076 24.9621 13.072 24.8542 13.3363C24.3097 14.2994 23.9141 15.2813 23.0716 16.1027C22.1777 16.9807 21.0732 17.6416 20.1279 18.4631C20.1074 18.4819 20.1331 18.5103 20.1536 18.5008C20.1433 18.5197 20.1587 18.5433 20.1844 18.5386L22.5065 18.3026L26.3851 16.2301L31.394 13.4921L34.8411 10.0176ZM85.7565 27.1115C85.6589 27.0595 85.5665 26.9982 85.4791 26.9321C85.4586 26.9321 85.438 26.9226 85.4175 26.9085C85.0682 26.6111 84.5904 26.7763 84.1845 26.7338C83.9585 26.7102 83.7479 26.6488 83.5372 26.5639C82.9567 26.3373 82.4327 25.969 81.9087 25.6528C81.097 25.1571 80.2648 24.6661 79.3761 24.3026C79.3761 24.3026 79.3761 24.3026 79.3812 24.3073C79.6586 24.4962 79.9309 24.6992 80.2032 24.8974C81.1844 25.6197 82.3248 26.3325 83.1571 27.1917C83.1622 27.1964 83.1674 27.2059 83.1725 27.2153C83.2701 27.2814 83.3523 27.3617 83.4191 27.4466C83.4448 27.4608 83.4653 27.4702 83.491 27.4844C83.5167 27.5033 83.5218 27.5505 83.4807 27.5552C82.9156 27.626 82.2478 27.6638 81.6416 27.5883C81.4823 27.5883 81.3231 27.5883 81.169 27.5977C80.609 27.6213 80.0388 27.6732 79.4839 27.626C78.9959 27.5883 78.5592 27.4466 78.102 27.2814C77.501 27.0643 76.9667 26.9887 76.3194 27.0265C75.3227 27.0831 74.4546 27.187 73.5607 26.6913C73.2216 26.5072 72.9082 26.2948 72.5794 26.1012C72.0452 25.851 71.5109 25.6103 70.9407 25.5536C70.1752 25.4828 69.605 25.7897 68.8806 25.8746C68.7881 25.8841 68.6957 25.8935 68.5981 25.8935C68.0997 25.9738 67.6323 25.9454 67.0723 25.9313C67.0312 25.9313 66.9952 25.936 66.9593 25.936C66.6408 25.9879 66.3223 26.0351 65.9986 26.0682C65.8394 26.1107 65.6801 26.1626 65.5208 26.2287C65.2948 26.3231 65.1099 26.4222 64.8633 26.46C64.5499 26.5119 64.2108 26.4836 63.8923 26.5072C63.3837 26.5403 62.9008 26.6441 62.4025 26.7432C62.3511 26.7527 62.3203 26.696 62.3563 26.6677C62.3511 26.663 62.3511 26.6536 62.3563 26.6488C62.8546 25.9502 63.5995 25.3553 64.3393 24.8786C64.8068 24.5764 65.2332 24.3026 65.6441 23.9391C65.8702 23.7409 66.1116 23.5662 66.3736 23.4198C66.3942 23.401 66.4199 23.3868 66.4404 23.3679C65.4078 23.6181 64.4112 23.9014 63.4557 24.3687C62.5309 24.8219 61.6473 25.3317 60.6918 25.7425C59.7671 26.139 58.8938 26.6347 57.9691 27.0312C57.6711 27.1587 57.3577 27.2578 57.0443 27.3333C57.0443 27.3333 57.0289 27.3381 57.0032 27.3428C56.9776 27.3475 56.9467 27.3569 56.9211 27.3617C56.3046 27.5175 53.5253 28.2114 53.3455 28.2633C53.2325 28.2964 60.6558 21.05 60.6558 21.05L64.966 14.2522L67.0209 10.9807C67.0209 10.9807 64.7194 12.3119 64.6526 12.3733C64.6064 12.4158 66.1527 10.5889 67.1648 9.38507C67.3548 9.08294 67.735 8.58254 67.9508 8.37955C67.9765 8.37482 68.0124 8.36538 67.9816 8.3701C68.0021 8.36538 68.0176 8.36538 68.0278 8.36538C68.033 8.36538 68.0381 8.3701 68.0432 8.3701C68.1357 8.44564 68.3618 8.66751 68.634 8.92715L75.708 15.116L82.7615 23.8542C83.2804 24.3546 83.789 24.8597 84.2873 25.3837C84.2924 25.3884 84.2873 25.3884 84.2924 25.3931C84.3387 25.4356 84.3849 25.4781 84.4311 25.5206C84.9089 25.9643 85.5562 26.46 85.8285 27.0407C85.8387 27.0879 85.8028 27.1351 85.7565 27.1115ZM68.0946 13.1569L67.6888 12.3827C67.6888 12.3827 66.2914 13.9311 66.1424 14.2616C65.9935 14.5873 65.6544 15.522 65.6544 15.522C65.6544 15.522 66.7743 14.9603 67.2983 14.526C67.8275 14.0916 68.0946 13.1569 68.0946 13.1569ZM53.3352 15.286C54.3781 14.4221 55.4775 13.544 56.4536 12.5905C56.9262 12.2506 57.3731 11.2026 57.7327 10.7258C57.7584 10.6927 57.7533 10.6549 57.7276 10.6266C57.7276 10.6172 57.7276 10.6077 57.7225 10.603C57.5067 10.1829 54.0956 6.12775 53.3352 5.38659C52.5287 4.60295 48.9018 0.731936 48.4805 0.0474279C48.4754 0.0427071 48.4702 0.0427071 48.4702 0.0379864C48.4805 0.0096619 48.4343 -0.0139418 48.4137 0.0096619C48.4086 0.0143826 48.4086 0.0191034 48.4035 0.0191034C48.3778 0.0285449 48.3624 0.0474279 48.3572 0.0710316C48.3213 0.108798 44.756 3.84763 44.0419 4.60767C43.5385 5.14111 40.4253 7.69976 39.9115 8.23792C39.7472 8.37482 39.593 8.52117 39.4543 8.67695C39.1101 8.98852 38.6889 9.30481 38.432 9.68247C38.4217 9.69663 38.4423 9.71552 38.4577 9.70607C38.5245 9.67303 38.5913 9.63054 38.6581 9.58806H38.6632C38.8533 9.5078 39.0536 9.42755 39.2591 9.35202C40.451 8.95548 41.6685 8.51645 42.7884 7.983C43.934 7.56286 44.8433 6.76033 45.8143 6.07582C45.8245 6.06638 45.84 6.06166 45.8502 6.05222C45.8502 6.06166 45.8451 6.0711 45.8451 6.08054C45.7732 6.3213 45.7321 6.57622 45.6345 6.81226C45.4238 7.31738 45.0026 7.71392 44.8074 8.22848C44.7971 8.25209 44.8279 8.26625 44.8485 8.26153C44.8587 8.28041 44.8793 8.29457 44.905 8.28041C45.4701 8.03021 46.1328 7.83194 46.626 7.47316C46.6568 7.45428 46.6825 7.43068 46.7133 7.40707C46.7955 7.35514 46.8777 7.29849 46.9599 7.24185C47.1448 7.11911 47.3092 6.99637 47.4479 6.83114C47.5096 6.76977 47.5712 6.70368 47.6277 6.64231C47.8024 6.43932 47.9462 6.21744 48.0952 5.99557L48.1004 5.99085C48.3521 5.70288 48.5935 5.4102 48.8658 5.13639C48.9531 5.05142 49.0508 4.97589 49.1484 4.90035C48.8658 5.13639 47.3965 9.30953 47.3965 9.30953L41.6942 15.4795L28.5633 26.9887L30.423 26.0351C31.1936 25.9266 31.8563 25.5347 32.4933 25.1099C32.9197 24.8266 33.341 24.5198 33.8085 24.2932C34.3479 24.0335 34.877 24.0194 35.4473 23.8778C35.8839 23.7692 36.223 23.4812 36.5826 23.2452C37.045 22.943 37.5176 22.6598 38.0056 22.3907C38.9098 21.8856 39.8704 21.5079 40.8157 21.0831C40.8517 21.0689 40.8876 21.0595 40.9236 21.0453C40.5537 21.4702 40.2301 21.8856 40.1633 22.4285C40.0811 23.0799 39.7112 23.8825 39.367 24.4915C39.3516 24.5198 39.3875 24.5387 39.4081 24.5198C39.4543 24.482 42.0435 22.8486 43.0247 21.829C43.7748 21.05 44.3707 20.1578 45.1053 19.3742C45.1259 19.3553 45.1413 19.3317 45.1618 19.3128C45.2543 19.2137 45.3519 19.1145 45.4547 19.0201C45.5009 18.9729 45.5471 18.9304 45.5985 18.8879C45.6807 18.8124 45.768 18.7369 45.8554 18.6661C45.9067 18.6236 45.9581 18.5811 46.0095 18.5433C46.5129 18.1515 47.0729 17.8069 47.489 17.3254C47.8538 16.9052 48.0593 16.4001 48.2596 15.895C48.5422 15.1963 48.8555 14.592 49.4926 14.1058C49.9292 13.7706 50.4121 13.4921 50.7358 13.0625C50.6176 14.3843 49.7186 15.5032 49.1175 16.6786C48.5833 17.7266 48.2391 18.8218 47.5353 19.7896C47.5147 19.8132 47.5558 19.8415 47.5815 19.8226C47.5918 19.8132 47.6072 19.799 47.6175 19.7896C47.6226 19.7896 47.6277 19.7896 47.6277 19.7849C48.0541 19.4686 48.4754 19.1381 48.8966 18.7982C49.6467 18.3167 50.3248 17.7172 51.0132 17.1696C51.7941 16.5559 52.5646 15.9233 53.3352 15.286ZM54.337 19.8604C54.337 19.8934 54.373 19.9265 54.4141 19.9123L57.7533 18.9587L61.6473 13.4921L60.9127 13.917C60.6302 14.0208 60.3527 14.1341 60.0959 14.2758C60.363 14.0208 60.738 13.6385 60.7689 13.426C60.7946 13.2183 60.8151 13.2466 60.5993 13.072C60.4452 12.9492 60.2654 12.8595 60.0753 12.7934C59.8339 12.7085 59.4126 12.7179 59.2482 12.4913C59.1763 12.3922 59.1814 12.0334 59.1506 11.9154C59.0993 11.7454 58.8783 11.4528 58.8629 11.4528C58.8527 11.4575 58.8116 11.4764 58.8372 11.4575C58.7962 11.4858 58.7551 11.533 58.7191 11.566C58.7191 11.566 58.714 11.566 58.714 11.5708C58.1437 12.4016 57.6454 13.275 57.0238 14.0822C56.284 15.05 55.3645 15.7958 54.5322 16.6833C54.2291 17.0091 53.9979 17.3773 53.7411 17.7313C53.3712 18.2365 52.9191 18.6755 52.4516 19.1004C51.5783 19.8934 50.6073 20.5921 49.7289 21.3805H49.7237C49.6518 21.4041 49.6775 21.5032 49.7546 21.4891C50.52 21.338 51.2495 21.0217 51.8814 20.6016C52.503 20.1861 53.3301 19.5063 54.1418 19.4827C54.2651 19.5772 54.3319 19.6999 54.337 19.8604Z" fill="white"/>
</svg>
