<svg width="285" height="235" viewBox="0 0 285 235" fill="none" xmlns="http://www.w3.org/2000/svg">
<path d="M277.67 194.64H8V194.77H277.67V194.64Z" fill="#ECECEC"/>
<path d="M250.64 203.32H222.02V203.45H250.64V203.32Z" fill="#ECECEC"/>
<path d="M186.64 201.63H155V201.76H186.64V201.63Z" fill="#ECECEC"/>
<path d="M223.4 200.85H213.05V200.98H223.4V200.85Z" fill="#ECECEC"/>
<path d="M85.4797 199.22H62.1797V199.35H85.4797V199.22Z" fill="#ECECEC"/>
<path d="M59.1796 199.22H50.8496V199.35H59.1796V199.22Z" fill="#ECECEC"/>
<path d="M108.13 201.5H78.8999V201.63H108.13V201.5Z" fill="#ECECEC"/>
<path d="M135.83 170.59H31.6799C30.863 170.59 30.0796 170.265 29.502 169.688C28.9244 169.11 28.5999 168.327 28.5999 167.51V21.12C28.5946 20.7122 28.6703 20.3074 28.8227 19.929C28.9752 19.5507 29.2012 19.2065 29.4877 18.9162C29.7742 18.626 30.1156 18.3955 30.4919 18.2382C30.8682 18.0809 31.272 18 31.6799 18H135.83C136.645 18.0026 137.426 18.3283 138.001 18.9056C138.577 19.483 138.9 20.2649 138.9 21.08V167.51C138.9 168.325 138.577 169.107 138.001 169.684C137.426 170.262 136.645 170.587 135.83 170.59ZM31.6799 18.17C30.9032 18.1854 30.1629 18.5015 29.6145 19.0517C29.0662 19.6019 28.7527 20.3433 28.7399 21.12V167.51C28.7399 168.29 29.0496 169.038 29.601 169.589C30.1523 170.14 30.9001 170.45 31.6799 170.45H135.83C136.61 170.45 137.357 170.14 137.909 169.589C138.46 169.038 138.77 168.29 138.77 167.51V21.12C138.757 20.3433 138.444 19.6019 137.895 19.0517C137.347 18.5015 136.606 18.1854 135.83 18.17H31.6799Z" fill="#ECECEC"/>
<path d="M252.48 170.59H148.34C147.523 170.59 146.74 170.265 146.162 169.688C145.585 169.11 145.26 168.327 145.26 167.51V21.12C145.255 20.7122 145.33 20.3074 145.483 19.929C145.635 19.5507 145.861 19.2065 146.148 18.9162C146.434 18.626 146.776 18.3955 147.152 18.2382C147.528 18.0809 147.932 18 148.34 18H252.48C253.297 18 254.08 18.3245 254.658 18.9021C255.236 19.4797 255.56 20.2631 255.56 21.08V167.51C255.56 168.327 255.236 169.11 254.658 169.688C254.08 170.265 253.297 170.59 252.48 170.59V170.59ZM148.34 18.17C147.563 18.1854 146.823 18.5015 146.275 19.0517C145.726 19.6019 145.413 20.3433 145.4 21.12V167.51C145.4 168.29 145.71 169.038 146.261 169.589C146.812 170.14 147.56 170.45 148.34 170.45H252.48C253.257 170.437 253.998 170.124 254.548 169.575C255.099 169.027 255.415 168.287 255.43 167.51V21.12C255.417 20.3416 255.102 19.5987 254.552 19.0483C254.001 18.4978 253.258 18.1829 252.48 18.17H148.34Z" fill="#ECECEC"/>
<path d="M70.7501 155.48H39.1901C37.3344 155.48 35.8301 156.984 35.8301 158.84C35.8301 160.696 37.3344 162.2 39.1901 162.2H70.7501C72.6058 162.2 74.1101 160.696 74.1101 158.84C74.1101 156.984 72.6058 155.48 70.7501 155.48Z" fill="#ECECEC"/>
<path d="M46.4497 162.19H41.0597L34.9297 194.64H40.3197L46.4497 162.19Z" fill="#E1E1E1"/>
<path d="M57.2098 162.19H51.8198L48.7998 194.64H54.1898L57.2098 162.19Z" fill="#E1E1E1"/>
<path d="M63.4897 162.19H68.8797L75.0097 194.64H69.6197L63.4897 162.19Z" fill="#E1E1E1"/>
<path d="M240.35 26.5098H114.33V136.29H240.35V26.5098Z" fill="#E7E7E7"/>
<path d="M244.13 26.5098H116.1V136.29H244.13V26.5098Z" fill="#F0F0F0"/>
<path d="M240.35 136.29H114.33V138.42H240.35V136.29Z" fill="#E7E7E7"/>
<path d="M246.14 136.29H118.11V138.42H246.14V136.29Z" fill="#F0F0F0"/>
<path d="M238.84 132.87V29.9102L121.39 29.9102V132.87H238.84Z" fill="#FAFAFA"/>
<path d="M158.94 132.88L181.08 29.9199H195.74L173.6 132.88H158.94Z" fill="white"/>
<path d="M141.82 132.88L163.95 29.9199H178.62L156.48 132.88H141.82Z" fill="white"/>
<path d="M124.15 30.1999V126.41C124.15 126.56 124.35 126.68 124.59 126.68H125.16C125.4 126.68 125.59 126.56 125.59 126.41V30.1999C125.59 30.0399 125.4 29.9199 125.16 29.9199H124.59C124.35 29.9199 124.15 29.9999 124.15 30.1999Z" fill="#F0F0F0"/>
<path d="M196.65 132.88L218.78 29.9199H224.5L202.36 132.88H196.65Z" fill="white"/>
<path d="M238.84 132.88V29.9199H238.17V132.88H238.84Z" fill="#E7E7E7"/>
<path opacity="0.5" d="M245.38 34.1902H119.36L118.87 31.2402H244.89L245.38 34.1902Z" fill="#E1E1E1"/>
<path opacity="0.5" d="M245.38 44.2901H119.36L118.87 41.3501H244.89L245.38 44.2901Z" fill="#E1E1E1"/>
<path opacity="0.5" d="M245.38 54.4002H119.36L118.87 51.4502H244.89L245.38 54.4002Z" fill="#E1E1E1"/>
<path opacity="0.5" d="M245.38 64.5001H119.36L118.87 61.5601H244.89L245.38 64.5001Z" fill="#E1E1E1"/>
<path opacity="0.5" d="M245.38 74.6102H119.36L118.87 71.6602H244.89L245.38 74.6102Z" fill="#E1E1E1"/>
<path opacity="0.5" d="M245.38 84.71H119.36L118.87 81.77H244.89L245.38 84.71Z" fill="#E1E1E1"/>
<path opacity="0.5" d="M245.38 39.2398H119.36L118.87 36.2998H244.89L245.38 39.2398Z" fill="#E1E1E1"/>
<path opacity="0.5" d="M245.38 49.3499H119.36L118.87 46.3999H244.89L245.38 49.3499Z" fill="#E1E1E1"/>
<path opacity="0.5" d="M245.38 59.4498H119.36L118.87 56.5098H244.89L245.38 59.4498Z" fill="#E1E1E1"/>
<path opacity="0.5" d="M245.38 69.5599H119.36L118.87 66.6099H244.89L245.38 69.5599Z" fill="#E1E1E1"/>
<path opacity="0.5" d="M245.38 79.6602H119.36L118.87 76.7202H244.89L245.38 79.6602Z" fill="#E1E1E1"/>
<path opacity="0.5" d="M245.38 89.7698H119.36L118.87 86.8198H244.89L245.38 89.7698Z" fill="#E1E1E1"/>
<path d="M240.35 144.61H223.66V194.64H240.35V144.61Z" fill="#E7E7E7"/>
<path d="M230.18 194.64H240.35V188.9H219.53L230.18 194.64Z" fill="#ECECEC"/>
<path d="M190.34 144.61H173.65V194.64H190.34V144.61Z" fill="#E7E7E7"/>
<path d="M240.34 144.61H181.46V193.45H240.34V144.61Z" fill="#ECECEC"/>
<path d="M191.63 194.64H181.46V188.9H202.28L191.63 194.64Z" fill="#ECECEC"/>
<path d="M232.46 150.25H189.35V175.41H232.46V150.25Z" fill="#FAFAFA"/>
<path d="M232.46 177.97H189.35V189.94H232.46V177.97Z" fill="#FAFAFA"/>
<path d="M214.92 151.53H206.92C206.304 151.53 205.714 151.286 205.279 150.85C204.844 150.415 204.6 149.825 204.6 149.21H217.27C217.27 149.517 217.209 149.821 217.09 150.105C216.972 150.388 216.798 150.645 216.58 150.861C216.361 151.077 216.102 151.247 215.817 151.362C215.532 151.477 215.227 151.534 214.92 151.53Z" fill="#ECECEC"/>
<path d="M214.92 179.25H206.92C206.304 179.25 205.714 179.006 205.279 178.571C204.844 178.136 204.6 177.545 204.6 176.93H217.27C217.27 177.237 217.209 177.542 217.09 177.825C216.972 178.108 216.798 178.366 216.58 178.581C216.361 178.797 216.102 178.967 215.817 179.082C215.532 179.197 215.227 179.254 214.92 179.25V179.25Z" fill="#ECECEC"/>
<path d="M176.95 144.61H160.26V194.64H176.95V144.61Z" fill="#E7E7E7"/>
<path d="M166.79 194.64H176.95V188.9H156.13L166.79 194.64Z" fill="#ECECEC"/>
<path d="M126.94 144.61H110.25V194.64H126.94V144.61Z" fill="#E7E7E7"/>
<path d="M176.95 144.61H118.07V193.45H176.95V144.61Z" fill="#ECECEC"/>
<path d="M128.23 194.64H118.07V188.9H138.89L128.23 194.64Z" fill="#ECECEC"/>
<path d="M169.06 150.25H125.95V175.41H169.06V150.25Z" fill="#FAFAFA"/>
<path d="M169.06 177.97H125.95V189.94H169.06V177.97Z" fill="#FAFAFA"/>
<path d="M151.53 151.53H143.53C143.226 151.53 142.924 151.47 142.643 151.353C142.363 151.236 142.107 151.065 141.893 150.85C141.678 150.634 141.508 150.378 141.393 150.097C141.277 149.816 141.218 149.514 141.22 149.21H153.88C153.881 149.518 153.821 149.822 153.703 150.106C153.585 150.39 153.412 150.648 153.193 150.864C152.974 151.08 152.714 151.25 152.428 151.365C152.143 151.479 151.837 151.535 151.53 151.53V151.53Z" fill="#ECECEC"/>
<path d="M151.53 179.25H143.53C143.226 179.25 142.924 179.19 142.643 179.073C142.363 178.957 142.107 178.786 141.893 178.57C141.678 178.355 141.508 178.099 141.393 177.817C141.277 177.536 141.218 177.234 141.22 176.93H153.88C153.881 177.238 153.821 177.543 153.703 177.827C153.585 178.111 153.412 178.368 153.193 178.584C152.974 178.801 152.714 178.971 152.428 179.085C152.143 179.199 151.837 179.256 151.53 179.25V179.25Z" fill="#ECECEC"/>
<path d="M118.24 144.61L240.35 144.61V142.51L118.24 142.51V144.61Z" fill="#F0F0F0"/>
<path d="M118.24 142.51H110.25V144.61H118.24V142.51Z" fill="#E1E1E1"/>
<path d="M53.5101 147.44C52.7501 127.84 51.9401 108.35 53.6001 98.5199L56.3101 96.6099C56.3101 96.6099 55.7201 98.4399 55.4101 128.47C55.1001 158.5 54.7101 142.98 55.0401 147.47L53.5101 147.44Z" fill="#E7E7E7"/>
<path d="M57.8696 77.93C62.0896 67.07 71.7496 56.58 82.2996 52.29C86.4396 50.6 80.4796 87.65 65.4596 90C58.0896 91.2 55.8396 110 54.5996 119C54.1796 101.26 53.6996 88.79 57.8696 77.93Z" fill="#E7E7E7"/>
<path d="M56.98 105.5C59.91 100.85 64.71 94.3398 71.71 94.3398C79.65 94.3398 72.71 107.41 63.37 111.58C58.81 113.58 55.01 120.1 54.02 124.15C54.09 115.94 54.09 110.16 56.98 105.5Z" fill="#E7E7E7"/>
<path d="M49.8397 91.4499C44.7397 82.4499 33.3697 73.3199 21.2597 69.1799C16.5097 67.5599 16.0897 94.3399 41.6597 100.74C49.9397 102.81 53.2597 117.46 54.9697 124.83C54.8297 110.52 54.9397 100.49 49.8397 91.4499Z" fill="#E7E7E7"/>
<path d="M52.6299 112.89C49.3799 107.12 40.5399 104.31 32.6299 104.89C29.5099 105.1 29.1699 116.89 46.5299 121.49C51.7899 122.87 53.9199 132.15 55.0099 136.84C54.8799 127.68 55.8799 118.65 52.6299 112.89Z" fill="#E7E7E7"/>
<path d="M52.9698 82.4502C50.4398 74.3902 42.9698 67.1702 36.1498 64.1902C33.4698 63.0002 32.6398 76.3702 47.3198 89.4602C51.7698 93.4602 53.1698 104.98 53.8998 110.84C54.2298 100.38 55.4898 90.5102 52.9698 82.4502Z" fill="#E7E7E7"/>
<path d="M54.3099 155.48C48.9699 155.48 44.5499 155.09 44.2499 147.87L43.3599 138.39H65.2499L64.3599 147.87C64.0899 155.09 59.6399 155.48 54.3099 155.48Z" fill="#F0F0F0"/>
<path d="M65.3299 142.29H43.2799L42.6499 137.85H65.9599L65.3299 142.29Z" fill="#F0F0F0"/>
<path d="M142.83 219C200.582 219 247.4 216.264 247.4 212.89C247.4 209.515 200.582 206.78 142.83 206.78C85.0774 206.78 38.2598 209.515 38.2598 212.89C38.2598 216.264 85.0774 219 142.83 219Z" fill="#F5F5F5"/>
<path d="M47.1263 41.0557L46.5869 41.082L47.1155 51.9292L47.6549 51.9029L47.1263 41.0557Z" fill="#007CFF"/>
<path d="M47.8313 55.5611L47.292 55.5874L47.5519 60.9211L48.0913 60.8948L47.8313 55.5611Z" fill="#007CFF"/>
<path d="M216.58 151.13H54.74C54.4984 151.119 54.269 151.021 54.0943 150.853C53.9196 150.686 53.8115 150.461 53.79 150.22L47.98 31C47.98 30.7348 48.0853 30.4804 48.2729 30.2929C48.4604 30.1054 48.7148 30 48.98 30H210.77C211.02 29.999 211.262 30.0919 211.447 30.2604C211.632 30.4289 211.747 30.6607 211.77 30.91L217.57 150.15C217.565 150.41 217.459 150.658 217.274 150.841C217.089 151.024 216.84 151.127 216.58 151.13Z" fill="#007CFF"/>
<path opacity="0.8" d="M55.6498 148.26L50.0298 32.9399C50.0298 32.6747 50.1351 32.4204 50.3227 32.2328C50.5102 32.0453 50.7646 31.9399 51.0298 31.9399H208.91C209.16 31.9389 209.402 32.0318 209.587 32.2003C209.772 32.3688 209.887 32.6006 209.91 32.8499L215.52 148.17C215.52 148.427 215.422 148.674 215.245 148.86C215.068 149.046 214.826 149.157 214.57 149.17H56.5998C56.3582 149.159 56.1288 149.06 55.9541 148.893C55.7794 148.726 55.6713 148.501 55.6498 148.26V148.26Z" fill="white"/>
<path d="M95.31 142.73C95.1844 142.73 95.0638 142.681 94.9741 142.593C94.8844 142.505 94.8326 142.386 94.83 142.26L89.83 38.89C89.8273 38.8256 89.8374 38.7614 89.8595 38.7009C89.8817 38.6404 89.9156 38.5849 89.9593 38.5375C90.0029 38.4902 90.0555 38.4519 90.114 38.4248C90.1724 38.3978 90.2357 38.3826 90.3 38.38C90.4293 38.3772 90.5547 38.4246 90.6497 38.5122C90.7448 38.5998 90.8023 38.7209 90.81 38.85L95.81 142.21C95.8141 142.274 95.8054 142.339 95.7845 142.4C95.7635 142.461 95.7307 142.517 95.688 142.566C95.6453 142.614 95.5934 142.653 95.5354 142.681C95.4774 142.71 95.4144 142.726 95.35 142.73H95.31Z" fill="white"/>
<path d="M175.23 142.73C175.104 142.73 174.984 142.681 174.894 142.593C174.804 142.505 174.753 142.386 174.75 142.26L169.75 38.89C169.747 38.8256 169.757 38.7614 169.779 38.7009C169.802 38.6404 169.836 38.5849 169.879 38.5375C169.923 38.4902 169.975 38.4519 170.034 38.4248C170.092 38.3978 170.156 38.3826 170.22 38.38C170.349 38.3772 170.475 38.4246 170.57 38.5122C170.665 38.5998 170.722 38.7209 170.73 38.85L175.73 142.21C175.734 142.274 175.725 142.339 175.704 142.4C175.683 142.461 175.651 142.517 175.608 142.566C175.565 142.614 175.513 142.653 175.455 142.681C175.397 142.71 175.334 142.726 175.27 142.73H175.23Z" fill="white"/>
<path d="M135.27 142.73C135.144 142.73 135.024 142.681 134.934 142.593C134.844 142.505 134.793 142.386 134.79 142.26L129.79 38.89C129.787 38.8256 129.797 38.7614 129.82 38.7009C129.842 38.6404 129.876 38.5849 129.919 38.5375C129.963 38.4902 130.015 38.4519 130.074 38.4248C130.132 38.3978 130.196 38.3826 130.26 38.38C130.389 38.3772 130.515 38.4246 130.61 38.5122C130.705 38.5998 130.762 38.7209 130.77 38.85L135.77 142.21C135.774 142.274 135.765 142.339 135.744 142.4C135.723 142.461 135.691 142.517 135.648 142.566C135.605 142.614 135.553 142.653 135.495 142.681C135.437 142.71 135.374 142.726 135.31 142.73H135.27Z" fill="white"/>
<path d="M205.74 49.5498H55.7397C55.6071 49.5498 55.48 49.4971 55.3862 49.4034C55.2924 49.3096 55.2397 49.1824 55.2397 49.0498C55.2397 48.9172 55.2924 48.79 55.3862 48.6963C55.48 48.6025 55.6071 48.5498 55.7397 48.5498H205.74C205.872 48.5498 206 48.6025 206.093 48.6963C206.187 48.79 206.24 48.9172 206.24 49.0498C206.24 49.1824 206.187 49.3096 206.093 49.4034C206 49.4971 205.872 49.5498 205.74 49.5498Z" fill="white"/>
<path d="M60.2497 43.5001C60.604 43.3575 60.9869 43.3003 61.3674 43.3333C61.7479 43.3664 62.1153 43.4886 62.4397 43.6901C62.9997 44.0301 63.2997 44.7901 63.9797 44.9301C64.6597 45.0701 64.9797 44.4501 65.5397 44.0901C66.348 43.758 67.2411 43.6914 68.0897 43.9001C70.1397 44.0501 72.1797 44.2301 74.2197 44.4201C76.2245 44.7695 78.2701 44.8201 80.2897 44.5701C80.9797 44.4301 80.6897 43.3701 79.9997 43.5101C77.9397 43.9101 75.7497 43.5101 73.6897 43.2701C71.6297 43.0301 69.5397 42.8801 67.4597 42.7501C66.7481 42.6551 66.0241 42.734 65.3497 42.9801C65.0309 43.1193 64.7447 43.3237 64.5097 43.5801C64.4297 43.6701 64.3397 43.8401 64.1997 43.8201C64.0597 43.8001 63.8997 43.4801 63.8397 43.4201C63.3744 42.8867 62.7591 42.5059 62.074 42.3275C61.389 42.1491 60.6661 42.1814 59.9997 42.4201C59.3497 42.6801 59.6297 43.7401 60.2897 43.4801L60.2497 43.5001Z" fill="white"/>
<path d="M96.6696 45.1199C97.4896 44.4999 98.6696 43.6899 99.3996 44.9199C99.7396 45.5299 100.07 46.2699 100.91 46.1399C101.75 46.0099 102.32 44.9599 102.91 44.4599C103.263 44.082 103.737 43.8392 104.25 43.7735C104.763 43.7077 105.283 43.8232 105.72 44.0999C106.529 44.6859 107.452 45.0947 108.43 45.2999C109.363 45.4128 110.309 45.2603 111.16 44.8599C111.646 44.5922 112.179 44.4191 112.73 44.3499C113.32 44.3964 113.907 44.4732 114.49 44.5799C115.75 44.6304 117.012 44.5093 118.24 44.2199C118.93 44.0899 118.64 43.0299 117.94 43.1599C116.607 43.4741 115.23 43.5553 113.87 43.3999C113.38 43.2782 112.872 43.241 112.37 43.2899C111.895 43.3727 111.434 43.5207 111 43.7299C110.483 44.013 109.911 44.1787 109.323 44.215C108.735 44.2513 108.147 44.1574 107.6 43.9399C106.69 43.5399 105.97 42.7899 104.95 42.6399C104.525 42.5927 104.095 42.6302 103.684 42.7503C103.274 42.8705 102.892 43.0709 102.56 43.3399C102.163 43.6381 101.794 43.9729 101.46 44.3399C101.309 44.5219 101.145 44.6924 100.97 44.8499C100.71 45.0499 100.68 45.0299 100.52 44.7399C100.389 44.3697 100.169 44.0374 99.8798 43.7723C99.5902 43.5072 99.2399 43.3175 98.8596 43.2199C98.3548 43.1788 97.847 43.2469 97.3708 43.4194C96.8945 43.592 96.461 43.865 96.0996 44.2199C95.5396 44.6399 96.0996 45.5999 96.6596 45.1699L96.6696 45.1199Z" fill="white"/>
<path d="M138 44.8202C138.64 44.5202 139.29 44.2402 140 44.0002C140.655 43.7118 141.349 43.523 142.06 43.4402C142.662 43.5354 143.252 43.6964 143.82 43.9202C144.276 44.025 144.754 43.9758 145.18 43.7802C145.57 43.6002 145.96 43.1702 146.39 43.1002C146.82 43.0302 147.27 43.5802 147.68 43.7802C148.105 43.9495 148.568 44.0013 149.02 43.9302C149.43 43.8802 150.02 43.6602 150.43 43.9302C150.84 44.2002 150.9 44.6702 151.29 44.9302C151.46 45.0239 151.651 45.073 151.845 45.073C152.039 45.073 152.23 45.0239 152.4 44.9302C152.79 44.7402 153 44.3802 153.32 44.1102C153.8 43.7102 154.32 43.9302 154.89 44.0602C155.376 44.2014 155.885 44.249 156.39 44.2002C156.974 44.0059 157.584 43.8981 158.2 43.8802C159.14 44.0702 159.63 45.0702 160.69 44.5602C161.33 44.2402 160.77 43.2902 160.13 43.6102C159.87 43.7402 159.08 43.0502 158.82 42.9402C158.357 42.7605 157.851 42.729 157.37 42.8502C156.797 43.0436 156.193 43.1251 155.59 43.0902C155.07 43.0102 154.59 42.8102 154.06 42.7802C153.6 42.7406 153.142 42.8684 152.77 43.1402C152.56 43.2902 152.11 43.9902 151.83 43.9302C151.71 43.9302 151.51 43.4902 151.43 43.3902C151.305 43.2286 151.157 43.0869 150.99 42.9702C150.609 42.7596 150.17 42.6789 149.74 42.7402C149.259 42.8578 148.762 42.8917 148.27 42.8402C147.81 42.7002 147.5 42.2502 147.04 42.0902C145.99 41.7302 145.49 42.5902 144.6 42.8502C144.02 43.0202 143.42 42.6102 142.88 42.4602C142.316 42.31 141.723 42.31 141.16 42.4602C139.892 42.7964 138.662 43.2622 137.49 43.8502C136.85 44.1502 137.41 45.1002 138.05 44.8002L138 44.8202Z" fill="white"/>
<path d="M174.73 44.5301L177.67 43.6901C178.14 43.5501 178.6 43.3901 179.08 43.2901C179.538 43.2182 180.006 43.3028 180.41 43.5301C181.209 43.773 182.047 43.8679 182.88 43.8101H185.81L197.81 43.6601C197.956 43.6601 198.096 43.6021 198.199 43.499C198.302 43.3958 198.36 43.2559 198.36 43.1101C198.36 42.9642 198.302 42.8243 198.199 42.7211C198.096 42.618 197.956 42.5601 197.81 42.5601L185.53 42.7101C184.53 42.7101 183.6 42.7101 182.63 42.7101C182.155 42.7353 181.678 42.7051 181.21 42.6201C180.76 42.5301 180.39 42.2801 179.96 42.1601C179.113 42.084 178.261 42.2323 177.49 42.5901L174.42 43.4601C174.278 43.4985 174.157 43.5918 174.084 43.7193C174.011 43.8468 173.992 43.9982 174.03 44.1401C174.069 44.2819 174.162 44.4027 174.289 44.4759C174.417 44.549 174.568 44.5685 174.71 44.5301H174.73Z" fill="white"/>
<path opacity="0.3" d="M96.2099 87.3202L70.1599 88.7202C68.7596 79.9433 68.0673 71.068 68.0899 62.1802L93.5399 61.1802C93.9419 69.9365 94.8333 78.6634 96.2099 87.3202V87.3202Z" fill="#007CFF"/>
<path d="M96.7998 86.12L70.7998 87.52C69.3001 78.8889 68.3947 70.1651 68.0898 61.41L94.0898 60C94.5098 68.7501 95.4145 77.4701 96.7998 86.12V86.12Z" fill="#007CFF"/>
<path opacity="0.3" d="M129.01 96.8901L102.82 95.3101V69.3501L129.01 70.9301V96.8901Z" fill="#007CFF"/>
<path d="M128.66 96.3001L102.48 94.7201L102.79 68.6201L128.97 70.2001L128.66 96.3001Z" fill="white"/>
<path opacity="0.3" d="M153.97 91.7999L180.14 90.9399C180.79 84.9399 177.94 69.7799 176.37 64.3999L150.98 65.9999C152.973 74.455 153.976 83.1131 153.97 91.7999Z" fill="#007CFF"/>
<path d="M154.42 90.94L179.74 89.64C180.39 83.64 178.74 73.75 176.82 63.54L150.82 65.19C152.97 74.75 154.53 83.69 154.42 90.94Z" fill="#007CFF"/>
<path opacity="0.3" d="M82.1799 131.92L108.91 129.21C108.84 123.12 105.7 108.96 103.85 103.66L78.6499 106.66C81.3299 116.1 81.4399 124.67 82.1799 131.92Z" fill="#007CFF"/>
<path d="M82.8199 131.55L108.58 128.75C108.9 122.69 106.69 112.9 104.25 102.75L78.4199 105.85C80.5099 115.32 82.5399 124.29 82.8199 131.55Z" fill="#007CFF"/>
<path opacity="0.3" d="M147.09 102.85L173.09 107.73C175.09 102.06 175.55 86.8198 175.17 81.2798L149.77 77.2798C149.894 85.8793 148.994 94.463 147.09 102.85V102.85Z" fill="#007CFF"/>
<path d="M147.76 102.13L173.03 106.39C174.98 100.71 175.48 90.82 175.84 80.55L149.84 76.48C149.86 86.17 149.45 95.15 147.76 102.13Z" fill="white"/>
<path d="M208.97 78.6201C209.49 79.1601 209.97 79.6201 210.37 80.1701C210.77 80.7201 211.25 81.1701 211.67 81.7501C212.52 82.8101 213.33 83.9001 214.1 85.0401C214.87 86.1801 215.61 87.3301 216.27 88.5601C216.966 89.7923 217.574 91.0721 218.09 92.3901L218.29 92.8901V93.0201L218.35 93.2101L218.47 93.5801C218.53 93.8101 218.59 94.0401 218.63 94.2701C218.67 94.5001 218.71 94.7001 218.73 94.9101C218.818 95.6801 218.848 96.4556 218.82 97.2301C218.754 98.6289 218.597 100.022 218.35 101.4C217.863 104.055 217.164 106.667 216.26 109.21L213.42 108.56C213.63 106.02 213.83 103.43 213.9 100.94C213.94 99.7299 213.92 98.5183 213.84 97.3101C213.805 96.7814 213.728 96.2564 213.61 95.7401L213.53 95.4201L213.44 95.1601L213.13 94.5401C212.02 92.3875 210.728 90.3334 209.27 88.4001C208.54 87.4001 207.77 86.4001 206.99 85.4601C206.6 84.9701 206.21 84.4601 205.8 84.0101L204.62 82.6401L208.97 78.6201Z" fill="#CE5B51"/>
<path d="M213.83 107.49L211.83 109.6L215.67 111.87C216.044 111.361 216.308 110.78 216.448 110.165C216.587 109.549 216.598 108.911 216.48 108.29L213.83 107.49Z" fill="#CD5B51"/>
<path d="M209.31 112.72L213.05 114.03L215.7 111.86L211.86 109.6L209.31 112.72Z" fill="#CD5B51"/>
<path d="M220.09 121.36L195.39 116C196.619 107.66 198.417 99.4145 200.77 91.3198L225.46 96.6998C223.209 104.813 221.416 113.046 220.09 121.36V121.36Z" fill="#007CFF"/>
<path d="M223.962 97.8652L199.743 90.6543L192.532 114.874L216.751 122.085L223.962 97.8652Z" fill="white"/>
<path d="M194.99 62.4402C194.99 62.7502 194.79 63.0002 194.59 62.9902C194.39 62.9802 194.23 62.7202 194.25 62.4102C194.27 62.1002 194.44 61.8502 194.65 61.8602C194.86 61.8702 195 62.1302 194.99 62.4402Z" fill="#1A2E35"/>
<path d="M194.82 63C194.394 63.9435 193.842 64.8249 193.18 65.62C193.388 65.7793 193.627 65.8921 193.883 65.9508C194.138 66.0094 194.403 66.0126 194.66 65.96L194.82 63Z" fill="#BA221F"/>
<path d="M196.22 60.75C196.267 60.7426 196.31 60.7176 196.34 60.68C196.373 60.6448 196.391 60.5983 196.391 60.55C196.391 60.5017 196.373 60.4552 196.34 60.42C196.115 60.2367 195.85 60.1094 195.567 60.0486C195.284 59.9877 194.99 59.9951 194.71 60.07C194.662 60.086 194.623 60.1202 194.6 60.1652C194.578 60.2102 194.574 60.2623 194.59 60.31C194.598 60.3323 194.61 60.3529 194.626 60.3705C194.641 60.3882 194.661 60.4025 194.682 60.4127C194.703 60.423 194.726 60.4288 194.75 60.4301C194.774 60.4313 194.797 60.4279 194.82 60.42V60.42C195.042 60.3618 195.276 60.3577 195.5 60.4082C195.724 60.4586 195.934 60.5621 196.11 60.71C196.124 60.7237 196.142 60.7343 196.161 60.7412C196.18 60.748 196.2 60.751 196.22 60.75V60.75Z" fill="#1A2E35"/>
<path d="M204.37 66.9302C203.78 69.7702 203.37 73.7002 205.37 75.6002C205.37 75.6002 204.56 78.4802 199.28 78.4802C193.48 78.4802 196.53 75.9502 196.53 75.9502C198.95 75.2002 198.96 72.4502 198.44 70.2502L204.37 66.9302Z" fill="#CD5B51"/>
<path d="M192.09 209.13C191.59 209.13 191.09 209.06 190.95 208.84C190.909 208.779 190.888 208.708 190.888 208.635C190.888 208.562 190.909 208.491 190.95 208.43C191.023 208.328 191.129 208.253 191.25 208.22C191.9 208.04 193.25 208.82 193.3 208.85C193.308 208.863 193.312 208.879 193.312 208.895C193.312 208.911 193.308 208.926 193.3 208.94C193.3 208.959 193.293 208.978 193.28 208.993C193.267 209.008 193.249 209.017 193.23 209.02C192.853 209.089 192.472 209.125 192.09 209.13V209.13ZM191.48 208.38C191.42 208.37 191.359 208.37 191.3 208.38C191.262 208.387 191.227 208.403 191.196 208.425C191.165 208.448 191.139 208.477 191.12 208.51C191.06 208.62 191.12 208.68 191.12 208.71C191.3 208.96 192.28 208.97 193 208.86C192.529 208.602 192.013 208.439 191.48 208.38V208.38Z" fill="#007CFF"/>
<path d="M193.26 209C192.8 208.79 191.88 208 191.96 207.52C191.96 207.41 192.05 207.28 192.3 207.26C192.392 207.248 192.484 207.257 192.572 207.284C192.661 207.312 192.742 207.358 192.81 207.42C193.159 207.841 193.363 208.364 193.39 208.91C193.397 208.922 193.401 208.936 193.401 208.95C193.401 208.964 193.397 208.978 193.39 208.99C193.386 209.003 193.378 209.015 193.367 209.024C193.356 209.033 193.342 209.038 193.328 209.039C193.314 209.04 193.3 209.037 193.288 209.03C193.276 209.023 193.266 209.013 193.26 209V209ZM192.34 207.43H192.28C192.11 207.43 192.1 207.51 192.1 207.53C192.1 207.8 192.68 208.46 193.15 208.74C193.109 208.302 192.935 207.886 192.65 207.55C192.562 207.481 192.452 207.445 192.34 207.45V207.43Z" fill="#007CFF"/>
<path d="M197.69 208.93H193.81L193.54 199.94H197.42L197.69 208.93Z" fill="#CD5B51"/>
<path d="M193.68 208.48H197.92C197.998 208.481 198.073 208.508 198.133 208.557C198.193 208.606 198.234 208.674 198.25 208.75L198.97 212.2C198.986 212.284 198.984 212.37 198.963 212.453C198.941 212.536 198.902 212.613 198.848 212.679C198.793 212.745 198.725 212.798 198.647 212.835C198.57 212.871 198.486 212.89 198.4 212.89C196.87 212.89 194.66 212.77 192.74 212.77C190.5 212.77 189.08 212.89 186.44 212.89C184.85 212.89 184.44 211.28 185.1 211.14C188.1 210.47 190.1 210.4 192.74 208.78C193.021 208.599 193.346 208.495 193.68 208.48V208.48Z" fill="#1A2E35"/>
<path d="M206.91 76.0601C210.63 76.0601 215.83 85.5401 215.83 85.5401L210.09 91.4301C207.543 90.0763 205.487 87.9564 204.21 85.3701C201.99 80.8701 203.09 76.0001 206.91 76.0601Z" fill="#007CFF"/>
<path opacity="0.3" d="M206.91 76.0601C210.63 76.0601 215.83 85.5401 215.83 85.5401L210.09 91.4301C207.543 90.0763 205.487 87.9564 204.21 85.3701C201.99 80.8701 203.09 76.0001 206.91 76.0601Z" fill="black"/>
<path d="M189.26 80.3599C188.41 84.5599 187.8 93.1599 189.89 110.22H210.64C210.8 107.45 209.47 95.3999 211.24 82.4599C211.359 81.6316 211.304 80.7875 211.078 79.9818C210.852 79.1761 210.459 78.4267 209.926 77.7816C209.393 77.1365 208.731 76.61 207.983 76.236C207.234 75.862 206.416 75.6487 205.58 75.6099H205.35C202.412 75.4347 199.467 75.4347 196.53 75.6099C195.53 75.6999 194.6 75.8399 193.74 75.9899C192.64 76.1831 191.624 76.7036 190.825 77.4832C190.026 78.2628 189.48 79.2653 189.26 80.3599V80.3599Z" fill="#007CFF"/>
<path opacity="0.2" d="M189.26 80.3599C188.41 84.5599 187.8 93.1599 189.89 110.22H210.64C210.8 107.45 209.47 95.3999 211.24 82.4599C211.359 81.6316 211.304 80.7875 211.078 79.9818C210.852 79.1761 210.459 78.4267 209.926 77.7816C209.393 77.1365 208.731 76.61 207.983 76.236C207.234 75.862 206.416 75.6487 205.58 75.6099H205.35C202.412 75.4347 199.467 75.4347 196.53 75.6099C195.53 75.6999 194.6 75.8399 193.74 75.9899C192.64 76.1831 191.624 76.7036 190.825 77.4832C190.026 78.2628 189.48 79.2653 189.26 80.3599V80.3599Z" fill="black"/>
<path opacity="0.2" d="M194.03 89.0001L191.24 87.1001C188.54 87.9701 188.4 90.6001 188.55 94.3801C190.86 93.8001 193.51 91.6001 194.03 89.0001Z" fill="black"/>
<path opacity="0.2" d="M193.54 199.94L193.68 204.58H197.56L197.42 199.94H193.54Z" fill="black"/>
<path d="M205.45 62.2001C205.01 66.0301 204.94 68.2901 202.9 70.2001C202.219 70.8158 201.385 71.2357 200.485 71.4151C199.585 71.5945 198.653 71.5267 197.789 71.2191C196.924 70.9114 196.159 70.3753 195.575 69.6676C194.99 68.96 194.609 68.1073 194.47 67.2001C193.83 63.7201 194.66 58.0401 198.47 56.6601C199.31 56.3425 200.218 56.2483 201.105 56.3867C201.992 56.5251 202.829 56.8913 203.532 57.4495C204.235 58.0078 204.782 58.739 205.118 59.5717C205.454 60.4043 205.569 61.31 205.45 62.2001V62.2001Z" fill="#CD5B51"/>
<path d="M197.27 63.8399C196.08 64.1099 195.54 61.2999 196.76 60.2199C195.68 59.6799 194.12 58.8999 193.6 57.7299C193 56.3799 194.6 54.7299 196.01 54.8299C195.56 53.9299 196.56 51.5199 199.4 52.4299C200.959 52.8582 202.395 53.6498 203.59 54.7399C203.59 54.7399 204.53 51.6199 206.5 54.1399C207.005 54.6885 207.366 55.3538 207.551 56.0764C207.736 56.7989 207.739 57.556 207.56 58.2799C207.56 58.2799 210.17 60.7599 209.5 62.5999C209.123 63.6769 208.351 64.5706 207.34 65.0999C207.34 65.0999 207.73 69.4299 204.56 70.4699C201.39 71.5099 199.39 69.3699 199.66 68.1299C197.61 68.2399 195.52 65.4999 197.27 63.8399Z" fill="#1A2E35"/>
<path d="M198.65 63.5601C198.512 64.5101 198.066 65.3885 197.38 66.0601C196.47 66.9401 195.63 66.3101 195.56 65.1701C195.49 64.0301 195.89 62.4501 196.96 62.0001C198.03 61.5501 198.8 62.4101 198.65 63.5601Z" fill="#CD5B51"/>
<path d="M230.63 204.03L227.19 205.27L223.75 196.39L227.2 195.15L230.63 204.03Z" fill="#CD5B51"/>
<path d="M225.65 205.84C225.26 206.14 224.84 206.39 224.58 206.31C224.511 206.286 224.451 206.241 224.408 206.182C224.366 206.123 224.342 206.053 224.34 205.98C224.332 205.918 224.336 205.855 224.354 205.795C224.371 205.734 224.4 205.678 224.44 205.63C224.84 205.1 226.38 204.87 226.44 204.86C226.5 204.85 226.52 204.86 226.53 204.86C226.541 204.874 226.547 204.892 226.547 204.91C226.547 204.928 226.541 204.946 226.53 204.96C226.268 205.283 225.973 205.578 225.65 205.84ZM224.71 205.62C224.662 205.656 224.622 205.7 224.59 205.75C224.563 205.778 224.543 205.811 224.531 205.847C224.519 205.883 224.515 205.922 224.52 205.96C224.52 206.09 224.59 206.12 224.63 206.13C224.93 206.22 225.7 205.62 226.21 205.13C225.683 205.197 225.174 205.364 224.71 205.62Z" fill="#007CFF"/>
<path d="M226.51 205C226.01 205.13 224.77 205 224.56 204.64C224.51 204.55 224.49 204.4 224.67 204.22C224.736 204.157 224.815 204.107 224.9 204.075C224.986 204.042 225.078 204.027 225.17 204.03C225.704 204.154 226.186 204.44 226.55 204.85C226.557 204.864 226.56 204.88 226.56 204.895C226.56 204.911 226.557 204.926 226.55 204.94C226.55 204.94 226.52 205 226.51 205ZM224.81 204.33C224.81 204.33 224.72 204.5 224.73 204.52C224.86 204.76 225.73 204.89 226.3 204.82C225.999 204.497 225.603 204.276 225.17 204.19C225.101 204.193 225.034 204.209 224.972 204.239C224.911 204.268 224.855 204.309 224.81 204.36V204.33Z" fill="#007CFF"/>
<path d="M226.53 204.32L229.86 201.7C229.922 201.654 229.997 201.629 230.075 201.629C230.152 201.629 230.227 201.654 230.29 201.7L233.15 203.84C233.218 203.89 233.273 203.956 233.312 204.031C233.35 204.107 233.37 204.19 233.37 204.275C233.37 204.36 233.35 204.443 233.312 204.519C233.273 204.594 233.218 204.66 233.15 204.71C231.93 205.63 229.58 207.53 228.15 208.8C226.47 210.29 227.78 209.3 225.81 211.05C224.62 212.11 223.16 211.25 223.56 210.7C224.863 209.101 225.7 207.174 225.98 205.13C226.054 204.8 226.251 204.511 226.53 204.32Z" fill="#1A2E35"/>
<path d="M169.84 90.0002L168.32 86.7402L164.19 89.2902C164.19 89.2902 165.55 92.0702 168.37 91.7702L169.84 90.0002Z" fill="#CD5B51"/>
<path d="M164.44 85.85L163.52 86.64C163.376 86.7639 163.261 86.9174 163.182 87.0899C163.102 87.2625 163.062 87.4501 163.062 87.64C163.062 87.8298 163.102 88.0174 163.182 88.19C163.261 88.3626 163.376 88.516 163.52 88.64L164.23 89.31L168.36 86.76L165.88 85.67C165.649 85.5547 165.389 85.5103 165.133 85.5423C164.876 85.5744 164.635 85.6814 164.44 85.85Z" fill="#CD5B51"/>
<path opacity="0.2" d="M223.76 196.39L225.52 200.97L228.97 199.73L227.21 195.16L223.76 196.39Z" fill="black"/>
<path d="M197.25 110.22C197.25 110.22 203.73 140.03 206.25 151.09C208.97 163.21 223.25 200.09 223.25 200.09L229.51 196.69C229.51 196.69 222.81 167.79 217.91 152.02C216.14 139.02 210.7 110.26 210.7 110.26L197.25 110.22Z" fill="#1A2E35"/>
<path d="M221.42 198.21L222.71 200.64L230.47 197.73L229.85 195.36L221.42 198.21Z" fill="#007CFF"/>
<path opacity="0.3" d="M201.09 124C205.97 124.65 206.53 141.87 206.43 152C206.37 151.68 206.29 151.38 206.23 151.09C204.88 145.09 202.34 133.41 200.3 124.09C200.553 123.999 200.823 123.968 201.09 124V124Z" fill="black"/>
<path d="M189.89 110.22C189.89 110.22 188.24 139.22 188.51 151.07C188.79 163.38 192.25 203.68 192.25 203.68H198.82C198.82 203.68 199.89 164.09 200.34 152.01C200.83 138.83 203.53 110.22 203.53 110.22H189.89Z" fill="#1A2E35"/>
<path d="M191.01 201.06L191.35 203.79H199.35L199.59 201.36L191.01 201.06Z" fill="#007CFF"/>
<path d="M195.48 82.3702C194.58 83.9664 193.578 85.5029 192.48 86.9702C191.395 88.4168 190.226 89.7992 188.98 91.1102C187.75 92.4302 186.45 93.6701 185.12 94.8401C183.79 96.0101 182.39 97.1402 181.12 98.1702L180.68 98.5402L180.31 98.6702C179.417 98.9883 178.461 99.0944 177.52 98.9802C176.747 98.885 175.99 98.6865 175.27 98.3902C174.051 97.8806 172.907 97.2078 171.87 96.3902C170.928 95.6577 170.039 94.859 169.21 94.0002C168.8 93.5702 168.41 93.1202 168.03 92.6802C167.65 92.2402 167.29 91.7802 166.92 91.2602L169.05 89.2602C169.88 89.8802 170.76 90.5502 171.65 91.1202C172.511 91.7027 173.403 92.2401 174.32 92.7302C175.135 93.1619 175.997 93.4975 176.89 93.7302C177.215 93.8206 177.552 93.8611 177.89 93.8502C178.069 93.8501 178.246 93.8017 178.4 93.7102L177.6 94.2102C178.91 92.9802 180.1 91.8802 181.29 90.7202C182.48 89.5602 183.59 88.3802 184.67 87.1702C185.75 85.9602 186.76 84.7002 187.67 83.4102C188.617 82.1223 189.498 80.7873 190.31 79.4102L195.48 82.3702Z" fill="#CE5B51"/>
<path d="M198.24 81.5501C197.87 87.1401 191.47 91.8201 191.47 91.8201L183.16 87.2701C183.16 87.2701 186.22 80.6901 190.34 77.5801C195.44 73.7501 198.52 77.3101 198.24 81.5501Z" fill="#007CFF"/>
<path opacity="0.2" d="M198.24 81.5501C197.87 87.1401 191.47 91.8201 191.47 91.8201L183.16 87.2701C183.16 87.2701 186.22 80.6901 190.34 77.5801C195.44 73.7501 198.52 77.3101 198.24 81.5501Z" fill="black"/>
</svg>
