<svg width="28" height="28" viewBox="0 0 28 28" fill="none" xmlns="http://www.w3.org/2000/svg">
<path d="M15.548 13.9986L27.68 1.86703C28.1067 1.44059 28.1067 0.746266 27.68 0.319828C27.2534 -0.106609 26.5587 -0.106609 26.1321 0.319828L14 12.4514L1.86247 0.325295C1.43583 -0.106609 0.74663 -0.106609 0.319984 0.325295C-0.106661 0.7572 -0.106661 1.44606 0.319984 1.8725L12.452 13.9986L0.319984 26.1302C-0.106661 26.5567 -0.106661 27.251 0.319984 27.6774C0.533307 27.8907 0.812268 28 1.09123 28C1.37019 28 1.64915 27.8907 1.86247 27.6774L14 15.5458L26.1375 27.6774C26.3509 27.8907 26.6298 28 26.9088 28C27.1877 28 27.4667 27.8907 27.68 27.6774C28.1067 27.251 28.1067 26.5567 27.68 26.1302L15.548 13.9986Z" fill="white"/>
</svg>
