<svg width="66" height="64" viewBox="0 0 66 64" fill="none" xmlns="http://www.w3.org/2000/svg">
<path d="M9.16227 32.0558C9.14141 31.6558 9.10348 31.2558 9.10348 30.8577C9.10348 19.3339 17.0671 9.6977 28.0216 7.39294L24.2759 4.57199L26.2066 3.11865C13.7595 6.21199 4.55176 17.6196 4.55176 30.8577C4.55176 31.6825 4.59917 32.5091 4.66934 33.332C6.04434 32.6406 7.55779 32.1948 9.16227 32.0558Z" fill="#3F92D1"/>
<path d="M11.3794 54.7884V44.5713H9.10352V54.7884C9.47714 54.8303 9.85645 54.857 10.2414 54.857C10.6264 54.857 11.0058 54.8323 11.3794 54.7884Z" fill="#3F92D1"/>
<path d="M6.82764 56.6577V60.572C6.82764 61.2006 7.33781 61.7149 7.96557 61.7149H12.5173C13.1451 61.7149 13.6552 61.2006 13.6552 60.572V56.6577C12.5685 56.9682 11.4268 57.1434 10.2414 57.1434C9.05609 57.1434 7.91436 56.9663 6.82764 56.6577Z" fill="#3F92D1"/>
<path d="M43.2412 22.8569H40.9653V41.1426H43.2412V22.8569Z" fill="#3F92D1"/>
<path d="M34.1383 6.85143L35.3881 6.97714C47.6493 8.19809 56.8969 18.4648 56.8969 30.8571C56.8969 34.459 56.0833 37.9886 54.5509 41.2038C54.9473 41.1657 55.3512 41.1429 55.759 41.1429C57.0012 41.1429 58.1979 41.3314 59.3321 41.6705C60.7298 38.2419 61.4486 34.6095 61.4486 30.8571C61.4486 16.0076 49.9138 3.49333 35.1909 2.36952L34.1383 2.28762V0L28.0693 4.57143L34.1383 9.14286V6.85143Z" fill="#3F92D1"/>
<path d="M34.1382 27.4287H31.8623V41.143H34.1382V27.4287Z" fill="#3F92D1"/>
<path d="M33.0001 52.5711H43.2984C43.7478 47.594 47.0991 43.4549 51.6337 41.8587C53.5834 38.533 54.6208 34.7425 54.6208 30.8568C54.6208 20.0702 46.8791 11.0644 36.4139 9.40921V13.714L30.5478 9.29492C19.5934 10.533 11.3794 19.7216 11.3794 30.8568C11.3794 31.2568 11.4173 31.6587 11.4382 32.0606C15.1744 32.4187 18.4327 34.4359 20.4828 37.3673V29.714H27.3104V41.1425H29.5863V25.1425H36.4139V41.1425H38.6897V20.5711H45.5173V43.4283H22.6999C22.7341 43.8054 22.7587 44.1844 22.7587 44.5711C22.7587 46.2873 22.4135 47.9216 21.7915 49.4111C25.1654 51.474 29.0154 52.5711 33.0001 52.5711Z" fill="#3F92D1"/>
<path d="M25.0347 32H22.7588V41.1429H25.0347V32Z" fill="#3F92D1"/>
<path d="M58.0346 50.2857C58.0346 51.5486 57.0162 52.5714 55.7588 52.5714C54.5014 52.5714 53.4829 51.5486 53.4829 50.2857C53.4829 49.0229 54.5014 48 55.7588 48C57.0162 48 58.0346 49.0229 58.0346 50.2857Z" fill="#3F92D1"/>
<path d="M55.7585 43.4287C50.1124 43.4287 45.5171 48.0439 45.5171 53.7144C45.5171 56.3125 46.49 58.6839 48.0793 60.4973L48.2348 59.2439C48.5592 56.6325 50.1883 54.463 52.4111 53.3582C51.6695 52.5449 51.2067 51.4725 51.2067 50.2859C51.2067 47.7659 53.2493 45.7144 55.7585 45.7144C58.2676 45.7144 60.3102 47.7659 60.3102 50.2859C60.3102 51.4725 59.8474 52.5449 59.1078 53.3563C61.3324 54.4611 62.9578 56.6306 63.284 59.242L63.4395 60.4935C65.0269 58.682 65.9999 56.3125 65.9999 53.7125C65.9999 48.0439 61.4045 43.4287 55.7585 43.4287Z" fill="#3F92D1"/>
<path d="M13.6552 54.2566C17.6266 52.8394 20.4828 49.0394 20.4828 44.5709C20.4828 38.9004 15.8874 34.2852 10.2414 34.2852C4.59535 34.2852 0 38.9004 0 44.5709C0 49.0375 2.85621 52.8394 6.82759 54.2566V46.6452C6.47104 46.7728 6.08983 46.8566 5.68966 46.8566C3.80638 46.8566 2.27586 45.3194 2.27586 43.428C2.27586 41.5366 3.80638 39.9994 5.68966 39.9994C7.17086 39.9994 8.42259 40.9575 8.89293 42.2852H11.5879C12.0583 40.9594 13.3119 39.9994 14.7931 39.9994C16.6745 39.9994 18.2069 41.5366 18.2069 43.428C18.2069 45.3194 16.6745 46.8566 14.7931 46.8566C14.3929 46.8566 14.0117 46.7747 13.6552 46.6452V54.2566Z" fill="#3F92D1"/>
<path d="M55.7584 54.8569C53.088 54.8569 50.8236 56.8646 50.4917 59.5255L50.1465 62.3065C51.7604 63.375 53.6873 63.9998 55.7584 63.9998C57.8313 63.9998 59.7582 63.375 61.3703 62.3065L61.0251 59.5255C60.6932 56.8646 58.4287 54.8569 55.7584 54.8569Z" fill="#3F92D1"/>
<path d="M15.9311 43.428C15.9311 44.0585 15.421 44.5709 14.7932 44.5709C14.1654 44.5709 13.6553 44.0585 13.6553 43.428C13.6553 42.7975 14.1654 42.2852 14.7932 42.2852C15.421 42.2852 15.9311 42.7975 15.9311 43.428Z" fill="#3F92D1"/>
<path d="M32.9999 54.8574C28.6397 54.8574 24.4218 53.6669 20.716 51.4326C19.8606 52.7469 18.7663 53.886 17.4956 54.7983C22.1099 57.8212 27.4297 59.4288 32.9999 59.4288H44.622C43.9089 58.0345 43.4442 56.4917 43.2982 54.8574H32.9999Z" fill="#3F92D1"/>
<path d="M6.82762 43.428C6.82762 44.0585 6.31745 44.5709 5.68969 44.5709C5.06193 44.5709 4.55176 44.0585 4.55176 43.428C4.55176 42.7975 5.06193 42.2852 5.68969 42.2852C6.31745 42.2852 6.82762 42.7975 6.82762 43.428Z" fill="#3F92D1"/>
</svg>
