<svg width="541" height="542" viewBox="0 0 541 542" fill="none" xmlns="http://www.w3.org/2000/svg" class="mountain">
<circle cx="270.5" cy="270.5" r="270.5" fill="#C9E6F4"/>
<mask id="mask0" masktype="alpha" maskUnits="userSpaceOnUse" x="0" y="1" width="541" height="541">
<circle cx="270.5" cy="271.5" r="270.015" fill="#C4C4C4" stroke="white" stroke-width="0.969534"/>
</mask>
<g mask="url(#mask0)">
<path opacity="0.39" d="M710.044 399.845L615.708 400.432C609.405 400.432 602.934 400.432 597.064 398.685C591.194 396.938 586.638 393.57 581.439 390.943C564.263 382.306 542.628 382.166 522.601 379.147C516.242 378.197 509.24 376.506 506.193 372.019C501.12 364.57 510.721 356.031 520.407 352.313C559.273 337.373 607.057 351.866 648.467 341.846C659.536 339.162 669.794 334.788 680.611 331.49C694.954 327.236 709.723 324.578 724.649 323.565C722.672 308.644 718.651 294.066 712.7 280.24C702.399 281.524 692.235 283.732 682.33 286.837C671.793 290.233 661.926 294.901 651.094 297.668C632.031 302.532 611.473 301.246 591.46 302.029C560.545 303.244 530.371 309.52 500.477 315.767C454.357 325.396 340.901 339.805 337.98 376.282C337.773 378.453 338.021 380.644 338.709 382.714C339.397 384.784 340.511 386.687 341.978 388.301C344.381 390.887 348.057 392.494 351.761 394.003C405.246 415.33 469.004 407.979 528.834 411.655C544.207 412.605 559.679 414.45 573.487 419.691C589.587 425.882 603.633 436.867 621.55 437.734C634.128 438.349 650.801 435.232 656.21 444.162C657.537 446.357 657.467 448.886 657.873 451.29C658.332 454.109 659.411 456.792 661.031 459.145C683.77 439.089 699.716 419.327 710.044 399.845Z" fill="white"/>
<path d="M107.394 299.359L-83.2922 432.884C-58.569 461.926 -28.1158 483.421 -12.393 498.892C59.806 569.973 306.619 565.976 475.363 534.81C544.235 520.205 599.943 504.147 624.233 487.473L627.196 485.419L628.062 484.804L630.173 483.323L631.095 482.652L633.163 481.17C633.443 480.975 633.722 480.779 633.988 480.569L636.224 478.948L636.811 478.515L639.606 476.461C642.541 474.252 645.397 472.044 648.173 469.836L220.164 208.964L107.394 299.359Z" fill="#5CA6D8"/>
<g style="mix-blend-mode:multiply">
<path d="M339.434 394.604L175.274 552.112L210.004 555.717C298.052 558.219 395.477 549.554 475.363 534.754C544.221 520.205 599.929 504.147 624.247 487.473L627.21 485.419L628.076 484.804L630.187 483.323L631.109 482.652L633.177 481.17C633.457 480.975 633.736 480.779 634.002 480.569L636.238 478.948L636.825 478.515L639.62 476.461C642.555 474.252 645.411 472.044 648.187 469.836L220.164 208.964L339.434 394.604Z" fill="#E2EDF2"/>
</g>
<g style="mix-blend-mode:multiply">
<path d="M220.164 208.964L478.465 393.151L443.609 413.01L562.613 459.131L554.493 474.127L603.604 485.489L616.001 492.477C618.828 490.955 621.576 489.29 624.233 487.487L627.196 485.433L628.062 484.818L630.172 483.337L631.095 482.666L633.163 481.184C633.443 480.989 633.722 480.793 633.988 480.583L636.224 478.962L636.811 478.529L639.606 476.475C642.541 474.266 645.397 472.058 648.173 469.85L220.164 208.964Z" fill="#E2EDF2"/>
</g>
<path d="M289.205 555.172L234.322 436.629L224.05 478.277L151.781 312.147L126.079 410.047L98.2816 347.002L77.7931 416.434L29.9958 286.459L-6.77453 431.179L-47.0388 317.024L-83.2781 432.926C-58.5409 461.94 -28.1016 483.42 -12.3928 498.892C35.642 546.186 160.991 560.231 289.205 555.172Z" fill="#2E354C"/>
<path opacity="0.2" d="M115.905 292.539L183.31 272.917L179.313 292.539L217.272 266.572L324.494 325.843L277.214 266.572L352.781 289.772L220.165 208.964L115.905 292.539Z" fill="white"/>
<path  class="cloud-3" opacity="0" d="M384.772 118.876C383.374 112.802 379.958 107.382 375.081 103.5C370.205 99.6189 364.157 97.506 357.924 97.5066C355.566 97.4996 353.217 97.8003 350.936 98.4011C346.79 89.5049 339.556 82.4157 330.578 78.4497C321.6 74.4838 311.487 73.9105 302.119 76.8364C297.247 68.7508 290.186 62.2098 281.751 57.9701C273.317 53.7304 263.855 51.9654 254.459 52.8792C245.064 53.793 236.119 57.3483 228.66 63.1338C221.201 68.9193 215.532 76.6984 212.31 85.5713C207.09 82.6623 201.199 81.1686 195.224 81.2382C189.248 81.3078 183.394 82.9384 178.243 85.9681C173.091 88.9979 168.822 93.3216 165.857 98.5105C162.892 103.699 161.335 109.573 161.34 115.549C161.34 116.66 161.396 117.77 161.508 118.876H384.772Z" fill="white">
</path>
<path d="M-130 0 L240 0" opacity="0" class="cloud-3-path" />
<path class="cloud-2" opacity="0"  d="M60.2395 258.997C59.5584 256.024 57.8876 253.37 55.5007 251.47C53.1138 249.571 50.1525 248.539 47.1022 248.543C45.9564 248.544 44.8154 248.69 43.7061 248.976C41.6752 244.629 38.138 241.164 33.7492 239.224C29.3605 237.285 24.4176 237 19.8354 238.424C17.4484 234.473 13.9924 231.277 9.86651 229.206C5.74058 227.135 1.11303 226.274 -3.48174 226.721C-8.07651 227.168 -12.4511 228.906 -16.1002 231.734C-19.7494 234.561 -22.5243 238.363 -24.1045 242.701C-26.658 241.279 -29.5389 240.548 -32.4616 240.582C-35.3844 240.616 -38.2475 241.413 -40.7671 242.895C-43.2868 244.377 -45.3755 246.491 -46.8261 249.029C-48.2768 251.566 -49.039 254.439 -49.0374 257.362C-49.0373 257.908 -49.0093 258.454 -48.9535 258.997H60.2395Z" fill="white">
</path>
<path opacity="0" d="M-47 0 L650 0" class="cloud-2-path" />
<path opacity="0.39" d="M-28.4233 157.421C-11.9039 157.7 7.98363 158.427 24.503 158.707C55.725 159.266 87.0028 159.811 118.141 157.826C135.583 156.722 153.08 154.779 169.32 149.552C179.103 146.394 188.216 142.089 198.236 139.518C215.874 135.018 234.909 136.22 253.441 135.493C282.035 134.361 309.973 128.505 337.645 122.761C380.285 113.858 485.341 100.525 488.039 66.7598C488.237 64.7419 488.011 62.705 487.375 60.7796C486.74 58.8542 485.709 57.0828 484.349 55.5791C482.127 53.1893 478.759 51.652 475.348 50.3103C425.79 30.6184 366.826 37.4665 311.454 34.0145C297.213 33.134 282.888 31.4709 270.128 26.5793C255.216 20.8493 242.176 10.6889 225.643 9.80838C213.987 9.23537 198.558 12.1144 193.498 3.85469C192.255 1.8282 192.324 -0.505762 191.961 -2.74189C190.34 -12.3712 181.857 -18.1153 170.774 -21.3297C135.745 -9.85376 103.006 7.68695 74.0473 30.4926C77.0306 30.7446 79.9918 31.2117 82.9079 31.8902C93.5295 34.4338 102.474 40.2756 112.998 42.973C121.132 44.9855 129.769 44.9436 138.364 44.8877L230.926 44.3286C236.754 44.3286 242.749 44.3286 248.172 45.9358C253.594 47.5431 257.829 50.6736 262.637 53.1054C278.527 61.0996 298.555 61.2254 317.142 64.0205C323.04 64.915 329.511 66.4803 332.334 70.6171C337.03 77.5212 328.141 85.4175 319.183 88.8695C283.237 102.747 238.92 89.3307 200.64 98.5547C190.41 101.042 180.92 105.081 170.941 108.142C138.224 118.191 101.817 117.31 66.8777 114.431C45.1034 112.628 23.2732 110.127 1.45692 109.162C-8.78734 123.921 -17.5641 138.414 -25.3067 151.914L-28.4233 157.421Z" fill="white"/>
<path d="M103.662 66.1029C103.662 66.1029 102.921 73.4682 97.1074 73.9713C102.921 74.4884 103.662 81.8536 103.662 81.8536C103.662 81.8536 104.417 74.4884 110.231 73.9713C104.417 73.4682 103.662 66.1029 103.662 66.1029Z" fill="white"/>
<path d="M384.771 225.106C384.771 225.106 383.653 236.133 374.988 236.887C383.681 237.656 384.771 248.683 384.771 248.683C384.771 248.683 385.889 237.656 394.554 236.887C385.889 236.133 384.771 225.106 384.771 225.106Z" fill="white"/>
<path d="M148.539 187.217C149.235 187.217 149.904 186.94 150.396 186.448C150.889 185.955 151.166 185.287 151.166 184.59C151.166 183.893 150.889 183.225 150.396 182.732C149.904 182.239 149.235 181.962 148.539 181.962C147.842 181.962 147.173 182.239 146.681 182.732C146.188 183.225 145.911 183.893 145.911 184.59C145.911 185.287 146.188 185.955 146.681 186.448C147.173 186.94 147.842 187.217 148.539 187.217Z" fill="white"/>
<path d="M336.122 31.0097C336.818 31.0097 337.487 30.7328 337.98 30.2401C338.472 29.7474 338.749 29.0791 338.749 28.3822C338.749 27.6854 338.472 27.0171 337.98 26.5243C337.487 26.0316 336.818 25.7548 336.122 25.7548C335.425 25.7548 334.756 26.0316 334.264 26.5243C333.771 27.0171 333.494 27.6854 333.494 28.3822C333.494 29.0791 333.771 29.7474 334.264 30.2401C334.756 30.7328 335.425 31.0097 336.122 31.0097Z" fill="white"/>
<path d="M402.199 78.4155C402.865 78.367 403.487 78.0684 403.942 77.5797C404.396 77.0909 404.649 76.4484 404.649 75.781C404.649 75.1137 404.396 74.4712 403.942 73.9824C403.487 73.4937 402.865 73.1951 402.199 73.1466C401.534 73.1951 400.911 73.4937 400.457 73.9824C400.003 74.4712 399.75 75.1137 399.75 75.781C399.75 76.4484 400.003 77.0909 400.457 77.5797C400.911 78.0684 401.534 78.367 402.199 78.4155Z" fill="white"/>
<path d="M51.7422 246.698C52.439 246.698 53.1074 246.421 53.6001 245.929C54.0928 245.436 54.3697 244.768 54.3697 244.071C54.3697 243.374 54.0928 242.706 53.6001 242.213C53.1074 241.72 52.439 241.443 51.7422 241.443C51.0454 241.443 50.3771 241.72 49.8843 242.213C49.3916 242.706 49.1147 243.374 49.1147 244.071C49.1147 244.768 49.3916 245.436 49.8843 245.929C50.3771 246.421 51.0454 246.698 51.7422 246.698Z" fill="white"/>
<path d="M23.7066 119.127C24.4034 119.127 25.0717 118.85 25.5644 118.358C26.0572 117.865 26.334 117.196 26.334 116.5C26.334 115.803 26.0572 115.134 25.5644 114.642C25.0717 114.149 24.4034 113.872 23.7066 113.872C23.0097 113.872 22.3414 114.149 21.8487 114.642C21.3559 115.134 21.0791 115.803 21.0791 116.5C21.0791 117.196 21.3559 117.865 21.8487 118.358C22.3414 118.85 23.0097 119.127 23.7066 119.127Z" fill="white"/>
<path d="M62.4195 240.172C62.793 240.135 63.1396 239.962 63.3918 239.684C63.6441 239.406 63.7838 239.044 63.7838 238.669C63.7838 238.294 63.6441 237.932 63.3918 237.654C63.1396 237.377 62.793 237.203 62.4195 237.167C62.046 237.203 61.6994 237.377 61.4472 237.654C61.1949 237.932 61.0552 238.294 61.0552 238.669C61.0552 239.044 61.1949 239.406 61.4472 239.684C61.6994 239.962 62.046 240.135 62.4195 240.172Z" fill="white"/>
<path d="M122.515 67.2629C122.912 67.2629 123.292 67.1054 123.573 66.8249C123.853 66.5445 124.011 66.1641 124.011 65.7675C124.011 65.3709 123.853 64.9905 123.573 64.7101C123.292 64.4296 122.912 64.2721 122.515 64.2721C122.119 64.2721 121.738 64.4296 121.458 64.7101C121.178 64.9905 121.02 65.3709 121.02 65.7675C121.02 66.1641 121.178 66.5445 121.458 66.8249C121.738 67.1054 122.119 67.2629 122.515 67.2629Z" fill="white"/>
<path d="M142.529 85.2915C142.902 85.2555 143.249 85.0816 143.501 84.8039C143.753 84.5261 143.893 84.1643 143.893 83.7891C143.893 83.4139 143.753 83.0522 143.501 82.7744C143.249 82.4967 142.902 82.3228 142.529 82.2867C142.155 82.3228 141.809 82.4967 141.556 82.7744C141.304 83.0522 141.164 83.4139 141.164 83.7891C141.164 84.1643 141.304 84.5261 141.556 84.8039C141.809 85.0816 142.155 85.2555 142.529 85.2915Z" fill="white"/>
<path d="M159.887 198.104C160.26 198.068 160.607 197.894 160.859 197.617C161.111 197.339 161.251 196.977 161.251 196.602C161.251 196.227 161.111 195.865 160.859 195.587C160.607 195.31 160.26 195.136 159.887 195.1C159.513 195.136 159.167 195.31 158.914 195.587C158.662 195.865 158.522 196.227 158.522 196.602C158.522 196.977 158.662 197.339 158.914 197.617C159.167 197.894 159.513 198.068 159.887 198.104Z" fill="white"/>
<path d="M201.94 181.417C202.313 181.381 202.66 181.207 202.912 180.93C203.165 180.652 203.304 180.29 203.304 179.915C203.304 179.54 203.165 179.178 202.912 178.9C202.66 178.622 202.313 178.448 201.94 178.412C201.567 178.448 201.22 178.622 200.968 178.9C200.715 179.178 200.576 179.54 200.576 179.915C200.576 180.29 200.715 180.652 200.968 180.93C201.22 181.207 201.567 181.381 201.94 181.417Z" fill="white"/>
<path d="M206.608 158.064C206.981 158.028 207.328 157.854 207.58 157.576C207.833 157.298 207.972 156.936 207.972 156.561C207.972 156.186 207.833 155.824 207.58 155.546C207.328 155.269 206.981 155.095 206.608 155.059C206.235 155.095 205.888 155.269 205.636 155.546C205.383 155.824 205.244 156.186 205.244 156.561C205.244 156.936 205.383 157.298 205.636 157.576C205.888 157.854 206.235 158.028 206.608 158.064Z" fill="white"/>
<path d="M364.814 222.143C365.187 222.107 365.534 221.933 365.786 221.655C366.039 221.377 366.178 221.016 366.178 220.64C366.178 220.265 366.039 219.903 365.786 219.626C365.534 219.348 365.187 219.174 364.814 219.138C364.441 219.174 364.094 219.348 363.842 219.626C363.589 219.903 363.45 220.265 363.45 220.64C363.45 221.016 363.589 221.377 363.842 221.655C364.094 221.933 364.441 222.107 364.814 222.143Z" fill="white"/>
<path d="M406.225 176.078C406.598 176.042 406.945 175.868 407.197 175.591C407.449 175.313 407.589 174.951 407.589 174.576C407.589 174.201 407.449 173.839 407.197 173.561C406.945 173.284 406.598 173.11 406.225 173.074C405.851 173.11 405.505 173.284 405.252 173.561C405 173.839 404.86 174.201 404.86 174.576C404.86 174.951 405 175.313 405.252 175.591C405.505 175.868 405.851 176.042 406.225 176.078Z" fill="white"/>
<path d="M362.145 164.52C362.842 164.52 363.51 164.244 364.003 163.751C364.495 163.258 364.772 162.59 364.772 161.893C364.772 161.196 364.495 160.528 364.003 160.035C363.51 159.542 362.842 159.266 362.145 159.266C361.448 159.266 360.78 159.542 360.287 160.035C359.794 160.528 359.517 161.196 359.517 161.893C359.517 162.59 359.794 163.258 360.287 163.751C360.78 164.244 361.448 164.52 362.145 164.52Z" fill="white"/>
<path d="M292.056 191.144C292.527 191.104 292.965 190.888 293.284 190.54C293.603 190.192 293.781 189.737 293.781 189.265C293.781 188.792 293.603 188.337 293.284 187.989C292.965 187.641 292.527 187.425 292.056 187.385C291.585 187.425 291.147 187.641 290.828 187.989C290.509 188.337 290.332 188.792 290.332 189.265C290.332 189.737 290.509 190.192 290.828 190.54C291.147 190.888 291.585 191.104 292.056 191.144Z" fill="white"/>
<path d="M31.6727 102.65C32.0461 102.614 32.3928 102.44 32.645 102.162C32.8972 101.884 33.037 101.523 33.037 101.147C33.037 100.772 32.8972 100.41 32.645 100.133C32.3928 99.8548 32.0461 99.681 31.6727 99.6449C31.2992 99.681 30.9526 99.8548 30.7003 100.133C30.4481 100.41 30.3083 100.772 30.3083 101.147C30.3083 101.523 30.4481 101.884 30.7003 102.162C30.9526 102.44 31.2992 102.614 31.6727 102.65Z" fill="white"/>
<path d="M380.844 60.9739C381.314 60.9332 381.753 60.7176 382.072 60.3696C382.391 60.0215 382.568 59.5664 382.568 59.0941C382.568 58.6218 382.391 58.1667 382.072 57.8186C381.753 57.4706 381.314 57.255 380.844 57.2144C380.373 57.255 379.935 57.4706 379.616 57.8186C379.297 58.1667 379.119 58.6218 379.119 59.0941C379.119 59.5664 379.297 60.0215 379.616 60.3696C379.935 60.7176 380.373 60.9332 380.844 60.9739Z" fill="white"/>
<path d="M209.613 65.0127C210.109 65.0127 210.586 64.8154 210.937 64.4642C211.288 64.113 211.486 63.6367 211.486 63.14C211.486 62.6433 211.288 62.1669 210.937 61.8157C210.586 61.4645 210.109 61.2672 209.613 61.2672C209.116 61.2672 208.64 61.4645 208.289 61.8157C207.937 62.1669 207.74 62.6433 207.74 63.14C207.74 63.6367 207.937 64.113 208.289 64.4642C208.64 64.8154 209.116 65.0127 209.613 65.0127Z" fill="white"/>
<path d="M431.716 299.988C431.716 299.988 430.962 307.353 425.148 307.856C430.962 308.374 431.716 315.739 431.716 315.739C431.716 315.739 432.457 308.374 438.271 307.856C432.457 307.353 431.716 299.988 431.716 299.988Z" fill="white"/>
<path d="M469.241 226.881C469.938 226.881 470.606 226.604 471.099 226.111C471.592 225.618 471.869 224.95 471.869 224.253C471.869 223.556 471.592 222.888 471.099 222.395C470.606 221.902 469.938 221.626 469.241 221.626C468.544 221.626 467.876 221.902 467.383 222.395C466.891 222.888 466.614 223.556 466.614 224.253C466.614 224.95 466.891 225.618 467.383 226.111C467.876 226.604 468.544 226.881 469.241 226.881Z" fill="white"/>
<path d="M512.622 360.349C513.288 360.301 513.91 360.002 514.365 359.514C514.819 359.025 515.072 358.382 515.072 357.715C515.072 357.048 514.819 356.405 514.365 355.916C513.91 355.428 513.288 355.129 512.622 355.081C511.957 355.129 511.334 355.428 510.88 355.916C510.425 356.405 510.173 357.048 510.173 357.715C510.173 358.382 510.425 359.025 510.88 359.514C511.334 360.002 511.957 360.301 512.622 360.349Z" fill="white"/>
<path d="M479.919 220.41C480.292 220.374 480.639 220.2 480.891 219.922C481.144 219.644 481.283 219.283 481.283 218.907C481.283 218.532 481.144 218.17 480.891 217.893C480.639 217.615 480.292 217.441 479.919 217.405C479.546 217.441 479.199 217.615 478.947 217.893C478.694 218.17 478.555 218.532 478.555 218.907C478.555 219.283 478.694 219.644 478.947 219.922C479.199 220.2 479.546 220.374 479.919 220.41Z" fill="white"/>
<path d="M450.542 301.204C450.915 301.168 451.262 300.994 451.514 300.716C451.766 300.438 451.906 300.077 451.906 299.701C451.906 299.326 451.766 298.965 451.514 298.687C451.262 298.409 450.915 298.235 450.542 298.199C450.168 298.235 449.821 298.409 449.569 298.687C449.317 298.965 449.177 299.326 449.177 299.701C449.177 300.077 449.317 300.438 449.569 300.716C449.821 300.994 450.168 301.168 450.542 301.204Z" fill="white"/>
<path d="M470.513 319.177C470.887 319.141 471.233 318.967 471.486 318.689C471.738 318.411 471.878 318.05 471.878 317.674C471.878 317.299 471.738 316.937 471.486 316.66C471.233 316.382 470.887 316.208 470.513 316.172C470.14 316.208 469.793 316.382 469.541 316.66C469.289 316.937 469.149 317.299 469.149 317.674C469.149 318.05 469.289 318.411 469.541 318.689C469.793 318.967 470.14 319.141 470.513 319.177Z" fill="white"/>
<path d="M534.648 391.949C535.022 391.913 535.368 391.739 535.62 391.461C535.873 391.183 536.012 390.822 536.012 390.446C536.012 390.071 535.873 389.709 535.62 389.432C535.368 389.154 535.022 388.98 534.648 388.944C534.275 388.98 533.928 389.154 533.676 389.432C533.423 389.709 533.284 390.071 533.284 390.446C533.284 390.822 533.423 391.183 533.676 391.461C533.928 391.739 534.275 391.913 534.648 391.949Z" fill="white"/>
<path d="M394.596 254.441C394.97 254.405 395.317 254.231 395.569 253.953C395.821 253.675 395.961 253.314 395.961 252.938C395.961 252.563 395.821 252.201 395.569 251.924C395.317 251.646 394.97 251.472 394.596 251.436C394.223 251.472 393.876 251.646 393.624 251.924C393.372 252.201 393.232 252.563 393.232 252.938C393.232 253.314 393.372 253.675 393.624 253.953C393.876 254.231 394.223 254.405 394.596 254.441Z" fill="white"/>
<path d="M537.597 298.856C538.094 298.856 538.57 298.659 538.921 298.307C539.272 297.956 539.47 297.48 539.47 296.983C539.47 296.487 539.272 296.01 538.921 295.659C538.57 295.308 538.094 295.11 537.597 295.11C537.1 295.11 536.624 295.308 536.273 295.659C535.921 296.01 535.724 296.487 535.724 296.983C535.724 297.48 535.921 297.956 536.273 298.307C536.624 298.659 537.1 298.856 537.597 298.856Z" fill="white"/>
<path d="M42.3645 328.205C43.0614 328.205 43.7297 327.928 44.2224 327.436C44.7152 326.943 44.992 326.275 44.992 325.578C44.992 324.881 44.7152 324.213 44.2224 323.72C43.7297 323.227 43.0614 322.95 42.3645 322.95C41.6677 322.95 40.9994 323.227 40.5066 323.72C40.0139 324.213 39.7371 324.881 39.7371 325.578C39.7371 326.275 40.0139 326.943 40.5066 327.436C40.9994 327.928 41.6677 328.205 42.3645 328.205Z" fill="white"/>
<path d="M20.9953 310.763C21.4658 310.723 21.904 310.507 22.2233 310.159C22.5426 309.811 22.7197 309.356 22.7197 308.884C22.7197 308.411 22.5426 307.956 22.2233 307.608C21.904 307.26 21.4658 307.044 20.9953 307.004C20.5247 307.044 20.0865 307.26 19.7672 307.608C19.4479 307.956 19.2708 308.411 19.2708 308.884C19.2708 309.356 19.4479 309.811 19.7672 310.159C20.0865 310.507 20.5247 310.723 20.9953 310.763Z" fill="white"/>
<path d="M62.056 247.676C62.5266 247.636 62.9648 247.42 63.2841 247.072C63.6034 246.724 63.7805 246.269 63.7805 245.797C63.7805 245.324 63.6034 244.869 63.2841 244.521C62.9648 244.173 62.5266 243.958 62.056 243.917C61.5855 243.958 61.1473 244.173 60.828 244.521C60.5087 244.869 60.3315 245.324 60.3315 245.797C60.3315 246.269 60.5087 246.724 60.828 247.072C61.1473 247.42 61.5855 247.636 62.056 247.676Z" fill="white"/>
<path  class="cloud-1" opacity="0" d="M435.993 200.997C437.134 196.083 439.904 191.699 443.852 188.558C447.8 185.417 452.694 183.703 457.739 183.695C459.625 183.7 461.503 183.939 463.33 184.408C466.699 177.213 472.56 171.482 479.828 168.273C487.096 165.064 495.28 164.595 502.867 166.952C506.818 160.404 512.542 155.107 519.376 151.674C526.21 148.241 533.876 146.811 541.489 147.551C549.101 148.291 556.349 151.169 562.394 155.853C568.44 160.538 573.036 166.837 575.653 174.024C579.881 171.669 584.652 170.459 589.491 170.515C594.331 170.572 599.072 171.892 603.244 174.345C607.416 176.799 610.874 180.3 613.276 184.502C615.678 188.703 616.941 193.46 616.938 198.3C616.938 199.208 616.938 200.103 616.812 200.997H435.993Z" fill="white">
</path>
<path opacity="0" class="cloud-1-path" d="M-560 0 L60 0" />
</g>
</svg>
