<svg width="30" height="85" viewBox="0 0 30 85" fill="none" xmlns="http://www.w3.org/2000/svg">
<g clip-path="url(#clipn)" class="mouse">
<path d="M14.9958 44C23.2677 44 30 36.9445 30 28.2648V15.7352C30 7.05547 23.2677 0 14.9958 0C6.72399 0 -0.00832367 7.05547 -0.00832367 15.7352V28.3164C-1.90735e-06 36.9617 6.72399 44 14.9958 44ZM14.9958 2.91328C21.7115 2.91328 27.1789 8.6625 27.1789 15.7352V28.2648C27.1789 35.3375 21.7115 41.0867 14.9958 41.0867C8.28017 41.0867 2.81276 35.3547 2.81276 28.3164V15.7352C2.82108 8.6625 8.28017 2.91328 14.9958 2.91328Z" fill="white"/>
<path d="M14.9954 20.0578C15.7777 20.0578 16.4102 19.4047 16.4102 18.5969V13.5008C16.4102 12.693 15.7777 12.0399 14.9954 12.0399C14.2132 12.0399 13.5807 12.693 13.5807 13.5008V18.5969C13.5891 19.4047 14.2215 20.0578 14.9954 20.0578Z" fill="#C3002F"/>
</g>
<path class="arrow" d="M14.6464 84.3536C14.8417 84.5488 15.1583 84.5488 15.3536 84.3536L18.5355 81.1716C18.7308 80.9763 18.7308 80.6597 18.5355 80.4645C18.3403 80.2692 18.0237 80.2692 17.8284 80.4645L15 83.2929L12.1716 80.4645C11.9763 80.2692 11.6597 80.2692 11.4645 80.4645C11.2692 80.6597 11.2692 80.9763 11.4645 81.1716L14.6464 84.3536ZM14.5 69L14.5 84L15.5 84L15.5 69L14.5 69Z" fill="#C3002F"/>
<defs>
<clipPath id="clipn">
<rect width="30" height="44" fill="white" transform="matrix(-1 0 0 1 30 0)" />
</clipPath>
</defs>
</svg>
