<svg width="78" height="40" viewBox="0 0 78 40" fill="none" xmlns="http://www.w3.org/2000/svg">
<path d="M0.32666 36.2794H2.86736V26.2452L6.80111 34.9932C7.26611 36.0518 7.90129 36.4278 9.1479 36.4278C10.3945 36.4278 11.004 36.0518 11.469 34.9932L15.4027 26.2452V36.2794H17.9434V26.263C17.9434 25.2855 17.5477 24.8126 16.7463 24.5672C14.817 23.9736 13.5209 24.4861 12.9352 25.7901L9.07468 34.4292L5.34277 25.7901C4.78081 24.4861 3.46099 23.9657 1.52974 24.5672C0.724391 24.8126 0.332596 25.2855 0.332596 26.263V36.2794H0.32666Z" fill="#00678F"/>
<path d="M20.0564 28.1127H22.5971V33.6373C22.5734 33.9361 22.6941 34.6425 24.0851 34.6643C24.7955 34.6742 29.5662 34.6643 29.6118 34.6643V28.085H32.1564C32.1683 28.085 32.1564 37.0625 32.1564 37.1001C32.1703 39.3143 29.4099 39.7952 28.1376 39.8308H20.1118V38.1231H28.1495C29.7859 37.951 29.592 37.1337 29.592 36.8646V36.1978H24.19C21.677 36.1741 20.0782 35.0778 20.0584 33.8233C20.0584 33.7066 20.1118 28.176 20.0584 28.1206L20.0564 28.1127Z" fill="#00678F"/>
<path d="M34.1155 36.2786H41.421C42.2287 36.2863 43.0285 36.1196 43.7658 35.7899C44.866 35.2853 45.4042 34.6026 45.4042 33.7063V31.8561C45.4042 31.124 44.7928 30.4394 43.5956 29.9843C42.8983 29.7302 42.1612 29.6029 41.419 29.6083H38.3421C37.3171 29.6083 36.8283 29.2996 36.7057 28.6189C36.6861 28.5447 36.678 28.468 36.6819 28.3914V27.2338C36.6789 27.1624 36.6869 27.091 36.7057 27.0221C36.8283 26.5017 37.1014 26.3552 37.9998 26.2741C38.073 26.2741 38.1719 26.2563 38.2451 26.2563H45.5111V24.5625H38.3678C37.3408 24.5625 36.8026 24.6278 36.3139 24.7742C34.8001 25.2471 34.1373 25.9971 34.1373 27.2991V28.7812C34.1373 29.9229 35.4333 30.9004 37.608 31.128C37.8513 31.1438 38.0967 31.1596 38.3401 31.1596H40.9797C41.0697 31.1563 41.1599 31.1616 41.2489 31.1755C42.0542 31.2408 42.3965 31.3872 42.634 31.682C42.6978 31.7391 42.7486 31.8093 42.7827 31.8879C42.8169 31.9665 42.8337 32.0515 42.8318 32.1371V33.6192C42.8166 33.7385 42.776 33.8532 42.7129 33.9555C42.6498 34.0579 42.5655 34.1456 42.4658 34.2128C42.1561 34.4459 41.7789 34.5717 41.3913 34.571C41.2924 34.571 41.2192 34.5868 41.1222 34.5868H34.1155V36.2806V36.2786Z" fill="#E48D1A"/>
<path d="M61.2559 33.3295C61.2559 35.0728 62.55 36.0503 65.1659 36.2462C65.4092 36.262 65.6546 36.2778 65.898 36.2778H72.5189V34.584H65.8485C64.3585 34.584 63.7966 34.21 63.7966 33.3137V24.5498H61.2559V33.3295Z" fill="#E48D1A"/>
<path d="M47.0249 33.4192V27.3801C47.0249 25.8466 48.1033 24.9146 50.2324 24.6217C50.4598 24.5885 50.6893 24.572 50.9191 24.5723H55.7413C55.9789 24.5719 56.2163 24.5885 56.4516 24.6217C58.5827 24.9146 59.6592 25.8466 59.6592 27.3801V33.4192C59.6592 34.6639 59.2021 35.3307 58.1474 35.764L60.6505 38.0238H57.7002L55.676 36.1974L53.6359 36.326H50.9191C50.4137 36.3228 49.9111 36.2509 49.4251 36.1123C47.8085 35.673 47.0249 34.8241 47.0249 33.4192ZM49.7674 33.2728C49.7738 33.3615 49.7904 33.4491 49.8169 33.534C49.9633 34.2365 50.6262 34.6282 51.6294 34.6282H53.9386L51.8174 32.7128H54.7677L56.6178 34.3829C56.7789 34.3034 56.9203 34.189 57.0315 34.0479C57.1428 33.9069 57.2212 33.7428 57.2609 33.5676C57.2805 33.4874 57.2885 33.4048 57.2847 33.3223V27.5265C57.2878 27.4499 57.2798 27.3733 57.2609 27.299C57.1145 26.646 56.4516 26.27 55.4801 26.27H51.6294C50.5035 26.27 49.7674 26.7608 49.7674 27.5265V33.2649V33.2728Z" fill="#E48D1A"/>
<path d="M74.7547 21.7409C73.1935 21.6974 72.0003 21.8438 70.9793 22.2732C70.6904 22.3959 70.2274 22.3998 70.1878 22.7619C70.3481 22.9301 70.3718 23.1794 70.4985 23.3852C70.7723 23.8377 71.1178 24.2426 71.5215 24.5843C71.9172 24.8871 72.3347 25.2096 72.7641 25.4728C73.5299 25.9378 74.3827 26.2049 75.1188 26.6719C75.5522 26.947 75.9835 27.2932 76.407 27.6039C76.6048 27.7582 76.7572 27.9997 77.0283 28.0927V28.0471C76.8858 27.8651 76.8482 27.6158 76.7176 27.4258L76.1398 26.848C75.5606 26.0986 74.8723 25.4402 74.0978 24.895C73.4903 24.4577 72.1289 23.87 71.8756 23.1616L71.8321 23.1181C72.2827 23.0454 72.7276 22.9416 73.1638 22.8074C73.8326 22.6274 74.4282 22.6749 75.1188 22.4968L76.0508 22.2296V22.0516C75.7025 21.6934 75.4572 21.2205 75.0733 20.8979C74.0649 20.024 72.9964 19.2219 71.8756 18.4977C71.2563 18.102 70.4905 17.8527 69.8336 17.5222C69.612 17.4094 69.2241 17.352 69.0777 17.166C68.7334 16.7268 68.5454 16.1767 68.2862 15.6563C67.7282 14.5818 67.1821 13.4104 66.6874 12.2805C66.351 11.5108 66.1314 10.751 65.7099 10.0604C63.6777 6.744 61.507 4.74745 58.1432 2.76871C57.4289 2.35119 56.5602 2.18498 55.6559 1.97721L54.1916 1.88817C53.8928 1.76351 53.5822 1.39942 53.3032 1.22331C52.1891 0.518878 49.3318 -1.01267 48.5067 0.999711C47.9843 2.27006 49.2843 3.51074 49.7494 4.15383C50.0758 4.60498 50.4934 5.11154 50.7269 5.62008C50.8792 5.95448 50.9069 6.28889 51.0375 6.64111C51.36 7.51175 51.641 8.45759 52.0586 9.26294C52.2661 9.67924 52.5036 10.08 52.7689 10.4621C52.9331 10.6837 53.2141 10.7826 53.2577 11.1269C52.9846 11.5108 52.9688 12.1064 52.8144 12.5932C52.1199 14.7817 52.3811 17.5024 53.3922 19.123C53.7009 19.6197 54.4311 20.6862 55.4343 20.2766C56.3128 19.9204 56.1169 18.8124 56.3682 17.8349C56.4237 17.6132 56.39 17.449 56.5008 17.3006V17.3461L57.2923 18.9449C57.8859 19.8967 58.9347 20.894 59.8231 21.5648C60.2862 21.913 60.6483 22.5166 61.2459 22.7204V22.6749H61.2003C61.0856 22.4948 60.9035 22.4216 60.7571 22.2791C60.3878 21.9212 60.0464 21.5356 59.7361 21.1255C58.9191 19.9966 58.1913 18.8058 57.5595 17.5638C57.2468 16.9701 56.9777 16.3073 56.7145 15.6978C56.6136 15.4643 56.6156 15.1042 56.4039 14.9874C56.1169 15.4327 55.6935 15.7948 55.4719 16.3211C55.1157 17.1621 55.0761 18.1871 54.9376 19.2516C54.8604 19.2793 54.8961 19.2516 54.8486 19.2952C54.2312 19.1468 54.0135 18.5037 53.784 17.9635C53.2023 16.5784 53.0934 14.3582 53.6059 12.7673C53.7385 12.3557 54.3361 11.0596 54.0947 10.6797C53.9779 10.2998 53.598 10.0861 53.3843 9.79126C53.1049 9.40221 52.8668 8.98509 52.6739 8.54664C52.1971 7.4702 51.9754 6.26119 51.4748 5.1709C51.1948 4.63942 50.8677 4.13413 50.4973 3.66112C50.1293 3.14862 49.7058 2.77069 49.4308 2.15134C49.3299 1.9317 49.1913 1.57751 49.3417 1.35984C49.3565 1.29465 49.3894 1.23496 49.4367 1.18769C49.484 1.14042 49.5437 1.10749 49.6089 1.09271C49.8661 0.894838 50.5844 1.15999 50.8515 1.2708C51.5188 1.53256 52.1585 1.86001 52.761 2.2483C53.0519 2.44617 53.3546 2.81224 53.695 2.91514H54.0907C54.716 3.05761 55.4165 2.95867 56.0002 3.13675C56.9886 3.4526 57.9297 3.90055 58.7981 4.46845C61.386 6.10813 63.4925 8.40512 64.9026 11.1249C65.1341 11.5682 65.233 11.9896 65.4368 12.4586C65.8444 13.4025 66.3609 14.376 66.7685 15.3001C67.1761 16.2242 67.5719 17.1542 68.1536 17.9219C68.4544 18.3177 69.6219 18.5413 70.1522 18.7649C70.5242 18.9212 71.1316 19.0854 71.4839 19.2971C72.1566 19.7028 72.8076 20.1856 73.4389 20.6308C73.7535 20.8524 74.7231 21.3392 74.7705 21.7409H74.7547Z" fill="#00678F"/>
<path fill-rule="evenodd" clip-rule="evenodd" d="M54.9021 4.81849C54.6356 4.81473 54.3696 4.84465 54.1106 4.90753V4.94513H54.1541C54.3104 5.26568 54.5835 5.46949 54.7774 5.73662C54.9239 6.04663 55.0716 6.35795 55.2207 6.67059L55.2642 6.62508C55.5392 6.42721 55.6599 6.12248 55.6599 5.64758C55.5511 5.53281 55.5353 5.38639 55.4383 5.25183C55.3117 5.06781 55.0663 4.96294 54.906 4.80859L54.9021 4.81849Z" fill="#00678F"/>
<path fill-rule="evenodd" clip-rule="evenodd" d="M73.7123 34.5371C73.7119 34.9078 73.8215 35.2703 74.0272 35.5787C74.2328 35.8871 74.5253 36.1276 74.8677 36.2698C75.2101 36.4119 75.5869 36.4493 75.9505 36.3772C76.3142 36.3051 76.6482 36.1268 76.9105 35.8648C77.1728 35.6028 77.3514 35.2689 77.4239 34.9054C77.4964 34.5418 77.4594 34.165 77.3176 33.8224C77.1758 33.4799 76.9356 33.1872 76.6274 32.9812C76.3192 32.7752 75.9569 32.6652 75.5862 32.6652C75.3393 32.6618 75.0942 32.7078 74.8655 32.8006C74.6367 32.8935 74.4288 33.0312 74.2541 33.2057C74.0795 33.3801 73.9415 33.5879 73.8485 33.8165C73.7554 34.0452 73.7091 34.2902 73.7123 34.5371ZM77.0386 34.5371C77.0327 34.8235 76.9424 35.1018 76.779 35.3371C76.6156 35.5724 76.3864 35.7541 76.12 35.8596C75.8537 35.9651 75.5622 35.9896 75.282 35.93C75.0018 35.8704 74.7454 35.7294 74.5451 35.5247C74.3447 35.32 74.2093 35.0606 74.1557 34.7792C74.1022 34.4978 74.133 34.2068 74.2442 33.9429C74.3554 33.6789 74.5421 33.4536 74.7808 33.2953C75.0195 33.137 75.2997 33.0527 75.5862 33.0531C75.7798 33.0525 75.9715 33.0907 76.15 33.1655C76.3286 33.2402 76.4904 33.35 76.6258 33.4884C76.7612 33.6267 76.8674 33.7908 76.9383 33.9709C77.0093 34.1511 77.0433 34.3436 77.0386 34.5371ZM76.0908 35.6056H76.5102L75.8949 34.6677C76.2253 34.6321 76.4746 34.4698 76.4746 34.0741C76.4746 33.6407 76.1996 33.4607 75.6713 33.4607H74.8362V35.6155H75.1924V34.6915H75.5268L76.0868 35.6155L76.0908 35.6056ZM75.1924 34.3828V33.7674H75.606C75.8217 33.7674 76.0809 33.8089 76.0809 34.0583C76.0809 34.357 75.8474 34.3828 75.5763 34.3828H75.1924Z" fill="#E48D1A"/>
<path d="M1.02475 19.2345V20.8525H0.479731V16.7195H2.00408C2.45637 16.7195 2.81026 16.8349 3.06574 17.0658C3.32311 17.2967 3.45179 17.6023 3.45179 17.9827C3.45179 18.3839 3.32595 18.6933 3.07425 18.9109C2.82445 19.1266 2.46584 19.2345 1.99841 19.2345H1.02475ZM1.02475 18.7888H2.00408C2.29552 18.7888 2.51882 18.7207 2.674 18.5845C2.82918 18.4463 2.90677 18.2476 2.90677 17.9883C2.90677 17.7423 2.82918 17.5455 2.674 17.3979C2.51882 17.2503 2.30593 17.1737 2.03531 17.168H1.02475V18.7888ZM3.8861 19.2884C3.8861 18.9875 3.94477 18.7169 4.0621 18.4766C4.18132 18.2363 4.34597 18.0508 4.55602 17.9202C4.76798 17.7896 5.00926 17.7244 5.27988 17.7244C5.69811 17.7244 6.03591 17.8691 6.29328 18.1587C6.55254 18.4482 6.68217 18.8333 6.68217 19.314V19.3509C6.68217 19.6499 6.62445 19.9186 6.50901 20.1571C6.39547 20.3936 6.23177 20.5781 6.01793 20.7106C5.80597 20.8431 5.56185 20.9093 5.28556 20.9093C4.86922 20.9093 4.53142 20.7645 4.27216 20.475C4.01479 20.1855 3.8861 19.8022 3.8861 19.3253V19.2884ZM4.41409 19.3509C4.41409 19.6915 4.49263 19.965 4.6497 20.1713C4.80866 20.3775 5.02062 20.4807 5.28556 20.4807C5.55239 20.4807 5.76434 20.3766 5.92141 20.1684C6.07848 19.9584 6.15702 19.665 6.15702 19.2884C6.15702 18.9516 6.07659 18.6791 5.91574 18.4709C5.75677 18.2609 5.54482 18.1558 5.27988 18.1558C5.02062 18.1558 4.8115 18.259 4.65254 18.4652C4.49357 18.6715 4.41409 18.9667 4.41409 19.3509ZM10.0602 20.1287L10.6506 17.7811H11.1757L10.2816 20.8525H9.85577L9.10921 18.5249L8.38252 20.8525H7.95672L7.06539 17.7811H7.5877L8.19233 20.0804L8.90767 17.7811H9.33063L10.0602 20.1287ZM12.9868 20.9093C12.5705 20.9093 12.2317 20.7731 11.9706 20.5005C11.7094 20.2261 11.5788 19.86 11.5788 19.402V19.3055C11.5788 19.0008 11.6366 18.7292 11.752 18.4908C11.8693 18.2504 12.0321 18.0631 12.2402 17.9287C12.4503 17.7925 12.6774 17.7244 12.9215 17.7244C13.3208 17.7244 13.6312 17.8559 13.8526 18.1189C14.074 18.382 14.1847 18.7586 14.1847 19.2487V19.4673H12.104C12.1116 19.7701 12.1995 20.0151 12.368 20.2025C12.5383 20.3879 12.754 20.4807 13.0152 20.4807C13.2006 20.4807 13.3577 20.4428 13.4864 20.3671C13.6151 20.2914 13.7277 20.1911 13.8242 20.0662L14.145 20.316C13.8876 20.7116 13.5015 20.9093 12.9868 20.9093ZM12.9215 18.1558C12.7096 18.1558 12.5317 18.2334 12.3878 18.3886C12.244 18.5419 12.1551 18.7576 12.121 19.0358H13.6596V18.9961C13.6444 18.7292 13.5725 18.523 13.4438 18.3772C13.3151 18.2296 13.141 18.1558 12.9215 18.1558ZM16.2796 18.2523C16.2001 18.2391 16.114 18.2325 16.0213 18.2325C15.6769 18.2325 15.4432 18.3791 15.3202 18.6725V20.8525H14.795V17.7811H15.306L15.3145 18.136C15.4867 17.8616 15.7308 17.7244 16.0469 17.7244C16.1491 17.7244 16.2266 17.7376 16.2796 17.7641V18.2523ZM17.9828 20.9093C17.5665 20.9093 17.2277 20.7731 16.9666 20.5005C16.7054 20.2261 16.5748 19.86 16.5748 19.402V19.3055C16.5748 19.0008 16.6326 18.7292 16.748 18.4908C16.8653 18.2504 17.0281 18.0631 17.2363 17.9287C17.4463 17.7925 17.6734 17.7244 17.9175 17.7244C18.3168 17.7244 18.6272 17.8559 18.8486 18.1189C19.07 18.382 19.1807 18.7586 19.1807 19.2487V19.4673H17.1C17.1076 19.7701 17.1956 20.0151 17.364 20.2025C17.5343 20.3879 17.75 20.4807 18.0112 20.4807C18.1967 20.4807 18.3537 20.4428 18.4824 20.3671C18.6111 20.2914 18.7237 20.1911 18.8202 20.0662L19.141 20.316C18.8836 20.7116 18.4976 20.9093 17.9828 20.9093ZM17.9175 18.1558C17.7056 18.1558 17.5277 18.2334 17.3839 18.3886C17.24 18.5419 17.1511 18.7576 17.117 19.0358H18.6556V18.9961C18.6404 18.7292 18.5685 18.523 18.4398 18.3772C18.3112 18.2296 18.137 18.1558 17.9175 18.1558ZM19.6633 19.2913C19.6633 18.8201 19.7749 18.4416 19.9983 18.1558C20.2216 17.8682 20.5139 17.7244 20.8754 17.7244C21.235 17.7244 21.5198 17.8474 21.7298 18.0934V16.4924H22.255V20.8525H21.7724L21.7469 20.5233C21.5368 20.7806 21.2444 20.9093 20.8697 20.9093C20.5139 20.9093 20.2235 20.7636 19.9983 20.4722C19.7749 20.1807 19.6633 19.8003 19.6633 19.331V19.2913ZM20.1884 19.3509C20.1884 19.6991 20.2604 19.9716 20.4042 20.1684C20.548 20.3652 20.7467 20.4636 21.0003 20.4636C21.3334 20.4636 21.5765 20.3141 21.7298 20.0151V18.6043C21.5728 18.3148 21.3315 18.17 21.006 18.17C20.7486 18.17 20.548 18.2694 20.4042 18.4681C20.2604 18.6668 20.1884 18.9611 20.1884 19.3509ZM27.1147 19.3509C27.1147 19.8202 27.0069 20.1978 26.7911 20.4835C26.5754 20.7674 26.2859 20.9093 25.9225 20.9093C25.5346 20.9093 25.2346 20.7721 25.0227 20.4977L24.9971 20.8525H24.5145V16.4924H25.0397V18.1189C25.2516 17.8559 25.544 17.7244 25.9168 17.7244C26.2896 17.7244 26.582 17.8653 26.794 18.1473C27.0078 18.4293 27.1147 18.8153 27.1147 19.3055V19.3509ZM26.5896 19.2913C26.5896 18.9336 26.5205 18.6573 26.3824 18.4624C26.2442 18.2675 26.0455 18.17 25.7862 18.17C25.4399 18.17 25.1911 18.3309 25.0397 18.6526V19.9811C25.2005 20.3028 25.4513 20.4636 25.7919 20.4636C26.0436 20.4636 26.2395 20.3662 26.3795 20.1713C26.5196 19.9763 26.5896 19.683 26.5896 19.2913ZM28.7498 20.0833L29.4651 17.7811H30.0272L28.7924 21.3266C28.6012 21.8375 28.2975 22.093 27.8812 22.093L27.7818 22.0845L27.586 22.0476V21.6218L27.7279 21.6332C27.9058 21.6332 28.0439 21.5972 28.1423 21.5253C28.2426 21.4534 28.3249 21.3219 28.3893 21.1307L28.5057 20.8185L27.41 17.7811H27.9834L28.7498 20.0833Z" fill="#999B9E"/>
</svg>
