<svg width="100" height="52" viewBox="0 0 100 52" fill="none" xmlns="http://www.w3.org/2000/svg">
<g clip-path="url(#clip0)">
<path fill-rule="evenodd" clip-rule="evenodd" d="M15.0479 14.3505C15.0479 14.0598 14.8918 13.7907 14.6441 13.6453L7.93044 9.78051C7.81738 9.71591 7.68817 9.67823 7.55895 9.67285C7.54819 9.67285 7.49973 9.67285 7.48896 9.67285C7.35975 9.67823 7.23592 9.71053 7.11748 9.78051L0.40379 13.6453C0.156132 13.7907 0 14.0544 0 14.3505L0.0161516 24.75C0.0161516 24.8953 0.0915258 25.0299 0.220739 25.0999C0.344568 25.1752 0.5007 25.1752 0.624529 25.0999L4.61398 22.8176C4.86702 22.6669 5.01777 22.4031 5.01777 22.1124V17.2518C5.01777 16.9611 5.1739 16.692 5.42156 16.552L7.12286 15.5724C7.25207 15.497 7.38667 15.4647 7.52665 15.4647C7.66663 15.4647 7.80661 15.5024 7.93044 15.5724L9.62636 16.552C9.8794 16.6974 10.0301 16.9665 10.0301 17.2518V22.1124C10.0301 22.4031 10.1863 22.6669 10.4339 22.8176L14.4234 25.0999C14.5472 25.1752 14.7033 25.1752 14.8272 25.0999C14.951 25.0299 15.0264 24.8953 15.0264 24.75L15.0479 14.3505Z" fill="white"/>
<path fill-rule="evenodd" clip-rule="evenodd" d="M50.8939 0.053781C50.7701 -0.016195 50.6139 -0.016195 50.4901 0.0591638C50.3663 0.134523 50.2909 0.263709 50.2909 0.409044V10.7117C50.2909 10.8139 50.2371 10.9055 50.1509 10.9593C50.0648 11.0077 49.9571 11.0077 49.8656 10.9593L48.1858 9.99038C47.9328 9.84505 47.6259 9.84505 47.3782 9.99038L40.6645 13.866C40.4115 14.0113 40.2607 14.2805 40.2607 14.5657V22.3169C40.2607 22.6076 40.4169 22.8767 40.6645 23.0167L47.3782 26.8923C47.6313 27.0376 47.9381 27.0376 48.1912 26.8923L54.9103 23.0167C55.1633 22.8714 55.314 22.6022 55.314 22.3169V2.98739C55.314 2.69134 55.1525 2.4222 54.8995 2.27687L50.8939 0.053781ZM50.2694 19.7655C50.2694 19.8355 50.2317 19.9055 50.1671 19.9431L47.8628 21.2727C47.7982 21.3104 47.7228 21.3104 47.6582 21.2727L45.3539 19.9431C45.2893 19.9055 45.2516 19.8409 45.2516 19.7655V17.101C45.2516 17.0311 45.2893 16.9611 45.3539 16.9234L47.6582 15.5939C47.7228 15.5562 47.7982 15.5562 47.8628 15.5939L50.1671 16.9234C50.2317 16.9611 50.2694 17.0257 50.2694 17.101V19.7655Z" fill="white"/>
<path fill-rule="evenodd" clip-rule="evenodd" d="M74.9167 17.0303C75.1644 16.885 75.3205 16.6158 75.3205 16.3305V14.4519C75.3205 14.1613 75.1644 13.8975 74.9167 13.7522L68.2461 9.87658C67.9931 9.73124 67.6862 9.73124 67.4332 9.87658L60.7195 13.7522C60.4664 13.8975 60.3157 14.1667 60.3157 14.4519V22.2031C60.3157 22.4938 60.4718 22.7629 60.7248 22.9083L67.3955 26.7085C67.6431 26.8485 67.9446 26.8485 68.1923 26.7139L72.2302 24.4693C72.3594 24.3993 72.4402 24.2647 72.4402 24.1194C72.4402 23.9741 72.3648 23.8395 72.2356 23.7641L65.4788 19.8885C65.355 19.8186 65.2742 19.684 65.2742 19.5387V17.111C65.2742 16.9657 65.3496 16.8311 65.4788 16.7611L67.5839 15.55C67.7077 15.48 67.8639 15.48 67.9877 15.55L70.0928 16.7611C70.2166 16.8311 70.2974 16.9657 70.2974 17.111V19.0219C70.2974 19.1672 70.3727 19.3018 70.502 19.3718C70.6258 19.4418 70.7819 19.4418 70.9057 19.3718L74.9167 17.0303Z" fill="white"/>
<path fill-rule="evenodd" clip-rule="evenodd" d="M27.2583 9.83361C27.5114 9.68828 27.8183 9.68828 28.0713 9.83361L34.785 13.7092C35.038 13.8545 35.1888 14.1237 35.1888 14.409V22.1655C35.1888 22.4562 35.0327 22.7254 34.785 22.8653L28.0713 26.7409C27.8183 26.8862 27.5114 26.8862 27.2583 26.7409L20.5447 22.8653C20.2916 22.72 20.1409 22.4508 20.1409 22.1655V14.4144C20.1409 14.1237 20.297 13.8545 20.5447 13.7146L27.2583 9.83361Z" fill="#80BD01"/>
<path fill-rule="evenodd" clip-rule="evenodd" d="M67.7398 16.6706C67.7883 16.6437 67.8475 16.6437 67.8959 16.6706L69.1827 17.4134C69.2311 17.4403 69.258 17.4941 69.258 17.548V19.0336C69.258 19.0874 69.2257 19.1413 69.1827 19.1682L67.8959 19.9164C67.8475 19.9433 67.7883 19.9433 67.7398 19.9164L66.4531 19.1736C66.4046 19.1467 66.3777 19.0928 66.3777 19.039V17.548C66.3777 17.4941 66.41 17.4403 66.4531 17.4134L67.7398 16.6706Z" fill="#80BD01"/>
</g>
<path d="M37.6559 51.276C37.4244 51.276 37.1929 51.2168 36.9936 51.0984L34.8778 49.8496C34.5601 49.6719 34.7163 49.6127 34.8186 49.5751C35.2385 49.4297 35.3247 49.3974 35.7769 49.1391C35.8254 49.1121 35.8846 49.1229 35.933 49.1498L37.559 50.1133C37.6182 50.1456 37.6989 50.1456 37.7528 50.1133L44.0842 46.4584C44.1434 46.4261 44.1811 46.3562 44.1811 46.2862V38.9818C44.1811 38.9118 44.1434 38.8418 44.0842 38.8095L37.7528 35.16C37.6936 35.1277 37.6182 35.1277 37.559 35.16L31.2329 38.8095C31.1737 38.8472 31.1306 38.9118 31.1306 38.9818V46.2862C31.1306 46.3562 31.1683 46.4208 31.2329 46.453L32.9665 47.4542C33.9087 47.9225 34.4848 47.3681 34.4848 46.8137V39.6008C34.4848 39.4985 34.5655 39.4178 34.6678 39.4178H35.47C35.5723 39.4178 35.6531 39.4985 35.6531 39.6008V46.8137C35.6531 48.0679 34.9693 48.7892 33.7795 48.7892C33.4134 48.7892 33.128 48.7892 32.3205 48.3908L30.6622 47.4327C30.253 47.1959 30 46.7545 30 46.2754V38.9818C30 38.5081 30.253 38.0613 30.6622 37.8298L36.9936 34.1696C37.3921 33.9435 37.9251 33.9435 38.3235 34.1696L44.6549 37.8298C45.0641 38.0667 45.3225 38.5081 45.3225 38.9818V46.2862C45.3225 46.7599 45.0694 47.2013 44.6549 47.4435L38.3235 51.0984C38.1189 51.2114 37.8928 51.276 37.6559 51.276Z" fill="#80BD01"/>
<path d="M39.6105 46.2442C36.8378 46.2442 36.2617 44.9739 36.2617 43.9081C36.2617 43.8058 36.3425 43.7251 36.4448 43.7251H37.2631C37.3546 43.7251 37.43 43.7897 37.4462 43.8812C37.57 44.7155 37.9361 45.1354 39.6159 45.1354C40.9511 45.1354 41.5164 44.8339 41.5164 44.1234C41.5164 43.7143 41.3549 43.4129 39.2821 43.2083C37.5485 43.0361 36.4771 42.6539 36.4771 41.2705C36.4771 39.9948 37.5538 39.2305 39.3574 39.2305C41.3872 39.2305 42.3886 39.9356 42.5178 41.4428C42.5232 41.4966 42.5016 41.5451 42.4693 41.5827C42.437 41.6204 42.3886 41.642 42.3347 41.642H41.511C41.4249 41.642 41.3495 41.5827 41.3333 41.4966C41.1341 40.6192 40.655 40.3393 39.3574 40.3393C37.8984 40.3393 37.7315 40.8453 37.7315 41.2275C37.7315 41.6904 37.9307 41.8196 39.8958 42.0833C41.8394 42.3417 42.7654 42.7024 42.7654 44.0696C42.7708 45.453 41.6187 46.2442 39.6105 46.2442Z" fill="#80BD01"/>
<path d="M49.6996 36.1516C49.6996 36.8244 49.1505 37.3735 48.4775 37.3735C47.8099 37.3735 47.2554 36.8298 47.2554 36.1516C47.2554 35.4626 47.8261 34.9297 48.4775 34.9297C49.1397 34.9297 49.6996 35.4572 49.6996 36.1516ZM47.46 36.1462C47.46 36.7168 47.9176 37.1743 48.4775 37.1743C49.0482 37.1743 49.5058 36.706 49.5058 36.1462C49.5058 35.5756 49.0428 35.1288 48.4775 35.1288C47.923 35.1288 47.46 35.5702 47.46 36.1462ZM48.0253 35.4626H48.499C48.6606 35.4626 48.9782 35.4626 48.9782 35.8232C48.9782 36.0762 48.8167 36.1247 48.7198 36.157C48.9082 36.1677 48.919 36.2915 48.9459 36.4692C48.9567 36.5768 48.9782 36.7652 49.0159 36.8298H48.7252C48.7198 36.7652 48.6713 36.4153 48.6713 36.3992C48.6498 36.3238 48.6283 36.2808 48.5314 36.2808H48.2945V36.8298H48.0306V35.4626H48.0253ZM48.2837 36.0655H48.499C48.6713 36.0655 48.7036 35.9416 48.7036 35.8717C48.7036 35.6833 48.5744 35.6833 48.5044 35.6833H48.2837V36.0655Z" fill="#80BD01"/>
<defs>
<clipPath id="clip0">
<rect width="100" height="27" fill="white"/>
</clipPath>
</defs>
</svg>
