<svg width="47" height="51" viewBox="0 0 47 51" fill="none" xmlns="http://www.w3.org/2000/svg">
<g clip-path="url(#clip0)">
<path d="M30.0585 21.3164H16.9419V27.291H30.0585V21.3164Z" fill="#3F92D1"/>
<path d="M13.9482 27.291V18.3281H33.0523V27.291H38.7754L37.4442 19.3212C36.7885 15.3976 33.4206 12.5508 29.4369 12.5508H28.7483C30.0686 11.219 30.8848 9.38818 30.8848 7.37109C30.8848 3.30703 27.5718 0 23.5002 0C19.4287 0 16.1156 3.30703 16.1156 7.37109C16.1156 9.38818 16.9319 11.219 18.2522 12.5508H17.5636C13.5789 12.5508 10.212 15.3976 9.55632 19.3212L8.2251 27.291H13.9482Z" fill="#3F92D1"/>
<path d="M47 30.2793H0V36.9541H3.7422V51H43.2578V36.9541H47V30.2793Z" fill="#3F92D1"/>
</g>
<defs>
<clipPath id="clip0">
<rect width="47" height="51" fill="white"/>
</clipPath>
</defs>
</svg>
