<svg width="62" height="62" viewBox="0 0 62 62" fill="none" xmlns="http://www.w3.org/2000/svg">
<path d="M12.7148 7.38672C9.71051 7.38672 7.26562 9.8316 7.26562 12.8359C7.26562 15.8403 9.71051 18.2852 12.7148 18.2852C15.7192 18.2852 18.1641 15.8403 18.1641 12.8359C18.1641 9.8316 15.7192 7.38672 12.7148 7.38672Z" fill="#3F92D1"/>
<path d="M36.4492 5.57031C36.4492 2.56598 34.0043 0 31 0C27.9957 0 25.5508 2.56598 25.5508 5.57031C25.5508 8.57465 27.9957 11.0195 31 11.0195C34.0043 11.0195 36.4492 8.57465 36.4492 5.57031Z" fill="#3F92D1"/>
<path d="M2.72461 43.7148C4.2298 43.7148 5.44922 42.4954 5.44922 40.9902V60.1836C5.44922 61.1862 6.26297 62 7.26562 62H10.8984V49.1641C10.8984 48.1602 11.711 47.3477 12.7148 47.3477C13.7187 47.3477 14.5312 48.1602 14.5312 49.1641V62H19.9805V27.3672C19.9805 25.3607 18.3542 23.7344 16.3477 23.7344H7.26562C3.25258 23.7344 0 26.987 0 31C0 35.0809 0 36.0145 0 40.9902C0 42.4954 1.21941 43.7148 2.72461 43.7148Z" fill="#3F92D1"/>
<path d="M21.6104 14.6681C21.1345 16.981 19.7686 18.9681 17.8965 20.2759C21.16 20.9892 23.6133 23.893 23.6133 27.3672V62H29.1836V41.8984C29.1836 40.8946 29.9962 40.082 31 40.082C32.0039 40.082 32.8164 40.8946 32.8164 41.8984V62H38.3868V27.3672C38.3868 23.893 40.8401 20.9892 44.1036 20.2759C42.2315 18.9681 40.8655 16.981 40.3896 14.6681C40.3267 14.6669 40.2673 14.6523 40.2032 14.6523H21.7969C21.7327 14.6523 21.6734 14.6669 21.6104 14.6681Z" fill="#3F92D1"/>
<path d="M49.2852 18.2852C52.2895 18.2852 54.7344 15.8403 54.7344 12.8359C54.7344 9.8316 52.2895 7.38672 49.2852 7.38672C46.2808 7.38672 43.8359 9.8316 43.8359 12.8359C43.8359 15.8403 46.2808 18.2852 49.2852 18.2852Z" fill="#3F92D1"/>
<path d="M54.7344 23.7344H45.6523C43.6458 23.7344 42.0195 25.3607 42.0195 27.3672V62H47.4688V49.1641C47.4688 48.1602 48.2813 47.3477 49.2852 47.3477C50.289 47.3477 51.1016 48.1602 51.1016 49.1641V62H54.7344C55.737 62 56.5508 61.1862 56.5508 60.1836V40.9902C56.5508 42.4954 57.7702 43.7148 59.2754 43.7148C60.7806 43.7148 62 42.4954 62 40.9902C62 36.006 62 35.0954 62 31C62 26.987 58.7474 23.7344 54.7344 23.7344Z" fill="#3F92D1"/>
</svg>
