<svg width="67" height="35" viewBox="0 0 67 35" fill="none" xmlns="http://www.w3.org/2000/svg">
<path d="M0 17.3468C0 26.9269 14.9684 34.6934 33.4321 34.6934C51.8957 34.6934 66.8641 26.9269 66.8641 17.3468C66.8641 7.76672 51.8957 0.000245137 33.4321 0.000245137C14.9684 0.000245137 0 7.76684 0 17.3468Z" fill="url(#paint0_radial)"/>
<path d="M33.4323 33.4053C51.1749 33.4053 65.5584 26.2157 65.5584 17.3468C65.5584 8.47795 51.1749 1.28838 33.4323 1.28838C15.6896 1.28838 1.30615 8.47795 1.30615 17.3468C1.30615 26.2157 15.6896 33.4053 33.4323 33.4053Z" fill="#777BB3"/>
<path d="M18.1637 19.3382C19.6226 19.3382 20.7117 19.0728 21.4007 18.5498C22.0824 18.0322 22.5533 17.1351 22.8001 15.8838C23.0302 14.7142 22.9425 13.8976 22.5396 13.4569C22.1277 13.0068 21.237 12.7785 19.8923 12.7785H17.561L16.2683 19.3383H18.1635L18.1637 19.3382ZM10.5379 27.4187C10.4297 27.4187 10.3269 27.371 10.2581 27.2885C10.2241 27.2478 10.1996 27.2001 10.1865 27.149C10.1733 27.0978 10.1717 27.0445 10.1819 26.9927L13.6074 9.60915C13.6235 9.52763 13.6678 9.45417 13.7328 9.40136C13.7977 9.34855 13.8793 9.31967 13.9635 9.31968H21.3462C23.6664 9.31968 25.3934 9.93988 26.4789 11.1668C27.5702 12.3989 27.9072 14.1213 27.4804 16.2859C27.3068 17.1677 27.0081 17.9866 26.5929 18.7201C26.1769 19.4542 25.6275 20.1335 24.9593 20.7394C24.1592 21.4779 23.2538 22.0134 22.2705 22.3285C21.3027 22.6395 20.06 22.7973 18.5766 22.7973H15.5872L14.7335 27.1294C14.7175 27.2109 14.6732 27.2843 14.6082 27.3372C14.5433 27.39 14.4617 27.4189 14.3775 27.4189H10.5379V27.4187Z" fill="black"/>
<path d="M17.8604 13.1359H19.8928C21.5155 13.1359 22.0794 13.4872 22.2709 13.6965C22.5887 14.044 22.6487 14.7768 22.4445 15.8155C22.2149 16.9784 21.7896 17.8029 21.1799 18.2659C20.5557 18.7399 19.5409 18.9801 18.1641 18.9801H16.7087L17.8602 13.1359H17.8604ZM21.3465 8.96148H13.9638C13.7955 8.9615 13.6323 9.01929 13.5024 9.12494C13.3725 9.23058 13.2839 9.37751 13.2517 9.54054L9.8263 26.9243C9.8059 27.0279 9.80898 27.1347 9.83532 27.237C9.86167 27.3392 9.91062 27.4345 9.97868 27.5159C10.0467 27.5974 10.1322 27.6629 10.229 27.708C10.3257 27.753 10.4314 27.7764 10.5384 27.7764H14.3776C14.546 27.7764 14.7092 27.7186 14.8391 27.613C14.9691 27.5073 15.0577 27.3604 15.0898 27.1973L15.8865 23.1547H18.5769C20.0984 23.1547 21.3791 22.991 22.3835 22.6684C23.4162 22.3374 24.3666 21.7763 25.2075 21.0005C25.903 20.3694 26.4771 19.6609 26.91 18.8946C27.3429 18.1283 27.6561 17.2733 27.8373 16.3539C28.2865 14.0754 27.9215 12.2508 26.7526 10.9312C25.5952 9.62426 23.7763 8.9616 21.3467 8.9616L21.3465 8.96148ZM15.8288 19.6959H18.1641C19.7119 19.6959 20.865 19.4084 21.6224 18.8331C22.3799 18.2577 22.8911 17.2975 23.1567 15.9519C23.4106 14.6599 23.295 13.7482 22.8096 13.217C22.3243 12.6858 21.3513 12.4203 19.893 12.4203H17.2625L15.8289 19.6957L15.8288 19.6959ZM21.3469 9.6771C23.5678 9.6771 25.188 10.252 26.2064 11.4017C27.2248 12.5515 27.5313 14.1566 27.125 16.2172C26.9578 17.0661 26.675 17.8422 26.2768 18.5454C25.8786 19.2486 25.3575 19.8923 24.7143 20.4756C23.9476 21.1833 23.096 21.6874 22.1588 21.988C21.2217 22.2891 20.0282 22.4391 18.5772 22.4391H15.2886L14.3781 27.0608H10.5389L13.9638 9.6771H21.3466" fill="white"/>
<path d="M36.2839 22.7968C36.1755 22.7968 36.0728 22.749 36.004 22.6665C35.9352 22.584 35.9071 22.4757 35.9279 22.3707L37.443 14.679C37.5871 13.9476 37.5516 13.4225 37.343 13.2007C37.2153 13.0651 36.8317 12.8376 35.6976 12.8376H32.9525L31.0474 22.5071C31.0313 22.5886 30.987 22.6621 30.9221 22.7149C30.8571 22.7677 30.7755 22.7966 30.6913 22.7966H26.8823C26.8288 22.7966 26.776 22.785 26.7276 22.7625C26.6792 22.7399 26.6364 22.7072 26.6024 22.6664C26.5684 22.6257 26.5439 22.5781 26.5307 22.5269C26.5175 22.4758 26.516 22.4224 26.5262 22.3706L29.9516 4.98707C29.9677 4.90556 30.012 4.8321 30.077 4.77929C30.142 4.72648 30.2235 4.6976 30.3077 4.69761H34.1167C34.1702 4.69761 34.2231 4.70928 34.2714 4.73179C34.3198 4.7543 34.3626 4.78708 34.3966 4.8278C34.4307 4.86852 34.4551 4.91616 34.4683 4.9673C34.4815 5.01845 34.483 5.07184 34.4728 5.12364L33.6462 9.3193H36.5993C38.8491 9.3193 40.3745 9.7105 41.2632 10.5153C42.1701 11.3364 42.4515 12.6491 42.1033 14.4178L40.5095 22.5073C40.4935 22.5888 40.4492 22.6623 40.3842 22.7151C40.3192 22.768 40.2376 22.7969 40.1534 22.7969H36.284L36.2839 22.7968Z" fill="black"/>
<path d="M34.1167 4.33965H30.3077C30.1393 4.33964 29.9761 4.39741 29.8462 4.50306C29.7163 4.60871 29.6276 4.75566 29.5955 4.9187L26.17 22.3022C26.1496 22.4058 26.1527 22.5126 26.1791 22.6149C26.2054 22.7172 26.2544 22.8125 26.3225 22.8939C26.3905 22.9753 26.476 23.0409 26.5728 23.0859C26.6696 23.131 26.7753 23.1543 26.8823 23.1543H30.6913C30.8597 23.1543 31.0228 23.0965 31.1528 22.9909C31.2827 22.8852 31.3713 22.7383 31.4035 22.5752L33.2515 13.1953H35.6977C36.8299 13.1953 37.0675 13.4338 37.0771 13.4441C37.1457 13.5168 37.2361 13.8544 37.087 14.6105L35.5718 22.3022C35.5514 22.4058 35.5545 22.5126 35.5809 22.6149C35.6072 22.7172 35.6562 22.8125 35.7243 22.8939C35.7923 22.9753 35.8778 23.0409 35.9746 23.0859C36.0714 23.131 36.1771 23.1543 36.2841 23.1543H40.1535C40.3219 23.1543 40.4851 23.0965 40.615 22.9909C40.745 22.8852 40.8336 22.7383 40.8657 22.5752L42.4595 14.4858C42.8335 12.587 42.5135 11.1625 41.509 10.2517C40.5504 9.38344 38.9446 8.96122 36.5997 8.96122H34.0865L34.8293 5.19171C34.8497 5.0881 34.8466 4.98131 34.8203 4.879C34.7939 4.77669 34.745 4.6814 34.6769 4.59995C34.6088 4.51851 34.5233 4.45292 34.4266 4.4079C34.3298 4.36287 34.2241 4.33952 34.1171 4.33953L34.1167 4.33965ZM34.1171 5.05515L33.2065 9.67684H36.5998C38.7349 9.67684 40.2076 10.0444 41.0182 10.7787C41.8289 11.5129 42.0714 12.7037 41.7476 14.3493L40.1539 22.4387H36.2844L37.7996 14.7472C37.972 13.8723 37.9086 13.2754 37.6092 12.9572C37.3098 12.639 36.6726 12.4797 35.6981 12.4797H32.6536L30.6915 22.4387H26.8825L30.3079 5.05515H34.1169" fill="white"/>
<path d="M48.1298 19.3382C49.5887 19.3382 50.6779 19.0728 51.3669 18.5498C52.0486 18.0322 52.5195 17.1353 52.7664 15.8838C52.9965 14.7142 52.9088 13.8976 52.5058 13.4569C52.0938 13.0068 51.2031 12.7785 49.8585 12.7785H47.5272L46.2345 19.3383H48.1297L48.1298 19.3382ZM40.5043 27.4187C40.3961 27.4187 40.2933 27.371 40.2245 27.2885C40.1905 27.2478 40.166 27.2001 40.1528 27.149C40.1396 27.0979 40.1381 27.0445 40.1482 26.9927L43.5737 9.60915C43.5897 9.52761 43.6341 9.45414 43.6991 9.40132C43.7641 9.34851 43.8457 9.31964 43.9299 9.31968H51.3124C53.6329 9.31968 55.3596 9.93988 56.4453 11.1668C57.5366 12.3989 57.8733 14.1211 57.4469 16.2859C57.273 17.1677 56.9744 17.9866 56.5591 18.7201C56.1431 19.4542 55.5936 20.1335 54.9254 20.7394C54.1254 21.4779 53.22 22.0134 52.2366 22.3285C51.2689 22.6395 50.0262 22.7973 48.5428 22.7973H45.553L44.6997 27.1294C44.6836 27.2109 44.6393 27.2844 44.5743 27.3373C44.5093 27.3901 44.4277 27.419 44.3434 27.4189H40.5042L40.5043 27.4187Z" fill="black"/>
<path d="M47.8266 13.1359H49.859C51.4817 13.1359 52.0456 13.4872 52.2371 13.6965C52.5551 14.044 52.615 14.7768 52.4106 15.8154C52.1811 16.9783 51.7556 17.8029 51.1461 18.2659C50.5219 18.7399 49.5071 18.9801 48.1303 18.9801H46.6753L47.8267 13.1359H47.8266ZM51.3127 8.96148H43.93C43.7616 8.9615 43.5985 9.01929 43.4686 9.12494C43.3387 9.23058 43.25 9.37751 43.2179 9.54054L39.7926 26.9243C39.7722 27.0279 39.7753 27.1347 39.8016 27.237C39.828 27.3392 39.8769 27.4345 39.945 27.5159C40.013 27.5974 40.0985 27.6629 40.1953 27.708C40.292 27.753 40.3977 27.7764 40.5047 27.7764H44.3439C44.5123 27.7764 44.6755 27.7186 44.8054 27.613C44.9354 27.5073 45.024 27.3604 45.0561 27.1973L45.8526 23.1547H48.5431C50.0645 23.1547 51.3453 22.991 52.3497 22.6684C53.3824 22.3374 54.3328 21.7763 55.1739 21.0003C55.8694 20.3694 56.4421 19.6609 56.8762 18.8946C57.3103 18.1283 57.6223 17.2733 57.8034 16.3539C58.2527 14.0753 57.8877 12.2507 56.7188 10.9311C55.5613 9.62426 53.7426 8.9616 51.3129 8.9616L51.3127 8.96148ZM45.7951 19.6959H48.1303C49.6781 19.6959 50.8312 19.4084 51.5886 18.8331C52.3461 18.2577 52.8573 17.2975 53.1229 15.9519C53.377 14.6599 53.2613 13.7482 52.7758 13.217C52.2903 12.6858 51.3175 12.4203 49.8592 12.4203H47.2287L45.7952 19.6957L45.7951 19.6959ZM51.313 9.6771C53.534 9.6771 55.1542 10.252 56.1726 11.4017C57.191 12.5515 57.4975 14.1566 57.0912 16.2172C56.924 17.0661 56.6412 17.8422 56.243 18.5454C55.8448 19.2486 55.3237 19.8923 54.6804 20.4756C53.9138 21.1833 53.0622 21.6874 52.125 21.988C51.1879 22.2891 49.9944 22.4391 48.5434 22.4391H45.2548L44.3443 27.0608H40.5051L43.9305 9.67722H51.3132" fill="white"/>
<defs>
<radialGradient id="paint0_radial" cx="0" cy="0" r="1" gradientUnits="userSpaceOnUse" gradientTransform="translate(20.0728 6.09884) scale(43.9011 43.3017)">
<stop stop-color="#AEB2D5"/>
<stop offset="0.3" stop-color="#AEB2D5"/>
<stop offset="0.75" stop-color="#484C89"/>
<stop offset="1" stop-color="#484C89"/>
</radialGradient>
</defs>
</svg>
