<svg width="48" height="50" viewBox="0 0 48 50" fill="none" xmlns="http://www.w3.org/2000/svg">
<g clip-path="url(#clip0)">
<path d="M8.62225 48.5712L0 48.8733L4.41989 44.334L8.6226 48.5715L8.62225 48.5712Z" fill="#F15A24"/>
<path d="M47.7337 26.0566C46.1318 38.6728 34.707 47.5863 22.2191 45.9664C9.72901 44.348 0.904711 32.8082 2.50663 20.193C4.10957 7.57718 15.5319 -1.3373 28.023 0.282885C40.5123 1.90063 49.3387 13.4415 47.7337 26.0563" fill="#F15A24"/>
<path d="M30.9339 16.5773C32.4322 18.186 30.9535 21.9896 30.9535 21.9896C30.9535 21.9896 29.492 27.3672 21.1245 34.3405L19.5625 32.792L30.1846 21.8262L30.3897 21.5463C30.6723 21.0811 30.9064 16.546 30.9339 16.5773Z" fill="#999999"/>
<path d="M30.9339 16.5773C32.4322 18.186 30.9535 21.9896 30.9535 21.9896C30.9535 21.9896 29.492 27.3672 21.1245 34.3405L19.5625 32.792L30.1846 21.8262L30.3897 21.5463C30.6723 21.0811 30.9064 16.546 30.9339 16.5773Z" stroke="white" stroke-width="1.918" stroke-linecap="round" stroke-linejoin="round"/>
<path d="M17.2686 30.5127L30.9117 16.5381C31.6042 17.3687 31.7515 18.2636 31.5505 19.5386C31.4152 20.4217 29.9052 22.1865 29.9052 22.1865L19.5627 32.7924" fill="#666666"/>
<path d="M17.2686 30.5127L30.9117 16.5381C31.6042 17.3687 31.7515 18.2636 31.5505 19.5386C31.4152 20.4217 29.9052 22.1865 29.9052 22.1865L19.5627 32.7924" stroke="white" stroke-width="1.201" stroke-linecap="round" stroke-linejoin="round"/>
<path d="M30.9339 16.5878L17.2684 30.5134L17.2959 30.4863L17.2908 30.4884L13.9004 27.1138C20.9706 18.2303 25.542 16.5739 25.542 16.5739C25.542 16.5739 28.5179 15.4005 30.641 16.3111C30.8041 16.3994 30.875 16.4501 30.9336 16.5882" fill="#FF931E"/>
<path d="M30.9339 16.5878L17.2684 30.5134L17.2959 30.4863L17.2908 30.4884L13.9004 27.1138C20.9706 18.2303 25.542 16.5739 25.542 16.5739C25.542 16.5739 28.5179 15.4005 30.641 16.3111C30.8041 16.3994 30.875 16.4501 30.9336 16.5882L30.9339 16.5878Z" stroke="white" stroke-width="1.918" stroke-linecap="round" stroke-linejoin="round"/>
<path d="M21.1245 34.3406C17.8642 37.0529 13.6918 41.3133 8.02039 44.2849L9.28189 49.7324L3.93506 44.4129L17.2681 30.5127" fill="#999999"/>
<path d="M21.1245 34.3406C17.8642 37.0529 13.6918 41.3133 8.02039 44.2849L9.28189 49.7324L3.93506 44.4129L17.2681 30.5127" stroke="white" stroke-width="1.918" stroke-linecap="round" stroke-linejoin="round"/>
<path d="M13.9916 27.1598L17.3038 30.4923L9.65186 32.1663L13.9182 27.0996L13.9919 27.1598H13.9916Z" fill="#F15A24"/>
<path d="M13.9916 27.1598L17.3038 30.4923L9.65186 32.1663L13.9182 27.0996L13.9919 27.1598H13.9916Z" stroke="white" stroke-width="1.918" stroke-linecap="round" stroke-linejoin="round"/>
<path d="M29.6292 12.5466C29.3043 15.5088 31.4156 18.1755 34.3482 18.5058C37.2784 18.8347 39.9208 16.7003 40.2478 13.7391C40.5738 10.778 38.459 8.10849 35.5278 7.77924C32.5948 7.45207 29.9545 9.58369 29.6292 12.5466Z" fill="#999999"/>
<path d="M29.6292 12.5466C29.3043 15.5088 31.4156 18.1755 34.3482 18.5058C37.2784 18.8347 39.9208 16.7003 40.2478 13.7391C40.5738 10.778 38.459 8.10849 35.5278 7.77924C32.5948 7.45207 29.9545 9.58369 29.6292 12.5466Z" stroke="white" stroke-width="1.918" stroke-linecap="round" stroke-linejoin="round"/>
<path d="M39.4809 16.1241C40.4663 14.6698 40.4154 12.494 40.2175 11.8494C39.9748 11.0602 39.4317 9.77657 38.4844 9.10938L33.4756 13.7697C33.4756 13.7697 37.3251 17.9474 37.4253 17.9613C37.4669 17.9661 38.5822 17.4502 39.4809 16.1241Z" fill="#666666"/>
<path d="M39.4809 16.1241C40.4663 14.6698 40.4154 12.494 40.2175 11.8494C39.9748 11.0602 39.4317 9.77657 38.4844 9.10938L33.4756 13.7697C33.4756 13.7697 37.3251 17.9474 37.4253 17.9613C37.4669 17.9661 38.5822 17.4502 39.4809 16.1241ZM38.4703 12.4735C38.4703 12.4735 38.9518 13.6681 38.3409 14.5975L38.4703 12.4735Z" stroke="white" stroke-width="1.918" stroke-linecap="round" stroke-linejoin="round"/>
<path d="M19.6807 32.7953L14.1528 33.7889L17.4895 30.2871" fill="#666666"/>
<path d="M14.1201 27.1836L21.1477 33.8642M19.6807 32.7948L14.1528 33.7884L17.4895 30.2866L19.6807 32.7948Z" stroke="white" stroke-width="1.918" stroke-linecap="round" stroke-linejoin="round"/>
</g>
<defs>
<clipPath id="clip0">
<rect width="48" height="50" fill="white"/>
</clipPath>
</defs>
</svg>
