<svg width="49" height="50" viewBox="0 0 49 50" fill="none" xmlns="http://www.w3.org/2000/svg">
<path d="M29.2256 0.90338C27.1114 0.571563 24.8859 0.460957 22.7716 0.792774C21.5476 1.01399 20.3236 1.56701 19.3221 2.12004C15.8725 1.01398 11.9779 0.35035 8.41709 1.01398C5.85776 1.45641 3.4097 3.00489 2.07439 5.32761C0.405262 8.09275 0.0714355 11.4109 0.293986 14.6185C0.739088 18.1579 1.62929 21.6973 2.63077 25.126C3.52097 28.1124 4.52245 31.0987 6.19158 33.7533C7.08179 35.1912 8.41709 36.7396 10.1975 37.1821C11.6441 37.5139 13.0907 37.0714 14.2034 36.1866C14.7598 36.7396 15.4274 37.1821 16.2064 37.4033C18.3206 38.1775 20.6574 38.1775 22.7716 37.2927C22.8829 40.1684 22.7716 43.1548 23.8844 45.8093C24.3295 47.1366 24.9971 48.3532 26.2212 49.1275C27.5565 50.0123 29.1143 50.1229 30.6722 49.9017C32.0075 49.6805 33.4541 49.2381 34.5668 48.5744C35.7908 47.8002 36.7923 46.6941 37.3487 45.3669C38.684 42.3805 38.7953 39.173 38.9066 35.9654C42.0223 36.1866 45.2493 35.4124 47.586 33.3109C48.4762 32.5366 49.2552 31.3199 48.9213 30.1033C48.5875 28.9972 47.3635 28.223 46.2507 28.3336C45.0267 28.4442 43.914 28.776 42.6899 28.776C45.3605 24.1306 47.4748 19.1533 48.365 13.9549C48.6988 11.7427 49.0326 9.53063 48.365 7.31851C48.0311 6.10185 47.1409 5.1064 46.2507 4.22155C44.2478 2.23065 41.4659 0.90338 38.684 0.350351C35.457 -0.313283 32.23 0.0185342 29.2256 0.90338Z" fill="white"/>
<path d="M29.1152 2.23169C32.4535 1.23624 36.0143 0.904427 39.3525 1.89988C42.0232 2.67412 44.4712 4.2226 46.1403 6.43471C46.808 7.31956 47.0306 8.53622 47.0306 9.64228C47.1418 11.6332 46.6967 13.6241 46.2516 15.5044C45.0276 20.5922 42.8021 25.3483 40.0202 29.7725C41.5781 30.4362 43.3585 30.1043 44.9163 29.8831C45.584 29.7725 46.4742 29.5513 46.9193 30.2149C47.3644 30.8786 46.9193 31.6528 46.4742 32.0952C44.1374 34.418 40.5766 34.971 37.4609 34.418C37.127 37.1831 36.7932 39.9482 36.3481 42.824C36.1256 44.3725 35.5692 46.0316 34.3452 47.027C33.2324 48.0225 31.6745 48.4649 30.228 48.6861C28.7814 48.9073 27.001 48.7967 25.8882 47.6906C24.6642 46.5846 23.8853 44.9255 23.774 43.377C23.4402 40.6119 23.4402 37.7361 23.4402 34.971C22.1049 36.077 20.3244 36.7407 18.544 36.6301C17.32 36.5195 15.8734 36.2983 14.9832 35.4134C14.4269 34.971 14.5381 34.0861 15.0945 33.6437C16.096 32.8695 17.4313 32.9801 18.544 32.5377C19.4342 32.3164 19.8793 31.4316 20.3244 30.8786C19.323 30.768 18.3215 30.5468 17.5426 30.1043C16.2073 31.5422 14.872 33.0907 13.6479 34.5286C12.869 35.4134 11.8675 36.1877 10.6435 35.9664C9.30818 35.7452 8.3067 34.7498 7.52777 33.7543C6.08119 31.6528 5.07972 29.2195 4.30079 26.7862C3.07676 22.8044 2.07528 18.8226 1.5189 14.7301C1.18508 11.6332 1.5189 8.31501 3.29931 5.77108C4.74589 3.66957 7.19395 2.56351 9.64201 2.3423C12.9803 2.01048 16.3185 2.67412 19.4342 3.78017C21.9936 2.12109 25.3318 1.78927 28.3363 2.45291C28.6701 2.2317 28.8927 2.3423 29.1152 2.23169ZM31.5633 3.11654C32.2309 3.55896 32.8986 3.89078 33.5662 4.3332C36.2368 6.10289 38.3511 8.64683 39.5751 11.5226C39.9089 12.4074 40.354 13.1817 40.2427 14.1771C40.2427 16.0574 39.5751 17.9377 39.7976 19.818C40.0202 21.8089 40.4653 23.9104 39.9089 25.9013C39.7976 26.565 39.3525 27.2286 39.13 27.8922C39.13 28.0028 39.2413 28.224 39.2413 28.224C39.4638 27.8922 39.6864 27.5604 39.9089 27.2286C42.0232 23.7998 43.581 20.0392 44.6938 16.168C45.2501 14.0665 45.6952 11.8544 45.6952 9.64228C45.6952 8.75743 45.584 7.76198 45.0276 6.98774C43.8036 5.43926 42.1344 4.2226 40.2427 3.44836C37.4609 2.56351 34.4564 2.45291 31.5633 3.11654ZM23.774 3.33775C21.6598 3.55896 19.6568 4.77563 18.4328 6.43471C16.7636 8.75743 15.9847 11.6332 15.7622 14.3983C17.5426 13.6241 19.4342 12.8498 21.4372 13.2923C22.6612 13.6241 23.6627 14.7301 23.8853 15.9468C24.4416 18.4907 24.7755 21.0347 24.2191 23.5786C23.774 25.5695 22.55 27.3392 22.1049 29.4407C22.6612 29.4407 23.2176 29.5513 23.6627 29.7725C24.6642 30.3255 25.2206 31.4316 25.1093 32.5377C24.998 35.3028 24.998 38.0679 25.2206 40.8331C25.3318 41.9391 25.3318 43.1558 25.6657 44.2619C26.1108 45.5891 27.001 46.9164 28.4476 47.2482C30.0054 47.4694 31.5633 47.027 33.0098 46.3634C34.3452 45.6997 35.0128 44.1513 35.2354 42.7134C35.6805 39.727 36.0143 36.7407 36.3481 33.7543C36.4594 32.6483 36.2368 31.5422 36.9045 30.5468C37.2383 29.8831 37.906 29.6619 38.4623 29.3301C38.0172 28.6665 37.4609 28.0028 37.0158 27.3392C35.5692 24.2422 33.5662 21.3665 32.8986 18.0483C32.676 16.6104 32.7873 14.9514 34.0113 13.9559C35.3466 12.8498 37.127 12.9604 38.7962 12.9604C37.7947 10.1953 36.0143 7.76198 33.7888 5.99229C30.8956 3.89078 27.2235 2.89533 23.774 3.33775ZM8.97435 3.55896C7.08267 3.89078 5.19099 4.99684 4.18951 6.76653C2.85421 9.08925 2.74293 11.7438 2.96548 14.2877C3.41059 17.6059 4.18951 20.9241 5.19099 24.2422C6.0812 27.0074 6.9714 29.7725 8.52925 32.2058C9.08563 33.0907 9.75328 33.9755 10.7548 34.3074C11.645 34.5286 12.3126 33.7543 12.869 33.2013C13.9817 31.7634 15.3171 30.4362 16.5411 28.9983C14.7607 27.4498 13.8705 25.0165 14.093 22.5831C14.3156 20.8135 14.4269 18.9332 14.3156 17.0529C14.093 14.5089 14.5381 11.8544 15.3171 9.31046C15.8734 7.43016 16.8749 5.77108 18.2102 4.3332C15.2058 3.66957 11.9788 3.00594 8.97435 3.55896ZM34.9015 14.9514C34.0113 15.615 34.0113 16.9423 34.2339 17.9377C34.9015 21.1453 36.7932 23.7998 38.1285 26.6756C39.2413 24.574 38.5736 22.1407 38.3511 19.818C38.1285 17.9377 38.6849 16.168 38.7962 14.3983C37.5721 14.3983 36.1256 14.1771 34.9015 14.9514ZM15.6509 16.168C15.6509 17.7165 15.7622 19.265 15.6509 20.7028C15.5396 22.0301 15.2058 23.3574 15.5396 24.6847C15.9847 27.118 18.0989 29.1089 20.6583 29.1089C20.9921 27.8922 21.4372 26.6756 21.9936 25.5695C23.5514 22.5831 23.2176 19.1544 22.4387 16.0574C22.2161 15.1726 21.4372 14.5089 20.547 14.5089C18.7666 14.5089 17.0975 15.2832 15.6509 16.168ZM38.2398 31.0998C37.7947 31.5422 37.7947 32.2058 37.7947 32.7589C38.7962 33.0907 39.9089 33.0907 41.0217 32.9801C42.5795 32.7589 44.2487 32.3165 45.4727 31.0998C43.581 31.321 41.4668 31.7634 39.5751 30.8786C39.13 30.6574 38.5736 30.8786 38.2398 31.0998ZM19.8793 33.3119C18.7666 33.9755 17.4313 33.8649 16.4298 34.418C18.6553 35.524 21.8823 35.1922 23.4402 33.0907C24.2191 32.3164 23.4402 30.768 22.4387 30.8786C21.3259 31.5422 20.8808 32.7589 19.8793 33.3119Z" fill="white"/>
<path d="M35.3461 15.3919C36.0138 14.9495 36.904 14.9495 37.5716 15.1707C37.5716 16.0555 36.4589 16.7192 35.6799 16.2768C35.4574 16.1661 35.0123 15.7237 35.3461 15.3919Z" fill="white"/>
<path d="M19.656 15.5032C20.3237 15.282 21.1026 15.3926 21.659 15.835C21.9928 16.1668 21.659 16.7198 21.3252 16.8304C20.5462 17.3835 19.3222 16.8305 19.2109 15.9456C19.2109 15.7244 19.4335 15.5032 19.656 15.5032Z" fill="white"/>
<path d="M31.562 3.11556C34.3439 2.45192 37.4596 2.56253 40.1302 3.55798C42.0219 4.22161 43.691 5.54888 44.9151 7.09736C45.5827 7.8716 45.5827 8.86706 45.5827 9.7519C45.5827 11.964 45.1376 14.0655 44.5812 16.2776C43.4685 20.1488 41.9106 23.9094 39.7964 27.3382C39.5738 27.67 39.3513 28.0018 39.1287 28.3337C39.1287 28.2231 39.0175 28.0018 39.0175 28.0018C39.24 27.3382 39.6851 26.6746 39.7964 26.0109C40.3528 24.02 39.9077 21.9185 39.6851 19.9276C39.4626 18.0473 40.1302 16.167 40.1302 14.2867C40.2415 13.4019 39.7964 12.517 39.4626 11.6322C38.1273 8.75645 36.1243 6.21252 33.4537 4.44283C33.0086 3.8898 32.2297 3.55798 31.562 3.11556Z" fill="#326690"/>
<path d="M23.773 3.33576C27.2225 2.89334 30.8946 3.88879 33.6765 5.9903C35.902 7.75999 37.7937 10.1933 38.6839 12.9585C37.1261 12.9585 35.2344 12.8479 33.8991 13.9539C32.675 14.9494 32.5638 16.6085 32.7863 18.0463C33.454 21.4751 35.4569 24.3508 36.9035 27.3372C37.2373 28.1114 37.7937 28.6645 38.3501 29.3281C37.6824 29.6599 37.1261 29.8811 36.7922 30.5448C36.2359 31.5402 36.4584 32.6463 36.2359 33.7523C35.902 36.7387 35.5682 39.725 35.1231 42.7114C34.9005 44.1493 34.2329 45.6978 32.8976 46.3614C31.5623 47.025 29.8932 47.4674 28.3353 47.2462C26.8887 47.025 25.8872 45.5872 25.5534 44.2599C25.2196 43.1538 25.2196 41.9372 25.1083 40.8311C24.997 38.066 24.997 35.3008 24.997 32.5357C25.1083 31.4296 24.5519 30.3236 23.5505 29.7705C23.1054 29.5493 22.549 29.4387 21.9926 29.4387C22.4377 27.4478 23.6617 25.6781 24.1068 23.5766C24.6632 21.0327 24.3294 18.4887 23.773 15.9448C23.5505 14.7282 22.549 13.6221 21.325 13.2903C19.322 12.8479 17.4303 13.5115 15.6499 14.3963C15.8725 11.6312 16.6514 8.75544 18.3205 6.43272C19.6558 4.77364 21.6588 3.66758 23.773 3.33576Z" fill="#326690"/>
<path d="M8.97331 3.55834C12.089 3.00531 15.2047 3.55834 18.2092 4.44318C16.8739 5.88106 15.8724 7.54014 15.316 9.42044C14.5371 11.8538 14.2033 14.5083 14.3145 17.1628C14.4258 19.0431 14.4258 20.8128 14.092 22.6931C13.7582 25.0158 14.7596 27.4492 16.54 29.1083C15.316 30.5461 14.092 31.8734 12.8679 33.3113C12.3116 33.9749 11.6439 34.6385 10.7537 34.4173C9.75224 34.0855 9.08458 33.2007 8.52821 32.3158C6.97035 29.8825 6.08015 27.1174 5.18994 24.3522C4.18846 21.1446 3.40954 17.8265 2.96443 14.3977C2.74188 11.8538 2.85316 9.08862 4.18846 6.87651C5.18994 5.10682 6.97035 4.00076 8.97331 3.55834Z" fill="#326690"/>
<path d="M34.9005 14.9506C36.0133 14.1763 37.5711 14.2869 38.7951 14.3975C38.6839 16.1672 38.1275 17.9369 38.35 19.8172C38.5726 22.0293 39.129 24.4627 38.1275 26.6748C36.6809 23.799 34.7892 21.1445 34.2328 17.9369C34.1216 16.9415 34.1216 15.7248 34.9005 14.9506ZM35.3456 15.393C35.0118 15.7248 35.3456 16.1672 35.6794 16.2778C36.4584 16.7203 37.5711 16.0566 37.5711 15.1718C36.9035 14.9506 36.0133 14.9506 35.3456 15.393Z" fill="#326690"/>
<path d="M15.6499 16.1674C17.0965 15.2826 18.7656 14.5084 20.4348 14.619C21.325 14.619 22.1039 15.2826 22.3264 16.1674C23.1054 19.2644 23.3279 22.6932 21.8813 25.6795C21.325 26.7856 20.8799 28.0023 20.546 29.2189C17.9867 29.2189 15.8725 27.1174 15.4274 24.7947C15.0935 23.4674 15.5386 22.1402 15.5386 20.8129C15.7612 19.1538 15.6499 17.7159 15.6499 16.1674ZM19.6558 15.5038C19.4333 15.6144 19.2107 15.725 19.2107 15.9462C19.322 16.8311 20.546 17.3841 21.325 16.8311C21.6588 16.6099 21.9926 16.1674 21.6588 15.8356C21.1024 15.3932 20.3235 15.2826 19.6558 15.5038Z" fill="#326690"/>
<path d="M38.2386 31.0999C38.5724 30.8787 39.1288 30.5468 39.5739 30.8787C41.3543 31.8741 43.4685 31.3211 45.4715 31.0999C44.2474 32.2059 42.6896 32.759 41.0204 32.9802C39.9077 33.0908 38.7949 33.2014 37.7935 32.759C37.7935 32.2059 37.7935 31.5423 38.2386 31.0999Z" fill="#326690"/>
<path d="M19.8782 33.311C20.8797 32.758 21.3248 31.5413 22.3263 30.8777C23.3277 30.7671 24.2179 32.3156 23.3277 33.0898C21.7699 35.1913 18.5429 35.6337 16.3174 34.4171C17.4301 33.9747 18.7654 33.9747 19.8782 33.311Z" fill="#326690"/>
<path d="M29.2254 0.902844C32.2298 0.128604 35.4568 -0.203213 38.5725 0.349815C41.3544 0.792238 44.025 2.23011 46.1392 4.22102C47.0294 5.10586 47.9196 6.10131 48.2535 7.31797C48.9211 9.53009 48.5873 11.7422 48.2535 13.9543C47.252 19.1528 45.249 24.13 42.5784 28.7755C43.8025 28.7755 44.9152 28.4437 46.1392 28.3331C47.252 28.2225 48.5873 28.9967 48.8098 30.1028C49.1437 31.3194 48.3647 32.5361 47.4745 33.3103C45.0265 35.4118 41.6882 36.0755 38.6838 35.9649C38.4612 39.1724 38.4612 42.38 37.1259 45.3663C36.4583 46.6936 35.5681 47.7997 34.344 48.5739C33.12 49.3482 31.7847 49.68 30.4494 49.9012C29.0028 50.1224 27.3337 50.0118 25.9984 49.1269C24.7744 48.3527 24.1067 47.136 23.6616 45.8088C22.6601 43.0436 22.7714 40.1679 22.5488 37.2921C20.4346 38.177 18.0978 38.177 15.9836 37.4027C15.2047 37.1815 14.537 36.7391 13.9806 36.1861C12.8679 37.0709 11.4213 37.5133 9.97473 37.1815C8.19432 36.7391 6.97029 35.1906 5.96881 33.7527C4.29968 31.0982 3.2982 28.1118 2.408 25.1255C1.40652 21.6967 0.516318 18.2679 0.0712162 14.618C-0.151335 11.4104 0.0712167 8.09222 1.85162 5.32707C3.18693 3.11496 5.63499 1.56648 8.19432 1.01345C11.8664 0.239208 15.6498 1.01345 19.0993 2.0089C20.2121 1.45587 21.3248 0.902843 22.5488 0.681632C24.8856 0.349814 27.1111 0.571027 29.2254 0.902844ZM29.1141 2.23011C28.8915 2.34072 28.5577 2.11951 28.3352 2.11951C25.3307 1.45587 21.9925 1.78769 19.4331 3.44677C16.3174 2.34072 12.9792 1.67708 9.6409 2.0089C7.19284 2.23011 4.63351 3.44677 3.2982 5.43768C1.5178 8.09221 1.29524 11.4104 1.5178 14.3967C2.07417 18.4892 3.07565 22.471 4.29968 26.3422C5.18988 28.7755 6.08009 31.2088 7.52667 33.3103C8.3056 34.3058 9.30707 35.4118 10.6424 35.5224C11.8664 35.633 12.8679 34.9694 13.6468 34.0846C14.9821 32.5361 16.2061 31.0982 17.5415 29.6603C18.4317 30.1028 19.4331 30.324 20.3233 30.4346C19.767 31.0982 19.3219 31.8724 18.5429 32.0937C17.4302 32.5361 16.0949 32.4255 15.0934 33.1997C14.537 33.6421 14.4257 34.527 14.9821 34.9694C15.8723 35.8542 17.3189 36.0755 18.5429 36.1861C20.3233 36.2967 22.1037 35.7436 23.439 34.527C23.439 37.2921 23.4391 40.1679 23.7729 42.933C23.8842 44.5921 24.6631 46.2512 25.8871 47.2466C26.9999 48.2421 28.7803 48.4633 30.2269 48.2421C31.6734 47.9103 33.2313 47.4678 34.344 46.583C35.5681 45.4769 36.1245 43.9285 36.347 42.38C36.7921 39.6148 37.1259 36.8497 37.4598 33.974C40.5755 34.527 44.1363 33.8633 46.4731 31.6512C46.9182 31.2088 47.4745 30.324 46.9182 29.7709C46.4731 29.2179 45.5829 29.3285 44.9152 29.4391C43.3574 29.7709 41.5769 30.1028 40.0191 29.3285C42.801 24.9043 45.0265 20.1482 46.2505 15.0604C46.6956 13.1801 47.0294 11.1892 47.0294 9.19827C46.9182 8.09222 46.8069 6.87555 46.1392 5.99071C44.4701 3.77859 42.022 2.23011 39.3514 1.45587C36.1245 1.01345 32.4524 1.23466 29.1141 2.23011Z" fill="black"/>
</svg>
