<svg width="58" height="58" viewBox="0 0 58 58" fill="none" xmlns="http://www.w3.org/2000/svg">
<path d="M1.03628 33.9956H6.21429C6.78634 33.9956 7.25057 34.4605 7.25057 35.036V56.872C7.25057 57.4463 6.78634 57.9123 6.21429 57.9123H1.03628C0.464227 57.9123 0 57.4463 0 56.872V35.036C0 34.4617 0.464227 33.9956 1.03628 33.9956Z" fill="#3F92D1"/>
<path d="M57.58 41.3781C57.1044 40.8049 56.3258 40.5861 55.6243 40.83L36.4571 47.2464C36.1052 47.3581 35.742 47.4333 35.3743 47.4675C35.3334 47.4777 35.2925 47.4857 35.2505 47.4914C35.2347 47.4914 35.2176 47.4823 35.2006 47.4812C35.0735 47.4903 34.9475 47.5119 34.8192 47.5119H25.6085C23.9718 47.5096 22.3725 47.9962 21.0116 48.9089L20.2534 49.416C19.7778 49.7351 19.1343 49.6063 18.8165 49.1289C18.4986 48.6514 18.6269 48.0053 19.1036 47.6863L19.863 47.1792C21.5632 46.0386 23.5631 45.4301 25.6085 45.4324H31.9011C32.5594 44.5493 32.6207 43.3528 32.0554 42.4059L31.9624 42.2509C31.211 41.002 29.866 40.2374 28.4131 40.2329H22.9945C22.7516 40.2329 22.511 40.2181 22.2692 40.2021C20.1433 40.0528 18.1127 39.2586 16.4454 37.9254C14.9517 36.7289 13.0982 36.0749 11.1868 36.0737H9.3208V56.8694H34.4889C35.6285 56.8694 36.7465 56.5549 37.7204 55.959L57.135 44.0946C57.5698 43.8291 57.8717 43.3927 57.967 42.8913C58.0624 42.3911 57.9432 41.8726 57.6379 41.4647C57.6174 41.4373 57.597 41.4077 57.58 41.3781Z" fill="#3F92D1"/>
<path d="M34.8001 45.4335L56.5404 23.5975L48.9868 16.0142C48.2104 15.2781 46.988 15.3054 46.2457 16.0769L46.1492 16.1749C46.08 16.2717 46.0527 16.3925 46.0766 16.5087C46.4262 19.3221 45.0914 22.0797 42.6726 23.5428C40.4695 24.9045 37.6944 24.925 35.4709 23.5975C33.6741 22.5059 32.4789 20.6451 32.2303 18.5518C31.9772 16.3595 32.7457 14.1728 34.312 12.6254C35.8783 11.0768 38.0678 10.3407 40.2471 10.629C40.3435 10.6438 40.4423 10.6187 40.5206 10.5595L40.6375 10.4444C41.4071 9.69687 41.432 8.46736 40.6943 7.68909L33.1429 0.11377L25.3305 7.94776C24.5814 8.70666 23.5655 9.14194 22.5009 9.16017H22.4373C21.3954 9.16473 20.3954 8.74996 19.6599 8.00929L19.585 7.94092C19.0504 7.39624 18.8086 6.62709 18.9323 5.87275C19.2025 4.39825 18.7564 2.88159 17.7315 1.7911C16.7054 0.700606 15.2231 0.167326 13.7407 0.354202C12.1698 0.544496 10.7704 1.44697 9.94291 2.80182C8.977 4.3333 8.93501 6.27613 9.83395 7.84862C10.8316 9.54418 12.768 10.4467 14.7021 10.1196C15.4546 9.98061 16.2276 10.2176 16.7735 10.7555L16.8552 10.8375C17.6055 11.5896 18.0175 12.6174 17.9948 13.6817C17.9823 14.7505 17.5522 15.7726 16.7974 16.5281L8.98608 24.3575L22.7165 38.1431C22.8096 38.1431 22.9015 38.1556 22.9958 38.1556H28.4132C30.5936 38.1624 32.614 39.3099 33.7422 41.1844L33.8353 41.3393C34.5719 42.5757 34.7127 44.0798 34.2201 45.4335H34.8001Z" fill="#3F92D1"/>
</svg>
