<svg width="49" height="49" viewBox="0 0 49 49" fill="none" xmlns="http://www.w3.org/2000/svg">
<path d="M12.6195 4.84C12.6195 7.515 10.4531 9.68 7.78743 9.68C5.11679 9.68 2.95532 7.515 2.95532 4.84C2.95532 2.165 5.11679 0 7.78743 0C10.4581 0 12.6195 2.165 12.6195 4.84Z" fill="#3F92D1"/>
<path d="M2.39609 26.64H2.87531V36.24C2.87531 37.56 3.95355 38.64 5.27139 38.64H10.3032C11.621 38.64 12.6993 37.56 12.6993 36.24V35.68C12.26 34.84 11.9804 33.88 11.9804 32.88V20.32C11.9804 17.88 13.458 15.76 15.5746 14.84V13.88C15.5746 12.56 14.4963 11.48 13.1785 11.48H2.39609C1.07824 11.48 0 12.56 0 13.88V24.24C0 25.56 1.0383 26.64 2.39609 26.64Z" fill="#3F92D1"/>
<path d="M46.0849 4.84C46.0849 7.515 43.9184 9.68 41.2528 9.68C38.5821 9.68 36.4207 7.515 36.4207 4.84C36.4207 2.165 38.5821 0 41.2528 0C43.9184 0 46.0849 2.165 46.0849 4.84Z" fill="#3F92D1"/>
<path d="M33.4255 13.8399V14.7999C35.5421 15.7199 37.0197 17.8399 37.0197 20.2799V32.7999C37.0197 33.7999 36.7801 34.7599 36.3008 35.5999V36.1599C36.3008 37.4799 37.3791 38.5599 38.6969 38.5599H43.7287C45.0466 38.5599 46.1248 37.4799 46.1248 36.1599V26.5599H46.604C47.9219 26.5599 49.0001 25.4799 49.0001 24.1599V13.8399C49.0001 12.5199 47.9219 11.4399 46.604 11.4399H35.8216C34.5038 11.4399 33.4255 12.5199 33.4255 13.8399Z" fill="#3F92D1"/>
<path d="M15.6145 20.3199V32.8799C15.6145 34.1999 16.6927 35.2799 18.0106 35.2799H18.9291V46.5999C18.9291 47.9199 20.0073 48.9999 21.3252 48.9999H27.7547C29.0725 48.9999 30.1508 47.9199 30.1508 46.5999V35.2399H31.0693C32.3871 35.2399 33.4654 34.1599 33.4654 32.8399V20.3199C33.4654 18.9999 32.3871 17.9199 31.0693 17.9199H18.0106C16.6528 17.9199 15.6145 18.9999 15.6145 20.3199Z" fill="#3F92D1"/>
<path d="M30.0709 10.3598C30.0709 13.4298 27.5849 15.9198 24.5199 15.9198C21.4549 15.9198 18.969 13.4298 18.969 10.3598C18.969 7.2898 21.4549 4.7998 24.5199 4.7998C27.5849 4.7998 30.0709 7.2898 30.0709 10.3598Z" fill="#3F92D1"/>
</svg>
