<svg width="52" height="51" viewBox="0 0 52 51" fill="none" xmlns="http://www.w3.org/2000/svg">
<path d="M25.7797 0.0146484C12.6107 0.0146494 13.433 5.63769 13.433 5.63769L13.4477 11.4631H26.0146V13.2122H8.45617C8.45617 13.2122 0.0292969 12.2712 0.0292969 25.3545C0.0292959 38.4377 7.38446 37.9738 7.38446 37.9738H11.7741V31.9026C11.7741 31.9026 11.5375 24.6606 19.0118 24.6606H31.4759C31.4759 24.6606 38.4788 24.7721 38.4788 17.9968V6.7941C38.4788 6.79409 39.542 0.0146484 25.7797 0.0146484ZM18.8503 3.93198C20.1006 3.93198 21.1112 4.92699 21.1112 6.15807C21.1112 7.38915 20.1006 8.38416 18.8503 8.38416C17.6 8.38416 16.5894 7.38915 16.5894 6.15807C16.5894 4.92699 17.6 3.93198 18.8503 3.93198Z" fill="url(#paint0_linear)"/>
<path d="M26.1539 50.8254C39.3229 50.8254 38.5006 45.2024 38.5006 45.2024L38.4859 39.377H25.919V37.6279H43.4774C43.4774 37.6279 51.9043 38.5689 51.9043 25.4856C51.9043 12.4023 44.5491 12.8663 44.5491 12.8663H40.1595V18.9374C40.1595 18.9374 40.3961 26.1794 32.9218 26.1794H20.4577C20.4577 26.1794 13.4548 26.068 13.4548 32.8433V44.046C13.4548 44.046 12.3916 50.8254 26.1539 50.8254ZM33.0833 46.9081C31.833 46.9081 30.8224 45.9131 30.8224 44.682C30.8224 43.4509 31.833 42.4559 33.0833 42.4559C34.3336 42.4559 35.3442 43.4509 35.3442 44.682C35.3442 45.9131 34.3336 46.9081 33.0833 46.9081Z" fill="url(#paint1_linear)"/>
<defs>
<linearGradient id="paint0_linear" x1="5.01457" y1="4.58494" x2="30.3273" y2="30.0367" gradientUnits="userSpaceOnUse">
<stop stop-color="#387EB8"/>
<stop offset="1" stop-color="#366994"/>
</linearGradient>
<linearGradient id="paint1_linear" x1="20.7939" y1="20.6764" x2="47.9965" y2="46.7936" gradientUnits="userSpaceOnUse">
<stop stop-color="#FFE052"/>
<stop offset="1" stop-color="#FFC331"/>
</linearGradient>
</defs>
</svg>
