<svg width="52" height="52" viewBox="0 0 52 52" fill="none" xmlns="http://www.w3.org/2000/svg">
<g clip-path="url(#clip0)">
<path d="M25.9999 30.6004C28.5644 30.6004 30.6434 28.5214 30.6434 25.9569C30.6434 23.3924 28.5644 21.3135 25.9999 21.3135C23.4354 21.3135 21.3564 23.3924 21.3564 25.9569C21.3564 28.5214 23.4354 30.6004 25.9999 30.6004Z" fill="#00D8FF"/>
<path fill-rule="evenodd" clip-rule="evenodd" d="M26.0002 16.5156C32.2346 16.5156 38.0263 17.4102 42.3932 18.9136C47.6547 20.725 50.8897 23.4706 50.8897 25.9567C50.8897 28.5475 47.4612 31.4643 41.8111 33.3364C37.5394 34.7516 31.9183 35.4904 26.0002 35.4904C19.9325 35.4904 14.1867 34.797 9.86697 33.3208C4.40167 31.4528 1.10986 28.4982 1.10986 25.9567C1.10986 23.4908 4.19859 20.7663 9.38612 18.9577C13.7693 17.4296 19.704 16.5156 25.9993 16.5156H26.0002Z" stroke="#00D8FF" stroke-width="2.73408"/>
<path fill-rule="evenodd" clip-rule="evenodd" d="M17.7814 21.2636C20.896 15.8629 24.5642 11.2927 28.0482 8.26081C32.2458 4.60783 36.2404 3.17723 38.394 4.4191C40.6384 5.71337 41.4523 10.1406 40.2514 15.9702C39.3443 20.3777 37.1752 25.6161 34.2187 30.7428C31.1873 35.9991 27.7163 40.6301 24.2799 43.6338C19.9314 47.4351 15.7273 48.8107 13.5258 47.5411C11.3895 46.31 10.5726 42.2725 11.5974 36.8751C12.4633 32.3147 14.6363 26.7171 17.7804 21.2635L17.7814 21.2636Z" stroke="#00D8FF" stroke-width="2.73408"/>
<path fill-rule="evenodd" clip-rule="evenodd" d="M17.7894 30.757C14.6659 25.3624 12.5394 19.9009 11.6517 15.3684C10.5832 9.90737 11.3387 5.73199 13.4903 4.4865C15.7325 3.18844 19.9746 4.69421 24.4254 8.64615C27.7905 11.634 31.2459 16.1284 34.2111 21.2503C37.2511 26.5015 39.5296 31.8216 40.4159 36.2989C41.5375 41.9648 40.6297 46.2939 38.4302 47.5672C36.2961 48.8027 32.3907 47.4946 28.2264 43.911C24.7079 40.8834 20.9436 36.2051 17.7894 30.7569V30.757Z" stroke="#00D8FF" stroke-width="2.73408"/>
</g>
<defs>
<clipPath id="clip0">
<rect width="52" height="52" fill="white"/>
</clipPath>
</defs>
</svg>
