<svg  width="543" height="541" viewBox="0 0 543 541" fill="none" xmlns="http://www.w3.org/2000/svg" class="services">
<g style="transform: translate(-76px, -13px)">
<circle class="bg"  cx="348.5" cy="284.5" r="270.5" fill="#C9E6F4"/>
<g class="bg-item" opacity="0">
<path d="M429.494 92.0289H377.062V146.692H429.494V92.0289Z" fill="#DFE0E0"/>
<path d="M426.148 92.0289H372.6V147.807H426.148V92.0289Z" fill="#FAFBFB"/>
<path d="M425.032 147.807H372.6V92.0289H425.032V147.807ZM372.633 147.807H424.999V92.0958H372.633V147.807Z" fill="#DFE0E0"/>
<path d="M419.454 99.8379H380.409V139.998H419.454V99.8379Z" fill="#FAFBFB"/>
<path d="M380.766 140.835C380.492 141.244 380.17 141.618 379.807 141.951C379.182 142.609 378.301 143.501 377.319 144.472C376.337 145.442 375.434 146.301 374.764 146.915C374.433 147.273 374.059 147.588 373.649 147.852C373.923 147.444 374.246 147.069 374.608 146.736C375.233 146.078 376.114 145.186 377.096 144.215C378.078 143.245 378.992 142.386 379.662 141.772C379.994 141.419 380.364 141.105 380.766 140.835Z" fill="#DFE0E0"/>
<path d="M419.845 140.735C420.254 141.008 420.629 141.33 420.96 141.694C421.618 142.319 422.511 143.2 423.47 144.182C424.43 145.163 425.3 146.067 425.913 146.736C426.272 147.07 426.591 147.444 426.862 147.852C426.453 147.577 426.079 147.255 425.746 146.893C425.088 146.268 424.184 145.387 423.214 144.405C422.243 143.423 421.384 142.508 420.771 141.85C420.42 141.516 420.109 141.141 419.845 140.735Z" fill="#DFE0E0"/>
<path d="M419.733 99.9383C420.017 99.5338 420.342 99.16 420.704 98.8227C421.328 98.1645 422.199 97.2721 423.191 96.3127C424.184 95.3533 425.077 94.4831 425.735 93.8696C426.07 93.5122 426.444 93.1941 426.85 92.9213C426.576 93.3298 426.254 93.7043 425.891 94.0369C425.266 94.6951 424.385 95.5876 423.403 96.5693C422.422 97.551 421.507 98.3988 420.838 99.0124C420.509 99.3657 420.138 99.6767 419.733 99.9383Z" fill="#DFE0E0"/>
<path d="M380.666 100.039C380.255 99.7624 379.881 99.4364 379.55 99.0681C378.892 98.4434 378 97.5733 377.029 96.5916C376.059 95.6099 375.2 94.7063 374.586 94.0369C374.235 93.6992 373.921 93.3253 373.649 92.9213C374.057 93.1959 374.432 93.518 374.764 93.8807C375.423 94.5055 376.315 95.3756 377.286 96.3685C378.256 97.3613 379.126 98.2538 379.74 98.9231C380.091 99.2576 380.402 99.632 380.666 100.039Z" fill="#DFE0E0"/>
<path d="M419.733 140.567V140.367C419.733 140.222 419.733 140.043 419.733 139.798C419.733 139.284 419.733 138.548 419.733 137.566C419.733 135.637 419.733 132.825 419.733 129.267C419.733 122.127 419.733 111.964 419.655 99.7933L419.8 99.9494H380.844L381.023 99.771C381.023 114.72 381.023 128.709 381.023 140.5L380.867 140.355L409.091 140.433H417.011H419.108H419.655C419.778 140.433 419.834 140.433 419.834 140.433H419.142H417.078H409.18L380.867 140.512H380.722V140.355C380.722 128.564 380.722 114.575 380.722 99.6259V99.4586H380.9H419.856H420.012V99.8379C420.012 112.109 419.956 122.25 419.934 129.4C419.934 132.948 419.934 135.748 419.934 137.667C419.934 138.615 419.934 139.34 419.934 139.842C419.934 140.076 419.934 140.255 419.934 140.389C419.934 140.523 419.744 140.567 419.733 140.567Z" fill="#DFE0E0"/>
<path d="M404.952 113.225H392.681V125.496H404.952V113.225Z" fill="#EBEBEB"/>
</g>
<g class="bg-item" opacity="0">
<path d="M246.831 115.355H171.697V193.68H246.831V115.355Z" fill="#DFE0E0"/>
<path d="M240.963 114.34H166.22V192.43H240.963V114.34Z" fill="#FAFBFB"/>
<path d="M241.778 193.702H166.588V115.333H241.778V193.702ZM166.633 193.702H241.733V115.378H166.633V193.702Z" fill="#DFE0E0"/>
<path d="M230.923 125.496H176.26V182.39H230.923V125.496Z" fill="#FAFBFB"/>
<path d="M176.717 183.506C176.33 184.087 175.873 184.619 175.356 185.09C174.475 186.016 173.248 187.265 171.865 188.626C170.481 189.987 169.21 191.203 168.273 192.062C167.801 192.564 167.269 193.006 166.688 193.378C167.077 192.808 167.53 192.284 168.038 191.817C168.92 190.891 170.147 189.585 171.541 188.269C172.936 186.953 174.196 185.681 175.133 184.822C175.609 184.324 176.141 183.882 176.717 183.506Z" fill="#DFE0E0"/>
<path d="M231.648 183.394C232.228 183.779 232.76 184.233 233.232 184.744C234.158 185.625 235.463 186.852 236.768 188.236C238.074 189.619 239.345 190.891 240.204 191.828C240.707 192.3 241.149 192.832 241.521 193.412C240.947 193.028 240.422 192.574 239.959 192.062C239.033 191.192 237.728 189.954 236.411 188.57C235.095 187.187 233.823 185.904 232.964 184.967C232.468 184.493 232.027 183.966 231.648 183.394Z" fill="#DFE0E0"/>
<path d="M231.503 126.031C231.894 125.459 232.347 124.932 232.853 124.459C233.734 123.533 234.961 122.283 236.345 120.922C237.728 119.561 239 118.345 239.937 117.486C240.415 116.987 240.946 116.542 241.521 116.159C241.141 116.736 240.692 117.264 240.182 117.732C239.301 118.658 238.063 119.907 236.679 121.279C235.296 122.651 234.013 123.856 233.076 124.715C232.613 125.222 232.084 125.665 231.503 126.031Z" fill="#DFE0E0"/>
<path d="M176.561 126.176C175.987 125.783 175.46 125.327 174.988 124.815C174.062 123.945 172.757 122.707 171.452 121.324C170.147 119.94 168.875 118.68 168.016 117.743C167.508 117.269 167.062 116.733 166.688 116.148C167.261 116.538 167.788 116.991 168.261 117.497C169.187 118.379 170.437 119.617 171.809 121C173.181 122.384 174.386 123.655 175.245 124.592C175.747 125.064 176.189 125.596 176.561 126.176Z" fill="#DFE0E0"/>
<path d="M231.503 183.149C231.492 183.056 231.492 182.962 231.503 182.87V182.078C231.503 181.353 231.503 180.326 231.503 178.976C231.503 176.266 231.503 172.283 231.447 167.308C231.447 157.267 231.447 142.988 231.347 125.886L231.559 126.098H176.773L177.008 125.864C177.008 146.881 177.008 166.549 177.008 183.126L176.807 182.914L216.476 183.026H227.632H230.588H227.677L216.588 183.082L176.784 183.193H176.573V182.981C176.573 166.404 176.573 146.736 176.573 125.719V125.474H176.818H231.604H231.816V125.686C231.816 142.843 231.726 157.178 231.704 167.241C231.704 172.238 231.704 176.165 231.648 178.865C231.648 180.192 231.648 181.208 231.648 181.922C231.648 182.245 231.648 182.502 231.648 182.691C231.648 182.881 231.503 183.149 231.503 183.149Z" fill="#DFE0E0"/>
<path d="M211.958 144.461H194.109V162.31H211.958V144.461Z" fill="#EBEBEB"/>
</g>
<g class="bg-item" opacity="0">
<path d="M526.549 137.767H448.459V219.204H526.549V137.767Z" fill="#DFE0E0"/>
<path d="M522.087 137.767H443.997V219.204H522.087V137.767Z" fill="#FAFBFB"/>
<path d="M522.767 219.728H444.153V137.767H522.767V219.728ZM444.209 219.728H522.723V137.834H444.209V219.728Z" fill="#DFE0E0"/>
<path d="M510.931 147.807H454.037V206.933H510.931V147.807Z" fill="#FAFBFB"/>
<path d="M454.74 209.097C454.33 209.695 453.855 210.245 453.323 210.737C452.408 211.707 451.092 213.024 449.675 214.44C448.258 215.857 446.897 217.129 445.927 218.032C445.431 218.559 444.873 219.024 444.265 219.416C444.667 218.815 445.138 218.265 445.67 217.776C446.585 216.805 447.901 215.489 449.329 214.061C450.757 212.633 452.107 211.373 453.089 210.469C453.58 209.945 454.135 209.484 454.74 209.097Z" fill="#DFE0E0"/>
<path d="M512.047 208.048C512.633 208.438 513.171 208.893 513.651 209.405C514.595 210.291 515.82 211.541 517.251 212.908C518.682 214.275 519.864 215.557 520.742 216.497C521.25 216.975 521.701 217.509 522.087 218.088C521.504 217.702 520.969 217.251 520.493 216.742C519.55 215.856 518.27 214.606 516.882 213.239C515.495 211.872 514.258 210.569 513.391 209.64C512.883 209.161 512.432 208.627 512.047 208.048Z" fill="#DFE0E0"/>
<path d="M512.047 147.807C512.437 147.221 512.892 146.683 513.403 146.203C514.29 145.259 515.539 144.034 516.906 142.603C518.274 141.172 519.555 139.99 520.495 139.112C520.975 138.605 521.509 138.154 522.087 137.767C521.702 138.354 521.246 138.89 520.73 139.361C519.854 140.304 518.594 141.53 517.227 142.972C515.86 144.414 514.567 145.596 513.627 146.463C513.157 146.976 512.626 147.428 512.047 147.807Z" fill="#DFE0E0"/>
<path d="M454.037 147.807C453.453 147.418 452.917 146.963 452.441 146.451C451.497 145.575 450.271 144.315 448.838 142.958C447.405 141.602 446.211 140.299 445.343 139.359C444.827 138.887 444.375 138.352 443.997 137.767C444.576 138.163 445.111 138.618 445.592 139.124C446.537 140 447.763 141.26 449.196 142.627C450.629 143.994 451.823 145.287 452.702 146.227C453.212 146.697 453.66 147.228 454.037 147.807Z" fill="#DFE0E0"/>
<path d="M510.634 208.026C510.634 208.026 510.634 207.926 510.634 207.736C510.634 207.547 510.634 207.258 510.634 206.901C510.634 206.155 510.634 205.075 510.634 203.672C510.634 200.844 510.634 196.724 510.579 191.49C510.579 181.023 510.513 166.113 510.458 148.253L510.678 148.475H454.257L454.509 148.219C454.509 170.167 454.509 190.689 454.509 207.992L454.29 207.77L495.15 207.881L506.634 207.937H509.667H506.678H495.249L454.246 208.048H454.037V207.825C454.037 190.522 454.037 169.966 454.037 148.052V147.807H454.29H510.711H510.931V148.019C510.931 165.935 510.854 180.901 510.821 191.446C510.821 196.657 510.821 200.755 510.766 203.572C510.766 204.953 510.766 206.022 510.766 206.756C510.766 207.102 510.766 207.369 510.766 207.569C510.76 207.73 510.715 207.887 510.634 208.026Z" fill="#DFE0E0"/>
<path d="M491.966 169.003H473.002V187.968H491.966V169.003Z" fill="#EBEBEB"/>
</g>
<g class="bg-item" opacity="0">
<path d="M169.567 411.082V450.127H227.92H292.279V411.082H169.567Z" fill="#F5F5F6"/>
<path d="M165.104 399.926V411.082H297.857V399.926H228.894H165.104Z" fill="#DFE0E0"/>
<path d="M231.244 451.242H292.484V411.138H296.742V399.926H228.692V410.1L231.244 451.242Z" fill="#DFE0E0"/>
<path d="M211.958 417.775H187.416V423.353H211.958V417.775Z" fill="#DFE0E0"/>
<path d="M215.305 431.162H184.069V443.433H215.305V431.162Z" fill="white"/>
</g>

<g class="person" style="opacity : 0">
<path d="M343.207 334.785C343.207 334.785 341.182 326.078 333.037 326.519C324.893 326.961 322.923 326.95 319.396 326.519C315.869 326.089 310.429 321.885 308.882 323.209C307.336 324.533 308.203 327.358 311.107 329.885C313.459 331.7 316.088 333.131 318.896 334.123L308.437 335.888C308.437 335.888 299.058 330.922 296.855 331.794C296.218 332.076 295.682 332.544 295.32 333.136C294.959 333.727 294.787 334.414 294.83 335.105C294.83 335.105 290.936 333.361 289.834 334.895C288.733 336.429 288.466 337.444 289.567 338.316C289.567 338.316 288.844 337.61 286.83 338.195C285.094 338.702 285.25 341.858 286.83 342.708L287.364 343.017C287.364 343.017 302.106 351.448 302.562 351.503C305.166 351.845 321.054 351.172 329.265 350.797C330.744 350.728 332.215 351.05 333.527 351.731C334.839 352.411 335.945 353.426 336.731 354.67L349.916 375.384L364.791 358.389L343.207 334.785Z" fill="#B48776"/>
<path d="M316.822 339.18C316.03 339.42 315.22 339.595 314.399 339.705C312.863 339.99 310.699 340.363 308.175 340.801H308.108H308.052L304.688 339.3L296.681 335.674L294.258 334.579C293.95 334.46 293.66 334.302 293.395 334.108C293.716 334.18 294.028 334.287 294.326 334.425C295.01 334.688 295.828 335.028 296.804 335.422L300.46 336.956L304.878 338.928L308.243 340.45H308.119C310.643 340.056 312.818 339.738 314.366 339.519C315.175 339.351 315.996 339.238 316.822 339.18Z" fill="#A66451"/>
<path d="M312.36 343.032C311.264 343.528 310.216 344.127 309.232 344.821C308.332 345.631 307.512 346.526 306.782 347.494C307.174 346.283 307.941 345.232 308.971 344.495C309.911 343.645 311.102 343.131 312.36 343.032Z" fill="#A66451"/>
<path d="M329.736 330.761C329.793 330.761 329.826 331.283 330.118 332.132C330.51 333.29 331.206 334.328 332.137 335.146L332.44 335.418L332.036 335.495C330.642 335.75 329.278 336.14 327.964 336.659C325.887 337.5 323.957 338.649 322.244 340.065C320.931 341.153 320.236 341.958 320.168 341.915C320.281 341.691 320.428 341.485 320.606 341.305C321.047 340.786 321.522 340.295 322.03 339.836C323.709 338.314 325.659 337.101 327.785 336.256C329.13 335.719 330.533 335.332 331.969 335.103L331.868 335.44C330.903 334.555 330.215 333.423 329.882 332.175C329.731 331.719 329.681 331.237 329.736 330.761Z" fill="#A66451"/>
<path d="M320.169 334.108C318.402 334.841 316.554 335.348 314.666 335.62C313.123 335.918 311.71 336.128 310.685 336.227C310.134 336.335 309.572 336.365 309.013 336.315C309.013 336.183 311.505 335.807 314.591 335.211L318.518 334.417C319.057 334.258 319.61 334.154 320.169 334.108Z" fill="#A66451"/>
<path d="M305.666 345.263C304.831 344.986 304.015 344.654 303.222 344.27C301.718 343.627 299.616 342.825 297.272 342.012C294.927 341.2 292.848 340.353 291.322 339.699C290.491 339.404 289.69 339.026 288.933 338.57C289.787 338.796 290.623 339.091 291.432 339.45L297.427 341.64C299.771 342.498 301.851 343.356 303.344 344.078C304.157 344.388 304.935 344.785 305.666 345.263Z" fill="#A66451"/>
<path d="M309.013 345.263C307.268 346.406 305.303 346.68 303.435 346.042C303.435 345.889 304.705 346.042 306.239 345.764C307.156 345.526 308.083 345.359 309.013 345.263Z" fill="#A66451"/>
<path d="M392.154 293.947C392.154 293.947 379.005 301.488 376.248 324.554C374.814 336.586 369.579 358.932 369.579 358.932L358.808 346.844L342.48 365.486C342.48 365.486 360.131 403.057 370.135 413.304C380.139 423.55 399.857 426.7 399.857 426.7L403.836 363.911L392.154 293.947Z" fill="#D65B61"/>
<path d="M491.905 283.642L461.543 278.329L422.855 280.248C422.855 280.248 390.661 293.559 392.27 294.025L385.987 356.142L401.529 386.169L397.688 450.127H504.472L498.921 405.658L491.928 352.06L505.194 393.545L507.203 450.116H536.933C540.063 425.48 541.051 391.249 541.051 391.249L516.784 312.083C513.466 301.049 506.136 291.655 496.235 285.75C494.861 284.913 493.412 284.207 491.905 283.642Z" fill="#D65B61"/>
<path d="M392.357 326.299C392.387 326.401 392.409 326.505 392.424 326.611C392.424 326.845 392.524 327.158 392.602 327.548C392.747 328.407 392.959 329.623 393.227 331.174C393.763 334.32 394.521 338.871 395.391 344.505C396.261 350.138 397.243 356.865 398.18 364.362C399.117 371.858 399.987 380.091 400.489 388.793C400.489 389.607 400.579 390.41 400.623 391.158C400.166 408.036 399.642 423.197 399.173 434.141C398.928 439.607 398.716 444.025 398.526 447.07L398.258 450.573C398.258 450.952 398.258 451.254 398.18 451.488C398.192 451.588 398.192 451.689 398.18 451.789V451.477C398.18 451.254 398.18 450.952 398.18 450.573C398.18 449.736 398.269 448.565 398.336 447.059C398.448 443.991 398.626 439.574 398.838 434.13C399.229 423.186 399.697 408.025 400.144 391.147C400.144 390.399 400.066 389.596 400.01 388.782C399.519 380.103 398.638 371.858 397.779 364.373C396.92 356.887 395.916 350.161 395.09 344.527C394.265 338.893 393.551 334.342 393.071 331.14C392.837 329.589 392.647 328.362 392.524 327.515L392.39 326.566C392.371 326.478 392.36 326.389 392.357 326.299Z" fill="#263137"/>
<path d="M485.853 328.53C485.807 328.406 485.777 328.278 485.763 328.148L485.571 327.057L485.436 326.238C485.436 325.933 485.436 325.605 485.368 325.256C485.29 324.455 485.26 323.649 485.278 322.845C485.278 322.397 485.278 321.928 485.278 321.448C485.278 320.968 485.368 320.455 485.425 319.931C485.536 318.832 485.709 317.739 485.943 316.657C487.043 311.62 489.32 306.894 492.6 302.843C493.304 301.967 494.056 301.129 494.853 300.333C495.236 299.962 495.586 299.58 495.98 299.242L497.106 298.314C497.732 297.787 498.387 297.292 499.066 296.83L499.889 296.252L500.621 295.826L501.635 295.248C501.752 295.174 501.876 295.112 502.006 295.063C502.006 295.063 501.905 295.172 501.691 295.325L500.711 295.968L500.013 296.427C499.754 296.601 499.494 296.819 499.213 297.027C498.65 297.474 497.974 297.932 497.32 298.554L496.261 299.493C495.89 299.82 495.552 300.202 495.135 300.584C494.38 301.315 493.671 302.199 492.882 303.094C489.666 307.112 487.419 311.776 486.303 316.745C486.059 317.826 485.871 318.919 485.74 320.018C485.684 320.531 485.605 321.033 485.571 321.513C485.537 321.993 485.571 322.452 485.515 322.899C485.447 323.783 485.515 324.58 485.515 325.278C485.515 325.627 485.515 325.954 485.515 326.26C485.515 326.566 485.582 326.827 485.605 327.078L485.718 328.17C485.875 328.41 485.875 328.53 485.853 328.53Z" fill="#263137"/>
<path d="M506.179 394.884C506.179 394.884 506.089 394.716 505.978 394.371C505.866 394.025 505.688 393.489 505.487 392.865C505.052 391.504 504.472 389.618 503.747 387.287C502.274 382.601 500.266 376.131 497.946 369.014C495.625 361.896 493.484 355.448 491.754 350.875C490.851 348.643 489.97 346.814 489.434 345.542C489.166 344.917 488.966 344.427 488.832 344.081C488.752 343.915 488.695 343.738 488.664 343.556C488.762 343.713 488.848 343.877 488.921 344.047L489.601 345.475C490.181 346.713 491.096 348.476 492.044 350.752C493.863 355.326 496.049 361.74 498.37 368.869C500.69 375.997 502.665 382.49 504.048 387.197C504.74 389.551 505.286 391.459 505.654 392.775C505.822 393.4 505.956 393.891 506.056 394.304C506.112 394.493 506.153 394.687 506.179 394.884Z" fill="#263137"/>
<path d="M528.68 392.898C528.68 392.976 527.564 392.641 525.634 392.351C520.726 391.587 515.703 392.138 511.076 393.947C509.302 394.638 508.265 395.207 508.231 395.129C508.439 394.945 508.672 394.791 508.923 394.672C509.578 394.288 510.256 393.946 510.953 393.646C515.595 391.65 520.728 391.091 525.69 392.039C526.445 392.177 527.19 392.363 527.921 392.597C528.185 392.669 528.439 392.77 528.68 392.898Z" fill="#263137"/>
<path d="M393.618 388.492C393.328 388.105 393.06 387.703 392.814 387.287C392.29 386.517 391.509 385.424 390.461 384.13C388.386 381.508 385.351 378.039 381.982 374.235C378.613 370.431 375.545 366.961 373.381 364.406C372.266 363.135 371.44 362.086 370.871 361.361C370.547 360.997 370.256 360.605 370.001 360.19C370.363 360.512 370.698 360.863 371.005 361.238L373.627 364.194L382.317 373.933C385.664 377.749 388.698 381.252 390.706 383.974C391.51 385.017 392.255 386.104 392.937 387.231C393.183 387.633 393.339 387.967 393.45 388.19C393.562 388.413 393.64 388.48 393.618 388.492Z" fill="#263137"/>
<g opacity="0.3">
<path opacity="0.3" d="M399.586 428.295C400.077 410.803 400.98 394.683 399.396 377.425C398.693 392.742 393.104 410.68 387.493 424.948L399.586 428.295Z" fill="#000105"/>
</g>
<g opacity="0.3">
<path opacity="0.3" d="M492.848 353.161C492.848 353.161 487.872 342.006 488.207 342.006C487.884 363.919 491.813 385.688 499.775 406.106L492.848 353.161Z" fill="#000105"/>
</g>
<path d="M479.16 412.197C478.973 412.348 478.771 412.479 478.557 412.588L476.806 413.603C475.3 414.496 473.113 415.834 470.425 417.429C467.736 419.025 464.557 421.033 460.931 423.085C457.004 425.343 452.9 427.28 448.66 428.875C444.417 430.499 439.936 431.411 435.396 431.575C433.406 431.591 431.425 431.313 429.517 430.749C427.853 430.237 426.298 429.42 424.932 428.34C422.926 426.794 421.481 424.636 420.815 422.193C420.646 421.533 420.556 420.855 420.548 420.174C420.521 419.94 420.521 419.704 420.548 419.471C420.579 420.375 420.71 421.273 420.938 422.148C421.658 424.519 423.111 426.601 425.088 428.094C426.426 429.121 427.937 429.899 429.55 430.392C431.426 430.926 433.368 431.185 435.318 431.162C439.808 430.973 444.239 430.057 448.437 428.451C452.677 426.869 456.787 424.959 460.73 422.74C464.356 420.709 467.558 418.768 470.269 417.162C472.979 415.555 475.188 414.295 476.728 413.447L478.524 412.499C478.729 412.384 478.941 412.284 479.16 412.197Z" fill="#263137"/>
<path d="M479.026 386.852C478.956 387.366 478.844 387.873 478.691 388.369C478.556 388.958 478.388 389.539 478.189 390.109C477.966 390.779 477.743 391.548 477.397 392.34C477.051 393.132 476.717 394.069 476.281 395.018C475.846 395.966 475.311 396.948 474.753 397.985C472.235 402.449 468.963 406.442 465.081 409.788C464.166 410.535 463.319 411.272 462.46 411.863C461.601 412.454 460.809 412.978 460.05 413.514C459.291 414.049 458.6 414.384 457.986 414.73C457.468 415.04 456.931 415.32 456.38 415.566C455.926 415.815 455.452 416.024 454.963 416.191C455.393 415.904 455.84 415.643 456.302 415.41C456.737 415.187 457.272 414.897 457.863 414.518C458.455 414.139 459.157 413.759 459.883 413.246C460.608 412.733 461.411 412.209 462.236 411.562C463.062 410.915 463.91 410.223 464.802 409.475C468.616 406.128 471.857 402.178 474.396 397.784C474.954 396.758 475.512 395.799 475.947 394.85C476.382 393.902 476.795 393.032 477.129 392.218C477.464 391.403 477.743 390.645 477.988 389.986C478.234 389.328 478.423 388.759 478.557 388.28C478.687 387.796 478.844 387.319 479.026 386.852Z" fill="#263137"/>
<path d="M392.68 346.369C392.68 346.481 388.38 345.595 383.172 344.361C377.963 343.127 373.663 342.038 373.716 341.926C373.769 341.814 378.016 342.689 383.225 343.923C388.433 345.157 392.702 346.246 392.68 346.369Z" fill="#FAFBFB"/>
<path d="M392.681 340.801C391.735 340.774 390.794 340.67 389.866 340.491C388.14 340.234 385.765 339.828 383.149 339.336L376.464 338.064C375.534 337.929 374.615 337.725 373.716 337.454C374.658 337.482 375.595 337.586 376.519 337.764C378.245 338.021 380.62 338.427 383.237 338.919L389.921 340.191C390.855 340.329 391.777 340.533 392.681 340.801Z" fill="#FAFBFB"/>
<path d="M486.11 342.508C486.11 342.63 466.621 342.586 442.602 342.396C418.584 342.207 399.095 341.972 399.095 341.85C399.095 341.727 418.584 341.771 442.602 341.95C466.621 342.128 486.11 342.374 486.11 342.508Z" fill="#FAFBFB"/>
<path d="M487.56 346.925C487.56 347.048 467.479 347.149 442.758 347.149C418.037 347.149 397.968 347.048 397.968 346.925C397.968 346.803 418.049 346.691 442.758 346.691C467.468 346.691 487.56 346.792 487.56 346.925Z" fill="#FAFBFB"/>
<path d="M522.939 336.428H523.049C523.049 336.528 522.972 336.428 522.918 336.484H522.841V336.394H523.202L522.95 336.495C521.374 337.075 514.808 339.351 507.048 342.352L495.611 346.814L492.153 348.164C491.735 348.357 491.298 348.506 490.851 348.61C491.246 348.375 491.66 348.173 492.087 348.008C492.886 347.639 494.046 347.137 495.502 346.524C498.391 345.286 502.408 343.634 506.895 341.917C514.655 338.893 521.287 336.774 522.918 336.339V336.439H522.819V336.35H522.896C522.95 336.35 522.994 336.35 523.016 336.417L522.939 336.428Z" fill="#FAFBFB"/>
<path d="M522.087 330.764C522.087 330.884 514.664 333.465 505.424 336.545C496.185 339.625 488.664 342.021 488.62 341.913C488.576 341.805 496.042 339.202 505.282 336.133C514.522 333.064 522.043 330.656 522.087 330.764Z" fill="#FAFBFB"/>
<path d="M465.05 279.445C465.096 279.67 465.122 279.9 465.128 280.13C465.187 280.795 465.205 281.463 465.184 282.13C465.09 284.591 464.569 287.018 463.641 289.303C462.269 292.704 460.06 295.713 457.215 298.057C453.657 300.888 449.297 302.556 444.739 302.831C440.18 303.106 435.648 301.975 431.768 299.593C428.646 297.6 426.077 294.869 424.291 291.647C423.099 289.488 422.287 287.144 421.888 284.717C421.782 284.058 421.719 283.394 421.698 282.727C421.681 282.495 421.681 282.263 421.698 282.031C421.746 282.257 421.78 282.486 421.799 282.716C421.854 283.376 421.943 284.033 422.067 284.683C422.527 287.073 423.376 289.372 424.582 291.492C426.38 294.631 428.928 297.287 432.003 299.229C435.816 301.548 440.258 302.654 444.728 302.395C449.197 302.136 453.478 300.525 456.992 297.781C459.801 295.476 461.999 292.528 463.396 289.193C464.327 286.938 464.886 284.55 465.05 282.119C465.05 281.257 465.106 280.594 465.05 280.141C465.03 279.909 465.03 279.676 465.05 279.445Z" fill="#FAFBFB"/>
<path d="M358.098 349.726C357.987 350.013 357.844 350.286 357.672 350.538C357.381 351.048 356.924 351.763 356.353 352.641C354.852 354.925 353.239 357.128 351.522 359.241C349.806 361.358 347.986 363.38 346.068 365.299C345.33 366.036 344.728 366.621 344.291 367C344.084 367.222 343.85 367.415 343.595 367.575C343.76 367.318 343.955 367.085 344.177 366.881L345.86 365.082C347.273 363.565 349.195 361.419 351.2 358.959C353.205 356.499 354.909 354.169 356.114 352.457L357.537 350.43C357.697 350.173 357.885 349.937 358.098 349.726Z" fill="#FAFBFB"/>
<g opacity="0.3">
<path opacity="0.3" d="M457.752 414.663C453.39 417.139 447.488 417.541 442.223 417.675C441.232 417.77 440.233 417.64 439.3 417.296C438.836 417.114 438.437 416.796 438.157 416.384C437.876 415.972 437.726 415.485 437.727 414.986C437.827 413.793 439.01 413.023 440.114 412.577C444.365 410.814 449.139 410.915 453.602 409.788C461.21 407.88 468.974 402.447 474.898 397.305C470.84 404.522 464.919 410.517 457.752 414.663Z" fill="#000105"/>
</g>
<path d="M440.685 299.462C435.797 299.07 431.238 296.826 427.927 293.181C424.616 289.537 422.8 284.763 422.843 279.822C422.843 274.96 422.932 271.067 422.932 271.067C422.932 271.067 407.381 268.636 407.193 252.966C407.004 237.296 409.694 201.317 409.694 201.317C418.535 197.49 428.229 196.109 437.776 197.317C447.324 198.525 456.378 202.277 464.006 208.187L466.308 209.983L461.571 281.306C461.399 283.885 460.72 286.405 459.574 288.719C458.428 291.032 456.837 293.093 454.894 294.782C452.951 296.472 450.695 297.755 448.255 298.558C445.816 299.362 443.243 299.669 440.685 299.462Z" fill="#B48776"/>
<path d="M423.47 271.457C430.709 271.591 437.823 269.568 443.908 265.645C443.908 265.645 439.077 276.935 423.437 275.518L423.47 271.457Z" fill="#A66451"/>
<path d="M464.697 226.368C464.968 226.262 475.574 223.321 475.224 233.561C474.875 243.8 464.089 241.36 464.077 241.019C464.066 240.678 464.697 226.368 464.697 226.368Z" fill="#B48776"/>
<path d="M467.436 237.27C467.436 237.27 467.597 237.408 467.88 237.557C468.277 237.746 468.728 237.769 469.14 237.621C470.149 237.259 471.087 235.577 471.158 233.735C471.207 232.859 471.069 231.982 470.754 231.169C470.678 230.851 470.531 230.557 470.326 230.311C470.121 230.065 469.863 229.874 469.574 229.753C469.382 229.695 469.176 229.709 468.993 229.792C468.809 229.876 468.658 230.024 468.566 230.211C468.434 230.488 468.485 230.701 468.434 230.711C468.384 230.722 468.233 230.531 468.323 230.115C468.38 229.861 468.524 229.637 468.727 229.487C468.862 229.386 469.014 229.315 469.175 229.276C469.336 229.238 469.502 229.234 469.665 229.264C470.06 229.359 470.425 229.559 470.726 229.846C471.026 230.134 471.251 230.497 471.38 230.903C471.766 231.804 471.935 232.791 471.874 233.778C471.753 235.832 470.694 237.727 469.282 238.111C469.019 238.181 468.745 238.187 468.479 238.13C468.214 238.073 467.964 237.954 467.749 237.781C467.446 237.525 467.396 237.291 467.436 237.27Z" fill="#A66451"/>
<path d="M415.84 227.013C415.839 227.591 416.064 228.147 416.465 228.563C416.867 228.98 417.415 229.224 417.993 229.244C418.278 229.268 418.565 229.235 418.838 229.146C419.11 229.057 419.361 228.913 419.576 228.725C419.792 228.536 419.967 228.306 420.092 228.049C420.217 227.791 420.288 227.511 420.302 227.225C420.302 226.646 420.078 226.09 419.676 225.674C419.275 225.258 418.727 225.014 418.149 224.994C417.864 224.971 417.577 225.005 417.306 225.095C417.035 225.185 416.784 225.328 416.569 225.516C416.353 225.704 416.178 225.934 416.053 226.191C415.928 226.448 415.855 226.727 415.84 227.013Z" fill="#263137"/>
<path d="M412.795 223.626C413.075 223.893 414.773 222.741 417.185 222.741C419.598 222.741 421.363 223.862 421.654 223.585C421.788 223.472 421.497 222.978 420.727 222.464C419.687 221.791 418.445 221.431 417.174 221.435C415.923 221.428 414.703 221.789 413.689 222.464C412.907 223.019 412.661 223.502 412.795 223.626Z" fill="#263137"/>
<path d="M438.966 227.559C438.965 228.14 439.191 228.697 439.595 229.114C439.999 229.53 440.55 229.773 441.13 229.791C441.414 229.813 441.7 229.779 441.971 229.689C442.242 229.599 442.492 229.456 442.706 229.267C442.92 229.079 443.095 228.85 443.219 228.593C443.343 228.336 443.414 228.056 443.428 227.771C443.428 227.193 443.204 226.637 442.802 226.221C442.401 225.805 441.853 225.561 441.275 225.54C440.99 225.518 440.703 225.552 440.432 225.642C440.16 225.732 439.91 225.875 439.694 226.063C439.479 226.251 439.304 226.48 439.179 226.738C439.054 226.995 438.981 227.274 438.966 227.559Z" fill="#263137"/>
<path d="M436.79 224.402C437.069 224.692 438.765 223.443 441.174 223.454C443.584 223.465 445.347 224.659 445.637 224.369C445.927 224.079 445.481 223.711 444.711 223.153C443.673 222.422 442.433 222.032 441.163 222.037C439.911 222.034 438.69 222.424 437.672 223.153C436.913 223.744 436.656 224.28 436.79 224.402Z" fill="#263137"/>
<path d="M427.34 241.408C426.165 241.005 424.946 240.766 423.714 240.698C423.146 240.698 422.608 240.521 422.505 240.1C422.456 239.469 422.59 238.838 422.887 238.292L424.571 233.635C426.917 226.982 428.611 221.559 428.353 221.437C428.094 221.315 426.007 226.627 423.673 233.258C423.104 234.888 422.567 236.451 422.061 237.937C421.702 238.673 421.596 239.521 421.761 240.333C421.841 240.551 421.968 240.746 422.132 240.902C422.295 241.058 422.49 241.171 422.701 241.231C423.015 241.322 423.338 241.37 423.662 241.375C424.882 241.55 426.118 241.561 427.34 241.408Z" fill="#263137"/>
<path d="M435.088 214.378C435.302 215.058 437.491 214.735 440.078 215.092C442.664 215.449 444.742 216.244 445.078 215.634C445.231 215.334 444.874 214.701 444.06 214.044C442.943 213.235 441.673 212.734 440.353 212.582C439.032 212.396 437.69 212.574 436.443 213.1C435.455 213.526 434.976 214.056 435.088 214.378Z" fill="#263137"/>
<path d="M413.911 215.656C414.313 216.109 415.888 215.656 417.781 215.656C419.673 215.656 421.27 215.961 421.64 215.489C421.799 215.258 421.545 214.804 420.847 214.369C419.908 213.856 418.816 213.599 417.71 213.628C416.603 213.658 415.532 213.974 414.63 214.536C413.954 214.98 413.795 215.443 413.911 215.656Z" fill="#263137"/>
<path d="M401.645 191.006C401.53 190.049 401.665 189.078 402.037 188.187C402.408 187.295 403.005 186.513 403.77 185.913C404.557 185.344 405.525 185.071 406.497 185.144C407.47 185.216 408.385 185.629 409.077 186.308C408.931 185.663 408.923 184.996 409.055 184.348C409.186 183.7 409.454 183.087 409.841 182.548C410.228 182.009 410.725 181.556 411.301 181.219C411.876 180.881 412.517 180.667 413.182 180.589C415.73 180.435 417.899 182.334 420.369 182.993C422.828 183.506 425.389 183.217 427.667 182.17C429.981 181.248 432.117 179.974 434.487 179.14C439.437 177.342 444.908 177.551 449.702 179.721C454.497 181.891 458.226 185.846 460.075 190.721C463.501 189.623 467.384 191.368 469.486 194.233C471.477 197.217 472.27 200.825 471.711 204.354C471.375 206.718 470.774 209.037 469.92 211.27C469.92 211.467 469.92 211.665 469.92 211.863C469.753 220.348 468.808 230.304 465.114 230.359C458.728 230.458 460.241 218.57 460.241 218.57C452.398 215.584 455.324 203.992 453.366 202.225C451.408 200.457 447.303 196.385 430.882 204.662C424.496 207.878 416.019 207.779 411.391 206.747L410.99 206.659H410.89L410.757 206.605C409.266 206.244 407.842 205.651 406.54 204.848C405.004 203.973 403.789 202.639 403.069 201.039C402.731 200.234 402.636 199.35 402.795 198.493C402.955 197.636 403.363 196.843 403.97 196.209C402.695 194.737 401.887 192.928 401.645 191.006Z" fill="#263137"/>
<path d="M425.364 248.549C425.699 249.495 426.169 250.39 426.76 251.207C427.055 251.615 427.436 251.956 427.877 252.209C428.318 252.461 428.809 252.619 429.317 252.671C429.862 252.666 430.398 252.53 430.877 252.275C431.356 252.02 431.763 251.653 432.063 251.207C432.64 250.291 432.908 249.221 432.827 248.148C432.827 247.193 432.329 246.044 431.355 245.978C430.944 245.967 430.536 246.057 430.17 246.239L425.032 248.202" fill="#A66451"/>
<path d="M427.085 253.335C427.959 253.391 428.835 253.276 429.668 252.995C430.515 252.651 431.212 251.992 431.624 251.144C431.848 250.63 431.97 250.073 431.981 249.507C431.991 248.942 431.891 248.38 431.687 247.857C431.569 247.591 431.425 247.337 431.258 247.101C431.07 246.893 431.101 246.904 430.892 246.937C430.683 246.97 430.379 247.145 430.118 247.255L429.323 247.594C428.277 248.033 427.347 248.416 426.552 248.69C425.722 249.114 424.832 249.395 423.917 249.522C424.639 248.922 425.447 248.445 426.311 248.109C427.075 247.715 427.985 247.277 429.009 246.795L429.794 246.422C430.076 246.302 430.296 246.17 430.683 246.039C430.913 245.957 431.163 245.957 431.394 246.039C431.607 246.134 431.792 246.29 431.927 246.488C432.149 246.784 432.336 247.108 432.481 247.452C432.743 248.098 432.864 248.796 432.837 249.497C432.81 250.198 432.635 250.884 432.324 251.505C431.799 252.513 430.916 253.264 429.867 253.598C429.189 253.82 428.466 253.847 427.775 253.674C427.284 253.554 427.064 253.389 427.085 253.335Z" fill="#263137"/>
<path d="M454.935 201.355C455.005 200.734 455.005 200.108 454.935 199.487C454.656 197.806 453.787 196.275 452.479 195.159C450.518 193.524 447.988 192.7 445.422 192.863C442.274 193.066 439.178 193.748 436.243 194.884C434.635 195.401 433.061 195.895 431.498 196.236C427.43 197.105 423.205 196.95 419.215 195.785C417.529 195.289 415.904 194.611 414.369 193.764C413.954 193.539 413.552 193.293 413.163 193.028C412.887 192.852 412.753 192.753 412.761 192.731C412.761 192.731 413.353 193.061 414.458 193.61C416.008 194.387 417.631 195.012 419.304 195.478C421.786 196.15 424.357 196.45 426.931 196.367C428.434 196.315 429.93 196.124 431.397 195.796C432.986 195.425 434.556 194.974 436.098 194.445C439.076 193.3 442.219 192.625 445.411 192.446C448.076 192.3 450.694 193.187 452.702 194.917C454.039 196.096 454.896 197.712 455.114 199.465C455.2 200.1 455.139 200.746 454.935 201.355Z" fill="#445962"/>
<path d="M465.19 227.013C465.113 226.912 465.048 226.801 464.996 226.683C464.883 226.463 464.73 226.134 464.557 225.705C464.052 224.47 463.669 223.181 463.413 221.86C463.028 219.9 462.904 217.891 463.046 215.894C463.314 213.476 463.741 211.083 464.322 208.73C464.884 206.403 464.884 203.96 464.322 201.632C464.048 200.641 463.581 199.724 462.954 198.94C462.393 198.286 461.692 197.788 460.913 197.49C459.766 197.019 458.493 197.055 457.371 197.589C456.979 197.825 456.61 198.101 456.268 198.413C456.525 197.996 456.877 197.656 457.289 197.424C457.861 197.121 458.483 196.943 459.119 196.902C459.755 196.86 460.393 196.956 460.994 197.182C461.84 197.478 462.605 197.995 463.219 198.688C463.896 199.501 464.404 200.46 464.71 201.5C465.303 203.898 465.303 206.421 464.71 208.818C464.149 211.156 463.729 213.53 463.454 215.927C463.299 217.89 463.389 219.867 463.72 221.805C463.955 223.113 464.297 224.396 464.74 225.639C465.016 226.518 465.22 226.991 465.19 227.013Z" fill="#445962"/>
<path d="M455.939 199.124C455.922 198.923 455.922 198.722 455.939 198.521C455.939 198.088 455.939 197.528 456.006 196.821C456.108 194.744 455.862 192.666 455.279 190.662C454.844 189.294 454.129 188.02 453.176 186.911C452.102 185.638 450.631 184.718 448.971 184.281C447.119 183.887 445.189 183.964 443.379 184.503C441.419 185.092 439.542 185.9 437.786 186.911C435.991 187.934 434.122 188.837 432.194 189.616C430.36 190.277 428.419 190.634 426.457 190.672C424.678 190.709 422.904 190.503 421.189 190.06C419.704 189.658 418.271 189.102 416.916 188.401C414.974 187.355 413.259 185.971 411.861 184.323C411.482 183.878 411.141 183.405 410.843 182.908C410.726 182.742 410.621 182.569 410.53 182.39C410.679 182.534 410.81 182.694 410.921 182.865C411.262 183.339 411.636 183.791 412.04 184.218C413.465 185.799 415.181 187.123 417.106 188.126C418.447 188.796 419.861 189.327 421.323 189.711C423.004 190.13 424.741 190.318 426.479 190.271C428.393 190.218 430.283 189.861 432.071 189.214C433.974 188.432 435.819 187.532 437.596 186.521C439.393 185.491 441.316 184.671 443.323 184.08C445.195 183.536 447.188 183.474 449.094 183.901C450.843 184.358 452.388 185.336 453.501 186.69C454.469 187.838 455.187 189.155 455.614 190.567C456.181 192.609 456.382 194.726 456.207 196.831C456.207 197.571 456.095 198.141 456.051 198.532C456.042 198.733 456.004 198.932 455.939 199.124Z" fill="#445962"/>
</g>
<path class="baseline" opacity="0" d="M547.745 451.786C547.745 452.086 459.831 452.358 351.41 452.358C242.989 452.358 155.064 452.086 155.064 451.786C155.064 451.487 242.956 451.242 351.41 451.242C459.864 451.242 547.745 451.487 547.745 451.786Z" fill="#263137"/>
<g class="bg-item" opacity="0">
<path d="M306.146 416.247C307.819 418.612 311.043 417.809 312.527 416.347C313.889 414.754 314.809 412.83 315.193 410.769C316.487 406.196 317.781 401.399 316.777 396.758C316.535 395.348 315.91 394.032 314.97 392.954C314.493 392.424 313.886 392.029 313.209 391.808C312.531 391.587 311.808 391.547 311.11 391.693C309.482 392.139 308.489 393.735 307.764 395.252C305.637 399.743 304.54 404.652 304.551 409.62C304.406 411.939 304.962 414.248 306.146 416.247Z" fill="#D65B61"/>
<g opacity="0.2">
<path opacity="0.2" d="M306.146 416.247C307.819 418.612 311.043 417.809 312.527 416.347C313.889 414.754 314.809 412.83 315.193 410.769C316.487 406.196 317.781 401.399 316.777 396.758C316.535 395.348 315.91 394.032 314.97 392.954C314.493 392.424 313.886 392.029 313.209 391.808C312.531 391.587 311.808 391.547 311.11 391.693C309.482 392.139 308.489 393.735 307.764 395.252C305.637 399.743 304.54 404.652 304.551 409.62C304.406 411.939 304.962 414.248 306.146 416.247Z" fill="#000105"/>
</g>
<path d="M312.037 428.106C314.698 426.768 317.694 426.371 320.583 426.975C322.176 427.107 323.68 427.8 324.857 428.943C325.925 430.176 326.128 432.337 324.931 433.411C324.153 433.976 323.211 434.232 322.271 434.135C320.017 434.135 317.507 433.717 315.712 435.165C314.644 435.991 314.013 437.359 312.785 437.778C312.17 437.926 311.527 437.861 310.949 437.592C310.372 437.323 309.892 436.865 309.58 436.285C308.987 435.091 308.853 433.701 309.206 432.405C309.334 431.506 309.656 430.65 310.147 429.904C310.638 429.159 311.285 428.543 312.037 428.106Z" fill="#D65B61"/>
<path d="M300.649 418.799C301.459 417.695 301.996 416.405 302.212 415.041C302.428 413.676 302.318 412.278 301.891 410.967C301.003 408.35 299.429 406.035 297.343 404.279C294.978 402.139 292.231 400.491 289.255 399.428C288.098 398.962 286.857 398.755 285.617 398.823C284.999 398.862 284.4 399.056 283.873 399.388C283.345 399.719 282.904 400.179 282.589 400.726C281.744 402.398 282.589 404.411 283.455 406.061C285.027 408.953 286.816 411.715 288.805 414.322C290.41 416.423 292.24 418.48 294.668 419.426C297.097 420.372 299.601 420.229 300.874 418.502" fill="#D65B61"/>
<path d="M305.706 451.242C305.795 450.889 305.843 450.527 305.85 450.163C305.917 449.4 306.005 448.449 306.116 447.312C306.249 445.912 306.46 444.521 306.749 443.144C307.122 441.461 307.635 439.811 308.281 438.209C308.911 436.609 309.771 435.104 310.834 433.739C311.699 432.627 312.811 431.719 314.086 431.082C314.948 430.659 315.873 430.371 316.827 430.229C317.202 430.216 317.574 430.166 317.937 430.078C317.569 430.036 317.196 430.036 316.827 430.078C315.834 430.155 314.864 430.408 313.964 430.823C312.625 431.448 311.451 432.365 310.534 433.501C309.432 434.888 308.542 436.423 307.892 438.058C307.235 439.681 306.726 441.358 306.372 443.068C306.099 444.467 305.918 445.88 305.828 447.301C305.739 448.51 305.706 449.461 305.695 450.163C305.653 450.522 305.657 450.884 305.706 451.242Z" fill="#263137"/>
<path d="M305.995 449.011C306.011 448.847 306.011 448.681 305.995 448.516C305.995 448.142 305.995 447.68 305.995 447.107C305.995 445.886 305.995 444.114 305.995 441.924C306.085 437.522 306.437 431.525 307.129 424.889C307.82 418.253 308.806 412.278 309.691 407.997C309.906 406.896 310.11 405.95 310.314 405.102C310.518 404.255 310.666 403.529 310.824 402.902C310.983 402.274 311.062 401.889 311.153 401.526C311.197 401.367 311.227 401.205 311.244 401.042C311.16 401.186 311.099 401.342 311.062 401.504C310.964 401.856 310.828 402.307 310.654 402.858C310.473 403.441 310.28 404.167 310.065 405.058C309.849 405.95 309.611 406.863 309.385 407.942C308.17 413.528 307.269 419.175 306.686 424.856C305.972 431.459 305.666 437.555 305.666 441.935C305.666 444.136 305.666 445.897 305.768 447.118C305.768 447.691 305.847 448.164 305.87 448.527C305.884 448.694 305.926 448.857 305.995 449.011Z" fill="#263137"/>
<path d="M305.638 436.74C305.676 436.252 305.676 435.762 305.638 435.274C305.572 434.344 305.442 432.976 305.17 431.313C304.83 429.38 304.387 427.466 303.845 425.58C303.191 423.253 302.374 420.976 301.401 418.764C299.719 414.69 297.311 410.96 294.296 407.758C293.773 407.21 293.218 406.695 292.634 406.216C292.373 405.997 292.156 405.789 291.917 405.614L291.276 405.176C290.888 404.881 290.477 404.618 290.048 404.388C291.457 405.499 292.8 406.694 294.068 407.966C296.977 411.191 299.32 414.891 300.999 418.907C301.962 421.1 302.778 423.355 303.443 425.657C304.084 427.78 304.529 429.727 304.844 431.368C305.16 433.009 305.333 434.366 305.442 435.296C305.48 435.781 305.545 436.263 305.638 436.74Z" fill="#263137"/>
</g>
<g class="box" opacity="0">
<path d="M323.515 316.258L286.701 314.712V278.329H323.515V316.258Z" fill="#D65B61"/>
<path d="M336.902 268.289H301.204V303.987H336.902V268.289Z" fill="#D65B61"/>
<path d="M322.924 315.399L337.482 304.891V268.155L322.924 278.664V315.399Z" fill="#D65B61"/>
<path d="M286.188 278.664L300.746 268.155H337.482L322.924 278.664H286.188Z" fill="#D65B61"/>
<path d="M323.515 316.258L338.018 303.429V268.289L322.4 278.858L323.515 316.258Z" fill="#D65B61"/>
</g>
<path opacity="0" d="M285.586 278.329L300.15 268.289H336.902L322.338 278.329H285.586Z" fill="white" class="box-border"/>
<path opacity="0" d="M323.515 316.258L338.018 304.545V268.289L323.515 277.502V316.258Z" fill="#000105" class="box-border"/>

<g class="box-lines">
<path opacity="0" class="box-line"  d="M342.186 306.218C342.444 306.903 342.534 307.624 342.449 308.338C342.239 308.687 342.449 308.436 342.344 308.512L342.239 308.578L342.042 308.698L341.647 308.927C341.398 309.08 341.161 309.201 340.964 309.299C340.57 309.506 340.293 309.605 340.254 309.55C340.215 309.496 340.399 309.321 340.74 309.048L341.345 308.611L341.726 308.359L341.923 308.228L342.028 308.163L341.923 308.338C341.839 307.624 341.928 306.903 342.186 306.218Z" fill="#D65B61"/>
<path opacity="0" class="box-line"  d="M341.922 296.178C342.666 297.652 342.666 299.167 341.922 300.64C341.178 299.167 341.178 297.652 341.922 296.178Z" fill="#D65B61"/>
<path opacity="0" class="box-line"  d="M341.922 287.254C342.666 288.727 342.666 290.242 341.922 291.716C341.178 290.242 341.178 288.727 341.922 287.254Z" fill="#D65B61"/>
<path opacity="0" class="box-line"  d="M341.922 278.329C342.666 279.803 342.666 281.318 341.922 282.791C341.178 281.318 341.178 279.803 341.922 278.329Z" fill="#D65B61"/>
<path opacity="0" class="box-line"  d="M341.922 268.289C342.666 269.763 342.666 271.278 341.922 272.751C341.178 271.278 341.178 269.763 341.922 268.289Z" fill="#D65B61"/>
<path opacity="0" class="box-line"  d="M340.249 261.84C340.894 261.624 341.578 261.55 342.254 261.622C342.668 262.047 342.368 261.747 342.461 261.84V262.223V262.595C342.461 262.833 342.461 263.05 342.461 263.237C342.461 263.599 342.368 263.827 342.316 263.827C342.265 263.827 342.202 263.599 342.161 263.237C342.161 263.05 342.161 262.833 342.161 262.595V261.84L342.368 262.047C341.655 262.129 340.932 262.059 340.249 261.84Z" fill="#D65B61"/>
<path opacity="0" class="box-line"  d="M331.324 262.167C332.426 261.405 333.569 261.405 334.671 262.167C333.568 262.892 332.427 262.892 331.324 262.167Z" fill="#D65B61"/>
<path opacity="0" class="box-line"  d="M323.515 262.167C324.616 261.405 325.761 261.405 326.862 262.167C325.759 262.892 324.618 262.892 323.515 262.167Z" fill="#D65B61"/>
<path opacity="0" class="box-line"  d="M314.591 262.167C315.692 261.405 316.836 261.405 317.938 262.167C316.835 262.892 315.693 262.892 314.591 262.167Z" fill="#D65B61"/>
<path opacity="0" class="box-line"  d="M306.782 262.167C307.883 261.405 309.027 261.405 310.128 262.167C309.026 262.892 307.884 262.892 306.782 262.167Z" fill="#D65B61"/>
<path  opacity="0" class="box-line" d="M298.973 262.695C298.973 262.607 299.096 262.238 299.379 261.729H299.445C299.738 261.729 300.135 261.641 300.561 261.641C301.155 261.518 301.755 261.644 302.319 262.01C301.753 262.355 301.154 262.474 300.561 262.361C300.135 262.361 299.738 262.361 299.445 262.361H299.54C299.237 262.484 299.01 262.783 298.973 262.695Z" fill="#D65B61"/>
<path  opacity="0" class="box-line" d="M292.286 267.153C292.204 267.078 292.88 266.506 293.801 265.897C294.722 265.288 295.538 264.847 295.619 264.96C295.701 265.072 295.025 265.597 294.104 266.216C293.183 266.834 292.368 267.275 292.286 267.153Z" fill="#D65B61"/>
<path  opacity="0" class="box-line" d="M285.593 272.751C285.511 272.666 286.187 272.101 287.108 271.48C288.029 270.858 288.844 270.425 288.926 270.538C289.008 270.651 288.332 271.188 287.411 271.8C286.891 272.214 286.273 272.538 285.593 272.751Z" fill="#D65B61"/>
<path  opacity="0" class="box-line" d="M281.407 279.445C281.149 278.77 281.066 278.061 281.162 277.36L281.257 277.199L281.366 277.135L281.57 277.006L281.95 276.769C282.208 276.619 282.439 276.479 282.643 276.383C282.846 276.286 283.308 276.06 283.349 276.103C283.39 276.146 283.213 276.34 282.887 276.619L282.276 277.07L281.909 277.328L281.705 277.468L281.61 277.532L281.705 277.36C281.785 278.064 281.684 278.773 281.407 279.445Z" fill="#D65B61"/>
<path  opacity="0" class="box-line" d="M281.369 288.235C281.14 287.561 281.057 286.847 281.124 286.138C281.059 285.415 281.143 284.686 281.369 283.996C281.594 284.69 281.667 285.425 281.581 286.149C281.649 286.852 281.577 287.561 281.369 288.235Z" fill="#D65B61"/>
<path  opacity="0" class="box-line" d="M281.28 296.825C280.982 295.409 280.982 293.946 281.28 292.53C281.577 293.946 281.577 295.409 281.28 296.825Z" fill="#D65B61"/>
<path  opacity="0" class="box-line" d="M281.202 305.415C280.978 304.721 280.905 303.987 280.99 303.262C280.925 302.539 281.009 301.81 281.235 301.12C281.454 301.815 281.526 302.549 281.447 303.273C281.512 303.996 281.428 304.725 281.202 305.415Z" fill="#D65B61"/>
<path  opacity="0" class="box-line" d="M281.124 314.027C280.913 313.33 280.845 312.598 280.923 311.874C280.858 311.151 280.942 310.422 281.168 309.732C281.466 311.149 281.466 312.611 281.168 314.027H281.124Z" fill="#D65B61"/>
<path  opacity="0" class="box-line" d="M282.239 319.398C281.584 319.591 280.896 319.65 280.217 319.572L280.008 319.357V318.58C280.008 318.345 280.008 318.13 280.06 317.946C280.06 317.589 280.164 317.374 280.217 317.374C280.269 317.374 280.331 317.589 280.363 317.957C280.363 318.13 280.363 318.345 280.363 318.58V319.347L280.154 319.132C280.86 319.074 281.571 319.165 282.239 319.398Z" fill="#D65B61"/>
<path  opacity="0" class="box-line" d="M290.048 320.2C289.505 320.683 288.931 320.832 288.366 320.638C287.802 320.771 287.236 320.569 286.701 320.046C287.808 319.41 288.95 319.463 290.048 320.2Z" fill="#D65B61"/>
<path  opacity="0" class="box-line" d="M297.857 320.246C296.751 320.931 295.609 320.874 294.51 320.08C295.617 319.395 296.759 319.452 297.857 320.246Z" fill="#D65B61"/>
<path opacity="0" class="box-line"  d="M306.782 320.235C306.24 320.687 305.668 320.826 305.104 320.642C304.539 320.785 303.969 320.597 303.435 320.091C303.977 319.639 304.549 319.5 305.113 319.684C305.678 319.561 306.246 319.749 306.782 320.235Z" fill="#D65B61"/>
<path  opacity="0" class="box-line" d="M314.591 321.397C313.484 322.031 312.342 321.978 311.244 321.242C311.785 320.757 312.358 320.608 312.922 320.806C313.487 320.671 314.055 320.872 314.591 321.397Z" fill="#D65B61"/>
<path  opacity="0" class="box-line" d="M322.4 321.351C321.859 321.801 321.289 321.94 320.726 321.76C320.16 321.899 319.589 321.71 319.053 321.207C319.593 320.755 320.164 320.616 320.726 320.799C321.293 320.674 321.862 320.862 322.4 321.351Z" fill="#D65B61"/>
<path opacity="0" class="box-line"  d="M330.204 316.27C330.272 316.36 329.591 316.929 328.672 317.537C327.753 318.146 326.948 318.535 326.868 318.485C326.789 318.435 327.481 317.827 328.4 317.218C329.319 316.61 330.125 316.181 330.204 316.27Z" fill="#D65B61"/>
<path opacity="0" class="box-line"  d="M336.896 311.808C336.976 311.898 336.281 312.468 335.371 313.078C334.85 313.502 334.234 313.825 333.562 314.027C333.482 313.937 334.165 313.368 335.087 312.758C336.008 312.148 336.816 311.718 336.896 311.808Z" fill="#D65B61"/>
</g>

<path  opacity="0" class="circle-4-line" d="M332.285 259.364C332.501 259.364 332.481 259.916 332.285 260.538C332.088 261.16 331.695 261.618 331.479 261.595C331.263 261.571 331.283 261.043 331.479 260.421C331.676 259.799 332.069 259.364 332.285 259.364Z" fill="#D65B61"/>
<path opacity="0" class="circle-4-line"  d="M335.786 250.44C335.745 251.979 335.365 253.495 334.671 254.902C334.713 253.363 335.092 251.846 335.786 250.44Z" fill="#D65B61"/>
<path opacity="0" class="circle-4-line"  d="M335.786 241.515C335.745 243.054 335.365 244.571 334.671 245.978C334.713 244.438 335.092 242.922 335.786 241.515Z" fill="#D65B61"/>
<path opacity="0" class="circle-4-line"  d="M338.018 232.591C337.976 234.13 337.603 235.646 336.919 237.053C336.858 236.289 336.963 235.521 337.228 234.794C337.334 234.02 337.602 233.272 338.018 232.591Z" fill="#D65B61"/>
<path opacity="0" class="circle-4-line"  d="M340.233 223.666C340.292 224.436 340.189 225.21 339.929 225.943C339.831 226.713 339.566 227.457 339.15 228.128C339.089 227.358 339.193 226.584 339.454 225.852C339.561 225.083 339.825 224.341 340.233 223.666Z" fill="#D65B61"/>
<path opacity="0" class="circle-4-line"  d="M342.48 214.742C342.453 216.283 342.079 217.802 341.382 219.204C341.32 218.438 341.424 217.667 341.69 216.939C341.795 216.166 342.064 215.42 342.48 214.742Z" fill="#D65B61"/>
<path opacity="0" class="circle-4-line" d="M343.441 208.05C343.657 208.05 343.637 208.601 343.441 209.222C343.244 209.844 342.851 210.313 342.635 210.277C342.419 210.242 342.438 209.726 342.635 209.105C342.831 208.484 343.224 208.015 343.441 208.05Z" fill="#D65B61"/>
<path opacity="0" class="circle-3-line" d="M297.899 260.48C298.016 260.48 298.345 260.853 298.626 261.451C298.908 262.048 299.049 262.583 298.931 262.695C298.814 262.807 298.485 262.322 298.204 261.724C297.922 261.127 297.781 260.48 297.899 260.48Z" fill="#D65B61"/>
<path opacity="0" class="circle-3-line" d="M294.51 252.671C294.644 252.671 295.259 253.326 295.846 254.249C296.306 254.785 296.611 255.387 296.742 256.015C296.608 256.065 295.993 255.36 295.406 254.437C294.946 253.901 294.641 253.299 294.51 252.671Z" fill="#D65B61"/>
<path opacity="0" class="circle-3-line" d="M291.164 244.864C291.297 244.815 291.912 245.517 292.5 246.446C292.962 246.98 293.267 247.58 293.395 248.206C293.261 248.256 292.647 247.544 292.059 246.624C291.597 246.091 291.292 245.491 291.164 244.864Z" fill="#D65B61"/>
<path opacity="0" class="circle-3-line" d="M286.701 237.055C286.835 237.006 287.45 237.718 288.037 238.637C288.499 239.171 288.804 239.771 288.933 240.397C288.799 240.447 288.184 239.735 287.597 238.815C287.135 238.282 286.83 237.682 286.701 237.055Z" fill="#D65B61"/>
<path opacity="0" class="circle-3-line" d="M283.355 229.247C283.475 229.188 284.103 229.902 284.691 230.825C285.15 231.361 285.455 231.962 285.586 232.591C285.452 232.591 284.838 231.936 284.25 231.013C283.79 230.477 283.485 229.876 283.355 229.247Z" fill="#D65B61"/>
<path opacity="0" class="circle-3-line" d="M278.893 222.551C279.026 222.551 279.641 223.204 280.229 224.135C280.69 224.669 280.995 225.27 281.124 225.897C280.99 225.897 280.376 225.234 279.788 224.313C279.326 223.779 279.021 223.178 278.893 222.551Z" fill="#D65B61"/>
<path opacity="0" class="circle-3-line" d="M275.546 214.742C275.679 214.742 276.294 215.404 276.882 216.325C277.344 216.859 277.648 217.459 277.777 218.086C277.643 218.135 277.029 217.423 276.441 216.503C275.979 215.969 275.674 215.369 275.546 214.742Z" fill="#D65B61"/>
<path opacity="0" class="circle-3-line" d="M272.199 206.935C272.333 206.886 272.947 207.597 273.535 208.517C273.995 209.051 274.3 209.651 274.43 210.277C274.297 210.326 273.682 209.624 273.094 208.695C272.632 208.161 272.327 207.562 272.199 206.935Z" fill="#D65B61"/>
<path opacity="0" class="circle-3-line" d="M269.276 201.957C269.388 201.957 269.7 202.292 269.968 202.827C270.236 203.363 270.37 203.842 270.258 203.943C270.146 204.043 269.834 203.608 269.566 203.073C269.299 202.537 269.176 202.013 269.276 201.957Z" fill="#D65B61"/>
<path opacity="0" class="circle-2-line" d="M230.923 273.497C230.923 273.783 230.409 273.938 229.781 273.835C229.153 273.731 228.639 273.394 228.696 273.109C228.753 272.823 229.21 272.668 229.838 272.797C230.466 272.927 230.923 273.212 230.923 273.497Z" fill="#D65B61"/>
<path opacity="0" class="circle-2-line" d="M238.732 273.678C237.236 274.084 235.717 273.833 234.27 272.94C235.765 272.534 237.285 272.785 238.732 273.678Z" fill="#D65B61"/>
<path opacity="0" class="circle-2-line" d="M247.657 274.803C246.161 275.194 244.644 274.944 243.194 274.066C244.69 273.643 246.21 273.894 247.657 274.803Z" fill="#D65B61"/>
<path opacity="0" class="circle-2-line" d="M256.581 275.926C255.085 276.308 253.569 276.053 252.119 275.175C253.614 274.761 255.134 275.016 256.581 275.926Z" fill="#D65B61"/>
<path opacity="0" class="circle-2-line" d="M265.506 275.828C264.774 276.149 264.014 276.184 263.275 275.931C262.511 275.987 261.749 275.734 261.043 275.19C261.78 274.913 262.538 274.913 263.275 275.19C264.034 275.116 264.794 275.333 265.506 275.828Z" fill="#D65B61"/>
<path opacity="0" class="circle-2-line" d="M274.43 277.02C272.934 277.435 271.415 277.18 269.968 276.271C271.464 275.888 272.98 276.143 274.43 277.02Z" fill="#D65B61"/>
<path opacity="0" class="circle-2-line" d="M281.124 276.848C281.124 277.13 280.622 277.284 280.008 277.182C279.395 277.079 278.893 276.745 278.893 276.463C278.893 276.181 279.395 276.027 280.008 276.13C280.622 276.232 281.135 276.566 281.124 276.848Z" fill="#D65B61"/>
<g class="circle-3" opacity="0">
<path d="M286.5 169.052C286.5 189.487 269.935 206.052 249.5 206.052C229.065 206.052 212.5 189.487 212.5 169.052C212.5 148.618 229.065 132.052 249.5 132.052C269.935 132.052 286.5 148.618 286.5 169.052Z" fill="white"  stroke="#D56C73"/>
<path d="M252.506 155.719C252.616 155.677 252.732 155.651 252.851 155.643C253.18 155.607 253.512 155.607 253.842 155.643C255.086 155.756 256.254 156.296 257.149 157.173C257.816 157.83 258.307 158.646 258.577 159.545C258.846 160.444 258.885 161.397 258.69 162.316C258.474 163.409 257.929 164.41 257.128 165.18C256.27 166.014 255.173 166.553 253.993 166.72C252.808 166.883 251.604 166.659 250.556 166.08C249.905 165.723 249.331 165.238 248.869 164.654C248.407 164.07 248.065 163.399 247.864 162.681C247.663 161.962 247.607 161.21 247.7 160.469C247.792 159.728 248.03 159.013 248.401 158.366C249.029 157.281 250.011 156.449 251.181 156.012C251.492 155.889 251.818 155.805 252.15 155.763C252.264 155.744 252.381 155.744 252.495 155.763C252.495 155.763 252.021 155.86 251.245 156.186C250.15 156.665 249.244 157.497 248.67 158.551C248.253 159.321 248.035 160.185 248.035 161.062C248.035 161.94 248.253 162.804 248.67 163.574C249.153 164.501 249.905 165.257 250.825 165.744C251.792 166.273 252.901 166.478 253.992 166.33C255.082 166.182 256.098 165.688 256.891 164.919C257.635 164.206 258.149 163.284 258.367 162.272C258.555 161.416 258.529 160.527 258.29 159.684C258.051 158.841 257.607 158.071 256.999 157.444C256.164 156.583 255.068 156.026 253.885 155.86C252.991 155.687 252.506 155.763 252.506 155.719Z" fill="#263137"/>
<path d="M254.798 147.477C254.767 147.421 254.742 147.361 254.721 147.3L254.491 146.759L253.646 144.549H253.723L248.654 145.289L248.753 145.19C248.676 146.129 248.588 147.168 248.5 148.295V148.372H248.434C247.415 148.809 246.456 149.377 245.582 150.063H245.516H245.439L242.609 148.936L242.795 148.88L239.712 153.002V152.781L241.709 155.167L241.775 155.245V155.355C241.351 156.379 241.07 157.458 240.941 158.559V158.67H240.831L237.946 159.775L238.066 159.565C238.286 161.167 238.527 162.88 238.768 164.67L238.582 164.493L241.665 164.758H241.786L241.841 164.88C242.264 165.9 242.821 166.859 243.497 167.73L243.574 167.841V167.951L242.29 170.791L242.224 170.526L246.306 173.653H246.032L248.401 171.653L248.5 171.564H248.621C249.637 171.981 250.703 172.263 251.792 172.404L251.978 172.548V172.636L252.044 172.824L252.187 173.188L252.45 173.918L252.988 175.376L252.757 175.233L257.826 174.548L257.64 174.746C257.727 173.697 257.826 172.669 257.914 171.642V171.509H258.034C259.05 171.084 260.005 170.527 260.876 169.852L260.975 169.774L261.096 169.83L263.904 171.122L263.652 171.189L266.757 167.089V167.343L264.771 164.946L264.694 164.857V164.747C265.117 163.722 265.401 162.644 265.539 161.543V161.432H265.649L268.556 160.327L268.435 160.526C268.194 158.725 267.975 157.035 267.766 155.421L267.909 155.565L264.837 155.278H264.738V155.189C264.315 154.162 263.758 153.196 263.081 152.317L263.027 152.25V152.162C263.498 151.134 263.915 150.206 264.321 149.333V149.499L260.273 146.35H260.47L258.078 148.339C257.306 148.011 256.506 147.755 255.687 147.577L255.072 147.455H254.875H254.984C255.191 147.472 255.396 147.502 255.599 147.543C256.434 147.682 257.251 147.915 258.034 148.239H257.958L260.306 146.217L260.371 146.162H260.437L264.53 149.267L264.606 149.322V149.422L263.334 152.261V152.118C264.035 153.01 264.611 153.995 265.045 155.046L264.914 154.946L267.997 155.211H268.15V155.344L268.852 160.46V160.603H268.71L265.824 161.708L265.945 161.554C265.805 162.693 265.513 163.808 265.078 164.868V164.659L267.064 167.045L267.174 167.167L267.075 167.299L263.981 171.41L263.871 171.542L263.718 171.476L260.909 170.183H261.128C260.23 170.888 259.241 171.468 258.188 171.907L258.331 171.719C258.232 172.747 258.144 173.785 258.056 174.824V175.001H257.881L252.801 175.697H252.626L252.571 175.531C252.384 175.056 252.209 174.57 252.022 174.083L251.759 173.343L251.616 172.979L251.55 172.802V172.702L251.726 172.846C250.595 172.706 249.488 172.412 248.434 171.973H248.665L246.207 174.006L246.076 174.117L245.933 174.017C244.539 172.912 243.157 171.874 241.862 170.89L241.72 170.78L241.797 170.625C242.246 169.642 242.685 168.68 243.08 167.785V168.006C242.382 167.104 241.806 166.112 241.369 165.056L241.544 165.189L238.461 164.902H238.297V164.736C238.066 162.968 237.836 161.233 237.616 159.631V159.465L237.77 159.41L240.667 158.305L240.546 158.46C240.693 157.321 240.988 156.207 241.424 155.145V155.333L239.449 152.935L239.361 152.836L239.438 152.714C240.535 151.289 241.632 149.919 242.554 148.626L242.63 148.527L242.74 148.582L245.56 149.886H245.406C246.299 149.193 247.281 148.624 248.325 148.195L248.248 148.295C248.358 147.19 248.456 146.085 248.544 145.201V145.113H248.632L253.712 144.461H253.778V144.516C254.107 145.444 254.37 146.173 254.546 146.726C254.622 146.969 254.688 147.146 254.743 147.3C254.766 147.358 254.785 147.417 254.798 147.477Z" fill="#263137"/>
<path fill-rule="evenodd" clip-rule="evenodd" d="M245.779 178.412C246.38 178.488 246.968 178.644 247.527 178.877L248.822 177.796L250.979 179.482L250.278 181.006C250.65 181.487 250.958 182.014 251.195 182.574L252.867 182.725L253.234 185.482L251.67 186.076C251.593 186.678 251.437 187.267 251.206 187.827L252.285 189.125L250.602 191.286L249.07 190.584C248.591 190.958 248.065 191.267 247.505 191.503L247.354 193.178L244.603 193.546L244.021 191.968C243.417 191.894 242.826 191.742 242.262 191.513L240.978 192.594L238.766 190.908L239.468 189.373C239.092 188.895 238.784 188.368 238.551 187.806L236.878 187.654L236.501 184.898L238.076 184.303C238.18 183.709 238.361 183.131 238.615 182.585L237.536 181.298L239.22 179.082L240.752 179.774C241.23 179.403 241.756 179.098 242.316 178.866L242.456 177.191L245.218 176.812L245.801 178.39L245.779 178.412ZM244.7 182.239C244.114 182.317 243.564 182.568 243.12 182.959C242.676 183.351 242.358 183.866 242.206 184.439C242.054 185.012 242.076 185.617 242.268 186.177C242.459 186.738 242.813 187.229 243.283 187.588C243.754 187.948 244.32 188.159 244.911 188.195C245.501 188.232 246.089 188.092 246.6 187.794C247.111 187.495 247.522 187.051 247.781 186.519C248.04 185.986 248.136 185.388 248.056 184.801C248.004 184.406 247.875 184.026 247.674 183.682C247.474 183.339 247.207 183.039 246.89 182.8C246.572 182.561 246.21 182.389 245.825 182.292C245.439 182.196 245.039 182.178 244.646 182.239H244.7Z" fill="#D65B61"/>
</g>

<g class="circle-4" opacity="0">
<path d="M390.5 172.052C390.5 192.487 373.935 209.052 353.5 209.052C333.065 209.052 316.5 192.487 316.5 172.052C316.5 151.618 333.065 135.052 353.5 135.052C373.935 135.052 390.5 151.618 390.5 172.052Z" fill="white" stroke="#D65B61"/>
<path d="M353.073 191.892C363.547 191.892 372.038 183.401 372.038 172.927C372.038 162.453 363.547 153.963 353.073 153.963C342.599 153.963 334.108 162.453 334.108 172.927C334.108 183.401 342.599 191.892 353.073 191.892Z" fill="#F5F5F6"/>
<path d="M334.759 171.131C334.759 171.131 334.759 171.241 334.759 171.438C334.759 171.634 334.759 171.962 334.759 172.334V172.99C334.759 173.231 334.759 173.493 334.835 173.778C334.877 174.436 334.969 175.09 335.11 175.735C335.435 177.513 336.031 179.231 336.875 180.831C337.967 182.955 339.456 184.851 341.261 186.418C343.618 188.462 346.452 189.881 349.503 190.544C352.554 191.208 355.724 191.093 358.719 190.213C359.574 189.972 360.41 189.669 361.22 189.305C362.044 188.925 362.839 188.487 363.599 187.993C364.365 187.49 365.098 186.939 365.793 186.342C366.493 185.71 367.149 185.03 367.755 184.308C369.012 182.835 370.023 181.17 370.749 179.376C372.285 175.666 372.554 171.554 371.517 167.676C371.032 165.8 370.251 164.014 369.203 162.384C368.693 161.591 368.128 160.835 367.514 160.12C366.9 159.429 366.236 158.782 365.529 158.185C364.836 157.6 364.103 157.063 363.336 156.577C359.258 154.075 354.375 153.222 349.687 154.192C344.998 155.161 340.858 157.88 338.114 161.793C337.07 163.271 336.254 164.897 335.691 166.615C335.472 167.237 335.297 167.873 335.164 168.518C335.11 168.802 335.033 169.054 334.989 169.294C334.945 169.535 334.934 169.754 334.901 169.95C334.901 170.322 334.813 170.607 334.781 170.836C334.748 171.066 334.726 171.131 334.726 171.131C334.709 171.03 334.709 170.927 334.726 170.825C334.726 170.606 334.726 170.311 334.802 169.939L334.868 169.283C334.912 169.043 334.967 168.78 335.033 168.496C335.143 167.839 335.304 167.192 335.515 166.561C336.056 164.817 336.858 163.166 337.895 161.662C339.265 159.653 341.012 157.927 343.038 156.577C345.495 154.927 348.31 153.881 351.252 153.526C354.634 153.112 358.066 153.614 361.187 154.981C362.02 155.334 362.826 155.747 363.599 156.216C366.03 157.709 368.083 159.741 369.598 162.154C370.679 163.814 371.482 165.639 371.977 167.556C372.483 169.533 372.683 171.576 372.57 173.614C372.409 175.647 371.943 177.645 371.188 179.54C370.445 181.379 369.408 183.085 368.117 184.592C367.494 185.327 366.823 186.021 366.111 186.67C365.385 187.276 364.623 187.839 363.83 188.354C363.063 188.837 362.264 189.268 361.439 189.644C360.608 190.005 359.755 190.312 358.884 190.563C354.634 191.796 350.086 191.505 346.029 189.741C341.972 187.977 338.663 184.851 336.678 180.907C335.838 179.279 335.257 177.53 334.956 175.724C334.828 175.071 334.751 174.409 334.726 173.745C334.726 173.46 334.671 173.198 334.671 172.957V172.29V171.394C334.69 171.303 334.719 171.215 334.759 171.131Z" fill="#263137"/>
<path d="M363.163 174.28C362.936 174.298 362.709 174.298 362.482 174.28H360.619C359.035 174.28 356.826 174.28 354.338 174.28H354.216V172.908C354.216 170.13 354.216 167.62 354.216 165.802C354.216 164.92 354.216 164.195 354.216 163.637C354.198 163.374 354.198 163.109 354.216 162.845C354.241 163.109 354.241 163.374 354.216 163.637C354.216 164.195 354.216 164.92 354.216 165.802C354.216 167.62 354.216 170.13 354.216 172.908V174.157L354.093 174.034C356.581 174.034 358.79 174.034 360.374 174.034H362.237C362.556 174.067 362.869 174.15 363.163 174.28Z" fill="#263137"/>
<path d="M354.166 156.732C354.688 157.276 354.863 157.84 354.682 158.4C354.86 158.963 354.686 159.531 354.166 160.079C353.7 159.528 353.54 158.962 353.693 158.4C353.538 157.84 353.698 157.278 354.166 156.732Z" fill="#263137"/>
<path d="M363.14 160.246C362.511 161.096 361.759 161.848 360.909 162.477C361.185 162.023 361.531 161.617 361.936 161.272C362.28 160.869 362.687 160.522 363.14 160.246Z" fill="#263137"/>
<path d="M368.249 165.824C367.85 166.172 367.408 166.469 366.933 166.705C366.502 167.018 366.033 167.277 365.539 167.475C365.889 167.067 366.318 166.733 366.799 166.493C367.238 166.185 367.73 165.958 368.249 165.824Z" fill="#263137"/>
<path d="M370.369 174.023C368.886 174.767 367.39 174.767 365.907 174.023C367.39 173.28 368.886 173.28 370.369 174.023Z" fill="#263137"/>
<path d="M339.133 174.023C338.022 174.767 336.898 174.767 335.787 174.023C336.898 173.28 338.022 173.28 339.133 174.023Z" fill="#263137"/>
<path d="M342.48 179.043C342.004 179.488 341.471 179.889 340.892 180.239C340.358 180.642 339.768 180.99 339.133 181.274C340.144 180.428 341.267 179.68 342.48 179.043Z" fill="#263137"/>
<path d="M348.058 184.621C347.733 185.211 347.36 185.777 346.942 186.315C346.614 186.89 346.241 187.442 345.827 187.968C346.026 187.339 346.335 186.743 346.741 186.203C347.088 185.616 347.532 185.083 348.058 184.621Z" fill="#263137"/>
<path d="M354.169 190.199C353.458 188.716 353.458 187.22 354.169 185.737C354.945 187.219 354.945 188.717 354.169 190.199Z" fill="#263137"/>
<path d="M363.675 186.852C362.988 186.619 362.362 186.292 361.826 185.889C361.235 185.536 360.728 185.107 360.329 184.621C360.909 184.973 361.465 185.347 361.996 185.741C362.915 186.366 363.709 186.852 363.675 186.852Z" fill="#263137"/>
<path d="M367.022 182.39C366.583 182.096 366.184 181.743 365.839 181.343C365.441 180.994 365.089 180.596 364.791 180.159C365.623 180.809 366.373 181.558 367.022 182.39Z" fill="#263137"/>
<path d="M342.48 166.772C342.035 166.485 341.633 166.138 341.287 165.739C340.881 165.395 340.531 164.991 340.249 164.541C340.691 164.83 341.093 165.178 341.442 165.574C341.847 165.919 342.197 166.323 342.48 166.772Z" fill="#263137"/>
<path d="M348.058 161.194C347.209 160.565 346.457 159.813 345.827 158.963C346.279 159.255 346.685 159.613 347.032 160.026C347.427 160.365 347.772 160.758 348.058 161.194Z" fill="#263137"/>
<path d="M368.969 166.667C374.514 166.667 379.009 162.172 379.009 156.627C379.009 151.082 374.514 146.587 368.969 146.587C363.424 146.587 358.929 151.082 358.929 156.627C358.929 162.172 363.424 166.667 368.969 166.667Z" fill="#D65B61"/>
<path d="M373.716 154.501C373.361 155.098 372.932 155.651 372.439 156.146C371.603 157.121 370.419 158.415 369.096 159.89L368.028 161.024L367.878 161.194L367.715 161.047C366.554 159.992 365.486 159.073 364.767 158.392C364.354 158.062 363.988 157.68 363.676 157.258C364.14 157.518 364.573 157.83 364.964 158.188C365.742 158.8 366.81 159.685 368.017 160.718H367.692L368.748 159.583C370.071 158.131 371.29 156.849 372.23 155.93C372.674 155.405 373.172 154.926 373.716 154.501Z" fill="#FAFBFB"/>
</g>
<path  opacity="0" class="circle-1-line"  d="M277.785 322.952C277.693 322.849 278.375 322.012 279.301 321.086C280.226 320.159 281.036 319.503 281.117 319.618C281.198 319.734 280.527 320.558 279.613 321.472C279.097 322.094 278.476 322.597 277.785 322.952Z" fill="#D65B61"/>
<path  opacity="0" class="circle-1-line"  d="M271.092 328.53C270.999 328.427 271.682 327.59 272.596 326.664C273.51 325.737 274.343 325.08 274.424 325.196C274.505 325.312 273.834 326.136 272.92 327.05C272.404 327.672 271.783 328.175 271.092 328.53Z" fill="#D65B61"/>
<path  opacity="0" class="circle-1-line"  d="M264.399 335.21C264.306 335.107 264.989 334.274 265.902 333.351C266.816 332.428 267.649 331.774 267.73 331.89C267.811 332.005 267.14 332.825 266.215 333.748C265.289 334.672 264.48 335.325 264.399 335.21Z" fill="#D65B61"/>
<path  opacity="0" class="circle-1-line"  d="M257.705 340.792C257.612 340.69 258.295 339.855 259.209 338.931C260.123 338.007 260.956 337.352 261.037 337.467C261.118 337.583 260.447 338.405 259.521 339.329C258.596 340.253 257.786 340.882 257.705 340.792Z" fill="#D65B61"/>
<path  opacity="0" class="circle-1-line"  d="M252.125 346.366C252.044 346.263 252.725 345.43 253.636 344.519C254.547 343.609 255.378 342.929 255.459 343.045C255.54 343.16 254.87 343.981 253.948 344.904C253.025 345.827 252.125 346.481 252.125 346.366Z" fill="#D65B61"/>

<g class="circle-1" opacity="0">
<path d="M262.5 376.052C262.5 396.487 245.935 413.052 225.5 413.052C205.065 413.052 188.5 396.487 188.5 376.052C188.5 355.618 205.065 339.052 225.5 339.052C245.935 339.052 262.5 355.618 262.5 376.052Z" fill="white" stroke="#D56C73"/>
<path d="M246.541 394.192C246.298 394.211 246.055 394.211 245.812 394.192H243.724L235.993 394.27L210.655 394.348H208.612V394.103C208.612 384.552 208.667 375.993 208.689 369.763C208.689 366.698 208.744 364.19 208.766 362.44C208.766 361.616 208.766 360.958 208.766 360.457C208.741 360.227 208.741 359.995 208.766 359.766C208.785 359.996 208.785 360.227 208.766 360.457C208.766 360.958 208.766 361.571 208.766 362.44C208.766 364.212 208.766 366.698 208.844 369.763C208.844 375.993 208.844 384.552 208.921 394.103L208.678 393.858H210.478L235.816 393.936L243.548 394.003L245.635 394.059C245.942 394.062 246.246 394.107 246.541 394.192Z" fill="#263137"/>
<path d="M243.194 367.575C242.855 367.968 242.483 368.334 242.082 368.666L238.88 371.417C236.167 373.731 232.398 376.875 228.217 380.379L227.584 380.903L227.417 381.044L227.261 380.903L222.513 376.536H222.814L215.842 382.18L213.83 383.773C213.597 383.977 213.344 384.156 213.074 384.308C213.277 384.075 213.5 383.859 213.741 383.664L215.675 381.983L222.536 376.209L222.68 376.078L222.836 376.22L227.595 380.52H227.283L227.917 379.997C232.098 376.525 235.9 373.393 238.669 371.144L242.004 368.502C242.382 368.17 242.779 367.86 243.194 367.575Z" fill="#263137"/>
<path d="M242.957 375.384C242.833 374.654 242.783 373.914 242.805 373.175C242.805 371.806 242.73 369.918 242.73 367.803L242.957 368.031H242.568C240.277 368.031 238.246 368.031 236.701 367.958C235.887 367.987 235.072 367.934 234.27 367.803C235.073 367.677 235.887 367.625 236.701 367.647C238.203 367.647 240.277 367.575 242.568 367.575H243.194V367.792C243.194 369.867 243.194 371.795 243.119 373.164C243.15 373.908 243.095 374.652 242.957 375.384Z" fill="#263137"/>
</g>
<g class="circle-2" opacity="0">
<path d="M242.957 375.384C242.833 374.654 242.783 373.914 242.805 373.175C242.805 371.806 242.73 369.918 242.73 367.803L242.957 368.031H242.568C240.277 368.031 238.246 368.031 236.701 367.958C235.887 367.987 235.072 367.934 234.27 367.803C235.073 367.677 235.887 367.625 236.701 367.647C238.203 367.647 240.277 367.575 242.568 367.575H243.194V367.792C243.194 369.867 243.194 371.795 243.119 373.164C243.15 373.908 243.095 374.652 242.957 375.384Z" fill="#263137"/>
<path d="M227.641 279.793C232.687 259.354 220.21 238.694 199.771 233.648C179.332 228.601 158.672 241.079 153.625 261.517C148.579 281.956 161.056 302.616 181.495 307.663C201.934 312.709 222.594 300.232 227.641 279.793Z" fill="white"/>
<path d="M191.621 254.065L195.749 262.432C195.829 262.588 195.944 262.722 196.086 262.825C196.227 262.928 196.391 262.996 196.563 263.023L205.789 264.362C205.98 264.403 206.156 264.493 206.301 264.623C206.446 264.753 206.554 264.919 206.615 265.104C206.676 265.289 206.687 265.487 206.648 265.678C206.609 265.868 206.52 266.046 206.391 266.192L199.687 272.751C199.563 272.875 199.47 273.027 199.416 273.194C199.362 273.36 199.348 273.537 199.375 273.711L200.947 282.903C200.963 283.094 200.929 283.287 200.848 283.461C200.767 283.636 200.643 283.786 200.487 283.898C200.331 284.011 200.149 284.081 199.958 284.102C199.767 284.123 199.574 284.094 199.397 284.018L191.13 279.668C190.976 279.591 190.806 279.551 190.634 279.551C190.462 279.551 190.292 279.591 190.138 279.668L181.871 284.018C181.695 284.094 181.501 284.123 181.31 284.102C181.119 284.081 180.937 284.011 180.781 283.898C180.625 283.786 180.501 283.636 180.42 283.461C180.339 283.287 180.305 283.094 180.321 282.903L181.894 273.711C181.921 273.537 181.906 273.36 181.852 273.194C181.798 273.027 181.705 272.875 181.581 272.751L174.888 266.236C174.759 266.09 174.67 265.913 174.631 265.722C174.592 265.532 174.603 265.334 174.664 265.149C174.725 264.964 174.833 264.798 174.978 264.668C175.123 264.537 175.3 264.448 175.49 264.407L184.716 263.068C184.889 263.04 185.052 262.972 185.194 262.87C185.335 262.767 185.45 262.632 185.53 262.477L189.658 254.11C189.749 253.931 189.888 253.779 190.058 253.672C190.229 253.565 190.425 253.506 190.626 253.502C190.828 253.497 191.026 253.547 191.202 253.646C191.377 253.746 191.522 253.89 191.621 254.065Z" fill="#FAFBFB"/>
<path d="M191.621 254.065C191.621 254.065 191.566 253.976 191.443 253.842C191.352 253.743 191.241 253.664 191.119 253.608C190.996 253.552 190.864 253.522 190.729 253.519C190.512 253.509 190.298 253.566 190.115 253.685C189.933 253.803 189.793 253.975 189.714 254.177L188.911 255.85L186.679 260.435L185.999 261.83L185.642 262.555C185.484 262.83 185.229 263.037 184.928 263.135C183.812 263.325 182.63 263.481 181.38 263.67L177.509 264.251L175.457 264.563C175.312 264.598 175.178 264.67 175.068 264.77C174.958 264.87 174.874 264.997 174.826 265.138C174.777 265.279 174.764 265.429 174.789 265.577C174.813 265.724 174.874 265.862 174.966 265.98L181.659 272.506C181.841 272.667 181.976 272.875 182.048 273.107C182.121 273.339 182.129 273.586 182.072 273.822C181.994 274.235 181.927 274.648 181.86 275.06L181.425 277.593C181.135 279.3 180.834 281.04 180.533 282.814C180.488 282.992 180.5 283.179 180.568 283.349C180.637 283.52 180.757 283.664 180.912 283.762C181.064 283.86 181.244 283.907 181.425 283.896C181.62 283.864 181.806 283.792 181.972 283.684L184.426 282.39L189.424 279.768L190.06 279.433C190.317 279.3 190.614 279.265 190.896 279.333C191.143 279.406 191.379 279.511 191.599 279.645L192.224 279.969L194.711 281.285L199.553 283.829C199.718 283.899 199.9 283.915 200.075 283.875C200.249 283.835 200.406 283.741 200.524 283.606C200.636 283.472 200.709 283.31 200.736 283.137C200.738 282.934 200.716 282.732 200.669 282.535C200.512 281.665 200.367 280.806 200.222 279.947C199.932 278.251 199.653 276.6 199.375 274.949L199.163 273.733C199.121 273.5 199.143 273.26 199.225 273.039C199.308 272.817 199.448 272.622 199.631 272.472L201.338 270.81L204.607 267.642L206.168 266.136C206.282 266.042 206.371 265.922 206.428 265.786C206.485 265.651 206.509 265.503 206.497 265.356C206.485 265.21 206.437 265.068 206.359 264.943C206.28 264.819 206.173 264.715 206.046 264.641C205.748 264.53 205.436 264.463 205.12 264.44L204.149 264.295L202.242 264.016L198.716 263.492L197.099 263.247C196.831 263.247 196.597 263.18 196.307 263.102C196.037 263.013 195.807 262.831 195.66 262.588L193.429 257.992C192.837 256.754 192.369 255.761 192.045 255.092L191.688 254.333C191.642 254.249 191.608 254.159 191.588 254.065C191.641 254.144 191.689 254.226 191.733 254.311L192.123 255.058L193.585 257.925L195.872 262.454C195.988 262.646 196.171 262.789 196.385 262.856C196.597 262.912 196.887 262.934 197.143 262.979L198.761 263.202L202.297 263.704L204.194 263.972L205.176 264.106C205.532 264.124 205.883 264.203 206.213 264.34C206.39 264.437 206.541 264.577 206.652 264.746C206.763 264.915 206.83 265.109 206.849 265.31C206.873 265.518 206.845 265.728 206.769 265.922C206.694 266.116 206.572 266.289 206.414 266.426L204.874 267.943L201.617 271.122L199.91 272.796C199.775 272.9 199.671 273.039 199.612 273.199C199.553 273.359 199.54 273.533 199.575 273.699C199.642 274.101 199.709 274.503 199.787 274.915C200.066 276.544 200.356 278.262 200.646 279.913C200.791 280.761 200.948 281.62 201.093 282.49C201.15 282.727 201.177 282.971 201.171 283.215C201.145 283.483 201.032 283.734 200.847 283.929C200.67 284.135 200.431 284.279 200.166 284.339C199.901 284.399 199.624 284.373 199.375 284.264L194.533 281.676L192.045 280.371L191.421 280.047C191.239 279.931 191.044 279.838 190.84 279.768C190.652 279.734 190.458 279.758 190.283 279.835L189.658 280.17L184.66 282.791L182.217 284.074C181.998 284.214 181.75 284.302 181.492 284.331C181.218 284.36 180.942 284.293 180.711 284.141C180.482 283.995 180.304 283.781 180.2 283.53C180.096 283.278 180.072 283.001 180.131 282.736C180.443 280.962 180.745 279.233 181.035 277.526C181.18 276.667 181.325 275.83 181.47 274.993C181.548 274.581 181.615 274.168 181.693 273.755C181.742 273.586 181.741 273.406 181.689 273.238C181.638 273.069 181.538 272.92 181.403 272.807L174.709 266.214C174.577 266.046 174.49 265.848 174.455 265.637C174.42 265.427 174.438 265.211 174.509 265.009C174.578 264.809 174.697 264.63 174.856 264.49C175.014 264.349 175.205 264.251 175.412 264.206L177.487 263.905L181.369 263.358L184.883 262.856C185.116 262.784 185.315 262.63 185.441 262.421C185.553 262.176 185.675 261.941 185.798 261.707L186.49 260.324C187.371 258.561 188.141 256.977 188.721 255.783L189.558 254.121C189.647 253.903 189.802 253.718 190.003 253.594C190.203 253.47 190.438 253.412 190.673 253.43C190.818 253.437 190.96 253.476 191.089 253.543C191.218 253.611 191.331 253.705 191.421 253.82C191.506 253.884 191.575 253.968 191.621 254.065Z" fill="#263137"/>
<path d="M228.5 271.052C228.5 292.039 211.487 309.052 190.5 309.052C169.513 309.052 152.5 292.039 152.5 271.052C152.5 250.065 169.513 233.052 190.5 233.052C211.487 233.052 228.5 250.065 228.5 271.052Z" fill="white" stroke="#D65B61"/>
<path d="M191.621 257.065L195.749 265.432C195.829 265.588 195.944 265.722 196.086 265.825C196.227 265.928 196.391 265.996 196.563 266.023L205.789 267.362C205.98 267.403 206.156 267.493 206.301 267.623C206.446 267.753 206.554 267.919 206.615 268.104C206.676 268.289 206.687 268.487 206.648 268.678C206.609 268.869 206.52 269.046 206.391 269.192L199.687 275.751C199.563 275.875 199.47 276.027 199.416 276.194C199.362 276.36 199.348 276.537 199.375 276.711L200.947 285.903C200.963 286.094 200.929 286.287 200.848 286.461C200.767 286.636 200.643 286.786 200.487 286.898C200.331 287.011 200.149 287.081 199.958 287.102C199.767 287.123 199.574 287.094 199.397 287.019L191.13 282.668C190.976 282.591 190.806 282.551 190.634 282.551C190.462 282.551 190.292 282.591 190.138 282.668L181.871 287.019C181.695 287.094 181.501 287.123 181.31 287.102C181.119 287.081 180.937 287.011 180.781 286.898C180.625 286.786 180.501 286.636 180.42 286.461C180.339 286.287 180.305 286.094 180.321 285.903L181.894 276.711C181.921 276.537 181.906 276.36 181.852 276.194C181.798 276.027 181.705 275.875 181.581 275.751L174.888 269.236C174.759 269.09 174.67 268.913 174.631 268.722C174.592 268.532 174.603 268.334 174.664 268.149C174.725 267.964 174.833 267.798 174.978 267.668C175.123 267.538 175.3 267.448 175.49 267.407L184.716 266.068C184.889 266.04 185.052 265.972 185.194 265.87C185.335 265.767 185.45 265.632 185.53 265.477L189.658 257.11C189.749 256.931 189.888 256.779 190.058 256.672C190.229 256.565 190.425 256.506 190.626 256.502C190.828 256.497 191.026 256.547 191.202 256.646C191.377 256.746 191.522 256.89 191.621 257.065Z" fill="#FAFBFB"/>
<path d="M191.177 256.293C191.177 256.293 191.121 256.206 190.998 256.076C190.907 255.979 190.797 255.902 190.675 255.848C190.553 255.794 190.42 255.764 190.286 255.761C190.07 255.751 189.856 255.807 189.674 255.922C189.492 256.037 189.352 256.205 189.273 256.401L188.471 258.03L186.245 262.493L185.566 263.851L185.21 264.556C185.052 264.824 184.798 265.025 184.497 265.121C183.384 265.306 182.204 265.458 180.957 265.642L177.094 266.207L175.046 266.511C174.901 266.546 174.768 266.615 174.658 266.712C174.548 266.81 174.465 266.933 174.416 267.07C174.367 267.208 174.355 267.354 174.379 267.498C174.404 267.641 174.464 267.776 174.556 267.89L181.235 274.242C181.417 274.399 181.551 274.602 181.624 274.827C181.696 275.053 181.704 275.294 181.647 275.524C181.569 275.926 181.503 276.327 181.436 276.729L181.002 279.194C180.712 280.855 180.412 282.549 180.111 284.276C180.066 284.449 180.079 284.632 180.147 284.797C180.215 284.963 180.335 285.104 180.49 285.199C180.642 285.295 180.821 285.34 181.002 285.329C181.196 285.299 181.382 285.228 181.547 285.123L183.996 283.863L188.983 281.312L189.618 280.986C189.875 280.856 190.172 280.822 190.453 280.888C190.699 280.959 190.935 281.061 191.154 281.192L191.778 281.507L194.26 282.788L199.092 285.264C199.256 285.332 199.438 285.348 199.612 285.309C199.786 285.27 199.943 285.178 200.06 285.047C200.172 284.917 200.246 284.759 200.272 284.591C200.274 284.394 200.252 284.197 200.205 284.005C200.049 283.158 199.904 282.321 199.76 281.485C199.47 279.835 199.192 278.228 198.913 276.621L198.702 275.437C198.661 275.21 198.682 274.977 198.765 274.761C198.847 274.546 198.987 274.355 199.17 274.21L200.873 272.592L204.134 269.508L205.693 268.042C205.806 267.951 205.895 267.834 205.952 267.702C206.009 267.57 206.033 267.426 206.021 267.283C206.009 267.141 205.961 267.003 205.883 266.881C205.805 266.76 205.697 266.659 205.571 266.587C205.274 266.479 204.963 266.414 204.647 266.392L203.678 266.25L201.774 265.979L198.257 265.469L196.642 265.23C196.375 265.23 196.142 265.165 195.852 265.089C195.583 265.002 195.354 264.825 195.206 264.589L192.98 260.115C192.39 258.91 191.922 257.943 191.6 257.292L191.243 256.553C191.197 256.472 191.163 256.384 191.143 256.293C191.196 256.37 191.244 256.449 191.288 256.532L191.677 257.259L193.136 260.05L195.418 264.459C195.534 264.645 195.716 264.784 195.93 264.85C196.142 264.904 196.431 264.926 196.687 264.969L198.301 265.186L201.83 265.675L203.723 265.935L204.702 266.066C205.058 266.084 205.408 266.161 205.738 266.294C205.914 266.389 206.065 266.525 206.175 266.689C206.286 266.854 206.353 267.043 206.372 267.239C206.396 267.44 206.368 267.645 206.293 267.834C206.217 268.023 206.095 268.192 205.938 268.324L204.402 269.801L201.151 272.896L199.448 274.525C199.313 274.626 199.21 274.762 199.151 274.918C199.091 275.073 199.079 275.242 199.114 275.404C199.181 275.795 199.247 276.186 199.325 276.588C199.604 278.173 199.893 279.846 200.183 281.453C200.327 282.278 200.483 283.114 200.628 283.961C200.685 284.192 200.712 284.429 200.706 284.667C200.681 284.927 200.567 285.172 200.383 285.362C200.206 285.562 199.968 285.702 199.703 285.761C199.439 285.819 199.162 285.794 198.913 285.688L194.082 283.168L191.6 281.898L190.976 281.583C190.795 281.47 190.601 281.379 190.397 281.312C190.209 281.279 190.015 281.301 189.841 281.377L189.217 281.702L184.23 284.254L181.792 285.503C181.574 285.639 181.326 285.725 181.068 285.753C180.795 285.781 180.519 285.716 180.289 285.568C180.061 285.425 179.883 285.218 179.779 284.973C179.676 284.728 179.652 284.458 179.71 284.2C180.022 282.473 180.323 280.79 180.612 279.129C180.757 278.293 180.901 277.478 181.046 276.664C181.124 276.262 181.191 275.86 181.269 275.459C181.318 275.294 181.317 275.119 181.266 274.955C181.214 274.791 181.115 274.645 180.979 274.536L174.3 268.118C174.168 267.955 174.081 267.762 174.046 267.557C174.011 267.352 174.029 267.142 174.1 266.945C174.169 266.751 174.288 266.577 174.446 266.44C174.604 266.303 174.795 266.208 175.001 266.164L177.072 265.87L180.946 265.338L184.453 264.85C184.685 264.78 184.883 264.629 185.009 264.426C185.121 264.187 185.243 263.959 185.366 263.731L186.056 262.385C186.935 260.669 187.703 259.127 188.282 257.965L189.117 256.347C189.206 256.135 189.361 255.955 189.561 255.834C189.761 255.713 189.996 255.657 190.23 255.674C190.375 255.681 190.517 255.719 190.646 255.785C190.774 255.85 190.887 255.942 190.976 256.054C191.062 256.116 191.131 256.199 191.177 256.293Z" fill="#263137"/>
</g>
</g>
</svg>
