<svg width="920" height="527" viewBox="0 0 920 527" fill="none" xmlns="http://www.w3.org/2000/svg">
<path d="M770 443.791H136V444.171H770V443.791Z" fill="#EBEBEB"/>
<path d="M235.538 455.841H202.57V456.222H235.538V455.841Z" fill="#EBEBEB"/>
<path d="M390.107 452.417H321.508V452.797H390.107V452.417Z" fill="#EBEBEB"/>
<path d="M270.155 467.639H236.807V468.019H270.155V467.639Z" fill="#EBEBEB"/>
<path d="M706.472 465.482H682.127V465.863H706.472V465.482Z" fill="#EBEBEB"/>
<path d="M670.842 465.482H632.422V465.863H670.842V465.482Z" fill="#EBEBEB"/>
<path d="M532.629 460.154H463.396V460.535H532.629V460.154Z" fill="#EBEBEB"/>
<path d="M436.516 387.216H191.665C187.734 387.216 184.438 383.918 184.438 379.985V35.5877C184.438 31.6554 187.734 28.3573 191.665 28.3573H436.516C440.447 28.3573 443.744 31.6554 443.744 35.5877V379.985C443.744 383.918 440.574 387.216 436.516 387.216ZM191.665 28.7378C187.861 28.7378 184.691 31.7822 184.691 35.7146V379.985C184.691 383.791 187.734 386.962 191.665 386.962H436.516C440.32 386.962 443.49 383.918 443.49 379.985V35.5877C443.49 31.7822 440.447 28.611 436.516 28.611H191.665V28.7378Z" fill="#EBEBEB"/>
<path d="M710.783 387.216H465.933C462.002 387.216 458.705 383.918 458.705 379.985V35.5877C458.705 31.6554 462.002 28.3573 465.933 28.3573H710.783C714.714 28.3573 718.011 31.6554 718.011 35.5877V379.985C718.011 383.918 714.841 387.216 710.783 387.216ZM465.933 28.7378C462.129 28.7378 458.959 31.7822 458.959 35.7146V379.985C458.959 383.791 462.002 386.962 465.933 386.962H710.783C714.587 386.962 717.757 383.918 717.757 379.985V35.5877C717.757 31.7822 714.714 28.611 710.783 28.611H465.933V28.7378Z" fill="#EBEBEB"/>
<path d="M620.629 148.484H532.63C527.938 153.178 525.275 155.841 520.457 160.662V431.613C525.149 436.307 527.811 438.97 532.63 443.791H620.629C625.321 439.097 627.983 436.433 632.802 431.613V160.662C627.983 155.841 625.321 153.178 620.629 148.484Z" fill="#E0E0E0"/>
<path d="M520.457 431.613L532.63 443.791H559.892L547.719 431.613H520.457Z" fill="#EBEBEB"/>
<path d="M520.457 160.662L532.63 148.484H559.892L547.719 160.662H520.457Z" fill="#EBEBEB"/>
<path d="M669.066 148.484H559.892C555.2 153.178 552.537 155.841 547.719 160.662V431.613C552.41 436.307 555.073 438.97 559.892 443.791H669.066C673.758 439.097 676.421 436.433 681.239 431.613V160.662C676.548 155.841 673.885 153.178 669.066 148.484Z" fill="#EBEBEB"/>
<path d="M561.414 438.082L553.426 430.091V162.184L561.414 154.192H667.546L675.534 162.184V430.091L667.546 438.082H561.414Z" fill="white"/>
<path d="M675.66 168.526H559.131V191.994H675.66V168.526Z" fill="#EBEBEB"/>
<path d="M668.941 406.37C668.941 406.877 669.449 407.385 669.956 407.385C670.463 407.385 670.97 406.877 670.97 406.37C670.97 405.862 670.463 405.355 669.956 405.355C669.449 405.355 668.941 405.736 668.941 406.37Z" fill="#F5F5F5"/>
<path d="M664.123 406.37C664.123 406.877 664.63 407.385 665.137 407.385C665.645 407.385 666.152 406.877 666.152 406.37C666.152 405.862 665.645 405.355 665.137 405.355C664.503 405.355 664.123 405.736 664.123 406.37Z" fill="white"/>
<path d="M659.178 406.37C659.178 406.877 659.685 407.385 660.192 407.385C660.699 407.385 661.207 406.877 661.207 406.37C661.207 405.862 660.699 405.355 660.192 405.355C659.685 405.355 659.178 405.736 659.178 406.37Z" fill="#F5F5F5"/>
<path d="M675.66 178.04H559.131V182.607H675.66V178.04Z" fill="#F5F5F5"/>
<path d="M553.351 192.056H559.057V168.589H553.351V192.056Z" fill="#E0E0E0"/>
<path d="M675.66 194.277H559.131V217.744H675.66V194.277Z" fill="#EBEBEB"/>
<path d="M668.941 380.619C668.941 381.127 669.449 381.634 669.956 381.634C670.463 381.634 670.97 381.127 670.97 380.619C670.97 380.112 670.463 379.605 669.956 379.605C669.449 379.605 668.941 380.112 668.941 380.619Z" fill="#F5F5F5"/>
<path d="M664.123 380.619C664.123 381.127 664.63 381.634 665.137 381.634C665.645 381.634 666.152 381.127 666.152 380.619C666.152 380.112 665.645 379.605 665.137 379.605C664.503 379.605 664.123 380.112 664.123 380.619Z" fill="white"/>
<path d="M659.178 380.619C659.178 381.127 659.685 381.634 660.192 381.634C660.699 381.634 661.207 381.127 661.207 380.619C661.207 380.112 660.699 379.605 660.192 379.605C659.685 379.605 659.178 380.112 659.178 380.619Z" fill="white"/>
<path d="M675.66 203.791H559.131V208.357H675.66V203.791Z" fill="#F5F5F5"/>
<path d="M553.351 217.779H559.057V194.312H553.351V217.779Z" fill="#E0E0E0"/>
<path d="M675.66 220.027H559.131V243.495H675.66V220.027Z" fill="#EBEBEB"/>
<path d="M668.941 354.869C668.941 355.376 669.449 355.884 669.956 355.884C670.463 355.884 670.97 355.376 670.97 354.869C670.97 354.361 670.463 353.854 669.956 353.854C669.449 353.854 668.941 354.361 668.941 354.869Z" fill="#F5F5F5"/>
<path d="M664.123 354.869C664.123 355.376 664.63 355.884 665.137 355.884C665.645 355.884 666.152 355.376 666.152 354.869C666.152 354.361 665.645 353.854 665.137 353.854C664.503 353.854 664.123 354.361 664.123 354.869Z" fill="#F5F5F5"/>
<path d="M659.178 354.869C659.178 355.376 659.685 355.884 660.192 355.884C660.699 355.884 661.207 355.376 661.207 354.869C661.207 354.361 660.699 353.854 660.192 353.854C659.685 353.854 659.178 354.361 659.178 354.869Z" fill="#F5F5F5"/>
<path d="M675.66 229.541H559.131V234.108H675.66V229.541Z" fill="#F5F5F5"/>
<path d="M553.351 243.503H559.057V220.035H553.351V243.503Z" fill="#E0E0E0"/>
<path d="M675.66 245.778H559.131V269.245H675.66V245.778Z" fill="#EBEBEB"/>
<path d="M668.941 329.118C668.941 329.626 669.449 330.133 669.956 330.133C670.463 330.133 670.97 329.626 670.97 329.118C670.97 328.611 670.463 328.104 669.956 328.104C669.449 328.104 668.941 328.611 668.941 329.118Z" fill="white"/>
<path d="M664.123 329.118C664.123 329.626 664.63 330.133 665.137 330.133C665.645 330.133 666.152 329.626 666.152 329.118C666.152 328.611 665.645 328.104 665.137 328.104C664.503 328.104 664.123 328.611 664.123 329.118Z" fill="white"/>
<path d="M659.178 329.118C659.178 329.626 659.685 330.133 660.192 330.133C660.699 330.133 661.207 329.626 661.207 329.118C661.207 328.611 660.699 328.104 660.192 328.104C659.685 328.104 659.178 328.611 659.178 329.118Z" fill="#F5F5F5"/>
<path d="M675.66 255.165H559.131V259.731H675.66V255.165Z" fill="#F5F5F5"/>
<path d="M553.351 269.226H559.057V245.759H553.351V269.226Z" fill="#E0E0E0"/>
<path d="M675.66 271.528H559.131V294.996H675.66V271.528Z" fill="#EBEBEB"/>
<path d="M668.941 303.368C668.941 303.875 669.449 304.383 669.956 304.383C670.463 304.383 670.97 303.875 670.97 303.368C670.97 302.86 670.463 302.353 669.956 302.353C669.449 302.353 668.941 302.86 668.941 303.368Z" fill="white"/>
<path d="M664.123 303.368C664.123 303.875 664.63 304.383 665.137 304.383C665.645 304.383 666.152 303.875 666.152 303.368C666.152 302.86 665.645 302.353 665.137 302.353C664.503 302.353 664.123 302.86 664.123 303.368Z" fill="white"/>
<path d="M659.178 303.368C659.178 303.875 659.685 304.383 660.192 304.383C660.699 304.383 661.207 303.875 661.207 303.368C661.207 302.86 660.699 302.353 660.192 302.353C659.685 302.353 659.178 302.86 659.178 303.368Z" fill="white"/>
<path d="M675.66 280.915H559.131V285.482H675.66V280.915Z" fill="#F5F5F5"/>
<path d="M553.351 294.949H559.057V271.482H553.351V294.949Z" fill="#E0E0E0"/>
<path d="M675.66 297.279H559.131V320.746H675.66V297.279Z" fill="#EBEBEB"/>
<path d="M668.941 277.617C668.941 278.125 669.449 278.632 669.956 278.632C670.463 278.632 670.97 278.125 670.97 277.617C670.97 277.11 670.463 276.602 669.956 276.602C669.449 276.602 668.941 277.11 668.941 277.617Z" fill="#F5F5F5"/>
<path d="M664.123 277.617C664.123 278.125 664.63 278.632 665.137 278.632C665.645 278.632 666.152 278.125 666.152 277.617C666.152 277.11 665.645 276.602 665.137 276.602C664.503 276.602 664.123 277.11 664.123 277.617Z" fill="white"/>
<path d="M659.178 277.617C659.178 278.125 659.685 278.632 660.192 278.632C660.699 278.632 661.207 278.125 661.207 277.617C661.207 277.11 660.699 276.602 660.192 276.602C659.685 276.602 659.178 277.11 659.178 277.617Z" fill="#F5F5F5"/>
<path d="M675.66 306.666H559.131V311.233H675.66V306.666Z" fill="#F5F5F5"/>
<path d="M553.351 320.672H559.057V297.205H553.351V320.672Z" fill="#E0E0E0"/>
<path d="M675.66 323.03H559.131V346.497H675.66V323.03Z" fill="#EBEBEB"/>
<path d="M668.941 251.994C668.941 252.501 669.449 253.008 669.956 253.008C670.463 253.008 670.97 252.501 670.97 251.994C670.97 251.486 670.463 250.979 669.956 250.979C669.449 250.852 668.941 251.359 668.941 251.994Z" fill="white"/>
<path d="M664.123 251.994C664.123 252.501 664.63 253.008 665.137 253.008C665.645 253.008 666.152 252.501 666.152 251.994C666.152 251.486 665.645 250.979 665.137 250.979C664.503 250.852 664.123 251.359 664.123 251.994Z" fill="white"/>
<path d="M659.178 251.994C659.178 252.501 659.685 253.008 660.192 253.008C660.699 253.008 661.207 252.501 661.207 251.994C661.207 251.486 660.699 250.979 660.192 250.979C659.685 250.852 659.178 251.359 659.178 251.994Z" fill="#F5F5F5"/>
<path d="M675.66 332.416H559.131V336.983H675.66V332.416Z" fill="#F5F5F5"/>
<path d="M553.351 346.395H559.057V322.928H553.351V346.395Z" fill="#E0E0E0"/>
<path d="M675.66 348.78H559.131V372.247H675.66V348.78Z" fill="#EBEBEB"/>
<path d="M668.941 226.243C668.941 226.75 669.449 227.258 669.956 227.258C670.463 227.258 670.97 226.75 670.97 226.243C670.97 225.736 670.463 225.228 669.956 225.228C669.449 225.228 668.941 225.609 668.941 226.243Z" fill="white"/>
<path d="M664.123 226.243C664.123 226.75 664.63 227.258 665.137 227.258C665.645 227.258 666.152 226.75 666.152 226.243C666.152 225.736 665.645 225.228 665.137 225.228C664.503 225.228 664.123 225.609 664.123 226.243Z" fill="#F5F5F5"/>
<path d="M659.178 226.243C659.178 226.75 659.685 227.258 660.192 227.258C660.699 227.258 661.207 226.75 661.207 226.243C661.207 225.736 660.699 225.228 660.192 225.228C659.685 225.228 659.178 225.609 659.178 226.243Z" fill="white"/>
<path d="M675.66 358.167H559.131V362.734H675.66V358.167Z" fill="#F5F5F5"/>
<path d="M553.351 372.118H559.057V348.651H553.351V372.118Z" fill="#E0E0E0"/>
<path d="M675.66 374.404H559.131V397.871H675.66V374.404Z" fill="#EBEBEB"/>
<path d="M668.941 200.493C668.941 201 669.449 201.507 669.956 201.507C670.463 201.507 670.97 201 670.97 200.493C670.97 199.985 670.463 199.478 669.956 199.478C669.449 199.478 668.941 199.858 668.941 200.493Z" fill="#F5F5F5"/>
<path d="M664.123 200.493C664.123 201 664.63 201.507 665.137 201.507C665.645 201.507 666.152 201 666.152 200.493C666.152 199.985 665.645 199.478 665.137 199.478C664.503 199.478 664.123 199.858 664.123 200.493Z" fill="white"/>
<path d="M659.178 200.493C659.178 201 659.685 201.507 660.192 201.507C660.699 201.507 661.207 201 661.207 200.493C661.207 199.985 660.699 199.478 660.192 199.478C659.685 199.478 659.178 199.858 659.178 200.493Z" fill="#F5F5F5"/>
<path d="M675.66 383.918H559.131V388.484H675.66V383.918Z" fill="#F5F5F5"/>
<path d="M553.351 397.969H559.057V374.501H553.351V397.969Z" fill="#E0E0E0"/>
<path d="M675.66 400.154H559.131V423.621H675.66V400.154Z" fill="#EBEBEB"/>
<path d="M668.941 174.742C668.941 175.249 669.449 175.757 669.956 175.757C670.463 175.757 670.97 175.249 670.97 174.742C670.97 174.235 670.463 173.727 669.956 173.727C669.449 173.727 668.941 174.108 668.941 174.742Z" fill="#F5F5F5"/>
<path d="M664.123 174.742C664.123 175.249 664.63 175.757 665.137 175.757C665.645 175.757 666.152 175.249 666.152 174.742C666.152 174.235 665.645 173.727 665.137 173.727C664.503 173.727 664.123 174.108 664.123 174.742Z" fill="#F5F5F5"/>
<path d="M659.178 174.742C659.178 175.249 659.685 175.757 660.192 175.757C660.699 175.757 661.207 175.249 661.207 174.742C661.207 174.235 660.699 173.727 660.192 173.727C659.685 173.727 659.178 174.108 659.178 174.742Z" fill="white"/>
<path d="M675.66 409.668H559.131V414.235H675.66V409.668Z" fill="#F5F5F5"/>
<path d="M553.351 423.692H559.057V400.224H553.351V423.692Z" fill="#E0E0E0"/>
<path d="M472.781 148.484H384.782C380.091 153.178 377.428 155.841 372.609 160.662V431.613C377.301 436.307 379.964 438.97 384.782 443.791H472.781C477.473 439.097 480.136 436.433 484.954 431.613V160.662C480.263 155.841 477.6 153.178 472.781 148.484Z" fill="#E0E0E0"/>
<path d="M372.609 431.613L384.782 443.791H412.044L399.871 431.613H372.609Z" fill="#EBEBEB"/>
<path d="M372.609 160.662L384.782 148.484H412.044L399.871 160.662H372.609Z" fill="#EBEBEB"/>
<path d="M521.219 148.484H412.044C407.352 153.178 404.689 155.841 399.871 160.662V431.613C404.563 436.307 407.225 438.97 412.044 443.791H521.219C525.91 439.097 528.573 436.433 533.391 431.613V160.662C528.7 155.841 526.037 153.178 521.219 148.484Z" fill="#EBEBEB"/>
<path d="M413.567 438.082L405.578 430.091V162.184L413.567 154.192H519.698L527.687 162.184V430.091L519.698 438.082H413.567Z" fill="white"/>
<path d="M527.812 168.526H411.283V191.994H527.812V168.526Z" fill="#EBEBEB"/>
<path d="M521.094 174.742C521.094 174.235 521.601 173.727 522.108 173.727C522.615 173.727 523.123 174.235 523.123 174.742C523.123 175.249 522.615 175.757 522.108 175.757C521.601 175.757 521.094 175.249 521.094 174.742Z" fill="#F5F5F5"/>
<path d="M516.275 174.742C516.275 174.235 516.783 173.727 517.29 173.727C517.797 173.727 518.304 174.235 518.304 174.742C518.304 175.249 517.797 175.757 517.29 175.757C516.656 175.757 516.275 175.249 516.275 174.742Z" fill="white"/>
<path d="M511.33 174.742C511.33 174.235 511.837 173.727 512.344 173.727C512.852 173.727 513.359 174.235 513.359 174.742C513.359 175.249 512.852 175.757 512.344 175.757C511.837 175.757 511.33 175.249 511.33 174.742Z" fill="#F5F5F5"/>
<path d="M527.812 178.04H411.283V182.607H527.812V178.04Z" fill="#F5F5F5"/>
<path d="M405.542 192.056H411.248V168.589H405.542V192.056Z" fill="#E0E0E0"/>
<path d="M527.812 194.277H411.283V217.744H527.812V194.277Z" fill="#EBEBEB"/>
<path d="M521.094 200.492C521.094 199.985 521.601 199.478 522.108 199.478C522.615 199.478 523.123 199.985 523.123 200.492C523.123 201 522.615 201.507 522.108 201.507C521.601 201.507 521.094 201 521.094 200.492Z" fill="#F5F5F5"/>
<path d="M516.275 200.492C516.275 199.985 516.783 199.478 517.29 199.478C517.797 199.478 518.304 199.985 518.304 200.492C518.304 201 517.797 201.507 517.29 201.507C516.656 201.507 516.275 201 516.275 200.492Z" fill="white"/>
<path d="M511.33 200.492C511.33 199.985 511.837 199.478 512.344 199.478C512.852 199.478 513.359 199.985 513.359 200.492C513.359 201 512.852 201.507 512.344 201.507C511.837 201.507 511.33 201 511.33 200.492Z" fill="white"/>
<path d="M527.812 203.791H411.283V208.357H527.812V203.791Z" fill="#F5F5F5"/>
<path d="M405.542 217.779H411.248V194.312H405.542V217.779Z" fill="#E0E0E0"/>
<path d="M527.812 220.027H411.283V243.495H527.812V220.027Z" fill="#EBEBEB"/>
<path d="M521.094 226.243C521.094 225.736 521.601 225.228 522.108 225.228C522.615 225.228 523.123 225.736 523.123 226.243C523.123 226.75 522.615 227.258 522.108 227.258C521.601 227.258 521.094 226.75 521.094 226.243Z" fill="#F5F5F5"/>
<path d="M516.275 226.243C516.275 225.736 516.783 225.228 517.29 225.228C517.797 225.228 518.304 225.736 518.304 226.243C518.304 226.75 517.797 227.258 517.29 227.258C516.656 227.258 516.275 226.75 516.275 226.243Z" fill="#F5F5F5"/>
<path d="M511.33 226.243C511.33 225.736 511.837 225.228 512.344 225.228C512.852 225.228 513.359 225.736 513.359 226.243C513.359 226.75 512.852 227.258 512.344 227.258C511.837 227.258 511.33 226.75 511.33 226.243Z" fill="#F5F5F5"/>
<path d="M527.812 229.541H411.283V234.108H527.812V229.541Z" fill="#F5F5F5"/>
<path d="M405.542 243.503H411.248V220.035H405.542V243.503Z" fill="#E0E0E0"/>
<path d="M527.812 245.778H411.283V269.245H527.812V245.778Z" fill="#EBEBEB"/>
<path d="M521.094 251.994C521.094 251.486 521.601 250.979 522.108 250.979C522.615 250.979 523.123 251.486 523.123 251.994C523.123 252.501 522.615 253.008 522.108 253.008C521.601 253.008 521.094 252.501 521.094 251.994Z" fill="white"/>
<path d="M516.275 251.994C516.275 251.486 516.783 250.979 517.29 250.979C517.797 250.979 518.304 251.486 518.304 251.994C518.304 252.501 517.797 253.008 517.29 253.008C516.656 253.008 516.275 252.501 516.275 251.994Z" fill="white"/>
<path d="M511.33 251.994C511.33 251.486 511.837 250.979 512.344 250.979C512.852 250.979 513.359 251.486 513.359 251.994C513.359 252.501 512.852 253.008 512.344 253.008C511.837 253.008 511.33 252.501 511.33 251.994Z" fill="#F5F5F5"/>
<path d="M527.812 255.165H411.283V259.731H527.812V255.165Z" fill="#F5F5F5"/>
<path d="M405.542 269.226H411.248V245.759H405.542V269.226Z" fill="#E0E0E0"/>
<path d="M527.812 271.528H411.283V294.996H527.812V271.528Z" fill="#EBEBEB"/>
<path d="M521.094 277.617C521.094 277.11 521.601 276.602 522.108 276.602C522.615 276.602 523.123 277.11 523.123 277.617C523.123 278.125 522.615 278.632 522.108 278.632C521.601 278.632 521.094 278.252 521.094 277.617Z" fill="white"/>
<path d="M516.275 277.617C516.275 277.11 516.783 276.602 517.29 276.602C517.797 276.602 518.304 277.11 518.304 277.617C518.304 278.125 517.797 278.632 517.29 278.632C516.656 278.632 516.275 278.252 516.275 277.617Z" fill="white"/>
<path d="M511.33 277.617C511.33 277.11 511.837 276.602 512.344 276.602C512.852 276.602 513.359 277.11 513.359 277.617C513.359 278.125 512.852 278.632 512.344 278.632C511.837 278.632 511.33 278.252 511.33 277.617Z" fill="white"/>
<path d="M527.812 280.915H411.283V285.482H527.812V280.915Z" fill="#F5F5F5"/>
<path d="M405.542 294.949H411.248V271.482H405.542V294.949Z" fill="#E0E0E0"/>
<path d="M527.812 297.279H411.283V320.746H527.812V297.279Z" fill="#EBEBEB"/>
<path d="M521.094 303.368C521.094 302.86 521.601 302.353 522.108 302.353C522.615 302.353 523.123 302.86 523.123 303.368C523.123 303.875 522.615 304.383 522.108 304.383C521.601 304.383 521.094 304.002 521.094 303.368Z" fill="#F5F5F5"/>
<path d="M516.275 303.368C516.275 302.86 516.783 302.353 517.29 302.353C517.797 302.353 518.304 302.86 518.304 303.368C518.304 303.875 517.797 304.383 517.29 304.383C516.656 304.383 516.275 304.002 516.275 303.368Z" fill="white"/>
<path d="M511.33 303.368C511.33 302.86 511.837 302.353 512.344 302.353C512.852 302.353 513.359 302.86 513.359 303.368C513.359 303.875 512.852 304.383 512.344 304.383C511.837 304.383 511.33 304.002 511.33 303.368Z" fill="#F5F5F5"/>
<path d="M527.812 306.666H411.283V311.233H527.812V306.666Z" fill="#F5F5F5"/>
<path d="M405.542 320.672H411.248V297.205H405.542V320.672Z" fill="#E0E0E0"/>
<path d="M527.812 323.03H411.283V346.497H527.812V323.03Z" fill="#EBEBEB"/>
<path d="M521.094 329.118C521.094 328.611 521.601 328.104 522.108 328.104C522.615 328.104 523.123 328.611 523.123 329.118C523.123 329.626 522.615 330.133 522.108 330.133C521.601 330.133 521.094 329.753 521.094 329.118Z" fill="white"/>
<path d="M516.275 329.118C516.275 328.611 516.783 328.104 517.29 328.104C517.797 328.104 518.304 328.611 518.304 329.118C518.304 329.626 517.797 330.133 517.29 330.133C516.656 330.133 516.275 329.753 516.275 329.118Z" fill="white"/>
<path d="M511.33 329.118C511.33 328.611 511.837 328.104 512.344 328.104C512.852 328.104 513.359 328.611 513.359 329.118C513.359 329.626 512.852 330.133 512.344 330.133C511.837 330.133 511.33 329.753 511.33 329.118Z" fill="#F5F5F5"/>
<path d="M527.812 332.416H411.283V336.983H527.812V332.416Z" fill="#F5F5F5"/>
<path d="M405.542 346.395H411.248V322.928H405.542V346.395Z" fill="#E0E0E0"/>
<path d="M527.812 348.78H411.283V372.247H527.812V348.78Z" fill="#EBEBEB"/>
<path d="M521.094 354.869C521.094 354.361 521.601 353.854 522.108 353.854C522.615 353.854 523.123 354.361 523.123 354.869C523.123 355.376 522.615 355.884 522.108 355.884C521.601 355.884 521.094 355.503 521.094 354.869Z" fill="white"/>
<path d="M516.275 354.869C516.275 354.361 516.783 353.854 517.29 353.854C517.797 353.854 518.304 354.361 518.304 354.869C518.304 355.376 517.797 355.884 517.29 355.884C516.656 355.884 516.275 355.503 516.275 354.869Z" fill="#F5F5F5"/>
<path d="M511.33 354.869C511.33 354.361 511.837 353.854 512.344 353.854C512.852 353.854 513.359 354.361 513.359 354.869C513.359 355.376 512.852 355.884 512.344 355.884C511.837 355.884 511.33 355.503 511.33 354.869Z" fill="white"/>
<path d="M527.812 358.167H411.283V362.734H527.812V358.167Z" fill="#F5F5F5"/>
<path d="M405.542 372.118H411.248V348.651H405.542V372.118Z" fill="#E0E0E0"/>
<path d="M527.812 374.404H411.283V397.871H527.812V374.404Z" fill="#EBEBEB"/>
<path d="M521.094 380.619C521.094 380.112 521.601 379.605 522.108 379.605C522.615 379.605 523.123 380.112 523.123 380.619C523.123 381.127 522.615 381.634 522.108 381.634C521.601 381.634 521.094 381.127 521.094 380.619Z" fill="#F5F5F5"/>
<path d="M516.275 380.619C516.275 380.112 516.783 379.605 517.29 379.605C517.797 379.605 518.304 380.112 518.304 380.619C518.304 381.127 517.797 381.634 517.29 381.634C516.656 381.634 516.275 381.127 516.275 380.619Z" fill="white"/>
<path d="M511.33 380.619C511.33 380.112 511.837 379.605 512.344 379.605C512.852 379.605 513.359 380.112 513.359 380.619C513.359 381.127 512.852 381.634 512.344 381.634C511.837 381.634 511.33 381.127 511.33 380.619Z" fill="#F5F5F5"/>
<path d="M527.812 383.917H411.283V388.484H527.812V383.917Z" fill="#F5F5F5"/>
<path d="M405.542 397.969H411.248V374.501H405.542V397.969Z" fill="#E0E0E0"/>
<path d="M527.812 400.154H411.283V423.622H527.812V400.154Z" fill="#EBEBEB"/>
<path d="M521.094 406.37C521.094 405.862 521.601 405.355 522.108 405.355C522.615 405.355 523.123 405.862 523.123 406.37C523.123 406.877 522.615 407.385 522.108 407.385C521.601 407.385 521.094 406.877 521.094 406.37Z" fill="#F5F5F5"/>
<path d="M516.275 406.37C516.275 405.862 516.783 405.355 517.29 405.355C517.797 405.355 518.304 405.862 518.304 406.37C518.304 406.877 517.797 407.385 517.29 407.385C516.656 407.385 516.275 406.877 516.275 406.37Z" fill="#F5F5F5"/>
<path d="M511.33 406.37C511.33 405.862 511.837 405.355 512.344 405.355C512.852 405.355 513.359 405.862 513.359 406.37C513.359 406.877 512.852 407.385 512.344 407.385C511.837 407.385 511.33 406.877 511.33 406.37Z" fill="white"/>
<path d="M527.812 409.668H411.283V414.235H527.812V409.668Z" fill="#F5F5F5"/>
<path d="M405.542 423.692H411.248V400.224H405.542V423.692Z" fill="#E0E0E0"/>
<path d="M324.932 148.484H236.933C232.241 153.178 229.578 155.841 224.76 160.662V431.613C229.451 436.307 232.114 438.97 236.933 443.791H324.932C329.623 439.097 332.286 436.433 337.105 431.613V160.662C332.413 155.841 329.75 153.178 324.932 148.484Z" fill="#E0E0E0"/>
<path d="M224.76 431.613L236.933 443.791H264.195L252.022 431.613H224.76Z" fill="#EBEBEB"/>
<path d="M224.76 160.662L236.933 148.484H264.195L252.022 160.662H224.76Z" fill="#EBEBEB"/>
<path d="M373.369 148.484H264.194C259.503 153.178 256.84 155.841 252.021 160.662V431.613C256.713 436.307 259.376 438.97 264.194 443.791H373.369C378.061 439.097 380.723 436.433 385.542 431.613V160.662C380.85 155.841 378.187 153.178 373.369 148.484Z" fill="#EBEBEB"/>
<path d="M265.717 438.082L257.729 430.091V162.184L265.717 154.192H371.849L379.964 162.184V430.091L371.849 438.082H265.717Z" fill="white"/>
<path d="M379.963 168.526H263.434V191.994H379.963V168.526Z" fill="#EBEBEB"/>
<path d="M373.369 406.37C373.369 406.877 373.876 407.385 374.384 407.385C374.891 407.385 375.398 406.877 375.398 406.37C375.398 405.862 374.891 405.355 374.384 405.355C373.75 405.355 373.369 405.736 373.369 406.37Z" fill="#F5F5F5"/>
<path d="M368.424 406.37C368.424 406.877 368.931 407.385 369.438 407.385C369.945 407.385 370.453 406.877 370.453 406.37C370.453 405.862 369.945 405.355 369.438 405.355C368.931 405.355 368.424 405.736 368.424 406.37Z" fill="white"/>
<path d="M363.479 406.37C363.479 406.877 363.986 407.385 364.493 407.385C365 407.385 365.507 406.877 365.507 406.37C365.507 405.862 365 405.355 364.493 405.355C363.986 405.355 363.479 405.736 363.479 406.37Z" fill="#F5F5F5"/>
<path d="M379.963 178.04H263.434V182.607H379.963V178.04Z" fill="#F5F5F5"/>
<path d="M257.73 192.056H263.436V168.589H257.73V192.056Z" fill="#E0E0E0"/>
<path d="M379.963 194.277H263.434V217.744H379.963V194.277Z" fill="#EBEBEB"/>
<path d="M373.369 380.619C373.369 381.127 373.876 381.634 374.384 381.634C374.891 381.634 375.398 381.127 375.398 380.619C375.398 380.112 374.891 379.605 374.384 379.605C373.75 379.605 373.369 380.112 373.369 380.619Z" fill="#F5F5F5"/>
<path d="M368.424 380.619C368.424 381.127 368.931 381.634 369.438 381.634C369.945 381.634 370.453 381.127 370.453 380.619C370.453 380.112 369.945 379.605 369.438 379.605C368.931 379.605 368.424 380.112 368.424 380.619Z" fill="white"/>
<path d="M363.479 380.619C363.479 381.127 363.986 381.634 364.493 381.634C365 381.634 365.507 381.127 365.507 380.619C365.507 380.112 365 379.605 364.493 379.605C363.986 379.605 363.479 380.112 363.479 380.619Z" fill="white"/>
<path d="M379.963 203.791H263.434V208.357H379.963V203.791Z" fill="#F5F5F5"/>
<path d="M257.73 217.779H263.436V194.312H257.73V217.779Z" fill="#E0E0E0"/>
<path d="M379.963 220.027H263.434V243.495H379.963V220.027Z" fill="#EBEBEB"/>
<path d="M373.369 354.869C373.369 355.376 373.876 355.884 374.384 355.884C374.891 355.884 375.398 355.376 375.398 354.869C375.398 354.361 374.891 353.854 374.384 353.854C373.75 353.854 373.369 354.361 373.369 354.869Z" fill="#F5F5F5"/>
<path d="M368.424 354.869C368.424 355.376 368.931 355.884 369.438 355.884C369.945 355.884 370.453 355.376 370.453 354.869C370.453 354.361 369.945 353.854 369.438 353.854C368.931 353.854 368.424 354.361 368.424 354.869Z" fill="#F5F5F5"/>
<path d="M363.479 354.869C363.479 355.376 363.986 355.884 364.493 355.884C365 355.884 365.507 355.376 365.507 354.869C365.507 354.361 365 353.854 364.493 353.854C363.986 353.854 363.479 354.361 363.479 354.869Z" fill="#F5F5F5"/>
<path d="M379.963 229.541H263.434V234.108H379.963V229.541Z" fill="#F5F5F5"/>
<path d="M257.73 243.503H263.436V220.035H257.73V243.503Z" fill="#E0E0E0"/>
<path d="M379.963 245.778H263.434V269.245H379.963V245.778Z" fill="#EBEBEB"/>
<path d="M373.369 329.118C373.369 329.626 373.876 330.133 374.384 330.133C374.891 330.133 375.398 329.626 375.398 329.118C375.398 328.611 374.891 328.104 374.384 328.104C373.75 328.104 373.369 328.611 373.369 329.118Z" fill="white"/>
<path d="M368.424 329.118C368.424 329.626 368.931 330.133 369.438 330.133C369.945 330.133 370.453 329.626 370.453 329.118C370.453 328.611 369.945 328.104 369.438 328.104C368.931 328.104 368.424 328.611 368.424 329.118Z" fill="white"/>
<path d="M363.479 329.118C363.479 329.626 363.986 330.133 364.493 330.133C365 330.133 365.507 329.626 365.507 329.118C365.507 328.611 365 328.104 364.493 328.104C363.986 328.104 363.479 328.611 363.479 329.118Z" fill="#F5F5F5"/>
<path d="M379.963 255.165H263.434V259.731H379.963V255.165Z" fill="#F5F5F5"/>
<path d="M257.73 269.226H263.436V245.759H257.73V269.226Z" fill="#E0E0E0"/>
<path d="M379.963 271.528H263.434V294.996H379.963V271.528Z" fill="#EBEBEB"/>
<path d="M373.369 303.368C373.369 303.875 373.876 304.383 374.384 304.383C374.891 304.383 375.398 303.875 375.398 303.368C375.398 302.86 374.891 302.353 374.384 302.353C373.75 302.353 373.369 302.86 373.369 303.368Z" fill="white"/>
<path d="M368.424 303.368C368.424 303.875 368.931 304.383 369.438 304.383C369.945 304.383 370.453 303.875 370.453 303.368C370.453 302.86 369.945 302.353 369.438 302.353C368.931 302.353 368.424 302.86 368.424 303.368Z" fill="white"/>
<path d="M363.479 303.368C363.479 303.875 363.986 304.383 364.493 304.383C365 304.383 365.507 303.875 365.507 303.368C365.507 302.86 365 302.353 364.493 302.353C363.986 302.353 363.479 302.86 363.479 303.368Z" fill="white"/>
<path d="M379.963 280.915H263.434V285.482H379.963V280.915Z" fill="#F5F5F5"/>
<path d="M257.73 294.949H263.436V271.482H257.73V294.949Z" fill="#E0E0E0"/>
<path d="M379.963 297.279H263.434V320.746H379.963V297.279Z" fill="#EBEBEB"/>
<path d="M373.369 277.617C373.369 278.125 373.876 278.632 374.384 278.632C374.891 278.632 375.398 278.125 375.398 277.617C375.398 277.11 374.891 276.602 374.384 276.602C373.75 276.602 373.369 277.11 373.369 277.617Z" fill="#F5F5F5"/>
<path d="M368.424 277.617C368.424 278.125 368.931 278.632 369.438 278.632C369.945 278.632 370.453 278.125 370.453 277.617C370.453 277.11 369.945 276.602 369.438 276.602C368.931 276.602 368.424 277.11 368.424 277.617Z" fill="white"/>
<path d="M363.479 277.617C363.479 278.125 363.986 278.632 364.493 278.632C365 278.632 365.507 278.125 365.507 277.617C365.507 277.11 365 276.602 364.493 276.602C363.986 276.602 363.479 277.11 363.479 277.617Z" fill="#F5F5F5"/>
<path d="M379.963 306.666H263.434V311.233H379.963V306.666Z" fill="#F5F5F5"/>
<path d="M257.73 320.672H263.436V297.205H257.73V320.672Z" fill="#E0E0E0"/>
<path d="M379.963 323.03H263.434V346.497H379.963V323.03Z" fill="#EBEBEB"/>
<path d="M373.369 251.994C373.369 252.501 373.876 253.008 374.384 253.008C374.891 253.008 375.398 252.501 375.398 251.994C375.398 251.486 374.891 250.979 374.384 250.979C373.75 250.852 373.369 251.359 373.369 251.994Z" fill="white"/>
<path d="M368.424 251.994C368.424 252.501 368.931 253.008 369.438 253.008C369.945 253.008 370.453 252.501 370.453 251.994C370.453 251.486 369.945 250.979 369.438 250.979C368.931 250.852 368.424 251.359 368.424 251.994Z" fill="white"/>
<path d="M363.479 251.994C363.479 252.501 363.986 253.008 364.493 253.008C365 253.008 365.507 252.501 365.507 251.994C365.507 251.486 365 250.979 364.493 250.979C363.986 250.852 363.479 251.359 363.479 251.994Z" fill="#F5F5F5"/>
<path d="M379.963 332.416H263.434V336.983H379.963V332.416Z" fill="#F5F5F5"/>
<path d="M257.73 346.395H263.436V322.928H257.73V346.395Z" fill="#E0E0E0"/>
<path d="M379.963 348.78H263.434V372.247H379.963V348.78Z" fill="#EBEBEB"/>
<path d="M373.369 226.243C373.369 226.75 373.876 227.258 374.384 227.258C374.891 227.258 375.398 226.75 375.398 226.243C375.398 225.736 374.891 225.228 374.384 225.228C373.75 225.228 373.369 225.609 373.369 226.243Z" fill="white"/>
<path d="M368.424 226.243C368.424 226.75 368.931 227.258 369.438 227.258C369.945 227.258 370.453 226.75 370.453 226.243C370.453 225.736 369.945 225.228 369.438 225.228C368.931 225.228 368.424 225.609 368.424 226.243Z" fill="#F5F5F5"/>
<path d="M363.479 226.243C363.479 226.75 363.986 227.258 364.493 227.258C365 227.258 365.507 226.75 365.507 226.243C365.507 225.736 365 225.228 364.493 225.228C363.986 225.228 363.479 225.609 363.479 226.243Z" fill="white"/>
<path d="M379.963 358.167H263.434V362.734H379.963V358.167Z" fill="#F5F5F5"/>
<path d="M257.73 372.118H263.436V348.651H257.73V372.118Z" fill="#E0E0E0"/>
<path d="M379.963 374.404H263.434V397.871H379.963V374.404Z" fill="#EBEBEB"/>
<path d="M373.369 200.493C373.369 201 373.876 201.507 374.384 201.507C374.891 201.507 375.398 201 375.398 200.493C375.398 199.985 374.891 199.478 374.384 199.478C373.75 199.478 373.369 199.858 373.369 200.493Z" fill="#F5F5F5"/>
<path d="M368.424 200.493C368.424 201 368.931 201.507 369.438 201.507C369.945 201.507 370.453 201 370.453 200.493C370.453 199.985 369.945 199.478 369.438 199.478C368.931 199.478 368.424 199.858 368.424 200.493Z" fill="white"/>
<path d="M363.479 200.493C363.479 201 363.986 201.507 364.493 201.507C365 201.507 365.507 201 365.507 200.493C365.507 199.985 365 199.478 364.493 199.478C363.986 199.478 363.479 199.858 363.479 200.493Z" fill="#F5F5F5"/>
<path d="M379.963 383.918H263.434V388.484H379.963V383.918Z" fill="#F5F5F5"/>
<path d="M257.73 397.969H263.436V374.501H257.73V397.969Z" fill="#E0E0E0"/>
<path d="M379.963 400.154H263.434V423.621H379.963V400.154Z" fill="#EBEBEB"/>
<path d="M373.369 174.742C373.369 175.249 373.876 175.757 374.384 175.757C374.891 175.757 375.398 175.249 375.398 174.742C375.398 174.235 374.891 173.727 374.384 173.727C373.75 173.727 373.369 174.108 373.369 174.742Z" fill="#F5F5F5"/>
<path d="M368.424 174.742C368.424 175.249 368.931 175.757 369.438 175.757C369.945 175.757 370.453 175.249 370.453 174.742C370.453 174.235 369.945 173.727 369.438 173.727C368.931 173.727 368.424 174.108 368.424 174.742Z" fill="#F5F5F5"/>
<path d="M363.479 174.742C363.479 175.249 363.986 175.757 364.493 175.757C365 175.757 365.507 175.249 365.507 174.742C365.507 174.235 365 173.727 364.493 173.727C363.986 173.727 363.479 174.108 363.479 174.742Z" fill="white"/>
<path d="M379.963 409.668H263.434V414.235H379.963V409.668Z" fill="#F5F5F5"/>
<path d="M257.73 423.692H263.436V400.224H257.73V423.692Z" fill="#E0E0E0"/>
<path d="M367.79 79.4779C367.663 69.203 359.294 60.8309 349.023 60.8309C346.487 60.8309 344.205 61.3383 341.923 62.2263C338.245 54.6153 330.511 49.4144 321.508 49.4144C310.603 49.4144 301.6 57.0254 299.318 67.1734C289.047 67.8077 281.059 76.3066 281.059 86.7083C281.059 97.4905 289.808 106.243 300.586 106.243H362.845C370.453 106.243 376.666 100.028 376.666 92.4165C376.793 86.4546 372.989 81.3806 367.79 79.4779Z" fill="#F5F5F5"/>
<path d="M683.174 76.3906C683.004 58.0269 668.199 43.234 649.821 43.234C645.396 43.234 641.142 44.0842 637.398 45.6145C630.592 32.1818 616.808 23 600.982 23C581.753 23 565.587 36.4327 561.502 54.6263C543.294 55.8165 529 70.7795 529 89.3131C529 108.527 544.485 124 563.715 124H674.325C687.939 124 699 112.948 699 99.3451C699 88.803 692.363 79.9613 683.174 76.3906Z" fill="#F5F5F5"/>
<path d="M453 501C588.788 501 698.865 494.582 698.865 486.666C698.865 478.75 588.788 472.332 453 472.332C317.212 472.332 207.135 478.75 207.135 486.666C207.135 494.582 317.212 501 453 501Z" fill="#F5F5F5"/>
<path d="M245.682 467.892V465.989H234.27C233.763 465.989 233.256 466.37 233.256 467.004C233.256 467.512 233.636 468.019 234.27 468.019H245.682V467.892Z" fill="#407BFF"/>
<path d="M245.682 476.137V474.235H234.27C233.763 474.235 233.256 474.615 233.256 475.25C233.256 475.757 233.636 476.264 234.27 476.264H245.682V476.137Z" fill="#407BFF"/>
<path d="M241.625 461.296C240.737 461.296 239.977 462.057 239.977 462.945V479.689C239.977 480.577 240.737 481.338 241.625 481.338C242.513 481.338 243.273 480.577 243.273 479.689V462.945C243.273 462.057 242.513 461.296 241.625 461.296Z" fill="#263238"/>
<path d="M246.19 463.706H241.625V478.928H246.19C250.374 478.928 253.798 475.503 253.798 471.317C253.798 467.131 250.374 463.706 246.19 463.706Z" fill="#263238"/>
<path d="M281.948 481.719C278.651 481.719 275.481 481.338 272.184 480.958L266.605 480.323C265.717 480.323 264.83 480.45 263.942 480.577C262.674 480.704 261.406 480.958 260.011 481.085C257.602 481.465 255.193 481.846 252.657 481.719C252.15 481.719 251.643 481.719 251.135 481.465C250.501 481.211 250.121 480.577 250.121 479.943C250.121 479.309 250.501 478.801 251.135 478.548C251.643 478.294 252.15 478.294 252.53 478.167C255.32 477.913 258.236 478.294 260.899 478.548L266.605 479.182C268.887 479.055 271.17 479.182 273.325 479.182C276.115 479.309 278.905 479.309 281.948 479.055C284.484 478.801 286.259 478.04 286.386 477.66C285.879 477.025 284.484 476.772 281.567 476.391C279.412 476.137 276.749 476.011 273.833 476.011C271.55 476.011 269.268 475.884 266.859 475.757C262.04 475.376 255.954 474.615 250.628 471.571C250.375 471.444 250.248 471.063 250.375 470.81C250.501 470.556 250.882 470.429 251.135 470.556C256.207 473.474 262.167 474.235 266.859 474.615C269.268 474.742 271.55 474.869 273.833 474.869C276.749 474.996 279.412 474.996 281.694 475.249C283.343 475.503 284.611 475.63 285.498 475.884L285.371 475.757C284.991 475.249 284.484 474.615 284.103 474.108C283.596 473.347 283.089 472.459 282.835 471.571C282.582 470.429 282.835 469.288 283.469 468.526C284.23 467.638 285.625 467.385 286.513 467.258C289.175 467.004 291.838 467.385 294.374 467.765C294.628 467.765 294.881 468.146 294.881 468.4C294.881 468.653 294.501 468.907 294.247 468.907C291.711 468.526 289.175 468.146 286.639 468.4C285.879 468.526 284.864 468.653 284.357 469.288C283.977 469.795 283.85 470.556 283.977 471.317C284.103 472.078 284.611 472.839 284.991 473.6C285.371 474.108 285.752 474.742 286.132 475.249C286.386 475.63 286.639 475.884 286.893 476.264L287.02 476.391C287.527 477.152 288.415 478.167 288.161 479.309C287.781 481.719 284.357 481.846 282.709 481.846C282.582 481.719 282.201 481.719 281.948 481.719ZM276.749 480.323C278.778 480.45 280.68 480.577 282.709 480.577C284.103 480.577 286.893 480.45 287.147 478.928C287.147 478.801 287.147 478.548 287.147 478.421C286.259 479.436 283.723 479.943 282.075 480.07C280.299 480.323 278.524 480.45 276.749 480.323ZM254.559 479.182C253.925 479.182 253.291 479.182 252.657 479.309C252.277 479.309 251.896 479.436 251.643 479.562C251.389 479.689 251.262 479.943 251.262 480.07C251.262 480.197 251.389 480.45 251.643 480.577C251.896 480.704 252.277 480.704 252.657 480.704C255.066 480.831 257.475 480.45 259.758 480.07C260.265 479.943 260.772 479.943 261.406 479.816L260.772 479.689C258.743 479.436 256.715 479.182 254.559 479.182Z" fill="#263238"/>
<path d="M415.087 175.63H301.221C296.276 180.577 293.486 183.368 288.541 188.315V470.81C293.486 475.757 296.276 478.548 301.221 483.495H415.087C420.033 478.548 422.822 475.757 427.767 470.81V188.315C422.822 183.368 420.033 180.577 415.087 175.63Z" fill="black"/>
<path d="M268.126 200.239L265.463 203.664L258.996 194.404L263.941 212.67L266.477 209.118L272.944 218.505L268.126 200.239Z" fill="#407BFF"/>
<path d="M365.635 139.097L361.704 141L360.056 129.837L356.252 148.357L360.183 146.328L361.831 157.617L365.635 139.097Z" fill="#407BFF"/>
<path d="M397.969 144.171L392.137 142.776L400.505 129.33L379.837 145.567L385.67 146.962L377.428 160.408L397.969 144.171Z" fill="#407BFF"/>
<path opacity="0.7" d="M288.541 470.81L301.221 483.495H351.814L339.134 470.81H288.541Z" fill="#263238"/>
<path opacity="0.7" d="M288.541 188.315L301.221 175.63H351.814L339.134 188.315H288.541Z" fill="#263238"/>
<path d="M465.681 175.63H351.815C346.87 180.577 344.08 183.368 339.135 188.315V470.81C344.08 475.757 346.87 478.548 351.815 483.495H465.681C470.626 478.548 473.416 475.757 478.361 470.81V188.315C473.416 183.368 470.626 180.577 465.681 175.63Z" fill="#263238"/>
<path opacity="0.6" d="M353.336 477.533L344.967 469.161V189.964L353.336 181.592H464.032L472.401 189.964V469.161L464.032 477.533H353.336Z" fill="#407BFF"/>
<path d="M472.4 196.56H350.926V221.042H472.4V196.56Z" fill="#263238"/>
<path d="M465.555 203.03C465.555 202.395 466.062 202.015 466.569 202.015C467.076 202.015 467.584 202.522 467.584 203.03C467.584 203.664 467.076 204.044 466.569 204.044C466.062 204.044 465.555 203.537 465.555 203.03Z" fill="#407BFF"/>
<path d="M460.482 203.03C460.482 202.395 460.99 202.015 461.497 202.015C462.004 202.015 462.511 202.522 462.511 203.03C462.511 203.664 462.004 204.044 461.497 204.044C460.99 204.044 460.482 203.537 460.482 203.03Z" fill="white"/>
<path d="M455.283 203.03C455.283 202.395 455.79 202.015 456.298 202.015C456.805 202.015 457.312 202.522 457.312 203.03C457.312 203.664 456.805 204.044 456.298 204.044C455.79 204.044 455.283 203.537 455.283 203.03Z" fill="#407BFF"/>
<path d="M472.4 206.455H350.926V211.148H472.4V206.455Z" fill="#407BFF"/>
<path d="M345.027 221.043H350.986V196.561H345.027V221.043Z" fill="black"/>
<path d="M472.4 223.453H350.926V247.935H472.4V223.453Z" fill="#263238"/>
<path d="M466.569 230.81C467.129 230.81 467.583 230.355 467.583 229.795C467.583 229.234 467.129 228.78 466.569 228.78C466.009 228.78 465.555 229.234 465.555 229.795C465.555 230.355 466.009 230.81 466.569 230.81Z" fill="#407BFF"/>
<path d="M461.497 230.81C462.057 230.81 462.511 230.355 462.511 229.795C462.511 229.234 462.057 228.78 461.497 228.78C460.937 228.78 460.482 229.234 460.482 229.795C460.482 230.355 460.937 230.81 461.497 230.81Z" fill="white"/>
<path d="M456.425 230.81C456.985 230.81 457.439 230.355 457.439 229.795C457.439 229.234 456.985 228.78 456.425 228.78C455.864 228.78 455.41 229.234 455.41 229.795C455.41 230.355 455.864 230.81 456.425 230.81Z" fill="white"/>
<path d="M472.4 233.22H350.926V237.913H472.4V233.22Z" fill="#407BFF"/>
<path d="M345.027 247.821H350.986V223.339H345.027V247.821Z" fill="black"/>
<path d="M472.4 250.218H350.926V274.7H472.4V250.218Z" fill="#263238"/>
<path d="M466.569 257.702C467.129 257.702 467.583 257.248 467.583 256.687C467.583 256.127 467.129 255.672 466.569 255.672C466.009 255.672 465.555 256.127 465.555 256.687C465.555 257.248 466.009 257.702 466.569 257.702Z" fill="#407BFF"/>
<path d="M461.497 257.702C462.057 257.702 462.511 257.248 462.511 256.687C462.511 256.127 462.057 255.672 461.497 255.672C460.937 255.672 460.482 256.127 460.482 256.687C460.482 257.248 460.937 257.702 461.497 257.702Z" fill="#407BFF"/>
<path d="M456.425 257.702C456.985 257.702 457.439 257.248 457.439 256.687C457.439 256.127 456.985 255.672 456.425 255.672C455.864 255.672 455.41 256.127 455.41 256.687C455.41 257.248 455.864 257.702 456.425 257.702Z" fill="#407BFF"/>
<path d="M472.4 260.112H350.926V264.806H472.4V260.112Z" fill="#407BFF"/>
<path d="M345.027 274.726H350.986V250.244H345.027V274.726Z" fill="black"/>
<path d="M472.4 277.11H350.926V301.592H472.4V277.11Z" fill="#263238"/>
<path d="M466.569 284.467C467.129 284.467 467.583 284.013 467.583 283.452C467.583 282.892 467.129 282.438 466.569 282.438C466.009 282.438 465.555 282.892 465.555 283.452C465.555 284.013 466.009 284.467 466.569 284.467Z" fill="white"/>
<path d="M461.497 284.467C462.057 284.467 462.511 284.013 462.511 283.452C462.511 282.892 462.057 282.438 461.497 282.438C460.937 282.438 460.482 282.892 460.482 283.452C460.482 284.013 460.937 284.467 461.497 284.467Z" fill="white"/>
<path d="M456.425 284.467C456.985 284.467 457.439 284.013 457.439 283.452C457.439 282.892 456.985 282.438 456.425 282.438C455.864 282.438 455.41 282.892 455.41 283.452C455.41 284.013 455.864 284.467 456.425 284.467Z" fill="#407BFF"/>
<path d="M472.4 286.877H350.926V291.571H472.4V286.877Z" fill="#407BFF"/>
<path d="M345.027 301.503H350.986V277.021H345.027V301.503Z" fill="black"/>
<path d="M472.4 303.875H350.926V328.357H472.4V303.875Z" fill="#263238"/>
<path d="M465.555 310.345C465.555 309.71 466.062 309.33 466.569 309.33C467.076 309.33 467.584 309.837 467.584 310.345C467.584 310.979 467.076 311.359 466.569 311.359C466.062 311.359 465.555 310.979 465.555 310.345Z" fill="white"/>
<path d="M460.482 310.345C460.482 309.71 460.99 309.33 461.497 309.33C462.004 309.33 462.511 309.837 462.511 310.345C462.511 310.979 462.004 311.359 461.497 311.359C460.99 311.359 460.482 310.979 460.482 310.345Z" fill="white"/>
<path d="M455.283 310.345C455.283 309.71 455.79 309.33 456.298 309.33C456.805 309.33 457.312 309.837 457.312 310.345C457.312 310.979 456.805 311.359 456.298 311.359C455.79 311.359 455.283 310.979 455.283 310.345Z" fill="white"/>
<path d="M472.4 313.77H350.926V318.463H472.4V313.77Z" fill="#407BFF"/>
<path d="M345.027 328.408H350.986V303.926H345.027V328.408Z" fill="black"/>
<path d="M472.4 330.767H350.926V355.25H472.4V330.767Z" fill="#263238"/>
<path d="M465.555 337.11C465.555 336.476 466.062 336.095 466.569 336.095C467.076 336.095 467.584 336.603 467.584 337.11C467.584 337.744 467.076 338.125 466.569 338.125C466.062 338.125 465.555 337.744 465.555 337.11Z" fill="#407BFF"/>
<path d="M460.482 337.11C460.482 336.476 460.99 336.095 461.497 336.095C462.004 336.095 462.511 336.603 462.511 337.11C462.511 337.744 462.004 338.125 461.497 338.125C460.99 338.125 460.482 337.744 460.482 337.11Z" fill="white"/>
<path d="M455.283 337.11C455.283 336.476 455.79 336.095 456.298 336.095C456.805 336.095 457.312 336.603 457.312 337.11C457.312 337.744 456.805 338.125 456.298 338.125C455.79 338.125 455.283 337.744 455.283 337.11Z" fill="#407BFF"/>
<path d="M472.4 340.662H350.926V345.355H472.4V340.662Z" fill="#407BFF"/>
<path d="M345.027 355.185H350.986V330.703H345.027V355.185Z" fill="black"/>
<path d="M472.4 357.533H350.926V382.015H472.4V357.533Z" fill="#263238"/>
<path d="M466.569 365.017C467.129 365.017 467.583 364.563 467.583 364.002C467.583 363.442 467.129 362.987 466.569 362.987C466.009 362.987 465.555 363.442 465.555 364.002C465.555 364.563 466.009 365.017 466.569 365.017Z" fill="white"/>
<path d="M461.497 365.017C462.057 365.017 462.511 364.563 462.511 364.002C462.511 363.442 462.057 362.987 461.497 362.987C460.937 362.987 460.482 363.442 460.482 364.002C460.482 364.563 460.937 365.017 461.497 365.017Z" fill="white"/>
<path d="M456.425 365.017C456.985 365.017 457.439 364.563 457.439 364.002C457.439 363.442 456.985 362.987 456.425 362.987C455.864 362.987 455.41 363.442 455.41 364.002C455.41 364.563 455.864 365.017 456.425 365.017Z" fill="#407BFF"/>
<path d="M472.4 367.427H350.926V372.121H472.4V367.427Z" fill="#407BFF"/>
<path d="M345.027 382.09H350.986V357.608H345.027V382.09Z" fill="black"/>
<path d="M472.4 384.425H350.926V408.907H472.4V384.425Z" fill="#263238"/>
<path d="M466.569 391.909C467.129 391.909 467.583 391.455 467.583 390.894C467.583 390.334 467.129 389.88 466.569 389.88C466.009 389.88 465.555 390.334 465.555 390.894C465.555 391.455 466.009 391.909 466.569 391.909Z" fill="white"/>
<path d="M461.497 391.909C462.057 391.909 462.511 391.455 462.511 390.894C462.511 390.334 462.057 389.88 461.497 389.88C460.937 389.88 460.482 390.334 460.482 390.894C460.482 391.455 460.937 391.909 461.497 391.909Z" fill="#407BFF"/>
<path d="M456.425 391.909C456.985 391.909 457.439 391.455 457.439 390.894C457.439 390.334 456.985 389.88 456.425 389.88C455.864 389.88 455.41 390.334 455.41 390.894C455.41 391.455 455.864 391.909 456.425 391.909Z" fill="white"/>
<path d="M472.4 394.319H350.926V399.013H472.4V394.319Z" fill="#407BFF"/>
<path d="M345.027 408.868H350.986V384.386H345.027V408.868Z" fill="black"/>
<path d="M472.4 411.19H350.926V435.672H472.4V411.19Z" fill="#263238"/>
<path d="M466.569 418.674C467.129 418.674 467.583 418.22 467.583 417.66C467.583 417.099 467.129 416.645 466.569 416.645C466.009 416.645 465.555 417.099 465.555 417.66C465.555 418.22 466.009 418.674 466.569 418.674Z" fill="#407BFF"/>
<path d="M461.497 418.674C462.057 418.674 462.511 418.22 462.511 417.66C462.511 417.099 462.057 416.645 461.497 416.645C460.937 416.645 460.482 417.099 460.482 417.66C460.482 418.22 460.937 418.674 461.497 418.674Z" fill="white"/>
<path d="M456.425 418.674C456.985 418.674 457.439 418.22 457.439 417.66C457.439 417.099 456.985 416.645 456.425 416.645C455.864 416.645 455.41 417.099 455.41 417.66C455.41 418.22 455.864 418.674 456.425 418.674Z" fill="#407BFF"/>
<path d="M472.4 421.085H350.926V425.778H472.4V421.085Z" fill="#407BFF"/>
<path d="M345.027 435.772H350.986V411.29H345.027V435.772Z" fill="black"/>
<path d="M472.4 438.083H350.926V462.565H472.4V438.083Z" fill="#263238"/>
<path d="M466.569 445.567C467.129 445.567 467.583 445.112 467.583 444.552C467.583 443.991 467.129 443.537 466.569 443.537C466.009 443.537 465.555 443.991 465.555 444.552C465.555 445.112 466.009 445.567 466.569 445.567Z" fill="#407BFF"/>
<path d="M461.497 445.567C462.057 445.567 462.511 445.112 462.511 444.552C462.511 443.991 462.057 443.537 461.497 443.537C460.937 443.537 460.482 443.991 460.482 444.552C460.482 445.112 460.937 445.567 461.497 445.567Z" fill="#407BFF"/>
<path d="M456.425 445.567C456.985 445.567 457.439 445.112 457.439 444.552C457.439 443.991 456.985 443.537 456.425 443.537C455.864 443.537 455.41 443.991 455.41 444.552C455.41 445.112 455.864 445.567 456.425 445.567Z" fill="white"/>
<path d="M472.4 447.977H350.926V452.67H472.4V447.977Z" fill="#407BFF"/>
<path d="M345.027 462.55H350.986V438.068H345.027V462.55Z" fill="black"/>
<path opacity="0.7" d="M353.336 477.533L344.967 469.161V189.964L353.336 181.592H418.891L427.26 189.964V469.161L418.891 477.533H353.336Z" fill="#407BFF"/>
<path d="M418.891 477.533L427.259 469.161V189.964L418.891 181.592H422.187L429.415 188.696V470.429L422.187 477.533H418.891Z" fill="#407BFF"/>
<path d="M590.197 186.666C592.987 192.121 595.396 197.448 597.678 203.03C598.82 205.82 599.834 208.611 600.848 211.529C601.863 214.446 602.75 217.491 603.384 220.789L603.511 221.423V221.803L603.638 222.311C603.638 222.565 603.765 222.945 603.765 223.199V224.087C603.765 225.228 603.765 226.116 603.638 227.004C603.384 228.78 603.131 230.429 602.75 231.951C601.99 235.123 600.975 238.04 599.961 240.831C597.805 246.539 595.269 251.994 592.48 257.321C591.592 258.97 589.436 259.605 587.788 258.717C586.393 257.956 585.759 256.307 586.013 254.911V254.784C587.281 249.203 588.676 243.495 589.817 237.913C590.451 235.123 590.831 232.332 591.212 229.795C591.338 228.526 591.465 227.258 591.465 226.116C591.465 225.609 591.465 225.102 591.338 224.721V224.467V224.34L591.212 224.087L591.085 223.706C590.451 221.423 589.436 218.759 588.422 216.222C587.408 213.685 586.266 211.021 585.125 208.484C582.843 203.283 580.307 198.082 577.898 192.882V192.755C576.249 189.33 577.771 185.144 581.194 183.495C584.364 181.846 588.422 183.368 590.197 186.666Z" fill="#FFB573"/>
<path d="M583.984 256.687L588.295 250.345L592.607 249.076C594.635 251.486 594.001 255.165 593.494 257.321L592.226 265.313C591.973 266.835 590.831 267.977 589.31 268.104L586.52 268.484C584.365 268.738 582.463 267.216 582.336 265.186L582.209 263.791C581.955 261.127 582.589 258.717 583.984 256.687Z" fill="#FFB573"/>
<path d="M577.01 273.812C578.025 272.543 578.532 271.021 578.532 269.499L599.834 259.605L599.961 259.732C602.624 262.015 606.681 261.634 608.964 258.97C609.471 258.336 609.851 257.702 610.105 257.068L605.413 257.702C604.145 257.829 603.004 256.941 603.004 255.672L602.877 254.023C602.751 252.755 603.765 251.74 604.906 251.613L609.598 251.486C609.217 250.852 608.71 250.345 608.203 249.837C605.54 247.554 601.483 247.935 599.2 250.598C598.186 251.867 597.679 253.389 597.679 254.911L576.376 264.806L576.249 264.679C573.587 262.395 569.529 262.776 567.247 265.44C566.739 266.074 566.359 266.708 566.105 267.343L570.797 266.708C572.065 266.581 573.206 267.469 573.206 268.738L573.333 270.387C573.46 271.655 572.445 272.67 571.304 272.797L566.613 272.924C566.993 273.558 567.5 274.066 568.007 274.573C570.67 276.856 574.728 276.476 577.01 273.812Z" fill="#263238"/>
<path opacity="0.1" d="M578.025 266.835C577.771 266.201 578.025 265.44 578.659 265.186L595.777 257.321C596.411 257.068 597.172 257.321 597.425 257.956C597.679 258.59 597.425 259.351 596.791 259.605L579.673 267.469C579.039 267.85 578.279 267.469 578.025 266.835Z" fill="white"/>
<path d="M575.107 173.347C582.715 174.996 586.519 178.928 593.874 191.233C589.689 197.448 579.419 202.776 579.419 202.776L574.981 197.702C569.528 187.427 575.107 173.347 575.107 173.347Z" fill="#263238"/>
<path opacity="0.2" d="M572.572 187.427C572.572 190.852 573.206 194.531 574.981 197.702L579.419 202.776C579.419 202.776 581.068 201.888 583.223 200.493C579.673 193.389 576.883 189.71 572.572 187.427Z" fill="black"/>
<path d="M539.984 185.271L539.857 186.032L539.73 186.666L539.477 187.808C539.223 188.569 539.096 189.203 538.843 189.964C538.335 191.359 537.828 192.628 537.067 194.023C535.673 196.56 534.024 199.097 531.995 201.127C529.967 203.283 527.557 205.059 525.021 206.581C522.485 207.977 519.696 208.992 517.033 209.753L516.526 209.88C513.229 210.767 509.932 208.738 509.045 205.44C508.918 205.186 508.918 204.806 508.918 204.552C508.664 201.761 508.918 199.224 509.425 196.941C509.932 194.658 510.566 192.374 511.327 190.345C512.849 186.159 514.751 182.48 516.779 178.801C518.808 175.25 521.091 171.698 523.5 168.4C525.909 165.102 528.445 161.93 531.235 158.886C532.503 157.491 534.658 157.364 536.18 158.632C537.448 159.774 537.701 161.55 536.814 162.945V163.072C534.912 166.37 533.01 169.795 531.235 173.22C529.459 176.645 527.811 180.07 526.289 183.622C524.768 187.047 523.5 190.598 522.612 194.023C521.725 197.321 521.217 200.873 521.725 203.156L513.609 197.829C515.258 197.195 516.906 196.307 518.301 195.419C519.696 194.404 520.964 193.262 521.978 191.994C522.993 190.725 524.007 189.33 524.768 187.808C525.148 187.047 525.529 186.285 525.782 185.398C525.909 185.017 526.036 184.636 526.163 184.256L526.289 183.748L526.416 183.495C526.416 183.495 526.416 183.241 526.416 183.495C527.05 179.689 530.601 177.025 534.405 177.66C537.955 177.787 540.491 181.465 539.984 185.271Z" fill="#FFB573"/>
<path d="M543.154 184.256C543.915 179.436 540.618 173.727 540.618 173.727C533.01 174.108 525.783 175.884 518.809 190.345C520.457 198.336 531.108 203.918 531.108 203.918L538.589 194.277C538.463 194.277 542.393 189.076 543.154 184.256Z" fill="#263238"/>
<path d="M533.137 155.207L535.293 152.924C536.181 151.909 537.322 151.148 538.59 150.768L540.619 150.006C542.901 149.245 545.31 150.641 545.817 152.924L546.325 155.588C546.705 157.617 545.564 159.52 543.535 160.028L540.492 160.916C540.492 160.916 536.815 167.004 529.714 164.34C529.587 160.916 530.855 157.617 533.137 155.207Z" fill="#FFB573"/>
<path d="M588.423 463.706H577.898C577.898 463.706 578.406 471.444 578.406 476.011L587.662 477.152C586.901 471.951 588.423 463.706 588.423 463.706Z" fill="#FFB573"/>
<path d="M542.014 246.539C542.014 246.539 560.907 326.835 566.866 359.436C573.08 393.685 577.264 462.438 577.264 464.848C580.688 464.214 586.14 464.087 588.93 464.848C588.93 464.848 601.99 384.044 590.198 354.108C585.76 297.279 591.466 265.059 580.054 246.539H542.014Z" fill="#407BFF"/>
<path opacity="0.2" d="M566.106 271.402C563.063 258.717 552.539 259.985 545.691 262.269C550.003 280.535 556.977 311.486 562.175 335.968C569.53 318.463 570.291 288.526 566.106 271.402Z" fill="black"/>
<path d="M521.219 462.311C520.205 474.615 510.314 487.808 510.314 487.808L525.657 483.875L532.124 474.235C532.378 470.429 532.378 467.385 533.519 463.452L521.219 462.311Z" fill="#FFB573"/>
<path d="M526.545 246.539C526.545 246.539 529.208 331.909 528.574 356.899C527.56 391.529 520.332 464.975 520.332 464.975C525.784 464.467 530.603 464.214 533.646 464.975C533.646 464.975 556.47 405.482 553.807 357.279C559.513 312.501 578.787 271.529 566.868 246.666L526.545 246.539Z" fill="#407BFF"/>
<path d="M567.247 150.133C565.725 156.603 564.077 168.527 568.388 172.839C568.388 172.839 563.443 181.465 552.285 186.032C543.789 180.577 548.227 172.839 548.227 172.839C555.455 171.064 555.455 165.736 554.44 160.789L567.247 150.133Z" fill="#FFB573"/>
<path d="M568.514 166.116C568.514 166.116 553.806 164.087 546.578 170.176C546.451 172.713 544.803 174.235 544.803 174.235C552.664 176.011 560.653 176.391 568.768 175.376C570.67 172.078 568.514 166.116 568.514 166.116Z" fill="#407BFF"/>
<path d="M528.065 188.061C528.826 208.357 524.388 239.182 526.544 246.539C548.353 248.696 565.345 248.315 579.927 246.539C582.463 238.548 576.376 214.7 583.35 186.285C584.872 179.943 580.687 173.981 574.221 173.22C572.319 172.966 570.29 172.839 568.261 172.712C560.78 172.332 554.693 172.078 548.1 172.712C545.564 172.966 542.901 173.347 540.365 173.6C533.518 174.742 527.812 180.958 528.065 188.061Z" fill="#263238"/>
<path d="M543.281 139.351C543.154 140.239 542.647 140.873 542.14 140.873C541.633 140.873 541.125 140.112 541.252 139.224C541.379 138.336 541.886 137.702 542.393 137.702C543.027 137.702 543.408 138.463 543.281 139.351Z" fill="#263238"/>
<path d="M542.648 137.702L540.619 136.941C540.619 136.941 541.634 138.717 542.648 137.702Z" fill="#263238"/>
<path d="M542.14 133.516C542.013 133.516 541.886 133.389 541.886 133.262C541.759 133.009 541.759 132.755 542.013 132.501C544.422 130.979 546.578 131.867 546.704 131.994C546.958 132.121 547.085 132.374 546.958 132.628C546.831 132.882 546.578 133.009 546.324 132.882C546.197 132.882 544.549 132.121 542.647 133.389C542.52 133.516 542.266 133.516 542.14 133.516Z" fill="#263238"/>
<path d="M543.156 141.761C543.156 141.761 541.381 145.44 539.479 147.216C540.493 148.357 542.522 147.977 542.522 147.977L543.156 141.761Z" fill="#ED893E"/>
<path d="M573.08 137.448C571.432 148.231 570.924 152.797 564.965 157.998C556.089 165.863 543.282 161.93 541.76 150.894C540.366 141 543.409 125.017 554.187 121.338C565.092 117.913 574.855 126.666 573.08 137.448Z" fill="#FFB573"/>
<path d="M546.198 125.397C544.042 129.71 548.353 137.575 551.143 140.873C546.071 146.328 540.999 155.841 547.719 161.55C553.933 166.751 586.901 166.624 580.434 155.588C586.14 148.611 576.63 147.596 581.195 134.023C584.491 124.129 578.278 121.465 572.699 122.353C566.486 114.235 550.763 116.391 546.198 125.397Z" fill="#263238"/>
<path d="M548.607 129.837C548.607 129.837 558.878 138.209 570.544 139.605C576.884 140.366 580.054 140.239 580.307 139.351C580.561 138.336 581.195 135.165 581.195 135.165L548.607 129.837Z" fill="#E0E0E0"/>
<path d="M539.985 127.681C543.028 130.091 566.486 136.814 582.209 135.292C582.336 134.404 581.829 134.277 581.829 134.277C581.829 134.277 585.506 122.099 577.137 117.533C573.206 111.063 561.287 111.444 556.088 113.347L555.328 114.235C555.328 114.235 545.057 116.645 544.93 125.144C540.872 125.651 536.561 124.89 539.985 127.681Z" fill="#407BFF"/>
<path opacity="0.2" d="M555.328 114.235L556.089 113.347C556.089 113.347 564.331 112.332 571.305 118.421C567.374 116.011 560.781 113.727 555.328 114.235Z" fill="black"/>
<path d="M549.622 137.321C547.339 137.068 545.31 140.239 544.423 142.649C543.535 145.313 544.55 147.723 546.832 146.835C548.354 146.328 550.129 144.932 551.143 142.903C552.411 140.493 551.904 137.702 549.622 137.321Z" fill="#FFB573"/>
<path d="M581.575 468.907C588.042 467.765 587.915 471.063 588.296 474.742C588.549 476.772 588.296 479.182 587.281 481.085C584.999 485.144 586.901 490.979 579.673 490.979C572.446 490.979 571.685 489.33 573.714 485.651C575.616 482.099 576.63 478.294 577.518 474.108C578.025 472.078 578.659 469.414 581.575 468.907Z" fill="#263238"/>
<path d="M587.915 476.518C587.915 480.831 588.042 490.979 588.042 490.979H586.9C586.9 490.979 585.886 480.197 585.252 477.406L587.915 476.518Z" fill="#263238"/>
<path d="M533.011 470.302C533.518 471.444 533.645 472.713 533.645 473.981C533.391 478.548 532.377 490.725 532.377 490.725H531.362C531.362 490.725 531.616 482.48 531.236 479.436C530.855 476.391 529.334 481.719 527.178 484.763C525.022 487.808 521.092 490.598 514.244 490.725C506.256 490.979 502.959 490.598 505.368 488.569C507.778 486.539 513.103 485.271 513.103 485.271C513.103 485.271 519.19 482.987 523.12 476.137C525.656 471.698 529.46 469.668 531.489 468.653C532.25 469.034 532.757 469.668 533.011 470.302Z" fill="#263238"/>
<path d="M311.326 84.638C313.891 84.638 315.781 85.1493 316.994 86.172C318.225 87.1947 318.84 88.564 318.84 90.28C318.84 91.3893 318.563 92.4033 318.008 93.322C317.453 94.2233 316.604 94.9513 315.46 95.506C314.333 96.0433 312.938 96.312 311.274 96.312C309.991 96.312 308.726 96.1473 307.478 95.818C306.247 95.4713 305.199 94.986 304.332 94.362L305.996 91.138C306.689 91.658 307.487 92.0653 308.388 92.36C309.289 92.6373 310.217 92.776 311.17 92.776C312.227 92.776 313.059 92.568 313.666 92.152C314.273 91.736 314.576 91.1553 314.576 90.41C314.576 89.63 314.255 89.0407 313.614 88.642C312.99 88.2433 311.898 88.044 310.338 88.044H305.684L306.62 77.8H317.722V81.18H310.13L309.844 84.638H311.326ZM327.049 96.312C325.541 96.312 324.198 95.9393 323.019 95.194C321.84 94.4487 320.913 93.374 320.237 91.97C319.578 90.5487 319.249 88.8587 319.249 86.9C319.249 84.9413 319.578 83.26 320.237 81.856C320.913 80.4347 321.84 79.3513 323.019 78.606C324.198 77.8607 325.541 77.488 327.049 77.488C328.557 77.488 329.9 77.8607 331.079 78.606C332.258 79.3513 333.176 80.4347 333.835 81.856C334.511 83.26 334.849 84.9413 334.849 86.9C334.849 88.8587 334.511 90.5487 333.835 91.97C333.176 93.374 332.258 94.4487 331.079 95.194C329.9 95.9393 328.557 96.312 327.049 96.312ZM327.049 92.75C328.158 92.75 329.025 92.2733 329.649 91.32C330.29 90.3667 330.611 88.8933 330.611 86.9C330.611 84.9067 330.29 83.4333 329.649 82.48C329.025 81.5267 328.158 81.05 327.049 81.05C325.957 81.05 325.09 81.5267 324.449 82.48C323.825 83.4333 323.513 84.9067 323.513 86.9C323.513 88.8933 323.825 90.3667 324.449 91.32C325.09 92.2733 325.957 92.75 327.049 92.75ZM343.395 96.312C341.887 96.312 340.544 95.9393 339.365 95.194C338.187 94.4487 337.259 93.374 336.583 91.97C335.925 90.5487 335.595 88.8587 335.595 86.9C335.595 84.9413 335.925 83.26 336.583 81.856C337.259 80.4347 338.187 79.3513 339.365 78.606C340.544 77.8607 341.887 77.488 343.395 77.488C344.903 77.488 346.247 77.8607 347.425 78.606C348.604 79.3513 349.523 80.4347 350.181 81.856C350.857 83.26 351.195 84.9413 351.195 86.9C351.195 88.8587 350.857 90.5487 350.181 91.97C349.523 93.374 348.604 94.4487 347.425 95.194C346.247 95.9393 344.903 96.312 343.395 96.312ZM343.395 92.75C344.505 92.75 345.371 92.2733 345.995 91.32C346.637 90.3667 346.957 88.8933 346.957 86.9C346.957 84.9067 346.637 83.4333 345.995 82.48C345.371 81.5267 344.505 81.05 343.395 81.05C342.303 81.05 341.437 81.5267 340.795 82.48C340.171 83.4333 339.859 84.9067 339.859 86.9C339.859 88.8933 340.171 90.3667 340.795 91.32C341.437 92.2733 342.303 92.75 343.395 92.75Z" fill="#EB5757"/>
<path d="M547.576 96.312C546.137 96.312 544.742 96.1213 543.39 95.74C542.055 95.3413 540.981 94.83 540.166 94.206L541.596 91.034C542.376 91.606 543.303 92.0653 544.378 92.412C545.453 92.7587 546.527 92.932 547.602 92.932C548.798 92.932 549.682 92.7587 550.254 92.412C550.826 92.048 551.112 91.5713 551.112 90.982C551.112 90.5487 550.939 90.1933 550.592 89.916C550.263 89.6213 549.829 89.3873 549.292 89.214C548.772 89.0407 548.061 88.85 547.16 88.642C545.773 88.3127 544.638 87.9833 543.754 87.654C542.87 87.3247 542.107 86.796 541.466 86.068C540.842 85.34 540.53 84.3693 540.53 83.156C540.53 82.0987 540.816 81.1453 541.388 80.296C541.96 79.4293 542.818 78.7447 543.962 78.242C545.123 77.7393 546.536 77.488 548.2 77.488C549.361 77.488 550.497 77.6267 551.606 77.904C552.715 78.1813 553.686 78.58 554.518 79.1L553.218 82.298C551.537 81.3447 549.855 80.868 548.174 80.868C546.995 80.868 546.12 81.0587 545.548 81.44C544.993 81.8213 544.716 82.324 544.716 82.948C544.716 83.572 545.037 84.04 545.678 84.352C546.337 84.6467 547.333 84.9413 548.668 85.236C550.055 85.5653 551.19 85.8947 552.074 86.224C552.958 86.5533 553.712 87.0733 554.336 87.784C554.977 88.4947 555.298 89.4567 555.298 90.67C555.298 91.71 555.003 92.6633 554.414 93.53C553.842 94.3793 552.975 95.0553 551.814 95.558C550.653 96.0607 549.24 96.312 547.576 96.312ZM570.292 89.058C570.292 89.11 570.266 89.474 570.214 90.15H559.632C559.823 91.0167 560.273 91.7013 560.984 92.204C561.695 92.7067 562.579 92.958 563.636 92.958C564.364 92.958 565.005 92.854 565.56 92.646C566.132 92.4207 566.661 92.074 567.146 91.606L569.304 93.946C567.987 95.454 566.063 96.208 563.532 96.208C561.955 96.208 560.559 95.9047 559.346 95.298C558.133 94.674 557.197 93.816 556.538 92.724C555.879 91.632 555.55 90.3927 555.55 89.006C555.55 87.6367 555.871 86.406 556.512 85.314C557.171 84.2047 558.063 83.3467 559.19 82.74C560.334 82.116 561.608 81.804 563.012 81.804C564.381 81.804 565.621 82.0987 566.73 82.688C567.839 83.2773 568.706 84.1267 569.33 85.236C569.971 86.328 570.292 87.602 570.292 89.058ZM563.038 84.872C562.119 84.872 561.348 85.132 560.724 85.652C560.1 86.172 559.719 86.8827 559.58 87.784H566.47C566.331 86.9 565.95 86.198 565.326 85.678C564.702 85.1407 563.939 84.872 563.038 84.872ZM575.567 83.858C576.052 83.182 576.702 82.6707 577.517 82.324C578.349 81.9773 579.302 81.804 580.377 81.804V85.548C579.926 85.5133 579.623 85.496 579.467 85.496C578.305 85.496 577.395 85.8253 576.737 86.484C576.078 87.1253 575.749 88.096 575.749 89.396V96H571.693V82.012H575.567V83.858ZM595.855 82.012L589.953 96H585.767L579.891 82.012H584.077L587.951 91.528L591.955 82.012H595.855ZM609.531 89.058C609.531 89.11 609.505 89.474 609.453 90.15H598.871C599.062 91.0167 599.512 91.7013 600.223 92.204C600.934 92.7067 601.818 92.958 602.875 92.958C603.603 92.958 604.244 92.854 604.799 92.646C605.371 92.4207 605.9 92.074 606.385 91.606L608.543 93.946C607.226 95.454 605.302 96.208 602.771 96.208C601.194 96.208 599.798 95.9047 598.585 95.298C597.372 94.674 596.436 93.816 595.777 92.724C595.118 91.632 594.789 90.3927 594.789 89.006C594.789 87.6367 595.11 86.406 595.751 85.314C596.41 84.2047 597.302 83.3467 598.429 82.74C599.573 82.116 600.847 81.804 602.251 81.804C603.62 81.804 604.86 82.0987 605.969 82.688C607.078 83.2773 607.945 84.1267 608.569 85.236C609.21 86.328 609.531 87.602 609.531 89.058ZM602.277 84.872C601.358 84.872 600.587 85.132 599.963 85.652C599.339 86.172 598.958 86.8827 598.819 87.784H605.709C605.57 86.9 605.189 86.198 604.565 85.678C603.941 85.1407 603.178 84.872 602.277 84.872ZM614.805 83.858C615.291 83.182 615.941 82.6707 616.755 82.324C617.587 81.9773 618.541 81.804 619.615 81.804V85.548C619.165 85.5133 618.861 85.496 618.705 85.496C617.544 85.496 616.634 85.8253 615.975 86.484C615.317 87.1253 614.987 88.096 614.987 89.396V96H610.931V82.012H614.805V83.858ZM641.27 92.62V96H627.178V77.8H640.932V81.18H631.364V85.132H639.814V88.408H631.364V92.62H641.27ZM646.909 83.858C647.394 83.182 648.044 82.6707 648.859 82.324C649.691 81.9773 650.644 81.804 651.719 81.804V85.548C651.268 85.5133 650.965 85.496 650.809 85.496C649.648 85.496 648.738 85.8253 648.079 86.484C647.42 87.1253 647.091 88.096 647.091 89.396V96H643.035V82.012H646.909V83.858ZM656.705 83.858C657.19 83.182 657.84 82.6707 658.655 82.324C659.487 81.9773 660.44 81.804 661.515 81.804V85.548C661.064 85.5133 660.761 85.496 660.605 85.496C659.443 85.496 658.533 85.8253 657.875 86.484C657.216 87.1253 656.887 88.096 656.887 89.396V96H652.831V82.012H656.705V83.858ZM669.156 96.208C667.682 96.208 666.356 95.9047 665.178 95.298C664.016 94.674 663.106 93.816 662.448 92.724C661.789 91.632 661.46 90.3927 661.46 89.006C661.46 87.6193 661.789 86.38 662.448 85.288C663.106 84.196 664.016 83.3467 665.178 82.74C666.356 82.116 667.682 81.804 669.156 81.804C670.629 81.804 671.946 82.116 673.108 82.74C674.269 83.3467 675.179 84.196 675.838 85.288C676.496 86.38 676.826 87.6193 676.826 89.006C676.826 90.3927 676.496 91.632 675.838 92.724C675.179 93.816 674.269 94.674 673.108 95.298C671.946 95.9047 670.629 96.208 669.156 96.208ZM669.156 92.88C670.196 92.88 671.045 92.5333 671.704 91.84C672.38 91.1293 672.718 90.1847 672.718 89.006C672.718 87.8273 672.38 86.8913 671.704 86.198C671.045 85.4873 670.196 85.132 669.156 85.132C668.116 85.132 667.258 85.4873 666.582 86.198C665.906 86.8913 665.568 87.8273 665.568 89.006C665.568 90.1847 665.906 91.1293 666.582 91.84C667.258 92.5333 668.116 92.88 669.156 92.88ZM682.111 83.858C682.596 83.182 683.246 82.6707 684.061 82.324C684.893 81.9773 685.846 81.804 686.921 81.804V85.548C686.47 85.5133 686.167 85.496 686.011 85.496C684.849 85.496 683.939 85.8253 683.281 86.484C682.622 87.1253 682.293 88.096 682.293 89.396V96H678.237V82.012H682.111V83.858Z" fill="#EB5757"/>
</svg>
