<svg width="50" height="59" viewBox="0 0 50 59" fill="none" xmlns="http://www.w3.org/2000/svg">
<g clip-path="url(#clip0)">
<path d="M25.0001 18.2598C18.8315 18.2598 13.812 23.3024 13.812 29.5009C13.812 35.6993 18.8304 40.742 25.0001 40.742C31.1687 40.742 36.187 35.6993 36.187 29.5009C36.187 23.3024 31.1675 18.2598 25.0001 18.2598ZM31.6411 27.384L23.6262 35.4378C23.2902 35.7754 22.8487 35.9448 22.4072 35.9448C21.9668 35.9448 21.5253 35.7765 21.1893 35.4378L18.1262 32.3598C17.4531 31.6846 17.4531 30.5875 18.1262 29.9123C18.7982 29.2358 19.89 29.2358 20.562 29.9123L22.4072 31.7664L29.2042 24.9364C29.8762 24.26 30.9668 24.26 31.64 24.9364C32.3143 25.6117 32.3143 26.7076 31.6411 27.384Z" fill="#3F92D1"/>
<path d="M49.9423 16.0076L49.9412 15.9615C49.9159 15.3945 49.8987 14.7953 49.8884 14.1281C49.8402 10.875 47.2668 8.1843 44.0295 8.00223C37.2772 7.62311 32.0547 5.41176 27.5925 1.04092L27.5547 1.00404C26.0994 -0.337285 23.9033 -0.337285 22.448 1.00404L22.4102 1.04092C17.948 5.41176 12.7256 7.62311 5.97441 8.00223C2.73702 8.1843 0.162483 10.875 0.115465 14.1281C0.105144 14.7907 0.0879419 15.3899 0.0627125 15.9615L0.0604189 16.0686C-0.0714618 22.9862 -0.234306 31.5942 2.63267 39.4082C4.20835 43.7053 6.59482 47.44 9.72556 50.511C13.2909 54.0072 17.9618 56.7832 23.6074 58.7618C23.7909 58.8263 23.9813 58.8782 24.1762 58.9174C24.4503 58.9727 24.7267 59.0004 25.0019 59.0004C25.2783 59.0004 25.5547 58.9727 25.8276 58.9174C26.0214 58.8782 26.2141 58.8252 26.3987 58.7607C32.0375 56.7786 36.7026 54.0015 40.2657 50.5053C43.3953 47.4343 45.7817 43.6984 47.3597 39.4001C50.2359 31.563 50.073 22.9378 49.9423 16.0076ZM25.0008 44.2043C16.932 44.2043 10.3678 37.6082 10.3678 29.5004C10.3678 21.3925 16.932 14.7964 25.0008 14.7964C33.0696 14.7964 39.6338 21.3925 39.6338 29.5004C39.6327 37.6082 33.0684 44.2043 25.0008 44.2043Z" fill="#3F92D1"/>
</g>
<defs>
<clipPath id="clip0">
<rect width="50" height="59" fill="white"/>
</clipPath>
</defs>
</svg>
