<svg width="54" height="54" viewBox="0 0 54 54" fill="none" xmlns="http://www.w3.org/2000/svg">
<path d="M26.8016 53.9994C12.4138 53.9001 -0.096414 41.9594 0.000560052 26.7887C0.0937932 12.1913 12.2242 -0.0989228 27.2341 0.000600233C41.822 0.0975346 54.1293 12.2063 53.999 27.041C54.1198 41.741 41.7518 54.1032 26.8016 53.9994ZM26.8016 53.9994C12.4138 53.9001 -0.096414 41.9594 0.000560052 26.7887C0.0937932 12.1913 12.2242 -0.0989228 27.2341 0.000600233C41.822 0.0975346 54.1293 12.2063 53.999 27.041C54.1198 41.741 41.7518 54.1032 26.8016 53.9994Z" fill="white"/>
<path d="M26.828 50.4135C14.3506 50.3274 3.50232 39.9724 3.58642 26.8168C3.66737 14.1578 14.1867 3.49981 27.2032 3.58646C39.8534 3.67053 50.5263 14.1713 50.4132 27.0357C50.5179 39.7833 39.7928 50.5036 26.828 50.4135ZM26.828 50.4135C14.3506 50.3274 3.50232 39.9724 3.58642 26.8168C3.66737 14.1578 14.1867 3.49981 27.2032 3.58646C39.8534 3.67053 50.5263 14.1713 50.4132 27.0357C50.5179 39.7833 39.7928 50.5036 26.828 50.4135Z" fill="#49A32B"/>
<path d="M35.7175 26.9908C35.6574 28.1067 34.6826 29.0333 33.7218 28.8716C33.7172 28.8716 33.7123 28.8716 33.7074 28.8716C32.6432 28.873 31.7795 28.0113 31.7784 26.9471C31.8145 25.88 32.6995 25.039 33.7669 25.0571C34.8311 25.0623 35.7749 25.9616 35.7175 26.9908ZM18.6049 37.8043C19.0062 37.816 19.4078 37.8074 19.8705 37.8074V40.7154C16.9944 41.2017 14.6253 40.3851 14.0439 37.9539C13.8449 37.06 13.7225 36.1506 13.6777 35.2358C13.616 34.2673 13.7228 33.2878 13.649 32.321C13.4445 29.6606 13.0998 28.7524 10.5469 28.6266V25.3156C10.7298 25.2728 10.9154 25.2412 11.1021 25.2202C12.5018 25.1513 13.0918 24.7222 13.4049 23.3435C13.5473 22.5688 13.6318 21.7846 13.6568 20.9973C13.7676 19.475 13.7283 17.9279 13.9819 16.4303C14.3484 14.2646 15.693 13.2124 17.9139 13.0947C18.5458 13.0608 19.1797 13.0895 19.8958 13.0895V16.0618C19.6011 16.0828 19.3311 16.1256 19.0628 16.1175C17.2529 16.0621 17.1593 16.6785 17.0272 18.1767C16.9447 19.1162 17.0585 20.0719 16.9944 21.0146C16.9275 21.9527 16.802 22.8859 16.6187 23.8085C16.3576 25.1456 15.5356 26.14 14.3964 26.9839C16.6078 28.4229 16.8594 30.659 17.003 32.9296C17.0803 34.1498 17.045 35.3786 17.1688 36.5927C17.2653 37.5351 17.6318 37.7755 18.6049 37.8043ZM20.4688 25.0571C20.4803 25.0571 20.4915 25.0571 20.503 25.0571C21.5603 25.0746 22.4036 25.9458 22.3861 27.0034C22.3861 27.0381 22.3849 27.0726 22.3829 27.1071C22.3235 28.1406 21.4376 28.9299 20.4042 28.8704C20.3625 28.8713 20.3212 28.8704 20.2795 28.8684C19.2271 28.8161 18.4162 27.9205 18.4685 26.8681C18.5208 25.8157 19.4164 25.0048 20.4688 25.0571ZM27.0577 25.0571C28.2141 25.0482 28.9821 25.7976 28.9882 26.9408C28.9945 28.1147 28.2663 28.8658 27.1174 28.8707C25.9489 28.8759 25.1797 28.1368 25.1734 27.0005C25.17 26.9425 25.1691 26.8845 25.1708 26.8265C25.2033 25.8168 26.048 25.0246 27.0577 25.0571ZM40.8529 23.6089C41.1606 24.7578 41.7594 25.1616 42.969 25.2168C43.1672 25.226 43.3645 25.2596 43.6362 25.2898V28.5998C43.4892 28.6481 43.3384 28.6843 43.1853 28.7078C41.5644 28.8087 40.8257 29.4736 40.6619 31.0988C40.5574 32.1363 40.566 33.1852 40.4942 34.2265C40.464 35.3697 40.36 36.5097 40.1828 37.6394C39.7692 39.6862 38.4913 40.7073 36.3798 40.832C35.7002 40.8722 35.0158 40.8383 34.283 40.8383V37.8798C34.6774 37.8554 35.0255 37.8218 35.3745 37.8134C36.6361 37.7833 37.0821 37.3766 37.1439 36.1236C37.2122 34.7472 37.2421 33.3691 37.3036 31.9924C37.3929 30.0024 37.9378 28.2247 39.7916 26.9836C38.7309 26.2273 37.8792 25.3113 37.6586 24.0762C37.3918 22.5791 37.3056 21.049 37.162 19.531C37.091 18.7721 37.0945 18.0066 37.0204 17.2483C36.9405 16.4297 36.3781 16.1465 35.633 16.1281C35.2062 16.1178 34.7777 16.1261 34.2319 16.1261V13.2371C37.7143 12.6589 40.1199 13.8176 40.3434 17.1495C40.437 18.5487 40.4232 19.9544 40.5129 21.3535C40.5522 22.1147 40.6659 22.8701 40.8529 23.6089Z" fill="white"/>
</svg>
