<svg width="58" height="51" viewBox="0 0 58 51" fill="none" xmlns="http://www.w3.org/2000/svg">
<path d="M49.5039 25.5H52.9023V8.5H41.0078V11.9H49.5039V25.5Z" fill="#3F92D1"/>
<path d="M8.49609 11.9H16.9922V8.5H5.09766V25.5H8.49609V11.9Z" fill="#3F92D1"/>
<path d="M52.7347 40.3738C53.8902 39.1543 54.6016 37.5087 54.6016 35.6999C54.6016 31.9508 51.552 28.8999 47.8047 28.8999C44.0573 28.8999 41.0078 31.9508 41.0078 35.6999C41.0078 37.5087 41.7192 39.1543 42.8747 40.3738C40.8794 41.4799 39.2935 43.2373 38.4023 45.3559C37.5112 43.2373 35.9238 41.4799 33.93 40.3738C35.0855 39.1543 35.7969 37.5087 35.7969 35.6999C35.7969 31.9508 32.7473 28.8999 29 28.8999C25.2527 28.8999 22.2031 31.9508 22.2031 35.6999C22.2031 37.5087 22.9145 39.1543 24.07 40.3738C22.0747 41.4799 20.4873 43.2373 19.5977 45.3559C18.7065 43.2373 17.1191 41.4799 15.1253 40.3738C16.2808 39.1543 16.9922 37.5087 16.9922 35.6999C16.9922 31.9508 13.9427 28.8999 10.1953 28.8999C6.44797 28.8999 3.39844 31.9508 3.39844 35.6999C3.39844 37.5087 4.10984 39.1543 5.26531 40.3738C2.12818 42.1146 0 45.4632 0 49.2999V50.9999H58V49.2999C58 45.4632 55.8718 42.1146 52.7347 40.3738Z" fill="#3F92D1"/>
<path d="M39.1953 20.4C39.1953 16.5633 37.0671 13.2147 33.93 11.4739C35.0855 10.2544 35.7969 8.6088 35.7969 6.8C35.7969 3.05093 32.7473 0 29 0C25.2527 0 22.2031 3.05093 22.2031 6.8C22.2031 8.6088 22.9145 10.2544 24.07 11.4739C20.9329 13.2147 18.8047 16.5633 18.8047 20.4V22.1H39.1953V20.4Z" fill="#3F92D1"/>
</svg>
