<svg width="65" height="64" viewBox="0 0 65 64" fill="none" xmlns="http://www.w3.org/2000/svg">
<g clip-path="url(#clip0)">
<path d="M64.4427 44.1084L58.2836 37.8462L45.5431 50.7972C43.2688 53.1092 40.4144 54.6168 37.3145 55.1806L45.4325 63.4327C46.1753 64.1892 47.3812 64.1892 48.1253 63.4327L64.4427 46.8457C65.1856 46.0893 65.1856 44.8635 64.4427 44.1084Z" fill="#3F92D1"/>
<path d="M55.7753 34.9219C57.9224 32.7405 57.9224 29.1898 55.7778 27.0072C55.7753 27.0046 55.7727 27.002 55.7702 26.9994C55.2398 26.4602 54.619 26.0452 53.9448 25.7672C54.53 24.2621 54.6534 21.7174 52.7148 19.7468C52.7097 19.7416 52.7046 19.7365 52.6995 19.7313C52.1716 19.1973 51.556 18.7874 50.8844 18.5107C51.4695 17.0069 51.5929 14.4609 49.6556 12.4916C49.6543 12.4903 49.6531 12.489 49.6518 12.4877C49.1201 11.9472 48.5006 11.5322 47.8239 11.2542C48.409 9.74908 48.5324 7.20439 46.5939 5.23251C46.5939 5.23251 46.5939 5.23251 46.5926 5.23251L46.5913 5.23122C44.4442 3.04858 40.9487 3.04858 38.8015 5.23122L35.1902 8.90085L37.0372 10.7783C40.1142 13.9062 40.1142 18.9943 37.0372 22.1221C36.0018 23.1746 34.7298 23.8974 33.3433 24.2414C33.0113 25.6159 32.3193 26.918 31.2648 27.9899C30.2306 29.0411 28.9612 29.7639 27.576 30.1079C27.2376 31.5147 26.5265 32.8065 25.4924 33.8577C24.4582 34.9089 23.1888 35.6304 21.8035 35.9757C21.4652 37.3838 20.7541 38.6755 19.72 39.7255C18.2305 41.2396 16.2487 42.0736 14.1409 42.0736C12.0332 42.0736 10.0514 41.2396 8.56186 39.7242L6.71617 37.8467L0.558341 44.1089C-0.185788 44.8653 -0.185788 46.0911 0.558341 46.8462L16.8758 63.4332C17.6199 64.1897 18.8245 64.1884 19.5686 63.4332L31.2495 51.5606H34.5415C37.6808 51.5606 40.6319 50.318 42.8516 48.0617L55.7753 34.9219Z" fill="#3F92D1"/>
<path d="M11.2561 36.9869C12.8499 38.6084 15.4347 38.6084 17.0285 36.9869C18.6236 35.3668 18.6236 32.7406 17.0285 31.1192C18.6236 32.7406 21.2071 32.7406 22.8022 31.1192C24.396 29.499 24.396 26.8715 22.8022 25.2514C24.396 26.8715 26.9807 26.8715 28.5746 25.2514C30.1684 23.6312 30.1684 21.0037 28.5746 19.3836C30.1684 21.0037 32.7532 21.0037 34.347 19.3836C35.9421 17.7634 35.9421 15.136 34.347 13.5158L26.2086 5.24296C24.6148 3.62279 22.0301 3.62279 20.4362 5.24296C18.8424 6.86313 18.8424 9.49058 20.4362 11.1107L21.4564 12.1478C19.8625 10.5276 17.2778 10.5276 15.684 12.1478C14.0901 13.7679 14.0901 16.3954 15.684 18.0155L17.7243 20.0883C16.1305 18.4681 13.5457 18.4681 11.9519 20.0883C10.358 21.7085 10.358 24.3359 11.9519 25.9561L13.9922 28.0301C12.3984 26.4086 9.81363 26.4086 8.21979 28.0301C6.62596 29.6503 6.62596 32.2764 8.21979 33.8979L11.2561 36.9869Z" fill="#3F92D1"/>
<path d="M36.1101 2.4923C36.3912 2.20654 36.6901 1.94276 37.0005 1.69838L35.8862 0.565678C35.3061 -0.023945 34.4208 -0.168765 33.6881 0.203629L28.988 2.59186L32.5001 6.16322L36.1101 2.4923Z" fill="#3F92D1"/>
</g>
<defs>
<clipPath id="clip0">
<rect width="65" height="64" fill="white"/>
</clipPath>
</defs>
</svg>
