<svg width="543" height="541" viewBox="0 0 543 541" fill="none" xmlns="http://www.w3.org/2000/svg" class="technologies">
<circle cx="270.5" cy="270.5" r="270.5" fill="#C9E6F4"/>
<g clip-path="url(#clip0)">
<path class="line" opacity="0" d="M171.775 196.488H170.046V379.141H171.775V196.488Z" fill="#E0E0E0"/>
<path class="line" opacity="0" d="M295.716 196.488H293.986V379.141H295.716V196.488Z" fill="#E0E0E0"/>
<path class="line" opacity="0" d="M419.656 196.488H417.926V379.141H419.656V196.488Z" fill="#E0E0E0"/>
<path class="line" opacity="0" d="M76.703 174.029H47.0002V178.795H76.703V174.029Z" fill="#D9D9D9"/>
<path class="line" opacity="0" d="M89.1087 182.786H47V187.552H89.1087V182.786Z" fill="#D9D9D9"/>
<path class="line" opacity="0" d="M204.461 174.029H169.628V178.795H204.461V174.029Z" fill="#D9D9D9"/>
<path class="line" opacity="0" d="M191.935 182.786H169.628V187.552H191.935V182.786Z" fill="#D9D9D9"/>
<path class="line" opacity="0" d="M317.307 174.029H295.716V178.795H317.307V174.029Z" fill="#D9D9D9"/>
<path class="line" opacity="0" d="M320.886 182.786H295.716V187.552H320.886V182.786Z" fill="#D9D9D9"/>
<path class="line" opacity="0" d="M451.089 174.029H419.656V178.795H451.089V174.029Z" fill="#D9D9D9"/>
<path class="line" opacity="0" d="M444.826 182.786H419.656V187.552H444.826V182.786Z" fill="#D9D9D9"/>
<path  class="line" opacity="0" d="M190.683 389.984H170.94V396.358H190.683V389.984Z" fill="#B8B8B8"/>
<path class="line" opacity="0" d="M315.458 389.984H295.716V396.358H315.458V389.984Z" fill="#B8B8B8"/>
<path  class="line" opacity="0" d="M439.398 389.984H419.656V396.358H439.398V389.984Z" fill="#B8B8B8"/>
<g class="box" opacity="0">
<path opacity="0.32" d="M413.811 213.348H176.726C167.6 213.348 160.205 205.961 160.205 196.846V127.502C160.205 118.387 167.6 111 176.726 111H413.811C422.937 111 430.333 118.387 430.333 127.502V196.846C430.333 205.961 422.937 213.348 413.811 213.348Z" fill="url(#paint0_linear)"/>
<path class="circle"  style="transformOrigin: 50% 50%; transformBox: fill-box" d="M371.583 198.097C352.557 198.097 337.109 182.667 337.109 163.663C337.109 144.659 352.557 129.229 371.583 129.229C390.61 129.229 406.057 144.659 406.057 163.663C406.057 182.667 390.61 198.097 371.583 198.097ZM371.583 136.08C356.374 136.08 343.968 148.472 343.968 163.663C343.968 178.854 356.374 191.246 371.583 191.246C386.792 191.246 399.198 178.854 399.198 163.663C399.139 148.472 386.792 136.08 371.583 136.08Z" fill="url(#paint1_linear)"/>
<path d="M314.742 138.166H220.445V146.446H314.742V138.166Z" fill="white"/>
<path d="M314.742 159.493H234.342V167.774H314.742V159.493Z" fill="white"/>
<path d="M314.742 180.88H185.434V189.161H314.742V180.88Z" fill="white"/>
</g>

<g class="box" opacity="0">
<g opacity="0.74">
<path opacity="0.74" d="M398.005 341.967H287.664C282.952 341.967 279.135 338.155 279.135 333.448V233.126C279.135 228.42 282.952 224.607 287.664 224.607H398.065C402.777 224.607 406.594 228.42 406.594 233.126V333.508C406.534 338.155 402.717 341.967 398.005 341.967Z" fill="url(#paint2_linear)"/>
</g>
<path d="M337.526 312.121H294.225V317.006H337.526V312.121Z" fill="white"/>
<path d="M320.886 312.121H294.225V317.006H320.886V312.121Z" fill="#5BB1F7"/>
<path d="M361.742 322.546H294.225V327.431H361.742V322.546Z" fill="white"/>
<path d="M332.039 322.546H294.225V327.431H332.039V322.546Z" fill="#5BB1F7"/>
<path d="M391.325 319.806C391.325 325.406 386.792 329.993 381.126 329.993C375.52 329.993 370.927 325.466 370.927 319.806C370.927 314.206 375.46 309.619 381.126 309.619C386.733 309.619 391.325 314.147 391.325 319.806Z" fill="#5BB1F7"/>
<path d="M380.112 324.512L375.639 320.044L377.607 318.019L380.112 320.58L384.645 316.053L386.613 318.019L380.112 324.512Z" fill="white"/>
<filter id='inset-shadow' >
    <!-- Shadow offset -->
    <feOffset
            dx='0'
            dy='0'
          />
    <!-- Shadow blur -->
    <feGaussianBlur
            stdDeviation='0'
            result='offset-blur'
            class="box-shadow"
    >
      <!-- <animate attributeName="stdDeviation" calcMode="paced" begin="0s" dur="1" values="0;3" repeatCount="indefinite"/> -->
    </feGaussianBlur>
    <!-- Invert drop shadow to make an inset shadow-->
    <feComposite
            operator='out'
            in='SourceGraphic'
            in2='offset-blur'
            result='inverse'
          />
    <!-- Cut colour inside shadow -->
    <feFlood
            flood-color='black'
            flood-opacity='.95'
            result='color'
          />
    <feComposite
            operator='in'
            in='color'
            in2='inverse'
            result='shadow'
          />
    <!-- Placing shadow over element -->
    <feComposite
            operator='over'
            in='shadow'
            in2='SourceGraphic'
          />

  </filter>
<path d="M369.137 267.917L320.885 240.096V295.738L369.137 267.917Z" fill="url(#paint3_linear)" style="transformOrigin: 50% 50%; transformBox: fill-box" class="play" filter="url(#inset-shadow)"/>
</g>

<path d="M302.336 427.515C302.336 427.515 311.343 431.566 315.398 432.996C319.395 434.426 334.186 432.817 335.797 434.068C337.407 435.319 337.526 440.085 335.141 440.919C332.755 441.753 315.16 446.102 309.017 445.447C302.873 444.851 292.078 448.962 289.513 448.426C286.948 447.889 286.71 433.413 287.246 430.077C287.783 426.8 302.336 427.515 302.336 427.515Z" fill="#484E7D"/>
<path d="M300.309 421.677L302.396 427.456C302.396 427.456 291.541 431.328 287.306 430.077L285.875 424.179L300.309 421.677Z" fill="#EEA886"/>
<path d="M278.061 432.639C278.061 432.639 286.531 437.821 290.408 439.728C294.225 441.634 309.076 441.932 310.567 443.421C312.058 444.911 311.581 449.617 309.136 450.153C306.69 450.689 288.738 452.774 282.713 451.345C276.689 449.974 265.476 452.715 263.031 451.821C260.526 450.987 261.898 436.57 262.792 433.353C263.687 430.077 278.061 432.639 278.061 432.639Z" fill="#5B639E"/>
<path d="M276.809 426.622L278.061 432.639C278.061 432.639 266.848 435.081 262.733 433.354L261.957 427.277L276.809 426.622Z" fill="#EEA886"/>
<path d="M191.637 318.198C191.637 318.198 230.405 318.555 235.117 319.21C240.247 319.925 260.406 320.58 262.852 324.274C287.425 361.508 303.469 422.511 303.469 422.511L284.025 426.324C284.025 426.324 265.238 389.984 257.365 371.099C250.327 354.121 244.243 349.772 229.451 350.189C214.6 350.546 167.183 347.27 139.866 343.933L191.637 318.198Z" fill="#292C47"/>
<path d="M187.521 228.48C187.521 228.48 199.033 253.203 198.078 262.377C197.124 271.552 187.283 296.99 186.567 302.113C185.851 307.236 190.861 317.304 190.861 317.304L139.09 341.253C139.09 341.253 137.003 326.121 139.09 308.666C141.178 291.211 142.729 272.505 144.995 262.675C152.868 229.076 173.624 215.135 173.624 215.135L187.521 228.48Z" fill="#EB4747"/>
<path d="M190.921 317.304C190.921 317.304 229.69 317.661 234.402 318.317C239.531 319.032 260.168 319.389 262.136 323.38C276.212 351.797 279.373 427.575 279.373 427.575L261.242 429.779C261.242 429.779 252.355 391.295 249.551 373.005C246.748 354.657 243.289 352.035 228.437 352.393C213.586 352.75 155.493 367.584 139.091 341.253L190.921 317.304Z" fill="#323657"/>
<path d="M157.461 251.833C157.58 247.067 160.384 226.395 172.014 227.824C183.704 229.254 182.333 243.194 181.259 253.739C180.126 264.76 174.4 291.807 176.249 293.177C178.098 294.547 191.935 298.717 194.858 299.313C197.84 299.909 215.793 304.317 217.224 304.734C218.656 305.151 215.793 312.121 215.793 312.121C215.793 312.121 166.109 310.691 157.819 306.76C149.528 302.828 157.461 251.833 157.461 251.833Z" fill="#EEA886"/>
<path class="hand" d="M214.717 304.628C214.717 304.628 218.524 304.317 220.253 303.843C221.983 303.369 228.832 297.462 231.468 297.053C234.103 296.643 252.729 298.823 253.581 299.095C254.509 299.404 253.678 300.827 253.678 300.827L215.851 312.432L214.717 304.628Z" fill="#EEA886"/>
<path d="M266.707 314.168L200.972 311.515L200.729 317.527L266.464 320.18L266.707 314.168Z" fill="#807066"/>
<path d="M283.084 256.309L260.848 318.155L266.517 320.189L288.754 258.343L283.084 256.309Z" fill="#807066"/>
<path d="M217.701 189.578C217.701 189.578 218.954 199.706 216.21 200.123C213.944 200.48 214.719 210.25 214.719 211.799C214.719 213.348 210.425 212.812 209.291 213.348C208.099 213.884 201.538 223.595 198.198 222.641C194.858 221.688 182.452 211.084 180.125 205.484C177.799 199.884 181.795 180.225 187.462 173.493C193.068 166.761 215.435 171.825 217.701 189.578Z" fill="#EEA886"/>
<path d="M191.756 215.493C191.756 215.493 191.398 216.386 190.921 217.756C190.563 218.769 190.086 220.08 189.669 221.45C188.416 225.203 187.044 229.79 186.925 232.054C186.746 236.224 173.684 215.195 173.684 215.195C173.684 215.195 178.396 202.506 181.319 187.672C184.181 172.778 191.756 215.493 191.756 215.493Z" fill="#EEA886"/>
<path d="M217.88 191.723C217.88 191.723 226.051 184.455 220.266 174.506C214.48 164.497 194.44 170.216 192.531 170.038C190.623 169.799 180.603 166.642 178.634 185.944C176.666 205.246 177.919 202.327 177.919 202.327C177.919 202.327 182.869 194.046 186.328 195.357C189.847 196.667 195.991 197.322 195.991 197.322C195.991 197.322 196.11 188.327 201.18 189.042C206.25 189.697 213.884 188.148 217.88 191.723Z" fill="#434343"/>
<path d="M156.566 252.726L183.167 253.679C183.167 253.679 187.283 225.978 172.014 226.514C156.685 227.05 156.566 252.726 156.566 252.726Z" fill="#EB4747"/>
<path d="M192.83 190.888C192.83 189.637 193.367 184.514 188.297 185.646C183.287 186.837 186.269 198.037 186.925 198.454C187.581 198.871 192.71 201.314 192.83 190.888Z" fill="#EEA886"/>
<path d="M226.767 351.38H114.458V450.213H226.767V351.38Z" fill="#FAB46C"/>
<path d="M173.684 215.135C173.684 215.135 196.528 256.36 195.931 250.522C195.454 245.935 185.553 223.893 185.553 223.893L173.684 215.135Z" fill="#EEA886"/>
<path d="M190.921 217.756C190.563 218.769 190.086 220.08 189.669 221.45C185.076 215.731 181.855 209.237 180.901 207.212C182.81 210.667 190.921 217.756 190.921 217.756Z" fill="#A77860"/>
</g>
<defs>
<linearGradient id="paint0_linear" x1="160.213" y1="162.169" x2="430.358" y2="162.169" gradientUnits="userSpaceOnUse">
<stop stop-color="#40A9E6"/>
<stop offset="1" stop-color="#1FA9FF"/>
</linearGradient>
<linearGradient id="paint1_linear" x1="407.89" y1="50.0217" x2="342.213" y2="255.956" gradientUnits="userSpaceOnUse">
<stop stop-color="#40D5E6"/>
<stop offset="1" stop-color="#5577FF"/>
</linearGradient>
<linearGradient id="paint2_linear" x1="342.845" y1="350.196" x2="342.845" y2="151.585" gradientUnits="userSpaceOnUse">
<stop stop-color="#8EC3F9"/>
<stop offset="1" stop-color="#B8EBFF"/>
</linearGradient>
<linearGradient id="paint3_linear" x1="345.014" y1="186.173" x2="345.014" y2="336.216" gradientUnits="userSpaceOnUse">
<stop stop-color="#40D5E6"/>
<stop offset="1" stop-color="#5577FF"/>
</linearGradient>
<clipPath id="clip0">
<rect width="496" height="341" fill="white" transform="translate(47 111)"/>
</clipPath>
</defs>
</svg>
