<svg class="technologies" width="608" height="432" viewBox="0 0 608 432" fill="none" xmlns="http://www.w3.org/2000/svg" style="marginBottom: 10px">

<g clip-path="url(#clip01)">
<path d="M78.2597 390.994C48.2589 361.524 -56.551 301.532 39.9668 190.718C64.1477 162.944 94.1228 52.953 216.779 16.2893C339.435 -20.3745 444.219 6.39752 486.143 80.8041C532.341 162.79 704.132 267.052 535.225 382.798C469.095 428.12 150.828 462.266 78.2597 390.994Z" fill="#CAF0FF"/>
</g>
<g clip-path="url(#clip02)">
<path class="line" opacity="0" d="M213.952 148.466H212.386V313.978H213.952V148.466Z" fill="#E0E0E0"/>
<path class="line" opacity="0" d="M326.148 148.466H324.582V313.978H326.148V148.466Z" fill="#E0E0E0"/>
<path class="line" opacity="0" d="M438.344 148.466H436.778V313.978H438.344V148.466Z" fill="#E0E0E0"/>
<g class="line" opacity="0">
<path d="M127.888 128.114H101V132.433H127.888V128.114Z" fill="#D9D9D9"/>
<path d="M139.119 136.05H101V140.368H139.119V136.05Z" fill="#D9D9D9"/>
<path d="M243.54 128.114H212.008V132.433H243.54V128.114Z" fill="#D9D9D9"/>
</g>
<g class="line" opacity="0">
<path d="M232.201 136.05H212.008V140.368H232.201V136.05Z" fill="#D9D9D9"/>
<path d="M345.693 128.114H326.148V132.433H345.693V128.114Z" fill="#D9D9D9"/>
</g>
<g class="line" opacity="0">
<path d="M348.933 136.05H326.148V140.368H348.933V136.05Z" fill="#D9D9D9"/>
<path d="M466.798 128.114H438.344V132.433H466.798V128.114Z" fill="#D9D9D9"/>
</g>
<g class="line" opacity="0">
<path d="M461.129 136.05H438.344V140.368H461.129V136.05Z" fill="#D9D9D9"/>
<path d="M231.068 323.803H213.196V329.58H231.068V323.803Z" fill="#B8B8B8"/>
</g>
<g class="line" opacity="0">
<path d="M344.019 323.803H326.148V329.58H344.019V323.803Z" fill="#B8B8B8"/>
<path d="M456.215 323.803H438.344V329.58H456.215V323.803Z" fill="#B8B8B8"/>
</g>
<g opacity="0" class="wave">
<path opacity="0.43" d="M510.91 264.8C475.923 264.8 445.471 249.684 413.777 233.921C374.633 214.433 334.139 194.352 280.2 199.858C245.753 203.367 224.156 217.402 205.043 229.765C187.766 240.993 171.46 250.818 149.323 251.682C113.58 253.031 101.216 237.808 101 236.836V227.065C101.054 227.227 108.829 244.34 149.323 244.124C169.246 244.016 183.932 234.461 200.994 223.448C220.755 210.6 243.216 196.079 279.445 192.354C335.543 186.632 377.009 207.254 417.125 227.173C459.077 248.065 499.139 267.607 549.784 250.656V258.7C535.314 263.558 523.814 264.8 510.91 264.8Z" fill="url(#paint0_linear)"/>
</g>
<g opacity="0" class="wave">
<path opacity="0.22" d="M300.826 262.964C275.017 262.964 254.5 245.582 234.469 228.577C219.243 215.675 203.477 202.503 185.282 196.025C129.67 176.159 101.27 212.382 101 212.706V201.693C101.324 201.316 106.399 194.73 121.031 188.468C134.367 182.745 156.828 178.157 187.712 188.953C207.311 195.755 223.563 209.575 239.328 222.909C271.238 249.954 298.828 273.329 346.665 236.729C382.894 209.035 417.071 182.583 450.708 172.92C483.59 163.473 517.875 170.383 550 202.503L549.784 212.49C481.592 144.039 423.55 187.388 351.254 242.667C332.087 257.296 315.619 262.964 300.826 262.964Z" fill="url(#paint1_linear)"/>
</g>
<g class="box" opacity="0">
<path opacity="0.32" d="M433.053 163.743H218.433C210.173 163.743 203.478 157.049 203.478 148.79V85.9534C203.478 77.6939 210.173 71 218.433 71H433.053C441.314 71 448.009 77.6939 448.009 85.9534V148.79C448.009 157.049 441.314 163.743 433.053 163.743Z" fill="url(#paint2_linear)"/>
<path class="circle"  style="transformOrigin: 50% 50%; transformBox: fill-box"
 d="M394.826 149.923C377.603 149.923 363.619 135.942 363.619 118.721C363.619 101.5 377.603 87.5188 394.826 87.5188C412.05 87.5188 426.034 101.5 426.034 118.721C426.034 135.942 412.05 149.923 394.826 149.923ZM394.826 93.7269C381.058 93.7269 369.828 104.955 369.828 118.721C369.828 132.487 381.058 143.715 394.826 143.715C408.594 143.715 419.825 132.487 419.825 118.721C419.771 104.955 408.594 93.7269 394.826 93.7269Z" fill="url(#paint3_linear)"/>
<path d="M343.371 95.6162H258.01V103.12H343.371V95.6162Z" fill="white"/>
<path d="M343.371 114.942H270.59V122.446H343.371V114.942Z" fill="white"/>
<path d="M343.372 134.322H226.316V141.826H343.372V134.322Z" fill="white"/>
</g>

<g opacity="0" class="box">
<path opacity="0.74" d="M418.745 280.293H318.859C314.594 280.293 311.138 276.838 311.138 272.573V181.666C311.138 177.401 314.594 173.946 318.859 173.946H418.799C423.064 173.946 426.52 177.401 426.52 181.666V272.627C426.466 276.838 423.01 280.293 418.745 280.293Z" fill="url(#paint4_linear)"/>
<path  d="M363.997 253.247H324.798V257.674H363.997V253.247Z" fill="white"/>
<path class="stripe" style="transformOrigin: center left; transformBox: fill-box" d="M348.933 253.247H324.798V257.674H348.933V253.247Z" fill="#5BB1F7"/>
<path  d="M385.918 262.694H324.798V267.121H385.918V262.694Z" fill="white"/>
<path  class="stripe" style="transformOrigin: center left; transformBox: fill-box" d="M359.029 262.694H324.798V267.121H359.029V262.694Z" fill="#5BB1F7"/>
<path d="M412.698 260.211C412.698 265.286 408.594 269.443 403.465 269.443C398.39 269.443 394.232 265.34 394.232 260.211C394.232 255.137 398.336 250.98 403.465 250.98C408.54 250.98 412.698 255.083 412.698 260.211Z" fill="#5BB1F7"/>
<path d="M402.547 264.476L398.498 260.427L400.28 258.592L402.547 260.913L406.651 256.81L408.432 258.592L402.547 264.476Z" fill="white"/>
<filter id='inset-shadow' >
    <!-- Shadow offset -->
    <feOffset
            dx='0'
            dy='0'
          />
    <!-- Shadow blur -->
    <feGaussianBlur
            stdDeviation='0'
            result='offset-blur'
            class="box-shadow"
    >
      <!-- <animate attributeName="stdDeviation" calcMode="paced" begin="0s" dur="1" values="0;3" repeatCount="indefinite"/> -->
    </feGaussianBlur>
    <!-- Invert drop shadow to make an inset shadow-->
    <feComposite
            operator='out'
            in='SourceGraphic'
            in2='offset-blur'
            result='inverse'
          />
    <!-- Cut colour inside shadow -->
    <feFlood
            flood-color='black'
            flood-opacity='.95'
            result='color'
          />
    <feComposite
            operator='in'
            in='color'
            in2='inverse'
            result='shadow'
          />
    <!-- Placing shadow over element -->
    <feComposite
            operator='over'
            in='shadow'
            in2='SourceGraphic'
          />

  </filter>
<path style="transformOrigin: 50% 50%; transformBox: fill-box" class="play" d="M392.612 213.192L348.933 187.982V238.402L392.612 213.192Z" fill="url(#paint5_linear)" filter="url(#inset-shadow)"/>

</g>
<path d="M332.141 357.813C332.141 357.813 340.294 361.484 343.966 362.779C347.583 364.075 360.973 362.617 362.431 363.751C363.889 364.885 363.997 369.203 361.837 369.959C359.677 370.715 343.75 374.656 338.188 374.062C332.627 373.522 322.855 377.247 320.533 376.761C318.211 376.275 317.995 363.157 318.481 360.134C318.967 357.165 332.141 357.813 332.141 357.813Z" fill="#484E7D"/>
<path d="M330.306 352.523L332.195 357.759C332.195 357.759 322.369 361.268 318.535 360.134L317.24 354.79L330.306 352.523Z" fill="#EEA886"/>
<path d="M310.166 362.456C310.166 362.456 317.833 367.152 321.343 368.88C324.798 370.607 338.242 370.877 339.592 372.227C340.942 373.576 340.51 377.841 338.296 378.327C336.083 378.812 319.831 380.702 314.378 379.406C308.924 378.165 298.774 380.648 296.56 379.838C294.293 379.082 295.534 366.018 296.344 363.103C297.154 360.134 310.166 362.456 310.166 362.456Z" fill="#5B639E"/>
<path d="M309.032 357.003L310.166 362.456C310.166 362.456 300.016 364.669 296.29 363.103L295.588 357.597L309.032 357.003Z" fill="#EEA886"/>
<path d="M231.931 258.754C231.931 258.754 267.026 259.078 271.292 259.672C275.935 260.319 294.185 260.913 296.398 264.26C318.643 298 333.167 353.279 333.167 353.279L315.566 356.733C315.566 356.733 298.558 323.804 291.431 306.691C285.06 291.306 279.553 287.365 266.163 287.743C252.719 288.067 209.795 285.098 185.066 282.075L231.931 258.754Z" fill="#292C47"/>
<path d="M228.206 177.455C228.206 177.455 238.627 199.858 237.763 208.172C236.899 216.485 227.99 239.536 227.342 244.179C226.694 248.821 231.23 257.944 231.23 257.944L184.364 279.646C184.364 279.646 182.475 265.934 184.364 250.117C186.254 234.3 187.658 217.349 189.71 208.442C196.837 177.995 215.626 165.363 215.626 165.363L228.206 177.455Z" fill="#EB4747"/>
<path d="M231.284 257.944C231.284 257.944 266.379 258.268 270.644 258.862C275.287 259.51 293.969 259.834 295.75 263.45C308.493 289.2 311.354 357.867 311.354 357.867L294.941 359.864C294.941 359.864 286.896 324.991 284.358 308.418C281.82 291.792 278.689 289.416 265.245 289.74C251.801 290.064 199.212 303.506 184.364 279.645L231.284 257.944Z" fill="#323657"/>
<path d="M200.994 198.617C201.102 194.298 203.64 175.566 214.168 176.861C224.751 178.157 223.509 190.789 222.537 200.344C221.511 210.331 216.328 234.839 218.001 236.081C219.675 237.323 232.201 241.101 234.847 241.641C237.547 242.181 253.798 246.176 255.094 246.554C256.39 246.932 253.798 253.248 253.798 253.248C253.798 253.248 208.823 251.952 201.318 248.389C193.813 244.826 200.994 198.617 200.994 198.617Z" fill="#EEA886"/>
<path class="hand" d="M214.717 304.628C214.717 304.628 218.524 304.317 220.253 303.843C221.983 303.369 228.832 297.462 231.468 297.053C234.103 296.643 252.729 298.823 253.581 299.095C254.509 299.404 253.678 300.827 253.678 300.827L215.851 312.432L214.717 304.628Z" fill="#EEA886"/>
<path d="M299.888 255.102L240.382 252.698L240.162 258.146L299.668 260.55L299.888 255.102Z" fill="#807066"/>
<path d="M314.713 202.673L294.584 258.715L299.717 260.558L319.846 204.516L314.713 202.673Z" fill="#807066"/>
<path d="M255.526 142.204C255.526 142.204 256.66 151.381 254.176 151.759C252.124 152.083 252.826 160.936 252.826 162.34C252.826 163.743 248.939 163.258 247.913 163.743C246.833 164.229 240.894 173.029 237.87 172.165C234.847 171.301 223.616 161.692 221.511 156.618C219.405 151.543 223.023 133.729 228.152 127.629C233.227 121.529 253.474 126.117 255.526 142.204Z" fill="#EEA886"/>
<path d="M232.039 165.687C232.039 165.687 231.715 166.497 231.283 167.738C230.96 168.656 230.528 169.844 230.15 171.085C229.016 174.486 227.774 178.643 227.666 180.694C227.504 184.473 215.68 165.417 215.68 165.417C215.68 165.417 219.945 153.919 222.591 140.477C225.182 126.981 232.039 165.687 232.039 165.687Z" fill="#EEA886"/>
<path d="M255.688 144.147C255.688 144.147 263.085 137.561 257.848 128.546C252.611 119.477 234.469 124.659 232.741 124.497C231.014 124.282 221.943 121.42 220.161 138.911C218.379 156.402 219.513 153.756 219.513 153.756C219.513 153.756 223.995 146.253 227.126 147.44C230.312 148.628 235.873 149.222 235.873 149.222C235.873 149.222 235.981 141.07 240.57 141.718C245.16 142.312 252.071 140.908 255.688 144.147Z" fill="#434343"/>
<path d="M200.184 199.426L224.265 200.29C224.265 200.29 227.99 175.188 214.168 175.674C200.292 176.16 200.184 199.426 200.184 199.426Z" fill="#EB4747"/>
<path d="M233.011 143.392C233.011 142.258 233.497 137.615 228.908 138.641C224.372 139.721 227.072 149.87 227.666 150.247C228.26 150.625 232.903 152.839 233.011 143.392Z" fill="#EEA886"/>
<path d="M263.733 288.823H162.065V378.381H263.733V288.823Z" fill="#FAB46C"/>
<path d="M215.68 165.363C215.68 165.363 236.359 202.719 235.819 197.429C235.387 193.272 226.424 173.299 226.424 173.299L215.68 165.363Z" fill="#EEA886"/>
<path d="M231.284 167.738C230.96 168.656 230.528 169.843 230.15 171.085C225.993 165.903 223.077 160.019 222.213 158.183C223.941 161.314 231.284 167.738 231.284 167.738Z" fill="#A77860"/>
</g>
<defs>
<linearGradient id="paint0_linear" x1="101" y1="228.11" x2="549.769" y2="228.11" gradientUnits="userSpaceOnUse">
<stop stop-color="#FFC05C"/>
<stop offset="1" stop-color="#FF3857"/>
</linearGradient>
<linearGradient id="paint1_linear" x1="101" y1="215.969" x2="550.006" y2="215.969" gradientUnits="userSpaceOnUse">
<stop stop-color="#40D5E6"/>
<stop offset="1" stop-color="#5577FF"/>
</linearGradient>
<linearGradient id="paint2_linear" x1="203.486" y1="117.367" x2="448.032" y2="117.367" gradientUnits="userSpaceOnUse">
<stop stop-color="#40A9E6"/>
<stop offset="1" stop-color="#1FA9FF"/>
</linearGradient>
<linearGradient id="paint3_linear" x1="427.693" y1="15.744" x2="368.13" y2="202.318" gradientUnits="userSpaceOnUse">
<stop stop-color="#40D5E6"/>
<stop offset="1" stop-color="#5577FF"/>
</linearGradient>
<linearGradient id="paint4_linear" x1="368.811" y1="287.749" x2="368.811" y2="107.776" gradientUnits="userSpaceOnUse">
<stop stop-color="#8EC3F9"/>
<stop offset="1" stop-color="#B8EBFF"/>
</linearGradient>
<linearGradient id="paint5_linear" x1="370.775" y1="139.119" x2="370.775" y2="275.081" gradientUnits="userSpaceOnUse">
<stop stop-color="#40D5E6"/>
<stop offset="1" stop-color="#5577FF"/>
</linearGradient>
<clipPath id="clip01">
<rect width="608" height="432" fill="white"/>
</clipPath>
<clipPath id="clip02">
<rect width="449" height="309" fill="white" transform="translate(101 71)"/>
</clipPath>
</defs>
</svg>
