<svg width="48" height="48" viewBox="0 0 48 48" fill="none" xmlns="http://www.w3.org/2000/svg">
<path d="M0 24V48H24H48V24V0H24H0V24Z" fill="#007ACC"/>
<path d="M10.6146 24.1589L10.5994 26.1246L13.7232 26.1246H16.847V35.0008V43.877H19.0565H21.2661V35.0008V26.1246H24.3899H27.5137V24.197C27.5137 23.1303 27.4908 22.2389 27.4603 22.216C27.4375 22.1855 23.6356 22.1703 19.0261 22.1779L10.6375 22.2008L10.6146 24.1589Z" fill="white"/>
<path d="M38.731 22.1448C39.95 22.4495 40.8796 22.9905 41.7329 23.8743C42.1748 24.3467 42.83 25.2076 42.8834 25.4133C42.8986 25.4743 40.811 26.8762 39.5462 27.661C39.5005 27.6914 39.3176 27.4933 39.1119 27.1886C38.4948 26.2895 37.8472 25.901 36.8567 25.8324C35.4015 25.7333 34.4643 26.4952 34.4719 27.7676C34.4719 28.141 34.5253 28.3619 34.6776 28.6667C34.9976 29.3295 35.5919 29.7257 37.4586 30.5333C40.8948 32.0114 42.3653 32.9867 43.2796 34.3733C44.3005 35.92 44.5291 38.3886 43.8357 40.2248C43.0738 42.221 41.1843 43.5771 38.5253 44.0267C37.7024 44.1714 35.7519 44.1486 34.8681 43.9886C32.9405 43.6457 31.1119 42.6933 29.9843 41.4438C29.5424 40.9562 28.6815 39.6838 28.7348 39.5924C28.7576 39.5619 28.9557 39.44 29.1767 39.3105C29.39 39.1886 30.1976 38.7238 30.9596 38.2819L32.3386 37.4819L32.6281 37.9086C33.0319 38.5257 33.9157 39.3714 34.4491 39.6533C35.9805 40.461 38.0834 40.3467 39.1195 39.4171C39.5615 39.0133 39.7443 38.5943 39.7443 37.9771C39.7443 37.421 39.6757 37.1771 39.3862 36.7581C39.0129 36.2248 38.251 35.7752 36.0872 34.8381C33.611 33.7714 32.5443 33.1086 31.5691 32.0571C31.0053 31.4476 30.4719 30.4724 30.251 29.6571C30.0681 28.9791 30.0224 27.28 30.1672 26.5943C30.6776 24.2019 32.4834 22.5333 35.0891 22.0381C35.9348 21.8781 37.9005 21.9391 38.731 22.1448Z" fill="white"/>
</svg>
